<?xml version="1.0" encoding="UTF-8" standalone="no"?>
<svg
   xmlns:dc="http://purl.org/dc/elements/1.1/"
   xmlns:cc="http://creativecommons.org/ns#"
   xmlns:rdf="http://www.w3.org/1999/02/22-rdf-syntax-ns#"
   xmlns:svg="http://www.w3.org/2000/svg"
   xmlns="http://www.w3.org/2000/svg"
   viewBox="0 0 233.25999 35.726532"
   height="35.726532"
   width="233.25999"
   xml:space="preserve"
   id="svg2"
   version="1.1"><metadata
     id="metadata8"><rdf:RDF><cc:Work
         rdf:about=""><dc:format>image/svg+xml</dc:format><dc:type
           rdf:resource="http://purl.org/dc/dcmitype/StillImage" /></cc:Work></rdf:RDF></metadata><defs
     id="defs6"><clipPath
       id="clipPath18"
       clipPathUnits="userSpaceOnUse"><path
         id="path16"
         d="M 0,26.795 H 174.945 V 0 H 0 Z" /></clipPath></defs><g
     transform="matrix(1.3333333,0,0,-1.3333333,0,35.726533)"
     id="g10"><g
       id="g12"><g
         clip-path="url(#clipPath18)"
         id="g14"><g
           transform="translate(166.0986,15.0264)"
           id="g20"><path
             id="path22"
             style="fill:#000000;fill-opacity:1;fill-rule:nonzero;stroke:none"
             d="m 0,0 v -3.647 h 2.563 v -3.62 C 2.571,-7.59 2.554,-7.938 2.498,-8.218 c -0.102,-0.675 -0.743,-1.824 -2.562,-1.824 -1.809,0 -2.439,1.149 -2.548,1.824 -0.046,0.28 -0.066,0.628 -0.066,0.951 V 4.164 c 0,0.404 0.028,0.847 0.114,1.182 0.124,0.609 0.664,1.81 2.486,1.81 1.913,0 2.391,-1.266 2.5,-1.81 C 2.494,4.985 2.498,4.381 2.498,4.381 V 2.993 h 6.299 v 0.82 c 0,0 0.028,0.857 -0.048,1.656 -0.474,4.691 -4.339,6.176 -8.771,6.176 -4.441,0 -8.228,-1.499 -8.78,-6.176 C -8.852,5.041 -8.928,4.271 -8.928,3.813 V -6.701 c 0,-0.458 0.015,-0.813 0.1,-1.65 0.411,-4.562 4.365,-6.179 8.788,-6.179 4.45,0 8.377,1.617 8.795,6.179 0.074,0.837 0.082,1.192 0.092,1.65 l 0,6.701 z m -43.43,10.972 h -6.325 V -7.53 c 0.01,-0.323 0,-0.685 -0.056,-0.95 -0.131,-0.622 -0.658,-1.817 -2.403,-1.817 -1.723,0 -2.263,1.195 -2.385,1.817 -0.063,0.265 -0.071,0.627 -0.063,0.95 v 18.502 h -6.323 V -6.956 c -0.008,-0.462 0.028,-1.406 0.055,-1.653 0.437,-4.672 4.118,-6.189 8.716,-6.189 4.607,0 8.286,1.517 8.731,6.189 0.035,0.247 0.081,1.191 0.053,1.653 z m -58.117,0 -3.155,-19.55 -3.153,19.55 h -10.204 l -0.541,-25.01 h 6.251 l 0.169,23.152 4.301,-23.152 h 6.342 l 4.305,23.152 0.169,-23.152 h 6.267 l -0.559,25.01 z m -37.776,0 -4.633,-25.01 h 6.756 l 3.491,23.152 3.407,-23.152 h 6.709 l -4.613,25.01 z m 117.999,-20.136 -5.89,20.136 h -9.281 v -24.749 h 6.14 l -0.357,20.78 6.325,-20.78 h 8.902 v 24.749 h -6.18 z m -56.79,13.627 c -0.112,0.494 -0.079,1.018 -0.022,1.293 0.179,0.801 0.717,1.674 2.267,1.674 1.444,0 2.291,-0.901 2.291,-2.252 v -1.53 h 6.166 v 1.744 c 0,5.388 -4.831,6.235 -8.329,6.235 -4.405,0 -8.003,-1.452 -8.66,-5.507 -0.174,-1.103 -0.217,-2.083 0.059,-3.333 1.071,-5.056 9.873,-6.522 11.151,-9.72 0.225,-0.605 0.161,-1.378 0.045,-1.833 -0.191,-0.832 -0.75,-1.669 -2.41,-1.669 -1.556,0 -2.493,0.895 -2.493,2.244 l -0.002,2.4 h -6.637 v -1.908 c 0,-5.529 4.331,-7.197 8.995,-7.197 4.466,0 8.156,1.527 8.748,5.665 0.282,2.137 0.069,3.53 -0.044,4.054 -1.034,5.186 -10.415,6.745 -11.125,9.64 m -81.337,0.061 c -0.121,0.504 -0.093,1.037 -0.026,1.314 0.171,0.797 0.712,1.685 2.29,1.685 1.462,0 2.324,-0.909 2.324,-2.271 V 3.704 h 6.238 v 1.757 c 0,5.44 -4.905,6.308 -8.441,6.308 -4.443,0 -8.073,-1.475 -8.737,-5.559 -0.181,-1.121 -0.213,-2.107 0.05,-3.371 1.083,-5.113 9.972,-6.592 11.265,-9.827 0.242,-0.602 0.169,-1.374 0.049,-1.847 -0.206,-0.841 -0.77,-1.689 -2.443,-1.689 -1.562,0 -2.497,0.91 -2.497,2.277 l -0.009,2.406 h -6.711 v -1.912 c 0,-5.592 4.392,-7.273 9.092,-7.273 4.519,0 8.23,1.54 8.835,5.725 0.301,2.157 0.075,3.562 -0.026,4.094 -1.056,5.249 -10.541,6.804 -11.253,9.731" /></g></g></g></g></svg>