<?xml version="1.0" encoding="utf-8"?>
<!-- Generator: Adobe Illustrator 15.1.0, SVG Export Plug-In . SVG Version: 6.00 Build 0)  -->
<!DOCTYPE svg PUBLIC "-//W3C//DTD SVG 1.1//EN" "http://www.w3.org/Graphics/SVG/1.1/DTD/svg11.dtd">
<svg version="1.1" id="레이어_1" xmlns="http://www.w3.org/2000/svg" xmlns:xlink="http://www.w3.org/1999/xlink" x="0px"
	 y="0px" width="10.07px" height="13px" viewBox="0 0 10.07 13" enable-background="new 0 0 10.07 13" xml:space="preserve">
<desc>Note.</desc>
<g>
	<path fill="#9FA0A0" d="M8.559,4.936C8.531,4.975,8.494,4.999,8.451,5.007C8.405,5.014,8.364,5.004,8.33,4.977L4.675,2.398
		C4.634,2.371,4.611,2.333,4.6,2.289c-0.007-0.048,0.003-0.088,0.03-0.124l1.482-2.09c0.022-0.041,0.059-0.064,0.105-0.072
		c0.045-0.007,0.087,0.001,0.123,0.03L9.998,2.61c0.039,0.029,0.063,0.066,0.069,0.111c0.007,0.047-0.005,0.087-0.032,0.124
		L8.559,4.936z M3.777,11.527c0.093-0.039,0.146-0.061,0.163-0.061h0.013c0-0.012,0.006-0.018,0.018-0.018
		c0.014,0,0.016-0.006,0.008-0.014c0.003-0.012,0.012-0.023,0.023-0.041c0.007-0.012,0.02-0.023,0.03-0.043
		c0.012-0.018,0.024-0.033,0.036-0.055l4.039-5.719C8.135,5.541,8.146,5.5,8.136,5.454c-0.006-0.045-0.03-0.082-0.072-0.108
		L4.415,2.768C4.375,2.739,4.333,2.729,4.29,2.736C4.245,2.746,4.209,2.769,4.18,2.81L0.116,8.564c-0.03,0.037-0.051,0.07-0.067,0.1
		s-0.02,0.049-0.012,0.053C0.045,8.719,0.05,8.742,0.051,8.777c0.003,0.035,0.003,0.076,0.003,0.119L0,12.854
		c0,0.047,0.006,0.086,0.019,0.115c0.013,0.027,0.028,0.037,0.049,0.027c0.019-0.008,0.054-0.016,0.1-0.02
		c0.047-0.008,0.091-0.012,0.136-0.012h9.273c0.049,0,0.089-0.014,0.121-0.037c0.033-0.025,0.05-0.061,0.05-0.105
		c0-0.041-0.017-0.074-0.05-0.1c-0.031-0.023-0.072-0.039-0.121-0.039h-8.55c-0.044,0-0.07-0.008-0.073-0.02
		c-0.003-0.014,0.017-0.027,0.061-0.049L3.777,11.527z M3.455,9.402C3.442,9.373,3.429,9.338,3.422,9.305
		c-0.003-0.035-0.003-0.07,0-0.1C3.429,9.158,3.446,9.107,3.47,9.049c0.024-0.057,0.051-0.105,0.078-0.141l2.19-3.105
		c0.027-0.037,0.066-0.076,0.112-0.121C5.898,5.637,5.942,5.604,5.98,5.579c0.032-0.013,0.063-0.021,0.096-0.03
		c0.033-0.009,0.064-0.01,0.1-0.002C6.21,5.554,6.245,5.567,6.281,5.591C6.318,5.62,6.344,5.649,6.358,5.68
		c0.018,0.03,0.025,0.062,0.029,0.094c0.01,0.036,0.01,0.07,0,0.102C6.383,5.918,6.367,5.971,6.344,6.027
		c-0.024,0.058-0.05,0.105-0.08,0.142L4.072,9.275C4.043,9.311,4.008,9.352,3.961,9.395c-0.048,0.045-0.089,0.08-0.13,0.102
		C3.804,9.512,3.77,9.52,3.735,9.527c-0.029,0.01-0.061,0.012-0.096,0.008C3.603,9.531,3.567,9.514,3.53,9.484
		C3.495,9.461,3.469,9.436,3.455,9.402z M0.585,10.029c0-0.045,0.015-0.074,0.042-0.088c0.028-0.016,0.062-0.01,0.096,0.016
		l1.867,1.318c0.036,0.025,0.054,0.057,0.052,0.09c-0.001,0.027-0.025,0.053-0.07,0.066l-1.102,0.422
		c-0.043,0.021-0.095,0.027-0.15,0.02c-0.057-0.012-0.104-0.025-0.141-0.057l-0.498-0.35c-0.038-0.027-0.065-0.066-0.093-0.119
		c-0.024-0.049-0.037-0.096-0.033-0.145L0.585,10.029z"/>
</g>
</svg>
