<?xml version="1.0" encoding="utf-8"?>
<!-- Generator: Adobe Illustrator 23.0.3, SVG Export Plug-In . SVG Version: 6.00 Build 0)  -->
<svg version="1.1" id="Layer_1" xmlns="http://www.w3.org/2000/svg" xmlns:xlink="http://www.w3.org/1999/xlink" x="0px" y="0px"
	 viewBox="0 0 19.84 19.84" style="enable-background:new 0 0 19.84 19.84;" xml:space="preserve">
<style type="text/css">
	.st0{fill:none;stroke:#000000;stroke-miterlimit:10;}
	.st1{fill:none;stroke:#FFFFFF;stroke-miterlimit:10;}
</style>
<g>
	<path class="st1" d="M5.41,9.27c0,0,3.84-1.85,4.03-4.41c0,0,0.14-0.85-0.38-2.04c0,0-0.36-0.64,0.28-1.11c0,0,0.78-0.64,1.33-0.09
		c0,0,1.97,1.33,1.85,3.15l-0.09,1.37c0,0-0.26,1.07,0.64,1.07c0,0,2.53-0.14,3.88,0.5c0,0,1.85,0.45,1.47,2.11
		c0,0-0.81,3.98-1.82,6.56c0,0-0.5,1.23-1.68,1.3c0,0-3.13,0.12-5.35,0c0,0-2.79-0.14-4.14-0.66V9.27z"/>
	<path class="st1" d="M4.84,18.44H1.95c-0.31,0-0.57-0.25-0.57-0.57V9.37c0-0.31,0.25-0.57,0.57-0.57h2.89
		c0.31,0,0.57,0.25,0.57,0.57v8.51C5.41,18.19,5.15,18.44,4.84,18.44z"/>
</g>
</svg>
