<?xml version="1.0" encoding="utf-8"?>
<!-- Generator: Adobe Illustrator 24.0.1, SVG Export Plug-In . SVG Version: 6.00 Build 0)  -->
<svg version="1.1" id="레이어_1" xmlns="http://www.w3.org/2000/svg" xmlns:xlink="http://www.w3.org/1999/xlink" x="0px"
	 y="0px" viewBox="0 0 85 85" style="enable-background:new 0 0 85 85;" xml:space="preserve">
<style type="text/css">
	.st0{fill:#ED8460;}
	.st1{fill-rule:evenodd;clip-rule:evenodd;fill:#FFFFFF;}
</style>
<title>toc1_01</title>
<g>
	<g id="레이어_6_1_">
		<path class="st0" d="M42.5,0C19,0,0,19,0,42.5S19,85,42.5,85S85,66,85,42.5S66,0,42.5,0"/>
	</g>
	<path id="_xD83D__xDD39_-Icon-Color" class="st1" d="M42.5,51.9c-3.9,0-7-3.1-7-7s3.1-7,7-7s7,3.1,7,7S46.4,51.9,42.5,51.9z
		 M61.3,26.1c2.6,0,4.7,2.1,4.7,4.7v28.1c0,2.6-2.1,4.7-4.7,4.7H23.7c-2.6,0-4.7-2.1-4.7-4.7V30.8c0-2.6,2.1-4.7,4.7-4.7h7.4
		l2.9-3.2c0.9-1,2.2-1.5,3.5-1.5h9.9c1.3,0,2.6,0.6,3.4,1.5l2.9,3.2H61.3z M42.5,56.6c6.5,0,11.7-5.3,11.7-11.7S49,33.1,42.5,33.1
		s-11.7,5.3-11.7,11.7S36,56.6,42.5,56.6z"/>
</g>
</svg>
