<?xml version="1.0" standalone="no"?>
<!DOCTYPE svg PUBLIC "-//W3C//DTD SVG 1.1//EN" "http://www.w3.org/Graphics/SVG/1.1/DTD/svg11.dtd" >
<svg xmlns="http://www.w3.org/2000/svg" xmlns:xlink="http://www.w3.org/1999/xlink" version="1.1">
<metadata>
Created by FontForge 20170731 at Thu Apr 14 10:25:54 2016
 By Aleksey,,,
Copyright (c) 2016 by Hannes von Doehren. All rights reserved.
</metadata>
<defs>
<font id="GenesisSansText-BoldItalic" horiz-adv-x="560" >
  <font-face 
    font-family="Genesis Sans Text"
    font-weight="700"
    font-style="italic"
    font-stretch="normal"
    units-per-em="1000"
    panose-1="2 11 8 4 4 0 0 0 0 0"
    ascent="750"
    descent="-250"
    x-height="512"
    cap-height="680"
    bbox="-523 -271 1167 959"
    underline-thickness="90"
    underline-position="-270"
    slope="-12"
    unicode-range="U+000D-FEFF"
  />
<missing-glyph horiz-adv-x="579" 
d="M595 710l-157 -740h-415l157 740h415zM386 33l131 614h-284l-131 -614h284z" />
    <glyph glyph-name=".notdef" horiz-adv-x="579" 
d="M595 710l-157 -740h-415l157 740h415zM386 33l131 614h-284l-131 -614h284z" />
    <glyph glyph-name=".null" horiz-adv-x="0" 
 />
    <glyph glyph-name="nonmarkingreturn" horiz-adv-x="333" 
 />
    <glyph glyph-name="CR" unicode="&#xd;" horiz-adv-x="205" 
 />
    <glyph glyph-name="space" unicode=" " horiz-adv-x="205" 
 />
    <glyph glyph-name="exclam" unicode="!" horiz-adv-x="284" 
d="M96 231l59 449h157l-133 -449h-83zM47 150h156l-32 -150h-156z" />
    <glyph glyph-name="quotedbl" unicode="&#x22;" horiz-adv-x="432" 
d="M195 402h-95l35 278h144zM393 402h-95l35 278h144z" />
    <glyph glyph-name="numbersign" unicode="#" horiz-adv-x="611" 
d="M232 0l67 155h-110l-67 -155h-109l67 155h-63l20 93h83l69 158h-78l19 93h99l68 157h109l-68 -157h111l69 157h109l-69 -157h69l-19 -93h-90l-69 -158h85l-20 -93h-106l-67 -155h-109zM298 406l-69 -158h111l69 158h-111z" />
    <glyph glyph-name="dollar" unicode="$" 
d="M443 758l-22 -106q80 -33 120 -117l-97 -56q-22 43 -56 66l-34 -160l2 -1q32 -16 55.5 -31t48 -38t37.5 -53t13 -66q0 -88 -63.5 -146t-167.5 -62l-20 -95h-104l23 106q-106 34 -163 169l99 50q38 -93 101 -116l40 189l-31 16q-114 59 -114 175q0 78 56 131.5t154 56.5
l19 88h104zM378 176q0 44 -52 78l-34 -160q40 6 63 29t23 53zM242 496q-1 -45 41 -74l30 141q-34 -3 -52 -21t-19 -46z" />
    <glyph glyph-name="percent" unicode="%" horiz-adv-x="843" 
d="M271 0h-107l443 656h106zM176 483q0 -28 16.5 -45.5t44.5 -17.5q36 0 62.5 28.5t26.5 67.5q0 28 -16 45.5t-45 17.5q-36 0 -62.5 -29t-26.5 -67zM423 522q0 -78 -56.5 -133.5t-135.5 -55.5q-68 0 -110 41.5t-42 102.5q0 78 56.5 133.5t136.5 55.5q67 0 109 -41.5
t42 -102.5zM551 136q0 -28 16.5 -45.5t44.5 -17.5q36 0 62.5 28.5t26.5 67.5q0 28 -16 45.5t-45 17.5q-36 0 -62.5 -29t-26.5 -67zM798 175q0 -78 -56.5 -133.5t-135.5 -55.5q-68 0 -110 41.5t-42 102.5q0 78 56.5 133.5t136.5 55.5q67 0 109 -41.5t42 -102.5z" />
    <glyph glyph-name="ampersand" unicode="&#x26;" horiz-adv-x="648" 
d="M621 306l-125 -147l103 -156v-3h-144l-43 66q-86 -80 -189 -80q-92 0 -145.5 52.5t-53.5 131.5q0 143 178 227q-30 53 -30 107q0 81 53 135.5t146 54.5q78 0 125 -42t47 -107q0 -123 -174 -192l66 -101l107 122zM237 92q54 0 116 67l-95 150q-105 -50 -105 -132
q0 -39 22.5 -62t61.5 -23zM297 507q0 -36 16 -68l7 3q98 36 98 98q0 22 -13 36t-38 14q-32 0 -51 -24.5t-19 -58.5z" />
    <glyph glyph-name="quotesingle" unicode="'" horiz-adv-x="234" 
d="M195 402h-95l35 278h144z" />
    <glyph glyph-name="parenleft" unicode="(" horiz-adv-x="326" 
d="M347 705l50 -73q-116 -88 -178.5 -219.5t-62.5 -272.5q0 -153 70 -267l-68 -56q-53 49 -91 134t-38 193q0 166 86.5 319t231.5 242z" />
    <glyph glyph-name="parenright" unicode=")" horiz-adv-x="325" 
d="M-17 -183l-50 73q116 88 178.5 219.5t62.5 272.5q0 153 -70 267l68 56q53 -49 91 -134t38 -193q0 -166 -86.5 -319t-231.5 -242z" />
    <glyph glyph-name="asterisk" unicode="*" horiz-adv-x="426" 
d="M431 597l20 -91l-67 -17q-53 -13 -62 -10l-1 -4q7 -3 34 -51l32 -58l-85 -47l-21 52q-23 55 -21 65h-4q-2 -9 -40 -55l-52 -62l-70 57l54 58q38 42 49 46l-1 3q-9 -2 -66 15l-45 13l40 94l53 -23q50 -23 54 -30l4 2q-5 9 4 62l10 64h102l-16 -59q-18 -63 -23 -68l2 -3
q7 8 67 29z" />
    <glyph glyph-name="plus" unicode="+" 
d="M497 248h-159l-39 -183h-117l39 183h-158l23 108h158l39 185h117l-39 -185h159z" />
    <glyph glyph-name="comma" unicode="," horiz-adv-x="266" 
d="M-4 -158l87 158h-73l32 153h155l-29 -136l-97 -175h-75z" />
    <glyph glyph-name="hyphen" unicode="-" horiz-adv-x="382" 
d="M59 251l22 104h264l-22 -104h-264z" />
    <glyph glyph-name="period" unicode="." horiz-adv-x="265" 
d="M41 153h156l-33 -153h-156z" />
    <glyph glyph-name="slash" unicode="/" horiz-adv-x="463" 
d="M-25 0l414 680h138l-414 -680h-138z" />
    <glyph glyph-name="zero" unicode="0" horiz-adv-x="613" 
d="M278 -14q-107 0 -164.5 65.5t-57.5 174.5q0 125 35 224.5t106.5 159.5t169.5 60q107 0 165 -66t58 -175q0 -125 -35.5 -224t-107 -159t-169.5 -60zM286 98q70 0 120.5 80.5t50.5 245.5q0 134 -97 134q-70 0 -120.5 -80.5t-50.5 -246.5q0 -133 97 -133z" />
    <glyph glyph-name="one" unicode="1" horiz-adv-x="391" 
d="M256 0h-129l108 512l-135 -58l-33 99l234 103h94z" />
    <glyph glyph-name="two" unicode="2" horiz-adv-x="511" 
d="M192 470l-95 49q73 151 211 151q93 0 143.5 -50t50.5 -123q0 -62 -24 -115t-64 -91t-80.5 -67.5t-85 -61t-66.5 -55.5h255l-23 -107h-426l19 91q37 55 104 111.5t121 93t95.5 87.5t41.5 104q0 71 -70 71q-65 0 -107 -88z" />
    <glyph glyph-name="three" unicode="3" horiz-adv-x="519" 
d="M212 -14q-48 0 -86 11.5t-62 32t-38.5 41t-26.5 46.5l97 64q12 -25 22.5 -40t36 -29t60.5 -14q51 0 84.5 30.5t33.5 82.5q0 78 -100 78h-48l22 105h48q53 0 80.5 29t27.5 69q0 32 -19 49t-53 17q-70 0 -118 -66l-72 78q76 100 194 100q97 0 149 -44.5t52 -119.5
q0 -51 -31.5 -96t-83.5 -68q85 -38 85 -130q0 -99 -76 -162.5t-178 -63.5z" />
    <glyph glyph-name="four" unicode="4" horiz-adv-x="573" 
d="M545 268l-23 -106h-95l-34 -162h-129l34 162h-295l18 87l342 407h169l-82 -388h95zM321 268l33 153q19 88 31 116h-4q-16 -32 -73 -102l-135 -167h148z" />
    <glyph glyph-name="five" unicode="5" horiz-adv-x="514" 
d="M492 549h-230l-33 -108q32 8 62 8q74 0 127.5 -52.5t53.5 -142.5q0 -117 -71.5 -192.5t-192.5 -75.5q-79 0 -131.5 37t-77.5 94l97 64q38 -83 116 -83q56 0 91.5 41t35.5 105q0 43 -25.5 68.5t-67.5 25.5q-53 0 -96 -38l-74 24l97 332h342z" />
    <glyph glyph-name="six" unicode="6" horiz-adv-x="573" 
d="M579 554l-92 -66q-13 31 -42.5 50.5t-65.5 19.5q-113 0 -167 -166q58 50 133 50q78 0 129.5 -52.5t51.5 -134.5q0 -114 -77.5 -191.5t-187.5 -77.5q-102 0 -155 64t-53 165q0 195 92.5 325t237.5 130q72 0 123 -31t73 -85zM185 186q0 -40 21 -64t63 -24q56 0 90 43
t34 104q0 39 -21 63.5t-61 24.5q-57 0 -91.5 -43t-34.5 -104z" />
    <glyph glyph-name="seven" unicode="7" horiz-adv-x="468" 
d="M526 656l-18 -87l-310 -569h-144l1 3l301 546h-274l22 107h422z" />
    <glyph glyph-name="eight" unicode="8" horiz-adv-x="572" 
d="M248 -14q-108 0 -164.5 51.5t-56.5 127.5q0 67 43.5 122.5t109.5 73.5q-60 37 -60 112q0 80 62.5 138.5t172.5 58.5q95 0 144.5 -44t49.5 -112q0 -53 -30 -96.5t-85 -68.5q40 -16 62.5 -52t22.5 -81q0 -98 -69.5 -164t-201.5 -66zM290 299q-63 0 -95.5 -36.5t-32.5 -87.5
q0 -35 23.5 -57t71.5 -22q62 0 95.5 36t33.5 87q0 35 -24 57.5t-72 22.5zM348 563q-42 0 -68.5 -26.5t-26.5 -68.5q0 -28 18.5 -45t51.5 -17q40 0 66.5 27.5t26.5 68.5q0 29 -18 45t-50 16z" />
    <glyph glyph-name="nine" unicode="9" horiz-adv-x="573" 
d="M28 102l92 66q13 -31 42.5 -50.5t65.5 -19.5q113 0 167 166q-58 -50 -133 -50q-78 0 -129.5 52.5t-51.5 134.5q0 114 77.5 191.5t187.5 77.5q102 0 155 -64t53 -165q0 -195 -92.5 -325t-237.5 -130q-72 0 -123 31t-73 85zM422 470q0 40 -21 64t-63 24q-56 0 -90 -43
t-34 -104q0 -39 21 -63.5t61 -24.5q57 0 91.5 43t34.5 104z" />
    <glyph glyph-name="colon" unicode=":" horiz-adv-x="276" 
d="M115 518h152l-32 -149h-152zM45 149h152l-32 -149h-152z" />
    <glyph glyph-name="semicolon" unicode=";" horiz-adv-x="276" 
d="M-12 -153l94 153h-68l31 148h151l-28 -132l-107 -169h-73zM115 518h152l-32 -149h-152z" />
    <glyph glyph-name="less" unicode="&#x3c;" 
d="M547 543l-25 -120l-227 -92q-92 -35 -111 -34v-4q23 -1 108 -43l175 -85l-22 -104l-394 190l22 102z" />
    <glyph glyph-name="equal" unicode="=" 
d="M38 130l23 108h434l-23 -108h-434zM86 367l23 108h434l-23 -108h-434z" />
    <glyph glyph-name="greater" unicode="&#x3e;" 
d="M36 61l25 120l227 92q91 35 111 35v4q-22 0 -108 42l-175 85l22 104l394 -190l-22 -102z" />
    <glyph glyph-name="question" unicode="?" horiz-adv-x="457" 
d="M293 694q87 0 137 -43.5t50 -111.5q0 -102 -126 -192l-46 -34q-27 -20 -37.5 -36t-16.5 -46h-115q-10 39 13.5 83.5t68.5 79.5l45 34q71 50 71 98q0 24 -14.5 38.5t-42.5 14.5q-27 0 -50.5 -20t-37.5 -56l-101 49q67 142 202 142zM109 150h155l-32 -150h-155z" />
    <glyph glyph-name="at" unicode="@" horiz-adv-x="904" 
d="M529 718q159 0 254 -93.5t95 -236.5q0 -166 -74 -259.5t-165 -93.5q-93 0 -116 69q-50 -68 -129 -68q-70 0 -113.5 49.5t-43.5 125.5q0 117 64 195.5t150 78.5q38 0 66.5 -17.5t38.5 -45.5l12 56h123l-59 -273q-8 -32 -3.5 -48t25.5 -16q39 0 73 67.5t34 176.5t-62 173
t-175 64q-157 0 -263.5 -128t-106.5 -318q0 -121 61 -189t170 -68q73 0 145 37l36 -84q-90 -49 -186 -49q-154 0 -248 98t-94 255q0 233 141 387.5t350 154.5zM431 142q43 0 76 60l25 119q-4 27 -20 42.5t-38 15.5q-42 0 -72.5 -44.5t-30.5 -110.5q0 -38 16.5 -60t43.5 -22z
" />
    <glyph glyph-name="A" unicode="A" horiz-adv-x="627" 
d="M324 680h163l87 -680h-141l-15 146h-245l-76 -146h-150zM335 455l-104 -199h176l-20 200q-7 79 -2 107h-4q-5 -23 -46 -108z" />
    <glyph glyph-name="B" unicode="B" horiz-adv-x="625" 
d="M174 680h221q90 0 141.5 -42.5t51.5 -110.5q0 -55 -29.5 -98.5t-81.5 -70.5q102 -40 102 -140q0 -97 -67.5 -157.5t-185.5 -60.5h-297zM188 106h126q58 0 91 33t33 83q0 72 -83 72h-126zM251 400h74q62 0 90 31t28 77q0 66 -81 66h-74z" />
    <glyph glyph-name="C" unicode="C" horiz-adv-x="650" 
d="M56 260q0 184 105.5 309t267.5 125q94 0 159.5 -49.5t84.5 -140.5l-120 -37q-8 51 -44 81t-85 30q-108 0 -166.5 -92t-58.5 -219q0 -76 33.5 -120.5t101.5 -44.5q114 0 166 115l114 -53q-50 -94 -119 -136t-165 -42q-127 0 -200.5 78.5t-73.5 195.5z" />
    <glyph glyph-name="D" unicode="D" horiz-adv-x="681" 
d="M174 680h214q132 0 205 -67.5t73 -177.5q0 -187 -105 -311t-282 -124h-250zM372 570h-85l-98 -460h95q111 0 175 90.5t64 219.5q0 150 -151 150z" />
    <glyph glyph-name="E" unicode="E" horiz-adv-x="561" 
d="M174 680h428l-24 -110h-291l-36 -171h253l-23 -110h-254l-38 -179h300l-23 -110h-437z" />
    <glyph glyph-name="F" unicode="F" horiz-adv-x="539" 
d="M174 680h421l-24 -110h-284l-38 -178h253l-23 -110h-253l-60 -282h-137z" />
    <glyph glyph-name="G" unicode="G" horiz-adv-x="684" 
d="M56 263q0 179 106.5 305t268.5 126q101 0 164 -42.5t91 -114.5l-111 -55q-39 96 -147 96q-58 0 -104 -28t-72 -73.5t-39.5 -99t-13.5 -109.5q0 -76 35 -121t107 -45q79 0 137 44l25 117h-130l23 110h267l-63 -289q-124 -98 -269 -98q-128 0 -201.5 78t-73.5 199z" />
    <glyph glyph-name="H" unicode="H" horiz-adv-x="709" 
d="M174 680h137l-60 -281h271l60 281h137l-145 -680h-137l61 289h-271l-61 -289h-137z" />
    <glyph glyph-name="I" unicode="I" horiz-adv-x="301" 
d="M174 680h137l-145 -680h-137z" />
    <glyph glyph-name="J" unicode="J" horiz-adv-x="513" 
d="M-17 143l112 46q26 -87 90 -87q49 0 74 34.5t40 105.5l93 438h137l-93 -438q-54 -256 -252 -256q-84 0 -133.5 45t-67.5 112z" />
    <glyph glyph-name="K" unicode="K" horiz-adv-x="615" 
d="M174 680h137l-63 -293l271 293h165v-3l-287 -287l172 -387v-3h-142l-124 296l-94 -94l-43 -202h-137z" />
    <glyph glyph-name="L" unicode="L" horiz-adv-x="515" 
d="M174 680h137l-122 -570h281l-23 -110h-418z" />
    <glyph glyph-name="M" unicode="M" horiz-adv-x="870" 
d="M356 680l51 -429q8 -65 3 -103h4q6 36 43 103l229 429h194l-145 -680h-137l73 342q30 140 37 155h-4q-16 -47 -70 -148l-188 -349h-126l-40 349q-13 106 -10 148h-4q0 -31 -27 -155l-73 -342h-137l145 680h182z" />
    <glyph glyph-name="N" unicode="N" horiz-adv-x="725" 
d="M174 680h124l171 -387q26 -59 29 -97h4q-2 29 17 113l79 371h137l-145 -680h-121l-174 387q-27 59 -29 98h-4q2 -30 -17 -114l-79 -371h-137z" />
    <glyph glyph-name="O" unicode="O" horiz-adv-x="718" 
d="M425 694q127 0 201.5 -78t74.5 -195q0 -121 -46.5 -220t-131.5 -157t-192 -58q-126 0 -200.5 78t-74.5 196q0 184 104.5 309t264.5 125zM421 578q-104 0 -163 -92.5t-59 -218.5q0 -76 34.5 -120.5t101.5 -44.5q105 0 164 92.5t59 218.5q0 75 -35 120t-102 45z" />
    <glyph glyph-name="P" unicode="P" horiz-adv-x="579" 
d="M600 500q0 -114 -77 -178.5t-195 -64.5h-107l-55 -257h-137l145 680h214q95 0 153.5 -48.5t58.5 -131.5zM456 492q0 78 -86 78h-83l-43 -203h78q59 0 96.5 31.5t37.5 93.5z" />
    <glyph glyph-name="Q" unicode="Q" horiz-adv-x="718" 
d="M701 421q0 -103 -34.5 -191.5t-97.5 -148.5l112 -165l-108 -72l-106 169q-67 -27 -136 -27q-126 0 -200.5 78t-74.5 196q0 184 104.5 309t264.5 125q127 0 201.5 -78t74.5 -195zM199 267q0 -76 34.5 -120.5t101.5 -44.5q105 0 164 92.5t59 218.5q0 75 -35 120t-102 45
q-104 0 -163 -92.5t-59 -218.5z" />
    <glyph glyph-name="R" unicode="R" horiz-adv-x="629" 
d="M442 0l-158 277h-59l-59 -277h-137l145 680h235q89 0 145 -50t56 -125q0 -85 -52 -144.5t-137 -77.5l172 -280v-3h-151zM248 387h101q56 0 87 30.5t31 80.5q0 72 -79 72h-101z" />
    <glyph glyph-name="S" unicode="S" horiz-adv-x="563" 
d="M273 -14q-180 0 -260 189l105 53q25 -61 62 -95.5t97 -34.5q51 0 82 26t31 63q0 36 -23.5 59.5t-80.5 48.5l-52 23q-125 55 -125 176q0 86 60.5 143t166.5 57q72 0 127 -37t85 -102l-103 -59q-20 41 -50.5 63.5t-62.5 22.5q-36 0 -59 -20t-23 -50q0 -28 16 -48t55 -37
l50 -22q71 -31 115.5 -77t44.5 -123q0 -98 -71 -158.5t-187 -60.5z" />
    <glyph glyph-name="T" unicode="T" horiz-adv-x="533" 
d="M270 570h-184l23 110h497l-23 -110h-176l-122 -570h-137z" />
    <glyph glyph-name="U" unicode="U" horiz-adv-x="676" 
d="M304 -14q-96 0 -154 37t-74.5 96t-0.5 134l92 427h137l-91 -422q-35 -156 95 -156q125 0 158 156l90 422h137l-92 -433q-25 -119 -100 -190t-197 -71z" />
    <glyph glyph-name="V" unicode="V" horiz-adv-x="624" 
d="M93 680h137l49 -461q6 -54 3 -108h4q10 57 41 116l242 453h146l-374 -680h-163z" />
    <glyph glyph-name="W" unicode="W" horiz-adv-x="921" 
d="M97 680h135l10 -409q2 -87 -3 -124h4q8 47 43 123l190 410h142l15 -410q3 -87 1 -123h4q3 43 38 124l183 409h147l-318 -680h-152l-14 425q-3 87 1 122h-4q-8 -41 -45 -122l-195 -425h-154z" />
    <glyph glyph-name="X" unicode="X" horiz-adv-x="615" 
d="M-44 3l293 353l-149 321v3h149l99 -232l178 232h155v-3l-271 -332l157 -342v-3h-147l-108 252l-198 -252h-158v3z" />
    <glyph glyph-name="Y" unicode="Y" horiz-adv-x="589" 
d="M91 677v3h144l90 -259l196 259h161v-3l-311 -385l-62 -292h-137l64 302z" />
    <glyph glyph-name="Z" unicode="Z" horiz-adv-x="543" 
d="M6 93l379 477h-275l24 110h451l-20 -93l-383 -477h299l-23 -110h-472z" />
    <glyph glyph-name="bracketleft" unicode="[" horiz-adv-x="331" 
d="M392 680l-20 -93h-104l-140 -660h104l-20 -93h-223l180 846h223z" />
    <glyph glyph-name="backslash" unicode="\" horiz-adv-x="549" 
d="M108 680h127l244 -680h-127z" />
    <glyph glyph-name="bracketright" unicode="]" horiz-adv-x="330" 
d="M102 587l20 93h223l-180 -846h-223l20 93h104l140 660h-104z" />
    <glyph glyph-name="asciicircum" unicode="^" 
d="M323 680h102l109 -306l-114 -2l-34 96q-29 84 -25 104h-4q-2 -19 -56 -90l-85 -110l-132 2z" />
    <glyph glyph-name="underscore" unicode="_" horiz-adv-x="446" 
d="M-83 -142l21 100h446l-21 -100h-446z" />
    <glyph glyph-name="grave" unicode="`" horiz-adv-x="673" 
d="M546 586l-1 -3h-94l-96 151l1 3h127z" />
    <glyph glyph-name="a" unicode="a" horiz-adv-x="535" 
d="M169 -14q-76 0 -117.5 39t-41.5 103q0 81 58.5 135.5t150.5 54.5q81 0 129 -45l7 34q11 51 -9.5 81.5t-76.5 30.5q-64 0 -113 -53l-64 86q78 74 189 74q120 0 173 -63.5t34 -155.5l-66 -307h-123l8 37q-62 -51 -138 -51zM219 79q58 0 96 45l13 60q-29 41 -88 41
q-45 0 -69 -25t-24 -58q0 -27 17.5 -45t54.5 -18z" />
    <glyph glyph-name="b" unicode="b" horiz-adv-x="600" 
d="M296 -14q-95 0 -140 77l-13 -63h-130l151 710h134l-52 -242q63 58 135 58q82 0 134.5 -57.5t52.5 -147.5q0 -147 -78.5 -241t-193.5 -94zM273 95q67 0 113 55.5t46 153.5q0 55 -25 84t-67 29q-32 0 -66 -22.5t-56 -59.5l-35 -165q7 -34 32.5 -54.5t57.5 -20.5z" />
    <glyph glyph-name="c" unicode="c" horiz-adv-x="521" 
d="M35 197q0 144 80.5 237t207.5 93q72 0 124.5 -42.5t62.5 -112.5l-106 -32q-6 36 -28.5 57t-57.5 21q-70 0 -108.5 -63.5t-38.5 -148.5q0 -51 22.5 -81t67.5 -30q74 0 116 78l100 -46q-73 -141 -224 -141q-102 0 -160 59t-58 152z" />
    <glyph glyph-name="d" unicode="d" horiz-adv-x="600" 
d="M218 -14q-82 0 -132.5 57.5t-50.5 148.5q0 147 79 240.5t194 93.5q91 0 135 -72l55 256h134l-151 -710h-128l12 55q-66 -69 -147 -69zM263 95q32 0 65.5 21.5t55.5 58.5l35 166q-7 35 -32.5 55.5t-57.5 20.5q-65 0 -111.5 -55.5t-46.5 -152.5q0 -56 25 -85t67 -29z" />
    <glyph glyph-name="e" unicode="e" horiz-adv-x="548" 
d="M256 -14q-99 0 -160 60.5t-61 151.5q0 144 85.5 236t198.5 92q93 0 149.5 -56.5t56.5 -142.5q0 -50 -18 -106h-340v-9q0 -54 26 -86.5t77 -32.5q75 0 130 71l80 -70q-88 -108 -224 -108zM314 423q-47 0 -81.5 -30.5t-51.5 -81.5h216q8 56 -14.5 84t-68.5 28z" />
    <glyph glyph-name="f" unicode="f" horiz-adv-x="350" 
d="M141 415h-82l21 97h82l7 34q18 84 63 130t134 46q39 0 66 -6l-22 -101h-17q-40 0 -61 -15.5t-28 -52.5l-7 -35h91l-21 -97h-91l-88 -415h-135z" />
    <glyph glyph-name="g" unicode="g" horiz-adv-x="591" 
d="M221 34q-79 0 -129 55t-50 142q0 130 74 212.5t179 82.5q96 0 138 -75l13 61h134l-98 -465q-23 -112 -96.5 -173t-169.5 -61q-156 0 -213 124l93 57q20 -38 46.5 -57t71.5 -19q41 0 80.5 32t51.5 94l10 48q-61 -58 -135 -58zM261 143q32 0 66 20.5t56 55.5l26 121
q-7 35 -32 56t-57 21q-58 0 -100 -47t-42 -128q0 -48 23 -73.5t60 -25.5z" />
    <glyph glyph-name="h" unicode="h" horiz-adv-x="583" 
d="M334 0l65 307q12 52 -6.5 81t-58.5 29q-67 0 -113 -73l-73 -344h-135l151 710h135l-52 -241q64 57 140 57q89 0 128.5 -61t19.5 -155l-66 -310h-135z" />
    <glyph glyph-name="i" unicode="i" horiz-adv-x="267" 
d="M122 512h135l-109 -512h-135zM159 723h145l-27 -126h-145z" />
    <glyph glyph-name="j" unicode="j" horiz-adv-x="268" 
d="M-19 -191l-65 96q32 24 49 39t34.5 42.5t24.5 60.5l99 465h135l-102 -477q-18 -85 -62.5 -137t-112.5 -89zM161 723h145l-26 -126h-145z" />
    <glyph glyph-name="k" unicode="k" horiz-adv-x="525" 
d="M164 710h135l-82 -384l190 186h159v-4l-231 -220l146 -285v-3h-141l-96 201l-67 -64l-29 -137h-135z" />
    <glyph glyph-name="l" unicode="l" horiz-adv-x="267" 
d="M164 710h135l-151 -710h-135z" />
    <glyph glyph-name="m" unicode="m" horiz-adv-x="885" 
d="M325 0l66 312q10 50 -6 77.5t-51 27.5q-65 0 -113 -73l-73 -344h-135l109 512h129l-11 -50q66 64 147 64q96 0 132 -80q71 80 168 80q90 0 130.5 -60t20.5 -154l-66 -312h-135l66 312q10 50 -6 77.5t-51 27.5q-66 0 -113 -74l-73 -343h-135z" />
    <glyph glyph-name="n" unicode="n" horiz-adv-x="583" 
d="M122 512h127l-11 -52q66 66 149 66q89 0 128.5 -61t19.5 -155l-66 -310h-135l65 307q11 53 -7.5 81.5t-57.5 28.5q-65 0 -113 -73l-73 -344h-135z" />
    <glyph glyph-name="o" unicode="o" horiz-adv-x="583" 
d="M263 95q71 0 112 63t41 148q0 51 -23 81t-69 30q-73 0 -113.5 -62.5t-40.5 -147.5q0 -51 23 -81.5t70 -30.5zM328 526q103 0 163.5 -60t60.5 -150q0 -139 -83 -234.5t-211 -95.5q-103 0 -163.5 60t-60.5 150q0 140 82.5 235t211.5 95z" />
    <glyph glyph-name="p" unicode="p" horiz-adv-x="601" 
d="M386 526q82 0 132.5 -57.5t50.5 -148.5q0 -147 -79 -240.5t-194 -93.5q-93 0 -136 72l-49 -231h-135l146 685h129l-12 -56q65 70 147 70zM341 417q-32 0 -65.5 -21.5t-56.5 -58.5v-1l-35 -165q7 -35 32.5 -55.5t58.5 -20.5q65 0 111.5 55.5t46.5 152.5q0 56 -25 85
t-67 29z" />
    <glyph glyph-name="q" unicode="q" horiz-adv-x="601" 
d="M307 526q96 0 139 -78l14 64h131l-145 -685h-135l45 217q-61 -58 -134 -58q-82 0 -134.5 57.5t-52.5 147.5q0 147 78.5 241t193.5 94zM330 417q-67 0 -113 -55.5t-46 -153.5q0 -55 25 -84t67 -29q32 0 66 22.5t55 59.5l35 164q-7 35 -32 55.5t-57 20.5z" />
    <glyph glyph-name="r" unicode="r" horiz-adv-x="376" 
d="M122 512h127l-15 -68q57 82 144 82q16 0 40 -2l-26 -122h-26q-100 0 -150 -80l-68 -322h-135z" />
    <glyph glyph-name="s" unicode="s" horiz-adv-x="463" 
d="M433 427l-86 -63q-38 59 -90 59q-24 0 -38.5 -13.5t-14.5 -32.5q0 -37 51 -57l38 -15q65 -25 96 -61t31 -90q0 -80 -57 -124t-145 -44q-144 0 -217 128l87 63q43 -88 131 -88q31 0 50.5 14.5t19.5 38.5q0 21 -16 34.5t-55 28.5l-39 15q-50 19 -77.5 57.5t-27.5 89.5
q0 67 51.5 113t132.5 46q118 0 175 -99z" />
    <glyph glyph-name="t" unicode="t" horiz-adv-x="372" 
d="M226 -6q-90 0 -125 51.5t-15 144.5l48 224h-85l21 98h89l27 131h131l-27 -131h101l-21 -98h-101l-49 -230q-10 -45 3.5 -63.5t54.5 -18.5h33l-21 -102q-38 -6 -64 -6z" />
    <glyph glyph-name="u" unicode="u" horiz-adv-x="583" 
d="M464 0h-127l11 52q-66 -66 -149 -66q-89 0 -128.5 61t-19.5 155l66 310h135l-65 -307q-11 -53 7.5 -81.5t57.5 -28.5q65 0 112 72l74 345h135z" />
    <glyph glyph-name="v" unicode="v" horiz-adv-x="526" 
d="M65 512h139l27 -271q7 -82 3 -107h4q6 32 45 107l142 271h148l-295 -512h-136z" />
    <glyph glyph-name="w" unicode="w" horiz-adv-x="803" 
d="M64 512h140l6 -256q2 -98 -2 -119h4q3 32 46 119l123 256h144l13 -256q6 -97 3 -119h4q2 33 42 119l119 256h143l-259 -512h-138l-20 282q-6 98 -4 114h-4q-5 -37 -43 -114l-138 -282h-138z" />
    <glyph glyph-name="x" unicode="x" horiz-adv-x="525" 
d="M-37 3l221 264l-120 241v4h141l73 -170l123 170h147v-4l-200 -257l126 -248v-3h-140l-83 175l-135 -175h-153v3z" />
    <glyph glyph-name="y" unicode="y" horiz-adv-x="515" 
d="M159 -173h-145l140 226l-90 459h142l31 -236q8 -57 8 -102h4q16 55 42 103l125 235h148z" />
    <glyph glyph-name="z" unicode="z" horiz-adv-x="463" 
d="M-1 86l290 328h-216l21 98h380l-18 -85l-287 -329h234l-21 -98h-401z" />
    <glyph glyph-name="braceleft" unicode="{" horiz-adv-x="351" 
d="M28 303h45q48 0 60 51l35 164q18 86 60 125.5t116 39.5q38 0 59 -3l-20 -92h-16q-64 0 -81 -76l-33 -155q-18 -88 -89 -105q63 -15 46 -95l-32 -155q-17 -76 48 -76h22l-19 -92q-13 -3 -37 -3q-78 0 -114 47t-20 122l34 160q5 23 -5.5 37t-33.5 14h-45z" />
    <glyph glyph-name="bar" unicode="|" horiz-adv-x="272" 
d="M107 -166h-118l186 876h118z" />
    <glyph glyph-name="braceright" unicode="}" horiz-adv-x="351" 
d="M326 211h-45q-48 0 -60 -51l-35 -164q-18 -86 -60 -125.5t-116 -39.5q-38 0 -59 3l20 92h16q64 0 81 76l33 155q18 88 89 105q-63 15 -46 95l32 155q17 76 -48 76h-22l19 92q14 3 37 3q78 0 114 -47t20 -122l-34 -160q-5 -23 5.5 -37t33.5 -14h45z" />
    <glyph glyph-name="asciitilde" unicode="~" 
d="M58 231h-3l24 111q58 37 114 37q42 0 108 -23.5t95 -23.5q53 0 129 42h3l-24 -109q-62 -40 -121 -40q-41 0 -107.5 24t-94.5 24q-55 0 -123 -42z" />
    <glyph glyph-name="uni00A0" unicode="&#xa0;" horiz-adv-x="205" 
 />
    <glyph glyph-name="exclamdown" unicode="&#xa1;" horiz-adv-x="273" 
d="M185 281l-59 -449h-157l133 449h83zM234 362h-156l32 150h156z" />
    <glyph glyph-name="cent" unicode="&#xa2;" 
d="M194 0l17 76q-67 19 -104.5 71t-37.5 123q0 128 69 216t182 101l14 69h104l-16 -78q49 -16 81.5 -54t40.5 -90l-106 -32q-10 53 -47 71l-64 -295q51 14 84 75l100 -46q-66 -128 -198 -140l-15 -67h-104zM206 279q0 -72 44 -95l62 292q-51 -17 -78.5 -73t-27.5 -124z" />
    <glyph glyph-name="sterling" unicode="&#xa3;" 
d="M100 365h53q-6 48 -6 74q0 108 61.5 169.5t166.5 61.5q136 0 184 -141l-105 -52q-27 78 -86 78q-36 0 -61.5 -27.5t-25.5 -82.5q0 -31 7 -76h158l-21 -103h-128q-4 -90 -80 -159h241l-23 -107h-394l20 92q62 54 83 84.5t22 85.5h-88z" />
    <glyph glyph-name="currency" unicode="&#xa4;" 
d="M412 51l-52 70q-40 -17 -85 -17q-58 0 -103 29l-78 -70l-68 77l82 73q-11 31 -11 64q0 82 45 143l-54 70l80 64l56 -70q40 16 83 16q59 0 103 -30l79 78l71 -75l-86 -84q11 -30 11 -62q0 -82 -45 -143l55 -70zM280 202q42 0 67 32t25 87q0 81 -70 81q-42 0 -67 -32
t-25 -87q0 -81 70 -81z" />
    <glyph glyph-name="yen" unicode="&#xa5;" 
d="M459 194l-18 -85h-126l-23 -109h-132l23 109h-121l18 85h121l12 60h-120l18 85h106l-110 314l1 3h141l63 -216l154 216h154l-1 -3l-241 -314h112l-18 -85h-127l-12 -60h126z" />
    <glyph glyph-name="brokenbar" unicode="&#xa6;" horiz-adv-x="270" 
d="M97 348l77 362h118l-77 -362h-118zM65 197h118l-77 -363h-118z" />
    <glyph glyph-name="section" unicode="&#xa7;" horiz-adv-x="522" 
d="M55 260q0 95 89 158q-20 29 -20 75q0 80 55.5 128t138.5 48q73 0 125.5 -31t80.5 -83l-91 -60q-40 71 -111 71q-34 0 -56.5 -18t-22.5 -47q0 -22 14 -34.5t51 -27.5l46 -19q62 -26 95 -62t33 -91q0 -88 -89 -147q24 -30 24 -77q0 -85 -66 -137.5t-160 -52.5
q-81 0 -132.5 38t-77.5 92l86 56q17 -36 51 -59.5t81 -23.5q39 0 68.5 19.5t29.5 48.5q0 16 -5.5 27.5t-23 22.5t-25.5 14.5t-38 16.5l-45 19q-105 44 -105 136zM276 195q7 -3 18.5 -8.5t15.5 -7.5q52 29 52 76q0 22 -14.5 38t-52.5 32l-44 19q-3 2 -12.5 5.5t-13.5 5.5
q-52 -32 -52 -78q0 -39 58 -63z" />
    <glyph glyph-name="dieresis" unicode="&#xa8;" horiz-adv-x="604" 
d="M259 598l26 125h133l-26 -125h-133zM470 598l26 125h132l-26 -125h-132z" />
    <glyph glyph-name="copyright" unicode="&#xa9;" horiz-adv-x="764" 
d="M401 4q-141 0 -237.5 96.5t-96.5 238.5t96.5 238.5t237.5 96.5t237.5 -96.5t96.5 -238.5t-96.5 -238.5t-237.5 -96.5zM404 168q-79 0 -125 50.5t-46 120.5t46 120.5t125 50.5q95 0 145 -80l-67 -53q-33 47 -73 47q-35 0 -55 -23t-20 -62t20 -62t55 -23q40 0 73 47l67 -53
q-50 -80 -145 -80zM401 97q102 0 169.5 69.5t67.5 172.5t-67.5 172.5t-169.5 69.5t-169.5 -69.5t-67.5 -172.5t67.5 -172.5t169.5 -69.5z" />
    <glyph glyph-name="ordfeminine" unicode="&#xaa;" horiz-adv-x="333" 
d="M166 384q-37 0 -58.5 21t-21.5 51q0 43 29 69.5t74 26.5q43 0 64 -23l4 17q9 48 -35 48q-35 0 -58 -25l-36 56q41 38 105 38q60 0 89.5 -35.5t17.5 -90.5l-31 -145h-80l3 16q-29 -24 -66 -24zM201 439q21 0 37 18l4 20q-11 20 -35 20q-17 0 -25.5 -10t-8.5 -23
q0 -25 28 -25z" />
    <glyph glyph-name="guillemotleft" unicode="&#xab;" horiz-adv-x="566" 
d="M277 282l8 38l169 189h126l-1 -3l-176 -215l101 -194v-3h-111zM40 282l8 38l169 189h126l-1 -3l-176 -215l101 -194v-3h-111z" />
    <glyph glyph-name="logicalnot" unicode="&#xac;" 
d="M81 389h442l-52 -245h-119l30 140h-323z" />
    <glyph glyph-name="uni00AD" unicode="&#xad;" horiz-adv-x="382" 
d="M59 251l22 104h264l-22 -104h-264z" />
    <glyph glyph-name="registered" unicode="&#xae;" horiz-adv-x="499" 
d="M298 281q-90 0 -150 59.5t-60 147.5t60 146.5t150 58.5t150 -58.5t60 -146.5t-60 -147.5t-150 -59.5zM298 341q64 0 105 41t41 106q0 64 -41 105.5t-105 41.5t-105 -41.5t-41 -105.5q0 -65 41 -106t105 -41zM219 391v196h93q31 0 51 -17.5t20 -47.5q0 -41 -38 -56l53 -72
v-3h-63l-46 69h-14v-69h-56zM275 505h31q21 0 21 17q0 19 -21 19h-31v-36z" />
    <glyph glyph-name="macron" unicode="&#xaf;" horiz-adv-x="608" 
d="M268 705h324l-20 -90h-324z" />
    <glyph glyph-name="degree" unicode="&#xb0;" horiz-adv-x="396" 
d="M181 497q0 -30 18 -49.5t45 -19.5q33 0 54 24t21 56q0 31 -17.5 51t-44.5 20q-34 0 -55 -24t-21 -58zM413 518q0 -75 -51 -126.5t-125 -51.5q-65 0 -107.5 42.5t-42.5 105.5q0 75 51 126.5t125 51.5q64 0 107 -42.5t43 -105.5z" />
    <glyph glyph-name="plusminus" unicode="&#xb1;" 
d="M524 359h-163l-30 -141h-117l30 141h-162l22 106h162l35 164h117l-35 -164h163zM16 50l23 106h442l-23 -106h-442z" />
    <glyph glyph-name="acute" unicode="&#xb4;" horiz-adv-x="629" 
d="M341 583l1 3l107 151h140l-1 -3l-137 -151h-110z" />
    <glyph glyph-name="mu" unicode="&#xb5;" horiz-adv-x="588" 
d="M443 512h135l-109 -512h-127l11 52q-57 -66 -131 -66q-37 0 -73 21l-38 -180h-135l146 685h135l-65 -307q-11 -53 7.5 -81.5t57.5 -28.5q66 0 112 71z" />
    <glyph glyph-name="mu" unicode="&#x3bc;" horiz-adv-x="588" 
d="M443 512h135l-109 -512h-127l11 52q-57 -66 -131 -66q-37 0 -73 21l-38 -180h-135l146 685h135l-65 -307q-11 -53 7.5 -81.5t57.5 -28.5q66 0 112 71z" />
    <glyph glyph-name="paragraph" unicode="&#xb6;" horiz-adv-x="546" 
d="M227 -166h-89l104 488h-17q-68 0 -108 41t-40 107q0 95 58 152.5t146 57.5h126zM369 -166h-89l180 846h89z" />
    <glyph glyph-name="periodcentered" unicode="&#xb7;" horiz-adv-x="274" 
d="M87 382h156l-33 -153h-156z" />
    <glyph glyph-name="cedilla" unicode="&#xb8;" horiz-adv-x="630" 
d="M210 2l91 9q72 -37 72 -99q0 -43 -38 -71t-91 -28q-52 0 -86 27l33 63q19 -14 44 -14q20 0 33.5 13t13.5 28q0 36 -72 72z" />
    <glyph glyph-name="ordmasculine" unicode="&#xba;" horiz-adv-x="343" 
d="M243 594q-47 0 -62 -71t32 -71t62 71t-32 71zM206 383q-64 0 -94 40.5t-18 99.5q12 63 53.5 101.5t102.5 38.5q64 0 94 -40.5t18 -99.5q-12 -63 -53.5 -101.5t-102.5 -38.5z" />
    <glyph glyph-name="guillemotright" unicode="&#xbb;" horiz-adv-x="564" 
d="M309 321l-8 -38l-169 -189h-126l1 3l176 215l-101 194v3h111zM546 321l-8 -38l-169 -189h-126l1 3l176 215l-101 194v3h111z" />
    <glyph glyph-name="onequarter" unicode="&#xbc;" horiz-adv-x="792" 
d="M678 656l-449 -656h-111l450 656h110zM683 148h55l-14 -66h-55l-18 -82h-97l17 82h-159l14 66l183 216h120zM595 190q10 47 31 98h-3q-20 -34 -52 -73l-56 -67h71zM230 292h-98l56 259l-71 -31l-21 72l143 64h68z" />
    <glyph glyph-name="onehalf" unicode="&#xbd;" horiz-adv-x="773" 
d="M665 656l-449 -656h-111l450 656h110zM547 235l-78 30q48 107 142 107q58 0 89.5 -29.5t31.5 -73.5q0 -39 -20 -71.5t-44 -50t-54.5 -37.5t-41.5 -30h128l-17 -80h-261l14 67q26 35 76.5 71t84 64t33.5 57q0 28 -28 28q-39 0 -55 -52zM230 292h-98l56 259l-71 -31l-21 72
l143 64h68z" />
    <glyph glyph-name="threequarters" unicode="&#xbe;" horiz-adv-x="831" 
d="M724 656l-449 -656h-111l450 656h110zM727 148h55l-14 -66h-55l-18 -82h-97l17 82h-159l14 66l183 216h120zM639 190q10 47 31 98h-3q-20 -34 -52 -73l-56 -67h71zM186 284q-48 0 -82 20t-51 47l57 56q33 -40 77 -40q24 0 38.5 11t14.5 30q0 34 -51 34h-32l15 70h41
q19 0 28.5 11t9.5 24q0 33 -33 33q-34 0 -60 -33l-54 57q55 60 126 60q60 0 93 -28t33 -68q0 -26 -17.5 -51t-46.5 -39q48 -18 48 -74q0 -55 -45 -87.5t-109 -32.5z" />
    <glyph glyph-name="questiondown" unicode="&#xbf;" horiz-adv-x="448" 
d="M162 -181q-87 0 -137 43.5t-50 111.5q0 102 126 192l46 34q27 20 37.5 36t16.5 46h115q10 -39 -13.5 -83.5t-68.5 -79.5l-45 -34q-71 -50 -71 -98q0 -24 14.5 -38.5t42.5 -14.5q27 0 50.5 20t37.5 56l101 -49q-67 -142 -202 -142zM346 363h-155l32 150h155z" />
    <glyph glyph-name="Agrave" unicode="&#xc0;" horiz-adv-x="627" 
d="M324 680h163l87 -680h-141l-15 146h-245l-76 -146h-150zM335 455l-104 -199h176l-20 200q-7 79 -2 107h-4q-5 -23 -46 -108zM462 758l-1 -3h-94l-96 151l1 3h127z" />
    <glyph glyph-name="Aacute" unicode="&#xc1;" horiz-adv-x="627" 
d="M324 680h163l87 -680h-141l-15 146h-245l-76 -146h-150zM335 455l-104 -199h176l-20 200q-7 79 -2 107h-4q-5 -23 -46 -108zM352 755l1 3l107 151h140l-1 -3l-137 -151h-110z" />
    <glyph glyph-name="Acircumflex" unicode="&#xc2;" horiz-adv-x="627" 
d="M324 680h163l87 -680h-141l-15 146h-245l-76 -146h-150zM335 455l-104 -199h176l-20 200q-7 79 -2 107h-4q-5 -23 -46 -108zM379 909h109l91 -151v-3h-103l-55 70l-83 -70h-113v3z" />
    <glyph glyph-name="Atilde" unicode="&#xc3;" horiz-adv-x="627" 
d="M324 680h163l87 -680h-141l-15 146h-245l-76 -146h-150zM335 455l-104 -199h176l-20 200q-7 79 -2 107h-4q-5 -23 -46 -108zM470 754q-31 0 -53.5 14t-37 28t-27.5 14q-28 0 -49 -54l-80 39q27 54 58 79.5t78 25.5q31 0 53.5 -14t37.5 -28t28 -14q28 0 49 54l80 -39
q-27 -54 -58.5 -79.5t-78.5 -25.5z" />
    <glyph glyph-name="Adieresis" unicode="&#xc4;" horiz-adv-x="627" 
d="M324 680h163l87 -680h-141l-15 146h-245l-76 -146h-150zM335 455l-104 -199h176l-20 200q-7 79 -2 107h-4q-5 -23 -46 -108zM238 770l26 125h133l-26 -125h-133zM449 770l26 125h132l-26 -125h-132z" />
    <glyph glyph-name="Aring" unicode="&#xc5;" horiz-adv-x="627" 
d="M305 740q0 48 34.5 81.5t84.5 33.5q44 0 74 -27.5t30 -71.5q0 -53 -40 -87l86 -669h-141l-15 146h-245l-76 -146h-150l377 680q-19 25 -19 60zM335 455l-104 -199h176l-20 200q-7 79 -2 107h-4q-5 -23 -46 -108zM375 744q0 -18 10.5 -29t26.5 -11q21 0 33.5 13.5
t12.5 34.5q0 18 -10.5 29t-25.5 11q-21 0 -34 -13.5t-13 -34.5z" />
    <glyph glyph-name="AE" unicode="&#xc6;" horiz-adv-x="888" 
d="M100 0h-161v3l511 677h481l-23 -110h-284l-37 -171h242l-22 -110h-242l-39 -179h289l-23 -110h-426l30 138h-195zM388 398l-108 -150h139l27 125q32 146 40 165h-4q-11 -25 -94 -140z" />
    <glyph glyph-name="Ccedilla" unicode="&#xc7;" horiz-adv-x="650" 
d="M56 260q0 184 105.5 309t267.5 125q94 0 159.5 -49.5t84.5 -140.5l-120 -37q-8 51 -44 81t-85 30q-108 0 -166.5 -92t-58.5 -219q0 -76 33.5 -120.5t101.5 -44.5q114 0 166 115l114 -53q-44 -83 -103.5 -125.5t-138.5 -50.5q42 -36 42 -82t-42 -76t-101 -30q-56 0 -96 29
l37 71q22 -14 48 -14q21 0 36 13.5t15 28.5q0 36 -74 71q-85 26 -133 97t-48 164z" />
    <glyph glyph-name="Egrave" unicode="&#xc8;" horiz-adv-x="561" 
d="M174 680h428l-24 -110h-291l-36 -171h253l-23 -110h-254l-38 -179h300l-23 -110h-437zM453 758l-1 -3h-94l-96 151l1 3h127z" />
    <glyph glyph-name="Eacute" unicode="&#xc9;" horiz-adv-x="561" 
d="M174 680h428l-24 -110h-291l-36 -171h253l-23 -110h-254l-38 -179h300l-23 -110h-437zM343 755l1 3l107 151h140l-1 -3l-137 -151h-110z" />
    <glyph glyph-name="Ecircumflex" unicode="&#xca;" horiz-adv-x="561" 
d="M174 680h428l-24 -110h-291l-36 -171h253l-23 -110h-254l-38 -179h300l-23 -110h-437zM370 909h109l91 -151v-3h-103l-55 70l-83 -70h-113v3z" />
    <glyph glyph-name="Edieresis" unicode="&#xcb;" horiz-adv-x="561" 
d="M174 680h428l-24 -110h-291l-36 -171h253l-23 -110h-254l-38 -179h300l-23 -110h-437zM229 770l26 125h133l-26 -125h-133zM440 770l26 125h132l-26 -125h-132z" />
    <glyph glyph-name="Igrave" unicode="&#xcc;" horiz-adv-x="301" 
d="M174 680h137l-145 -680h-137zM310 758l-1 -3h-94l-96 151l1 3h127z" />
    <glyph glyph-name="Iacute" unicode="&#xcd;" horiz-adv-x="301" 
d="M174 680h137l-145 -680h-137zM200 755l1 3l107 151h140l-1 -3l-137 -151h-110z" />
    <glyph glyph-name="Icircumflex" unicode="&#xce;" horiz-adv-x="301" 
d="M174 680h137l-145 -680h-137zM227 909h109l91 -151v-3h-103l-55 70l-83 -70h-113v3z" />
    <glyph glyph-name="Idieresis" unicode="&#xcf;" horiz-adv-x="301" 
d="M174 680h137l-145 -680h-137zM86 770l26 125h133l-26 -125h-133zM297 770l26 125h132l-26 -125h-132z" />
    <glyph glyph-name="Eth" unicode="&#xd0;" horiz-adv-x="687" 
d="M395 680q132 0 205 -67.5t73 -177.5q0 -187 -105 -311t-282 -124h-250l62 290h-70l22 106h70l61 284h214zM196 110h95q111 0 175 90.5t64 219.5q0 150 -151 150h-84l-38 -174h133l-22 -106h-133z" />
    <glyph glyph-name="Ntilde" unicode="&#xd1;" horiz-adv-x="725" 
d="M174 680h124l171 -387q26 -59 29 -97h4q-2 29 17 113l79 371h137l-145 -680h-121l-174 387q-27 59 -29 98h-4q2 -30 -17 -114l-79 -371h-137zM515 754q-31 0 -53.5 14t-37 28t-27.5 14q-28 0 -49 -54l-80 39q27 54 58 79.5t78 25.5q31 0 53.5 -14t37.5 -28t28 -14
q28 0 49 54l80 -39q-27 -54 -58.5 -79.5t-78.5 -25.5z" />
    <glyph glyph-name="Ograve" unicode="&#xd2;" horiz-adv-x="718" 
d="M425 694q127 0 201.5 -78t74.5 -195q0 -121 -46.5 -220t-131.5 -157t-192 -58q-126 0 -200.5 78t-74.5 196q0 184 104.5 309t264.5 125zM421 578q-104 0 -163 -92.5t-59 -218.5q0 -76 34.5 -120.5t101.5 -44.5q105 0 164 92.5t59 218.5q0 75 -35 120t-102 45zM494 758
l-1 -3h-94l-96 151l1 3h127z" />
    <glyph glyph-name="Oacute" unicode="&#xd3;" horiz-adv-x="718" 
d="M425 694q127 0 201.5 -78t74.5 -195q0 -121 -46.5 -220t-131.5 -157t-192 -58q-126 0 -200.5 78t-74.5 196q0 184 104.5 309t264.5 125zM421 578q-104 0 -163 -92.5t-59 -218.5q0 -76 34.5 -120.5t101.5 -44.5q105 0 164 92.5t59 218.5q0 75 -35 120t-102 45zM384 755
l1 3l107 151h140l-1 -3l-137 -151h-110z" />
    <glyph glyph-name="Ocircumflex" unicode="&#xd4;" horiz-adv-x="718" 
d="M425 694q127 0 201.5 -78t74.5 -195q0 -121 -46.5 -220t-131.5 -157t-192 -58q-126 0 -200.5 78t-74.5 196q0 184 104.5 309t264.5 125zM421 578q-104 0 -163 -92.5t-59 -218.5q0 -76 34.5 -120.5t101.5 -44.5q105 0 164 92.5t59 218.5q0 75 -35 120t-102 45zM411 909
h109l91 -151v-3h-103l-55 70l-83 -70h-113v3z" />
    <glyph glyph-name="Otilde" unicode="&#xd5;" horiz-adv-x="718" 
d="M425 694q127 0 201.5 -78t74.5 -195q0 -121 -46.5 -220t-131.5 -157t-192 -58q-126 0 -200.5 78t-74.5 196q0 184 104.5 309t264.5 125zM421 578q-104 0 -163 -92.5t-59 -218.5q0 -76 34.5 -120.5t101.5 -44.5q105 0 164 92.5t59 218.5q0 75 -35 120t-102 45zM502 754
q-31 0 -53.5 14t-37 28t-27.5 14q-28 0 -49 -54l-80 39q27 54 58 79.5t78 25.5q31 0 53.5 -14t37.5 -28t28 -14q28 0 49 54l80 -39q-27 -54 -58.5 -79.5t-78.5 -25.5z" />
    <glyph glyph-name="Odieresis" unicode="&#xd6;" horiz-adv-x="718" 
d="M425 694q127 0 201.5 -78t74.5 -195q0 -121 -46.5 -220t-131.5 -157t-192 -58q-126 0 -200.5 78t-74.5 196q0 184 104.5 309t264.5 125zM421 578q-104 0 -163 -92.5t-59 -218.5q0 -76 34.5 -120.5t101.5 -44.5q105 0 164 92.5t59 218.5q0 75 -35 120t-102 45zM270 770
l26 125h133l-26 -125h-133zM481 770l26 125h132l-26 -125h-132z" />
    <glyph glyph-name="multiply" unicode="&#xd7;" 
d="M103 448l88 73l107 -136l157 136l75 -87l-161 -139l110 -138l-91 -72l-106 135l-156 -135l-72 89l157 136z" />
    <glyph glyph-name="Oslash" unicode="&#xd8;" horiz-adv-x="718" 
d="M726 712v-3l-83 -112q58 -73 58 -176q0 -121 -46.5 -220t-131.5 -157t-192 -58q-65 0 -118 22l-30 -40h-153l1 3l83 112q-58 73 -58 177q0 184 104.5 309t264.5 125q67 0 119 -23l30 41h152zM421 578q-104 0 -163 -92.5t-59 -218.5q0 -39 9 -70l271 370q-27 11 -58 11z
M335 102q105 0 164 92.5t59 218.5q0 39 -9 70l-271 -370q25 -11 57 -11z" />
    <glyph glyph-name="Ugrave" unicode="&#xd9;" horiz-adv-x="676" 
d="M304 -14q-96 0 -154 37t-74.5 96t-0.5 134l92 427h137l-91 -422q-35 -156 95 -156q125 0 158 156l90 422h137l-92 -433q-25 -119 -100 -190t-197 -71zM493 758l-1 -3h-94l-96 151l1 3h127z" />
    <glyph glyph-name="Uacute" unicode="&#xda;" horiz-adv-x="676" 
d="M304 -14q-96 0 -154 37t-74.5 96t-0.5 134l92 427h137l-91 -422q-35 -156 95 -156q125 0 158 156l90 422h137l-92 -433q-25 -119 -100 -190t-197 -71zM383 755l1 3l107 151h140l-1 -3l-137 -151h-110z" />
    <glyph glyph-name="Ucircumflex" unicode="&#xdb;" horiz-adv-x="676" 
d="M304 -14q-96 0 -154 37t-74.5 96t-0.5 134l92 427h137l-91 -422q-35 -156 95 -156q125 0 158 156l90 422h137l-92 -433q-25 -119 -100 -190t-197 -71zM410 909h109l91 -151v-3h-103l-55 70l-83 -70h-113v3z" />
    <glyph glyph-name="Udieresis" unicode="&#xdc;" horiz-adv-x="676" 
d="M304 -14q-96 0 -154 37t-74.5 96t-0.5 134l92 427h137l-91 -422q-35 -156 95 -156q125 0 158 156l90 422h137l-92 -433q-25 -119 -100 -190t-197 -71zM269 770l26 125h133l-26 -125h-133zM480 770l26 125h132l-26 -125h-132z" />
    <glyph glyph-name="Yacute" unicode="&#xdd;" horiz-adv-x="589" 
d="M91 677v3h144l90 -259l196 259h161v-3l-311 -385l-62 -292h-137l64 302zM329 755l1 3l107 151h140l-1 -3l-137 -151h-110z" />
    <glyph glyph-name="Thorn" unicode="&#xde;" horiz-adv-x="568" 
d="M166 0h-137l145 680h137l-27 -124h66q95 0 153.5 -48.5t58.5 -131.5q0 -114 -77 -178.5t-195 -64.5h-96zM332 446h-71l-43 -203h66q59 0 96.5 31.5t37.5 93.5q0 78 -86 78z" />
    <glyph glyph-name="germandbls" unicode="&#xdf;" horiz-adv-x="589" 
d="M13 0l110 515q20 95 78.5 150t159.5 55q88 0 138.5 -47t50.5 -117q0 -113 -95 -164q42 -20 66.5 -59.5t24.5 -93.5q0 -114 -70.5 -181t-169.5 -67q-60 0 -103 15l35 105q24 -11 55 -11q50 0 83.5 39t33.5 97q0 47 -23.5 73.5t-68.5 26.5h-31l21 97h14q42 0 67 32.5
t25 75.5q0 69 -64 69q-71 0 -93 -100l-109 -511z" />
    <glyph glyph-name="agrave" unicode="&#xe0;" horiz-adv-x="535" 
d="M169 -14q-76 0 -117.5 39t-41.5 103q0 81 58.5 135.5t150.5 54.5q81 0 129 -45l7 34q11 51 -9.5 81.5t-76.5 30.5q-64 0 -113 -53l-64 86q78 74 189 74q120 0 173 -63.5t34 -155.5l-66 -307h-123l8 37q-62 -51 -138 -51zM219 79q58 0 96 45l13 60q-29 41 -88 41
q-45 0 -69 -25t-24 -58q0 -27 17.5 -45t54.5 -18zM366 596l-1 -3h-94l-96 151l1 3h127z" />
    <glyph glyph-name="aacute" unicode="&#xe1;" horiz-adv-x="535" 
d="M169 -14q-76 0 -117.5 39t-41.5 103q0 81 58.5 135.5t150.5 54.5q81 0 129 -45l7 34q11 51 -9.5 81.5t-76.5 30.5q-64 0 -113 -53l-64 86q78 74 189 74q120 0 173 -63.5t34 -155.5l-66 -307h-123l8 37q-62 -51 -138 -51zM219 79q58 0 96 45l13 60q-29 41 -88 41
q-45 0 -69 -25t-24 -58q0 -27 17.5 -45t54.5 -18zM256 593l1 3l107 151h140l-1 -3l-137 -151h-110z" />
    <glyph glyph-name="acircumflex" unicode="&#xe2;" horiz-adv-x="535" 
d="M169 -14q-76 0 -117.5 39t-41.5 103q0 81 58.5 135.5t150.5 54.5q81 0 129 -45l7 34q11 51 -9.5 81.5t-76.5 30.5q-64 0 -113 -53l-64 86q78 74 189 74q120 0 173 -63.5t34 -155.5l-66 -307h-123l8 37q-62 -51 -138 -51zM219 79q58 0 96 45l13 60q-29 41 -88 41
q-45 0 -69 -25t-24 -58q0 -27 17.5 -45t54.5 -18zM283 747h109l91 -151v-3h-103l-55 70l-83 -70h-113v3z" />
    <glyph glyph-name="atilde" unicode="&#xe3;" horiz-adv-x="535" 
d="M169 -14q-76 0 -117.5 39t-41.5 103q0 81 58.5 135.5t150.5 54.5q81 0 129 -45l7 34q11 51 -9.5 81.5t-76.5 30.5q-64 0 -113 -53l-64 86q78 74 189 74q120 0 173 -63.5t34 -155.5l-66 -307h-123l8 37q-62 -51 -138 -51zM219 79q58 0 96 45l13 60q-29 41 -88 41
q-45 0 -69 -25t-24 -58q0 -27 17.5 -45t54.5 -18zM374 592q-31 0 -53.5 14t-37 28t-27.5 14q-28 0 -49 -54l-80 39q27 54 58 79.5t78 25.5q31 0 53.5 -14t37.5 -28t28 -14q28 0 49 54l80 -39q-27 -54 -58.5 -79.5t-78.5 -25.5z" />
    <glyph glyph-name="adieresis" unicode="&#xe4;" horiz-adv-x="535" 
d="M169 -14q-76 0 -117.5 39t-41.5 103q0 81 58.5 135.5t150.5 54.5q81 0 129 -45l7 34q11 51 -9.5 81.5t-76.5 30.5q-64 0 -113 -53l-64 86q78 74 189 74q120 0 173 -63.5t34 -155.5l-66 -307h-123l8 37q-62 -51 -138 -51zM219 79q58 0 96 45l13 60q-29 41 -88 41
q-45 0 -69 -25t-24 -58q0 -27 17.5 -45t54.5 -18zM142 608l26 125h133l-26 -125h-133zM353 608l26 125h132l-26 -125h-132z" />
    <glyph glyph-name="aring" unicode="&#xe5;" horiz-adv-x="535" 
d="M169 -14q-76 0 -117.5 39t-41.5 103q0 81 58.5 135.5t150.5 54.5q81 0 129 -45l7 34q11 51 -9.5 81.5t-76.5 30.5q-64 0 -113 -53l-64 86q78 74 189 74q120 0 173 -63.5t34 -155.5l-66 -307h-123l8 37q-62 -51 -138 -51zM219 79q58 0 96 45l13 60q-29 41 -88 41
q-45 0 -69 -25t-24 -58q0 -27 17.5 -45t54.5 -18zM213 682q0 48 34.5 81.5t84.5 33.5q44 0 74 -27.5t30 -71.5q0 -48 -34 -81.5t-85 -33.5q-44 0 -74 28t-30 71zM283 686q0 -18 10.5 -29t26.5 -11q21 0 33.5 13.5t12.5 34.5q0 18 -10.5 29t-25.5 11q-21 0 -34 -13.5
t-13 -34.5z" />
    <glyph glyph-name="ae" unicode="&#xe6;" horiz-adv-x="843" 
d="M208 -14q-88 0 -142 41.5t-54 109.5q0 74 58.5 123t159.5 49h118q14 108 -86 108q-64 0 -113 -51l-64 86q78 74 189 74q110 0 157 -77q80 77 183 77q93 0 149.5 -56.5t56.5 -142.5q0 -50 -18 -106h-340v-9q0 -54 26 -86.5t77 -32.5q75 0 130 71l80 -70
q-88 -108 -224 -108q-108 0 -169 69q-72 -69 -174 -69zM225 80q66 0 113 56q-8 30 -8 62v23h-76q-57 0 -81 -22t-24 -54q0 -28 18.5 -46.5t57.5 -18.5zM609 423q-47 0 -81.5 -30.5t-51.5 -81.5h216q8 56 -14.5 84t-68.5 28z" />
    <glyph glyph-name="ccedilla" unicode="&#xe7;" horiz-adv-x="521" 
d="M35 197q0 144 80.5 237t207.5 93q72 0 124.5 -42.5t62.5 -112.5l-106 -32q-6 36 -28.5 57t-57.5 21q-70 0 -108.5 -63.5t-38.5 -148.5q0 -51 22.5 -81t67.5 -30q74 0 116 78l100 -46q-64 -124 -187 -139q38 -33 38 -76t-38 -71t-91 -28q-52 0 -86 27l33 63q19 -14 44 -14
q20 0 33.5 13t13.5 28q0 35 -63 68q-66 20 -102.5 73t-36.5 126z" />
    <glyph glyph-name="egrave" unicode="&#xe8;" horiz-adv-x="548" 
d="M256 -14q-99 0 -160 60.5t-61 151.5q0 144 85.5 236t198.5 92q93 0 149.5 -56.5t56.5 -142.5q0 -50 -18 -106h-340v-9q0 -54 26 -86.5t77 -32.5q75 0 130 71l80 -70q-88 -108 -224 -108zM314 423q-47 0 -81.5 -30.5t-51.5 -81.5h216q8 56 -14.5 84t-68.5 28zM392 596
l-1 -3h-94l-96 151l1 3h127z" />
    <glyph glyph-name="eacute" unicode="&#xe9;" horiz-adv-x="548" 
d="M256 -14q-99 0 -160 60.5t-61 151.5q0 144 85.5 236t198.5 92q93 0 149.5 -56.5t56.5 -142.5q0 -50 -18 -106h-340v-9q0 -54 26 -86.5t77 -32.5q75 0 130 71l80 -70q-88 -108 -224 -108zM314 423q-47 0 -81.5 -30.5t-51.5 -81.5h216q8 56 -14.5 84t-68.5 28zM282 593l1 3
l107 151h140l-1 -3l-137 -151h-110z" />
    <glyph glyph-name="ecircumflex" unicode="&#xea;" horiz-adv-x="548" 
d="M256 -14q-99 0 -160 60.5t-61 151.5q0 144 85.5 236t198.5 92q93 0 149.5 -56.5t56.5 -142.5q0 -50 -18 -106h-340v-9q0 -54 26 -86.5t77 -32.5q75 0 130 71l80 -70q-88 -108 -224 -108zM314 423q-47 0 -81.5 -30.5t-51.5 -81.5h216q8 56 -14.5 84t-68.5 28zM309 747h109
l91 -151v-3h-103l-55 70l-83 -70h-113v3z" />
    <glyph glyph-name="edieresis" unicode="&#xeb;" horiz-adv-x="548" 
d="M256 -14q-99 0 -160 60.5t-61 151.5q0 144 85.5 236t198.5 92q93 0 149.5 -56.5t56.5 -142.5q0 -50 -18 -106h-340v-9q0 -54 26 -86.5t77 -32.5q75 0 130 71l80 -70q-88 -108 -224 -108zM314 423q-47 0 -81.5 -30.5t-51.5 -81.5h216q8 56 -14.5 84t-68.5 28zM168 608
l26 125h133l-26 -125h-133zM379 608l26 125h132l-26 -125h-132z" />
    <glyph glyph-name="igrave" unicode="&#xec;" horiz-adv-x="267" 
d="M122 512h135l-109 -512h-135zM258 596l-1 -3h-94l-96 151l1 3h127z" />
    <glyph glyph-name="iacute" unicode="&#xed;" horiz-adv-x="267" 
d="M122 512h135l-109 -512h-135zM148 593l1 3l107 151h140l-1 -3l-137 -151h-110z" />
    <glyph glyph-name="icircumflex" unicode="&#xee;" horiz-adv-x="267" 
d="M122 512h135l-109 -512h-135zM175 747h109l91 -151v-3h-103l-55 70l-83 -70h-113v3z" />
    <glyph glyph-name="idieresis" unicode="&#xef;" horiz-adv-x="267" 
d="M122 512h135l-109 -512h-135zM34 608l26 125h133l-26 -125h-133zM245 608l26 125h132l-26 -125h-132z" />
    <glyph glyph-name="eth" unicode="&#xf0;" horiz-adv-x="573" 
d="M561 615l-81 -24q65 -120 65 -240q0 -148 -79.5 -256.5t-218.5 -108.5q-105 0 -160.5 59.5t-55.5 141.5q0 126 74.5 213.5t178.5 87.5q80 0 120 -62q-14 70 -46 130l-131 -38l-23 80l107 31q-29 39 -63 78l1 3h145q27 -29 39 -46l106 31zM254 95q57 0 102 59.5t53 152.5
q-26 80 -103 80q-57 0 -98 -54t-41 -132q0 -49 23.5 -77.5t63.5 -28.5z" />
    <glyph glyph-name="ntilde" unicode="&#xf1;" horiz-adv-x="583" 
d="M122 512h127l-11 -52q66 66 149 66q89 0 128.5 -61t19.5 -155l-66 -310h-135l65 307q11 53 -7.5 81.5t-57.5 28.5q-65 0 -113 -73l-73 -344h-135zM412 592q-31 0 -53.5 14t-37 28t-27.5 14q-28 0 -49 -54l-80 39q27 54 58 79.5t78 25.5q31 0 53.5 -14t37.5 -28t28 -14
q28 0 49 54l80 -39q-27 -54 -58.5 -79.5t-78.5 -25.5z" />
    <glyph glyph-name="ograve" unicode="&#xf2;" horiz-adv-x="583" 
d="M263 95q71 0 112 63t41 148q0 51 -23 81t-69 30q-73 0 -113.5 -62.5t-40.5 -147.5q0 -51 23 -81.5t70 -30.5zM328 526q103 0 163.5 -60t60.5 -150q0 -139 -83 -234.5t-211 -95.5q-103 0 -163.5 60t-60.5 150q0 140 82.5 235t211.5 95zM398 596l-1 -3h-94l-96 151l1 3h127
z" />
    <glyph glyph-name="oacute" unicode="&#xf3;" horiz-adv-x="583" 
d="M263 95q71 0 112 63t41 148q0 51 -23 81t-69 30q-73 0 -113.5 -62.5t-40.5 -147.5q0 -51 23 -81.5t70 -30.5zM328 526q103 0 163.5 -60t60.5 -150q0 -139 -83 -234.5t-211 -95.5q-103 0 -163.5 60t-60.5 150q0 140 82.5 235t211.5 95zM288 593l1 3l107 151h140l-1 -3
l-137 -151h-110z" />
    <glyph glyph-name="ocircumflex" unicode="&#xf4;" horiz-adv-x="583" 
d="M263 95q71 0 112 63t41 148q0 51 -23 81t-69 30q-73 0 -113.5 -62.5t-40.5 -147.5q0 -51 23 -81.5t70 -30.5zM328 526q103 0 163.5 -60t60.5 -150q0 -139 -83 -234.5t-211 -95.5q-103 0 -163.5 60t-60.5 150q0 140 82.5 235t211.5 95zM315 747h109l91 -151v-3h-103
l-55 70l-83 -70h-113v3z" />
    <glyph glyph-name="otilde" unicode="&#xf5;" horiz-adv-x="583" 
d="M263 95q71 0 112 63t41 148q0 51 -23 81t-69 30q-73 0 -113.5 -62.5t-40.5 -147.5q0 -51 23 -81.5t70 -30.5zM328 526q103 0 163.5 -60t60.5 -150q0 -139 -83 -234.5t-211 -95.5q-103 0 -163.5 60t-60.5 150q0 140 82.5 235t211.5 95zM406 592q-31 0 -53.5 14t-37 28
t-27.5 14q-28 0 -49 -54l-80 39q27 54 58 79.5t78 25.5q31 0 53.5 -14t37.5 -28t28 -14q28 0 49 54l80 -39q-27 -54 -58.5 -79.5t-78.5 -25.5z" />
    <glyph glyph-name="odieresis" unicode="&#xf6;" horiz-adv-x="583" 
d="M263 95q71 0 112 63t41 148q0 51 -23 81t-69 30q-73 0 -113.5 -62.5t-40.5 -147.5q0 -51 23 -81.5t70 -30.5zM328 526q103 0 163.5 -60t60.5 -150q0 -139 -83 -234.5t-211 -95.5q-103 0 -163.5 60t-60.5 150q0 140 82.5 235t211.5 95zM174 608l26 125h133l-26 -125h-133z
M385 608l26 125h132l-26 -125h-132z" />
    <glyph glyph-name="divide" unicode="&#xf7;" 
d="M59 247l23 110h442l-23 -110h-442zM311 46h-148l27 131h148zM389 427h-148l28 132h148z" />
    <glyph glyph-name="oslash" unicode="&#xf8;" horiz-adv-x="586" 
d="M330 526q49 0 92 -16l27 37h119l-1 -3l-64 -87q52 -58 52 -141q0 -139 -83 -234.5t-212 -95.5q-50 0 -96 18l-29 -39h-119l1 3l68 91q-50 58 -50 137q0 140 82.5 235t212.5 95zM265 94q72 0 113 63t41 149q0 24 -6 45l-186 -251q17 -6 38 -6zM171 207q0 -24 4 -41
l184 248q-17 5 -33 5q-73 0 -114 -63t-41 -149z" />
    <glyph glyph-name="ugrave" unicode="&#xf9;" horiz-adv-x="583" 
d="M464 0h-127l11 52q-66 -66 -149 -66q-89 0 -128.5 61t-19.5 155l66 310h135l-65 -307q-11 -53 7.5 -81.5t57.5 -28.5q65 0 112 72l74 345h135zM408 597l-1 -3h-94l-96 151l1 3h127z" />
    <glyph glyph-name="uacute" unicode="&#xfa;" horiz-adv-x="583" 
d="M464 0h-127l11 52q-66 -66 -149 -66q-89 0 -128.5 61t-19.5 155l66 310h135l-65 -307q-11 -53 7.5 -81.5t57.5 -28.5q65 0 112 72l74 345h135zM298 594l1 3l107 151h140l-1 -3l-137 -151h-110z" />
    <glyph glyph-name="ucircumflex" unicode="&#xfb;" horiz-adv-x="583" 
d="M464 0h-127l11 52q-66 -66 -149 -66q-89 0 -128.5 61t-19.5 155l66 310h135l-65 -307q-11 -53 7.5 -81.5t57.5 -28.5q65 0 112 72l74 345h135zM325 748h109l91 -151v-3h-103l-55 70l-83 -70h-113v3z" />
    <glyph glyph-name="udieresis" unicode="&#xfc;" horiz-adv-x="583" 
d="M464 0h-127l11 52q-66 -66 -149 -66q-89 0 -128.5 61t-19.5 155l66 310h135l-65 -307q-11 -53 7.5 -81.5t57.5 -28.5q65 0 112 72l74 345h135zM184 609l26 125h133l-26 -125h-133zM395 609l26 125h132l-26 -125h-132z" />
    <glyph glyph-name="yacute" unicode="&#xfd;" horiz-adv-x="515" 
d="M159 -173h-145l140 226l-90 459h142l31 -236q8 -57 8 -102h4q16 55 42 103l125 235h148zM261 593l1 3l107 151h140l-1 -3l-137 -151h-110z" />
    <glyph glyph-name="thorn" unicode="&#xfe;" horiz-adv-x="601" 
d="M300 710l-53 -246q64 62 139 62q82 0 132.5 -57.5t50.5 -148.5q0 -147 -79 -240.5t-194 -93.5q-93 0 -136 71l-49 -230h-135l189 883h135zM341 417q-32 0 -65 -21.5t-56 -57.5l-36 -168q7 -35 32.5 -55t58.5 -20q65 0 111.5 55.5t46.5 152.5q0 56 -25 85t-67 29z" />
    <glyph glyph-name="ydieresis" unicode="&#xff;" horiz-adv-x="515" 
d="M159 -173h-145l140 226l-90 459h142l31 -236q8 -57 8 -102h4q16 55 42 103l125 235h148zM147 608l26 125h133l-26 -125h-133zM358 608l26 125h132l-26 -125h-132z" />
    <glyph glyph-name="Amacron" unicode="&#x100;" horiz-adv-x="627" 
d="M324 680h163l87 -680h-141l-15 146h-245l-76 -146h-150zM335 455l-104 -199h176l-20 200q-7 79 -2 107h-4q-5 -23 -46 -108zM270 867h324l-20 -90h-324z" />
    <glyph glyph-name="amacron" unicode="&#x101;" horiz-adv-x="535" 
d="M169 -14q-76 0 -117.5 39t-41.5 103q0 81 58.5 135.5t150.5 54.5q81 0 129 -45l7 34q11 51 -9.5 81.5t-76.5 30.5q-64 0 -113 -53l-64 86q78 74 189 74q120 0 173 -63.5t34 -155.5l-66 -307h-123l8 37q-62 -51 -138 -51zM219 79q58 0 96 45l13 60q-29 41 -88 41
q-45 0 -69 -25t-24 -58q0 -27 17.5 -45t54.5 -18zM174 705h324l-20 -90h-324z" />
    <glyph glyph-name="Abreve" unicode="&#x102;" horiz-adv-x="627" 
d="M324 680h163l87 -680h-141l-15 146h-245l-76 -146h-150zM335 455l-104 -199h176l-20 200q-7 79 -2 107h-4q-5 -23 -46 -108zM414 746q-52 0 -91.5 30t-56.5 79l69 50q27 -63 84 -63q53 0 104 63l66 -50q-76 -109 -175 -109z" />
    <glyph glyph-name="abreve" unicode="&#x103;" horiz-adv-x="535" 
d="M169 -14q-76 0 -117.5 39t-41.5 103q0 81 58.5 135.5t150.5 54.5q81 0 129 -45l7 34q11 51 -9.5 81.5t-76.5 30.5q-64 0 -113 -53l-64 86q78 74 189 74q120 0 173 -63.5t34 -155.5l-66 -307h-123l8 37q-62 -51 -138 -51zM219 79q58 0 96 45l13 60q-29 41 -88 41
q-45 0 -69 -25t-24 -58q0 -27 17.5 -45t54.5 -18zM318 584q-52 0 -91.5 30t-56.5 79l69 50q27 -63 84 -63q53 0 104 63l66 -50q-76 -109 -175 -109z" />
    <glyph glyph-name="Aogonek" unicode="&#x104;" horiz-adv-x="627" 
d="M324 680h163l87 -680q-52 -16 -88 -40t-36 -50q0 -9 8 -16.5t20 -7.5q20 0 46 15l34 -74q-37 -27 -97 -27q-53 0 -87 27.5t-34 70.5q0 68 91 117l-13 131h-245l-76 -146h-150zM335 455l-104 -199h176l-20 200q-7 79 -2 107h-4q-5 -23 -46 -108z" />
    <glyph glyph-name="aogonek" unicode="&#x105;" horiz-adv-x="535" 
d="M169 -14q-76 0 -117.5 39t-41.5 103q0 81 58.5 135.5t150.5 54.5q81 0 129 -45l7 34q11 51 -9.5 81.5t-76.5 30.5q-64 0 -113 -53l-64 86q78 74 189 74q120 0 173 -63.5t34 -155.5l-66 -307q-114 -39 -114 -87q0 -10 7 -17t19 -7q19 0 43 15l29 -66q-33 -25 -94 -25
q-45 0 -73 24.5t-28 64.5q0 67 91 112l5 23q-62 -51 -138 -51zM219 79q58 0 96 45l13 60q-29 41 -88 41q-45 0 -69 -25t-24 -58q0 -27 17.5 -45t54.5 -18z" />
    <glyph glyph-name="Cacute" unicode="&#x106;" horiz-adv-x="650" 
d="M56 260q0 184 105.5 309t267.5 125q94 0 159.5 -49.5t84.5 -140.5l-120 -37q-8 51 -44 81t-85 30q-108 0 -166.5 -92t-58.5 -219q0 -76 33.5 -120.5t101.5 -44.5q114 0 166 115l114 -53q-50 -94 -119 -136t-165 -42q-127 0 -200.5 78.5t-73.5 195.5zM382 755l1 3l107 151
h140l-1 -3l-137 -151h-110z" />
    <glyph glyph-name="cacute" unicode="&#x107;" horiz-adv-x="521" 
d="M35 197q0 144 80.5 237t207.5 93q72 0 124.5 -42.5t62.5 -112.5l-106 -32q-6 36 -28.5 57t-57.5 21q-70 0 -108.5 -63.5t-38.5 -148.5q0 -51 22.5 -81t67.5 -30q74 0 116 78l100 -46q-73 -141 -224 -141q-102 0 -160 59t-58 152zM276 593l1 3l107 151h140l-1 -3
l-137 -151h-110z" />
    <glyph glyph-name="Ccircumflex" unicode="&#x108;" horiz-adv-x="650" 
d="M56 260q0 184 105.5 309t267.5 125q94 0 159.5 -49.5t84.5 -140.5l-120 -37q-8 51 -44 81t-85 30q-108 0 -166.5 -92t-58.5 -219q0 -76 33.5 -120.5t101.5 -44.5q114 0 166 115l114 -53q-50 -94 -119 -136t-165 -42q-127 0 -200.5 78.5t-73.5 195.5zM409 909h109l91 -151
v-3h-103l-55 70l-83 -70h-113v3z" />
    <glyph glyph-name="ccircumflex" unicode="&#x109;" horiz-adv-x="521" 
d="M35 197q0 144 80.5 237t207.5 93q72 0 124.5 -42.5t62.5 -112.5l-106 -32q-6 36 -28.5 57t-57.5 21q-70 0 -108.5 -63.5t-38.5 -148.5q0 -51 22.5 -81t67.5 -30q74 0 116 78l100 -46q-73 -141 -224 -141q-102 0 -160 59t-58 152zM303 747h109l91 -151v-3h-103l-55 70
l-83 -70h-113v3z" />
    <glyph glyph-name="Cdotaccent" unicode="&#x10a;" horiz-adv-x="650" 
d="M56 260q0 184 105.5 309t267.5 125q94 0 159.5 -49.5t84.5 -140.5l-120 -37q-8 51 -44 81t-85 30q-108 0 -166.5 -92t-58.5 -219q0 -76 33.5 -120.5t101.5 -44.5q114 0 166 115l114 -53q-50 -94 -119 -136t-165 -42q-127 0 -200.5 78.5t-73.5 195.5zM366 759l26 126h144
l-26 -126h-144z" />
    <glyph glyph-name="cdotaccent" unicode="&#x10b;" horiz-adv-x="521" 
d="M35 197q0 144 80.5 237t207.5 93q72 0 124.5 -42.5t62.5 -112.5l-106 -32q-6 36 -28.5 57t-57.5 21q-70 0 -108.5 -63.5t-38.5 -148.5q0 -51 22.5 -81t67.5 -30q74 0 116 78l100 -46q-73 -141 -224 -141q-102 0 -160 59t-58 152zM260 597l26 126h144l-26 -126h-144z" />
    <glyph glyph-name="Ccaron" unicode="&#x10c;" horiz-adv-x="650" 
d="M56 260q0 184 105.5 309t267.5 125q94 0 159.5 -49.5t84.5 -140.5l-120 -37q-8 51 -44 81t-85 30q-108 0 -166.5 -92t-58.5 -219q0 -76 33.5 -120.5t101.5 -44.5q114 0 166 115l114 -53q-50 -94 -119 -136t-165 -42q-127 0 -200.5 78.5t-73.5 195.5zM493 755h-109
l-91 151v3h103l54 -70l84 70h113v-3z" />
    <glyph glyph-name="ccaron" unicode="&#x10d;" horiz-adv-x="521" 
d="M35 197q0 144 80.5 237t207.5 93q72 0 124.5 -42.5t62.5 -112.5l-106 -32q-6 36 -28.5 57t-57.5 21q-70 0 -108.5 -63.5t-38.5 -148.5q0 -51 22.5 -81t67.5 -30q74 0 116 78l100 -46q-73 -141 -224 -141q-102 0 -160 59t-58 152zM387 593h-109l-91 151v3h103l54 -70
l84 70h113v-3z" />
    <glyph glyph-name="Dcaron" unicode="&#x10e;" horiz-adv-x="681" 
d="M174 680h214q132 0 205 -67.5t73 -177.5q0 -187 -105 -311t-282 -124h-250zM372 570h-85l-98 -460h95q111 0 175 90.5t64 219.5q0 150 -151 150zM473 755h-109l-91 151v3h103l54 -70l84 70h113v-3z" />
    <glyph glyph-name="dcaron" unicode="&#x10f;" horiz-adv-x="680" 
d="M726 479h-86l50 231h119zM218 -14q-82 0 -132.5 57.5t-50.5 148.5q0 147 79 240.5t194 93.5q91 0 135 -72l55 256h134l-151 -710h-128l12 55q-66 -69 -147 -69zM263 95q32 0 65.5 21.5t55.5 58.5l35 166q-7 35 -32.5 55.5t-57.5 20.5q-65 0 -111.5 -55.5t-46.5 -152.5
q0 -56 25 -85t67 -29z" />
    <glyph glyph-name="Dcroat" unicode="&#x110;" horiz-adv-x="687" 
d="M395 680q132 0 205 -67.5t73 -177.5q0 -187 -105 -311t-282 -124h-250l62 290h-70l22 106h70l61 284h214zM196 110h95q111 0 175 90.5t64 219.5q0 150 -151 150h-84l-38 -174h133l-22 -106h-133z" />
    <glyph glyph-name="dcroat" unicode="&#x111;" horiz-adv-x="600" 
d="M218 -14q-82 0 -132.5 57.5t-50.5 148.5q0 144 78 234.5t193 90.5q92 0 136 -72l24 115h-121l17 82h121l15 68h134l-15 -68h52l-17 -82h-52l-119 -560h-128l12 55q-66 -69 -147 -69zM263 95q32 0 65.5 21.5t55.5 58.5l34 156q-7 35 -32.5 56t-58.5 21q-64 0 -110 -53.5
t-46 -145.5q0 -56 25 -85t67 -29z" />
    <glyph glyph-name="Emacron" unicode="&#x112;" horiz-adv-x="561" 
d="M174 680h428l-24 -110h-291l-36 -171h253l-23 -110h-254l-38 -179h300l-23 -110h-437zM261 867h324l-20 -90h-324z" />
    <glyph glyph-name="emacron" unicode="&#x113;" horiz-adv-x="548" 
d="M256 -14q-99 0 -160 60.5t-61 151.5q0 144 85.5 236t198.5 92q93 0 149.5 -56.5t56.5 -142.5q0 -50 -18 -106h-340v-9q0 -54 26 -86.5t77 -32.5q75 0 130 71l80 -70q-88 -108 -224 -108zM314 423q-47 0 -81.5 -30.5t-51.5 -81.5h216q8 56 -14.5 84t-68.5 28zM200 705h324
l-20 -90h-324z" />
    <glyph glyph-name="Ebreve" unicode="&#x114;" horiz-adv-x="561" 
d="M174 680h428l-24 -110h-291l-36 -171h253l-23 -110h-254l-38 -179h300l-23 -110h-437zM405 746q-52 0 -91.5 30t-56.5 79l69 50q27 -63 84 -63q53 0 104 63l66 -50q-76 -109 -175 -109z" />
    <glyph glyph-name="ebreve" unicode="&#x115;" horiz-adv-x="548" 
d="M256 -14q-99 0 -160 60.5t-61 151.5q0 144 85.5 236t198.5 92q93 0 149.5 -56.5t56.5 -142.5q0 -50 -18 -106h-340v-9q0 -54 26 -86.5t77 -32.5q75 0 130 71l80 -70q-88 -108 -224 -108zM314 423q-47 0 -81.5 -30.5t-51.5 -81.5h216q8 56 -14.5 84t-68.5 28zM344 584
q-52 0 -91.5 30t-56.5 79l69 50q27 -63 84 -63q53 0 104 63l66 -50q-76 -109 -175 -109z" />
    <glyph glyph-name="Edotaccent" unicode="&#x116;" horiz-adv-x="561" 
d="M174 680h428l-24 -110h-291l-36 -171h253l-23 -110h-254l-38 -179h300l-23 -110h-437zM327 759l26 126h144l-26 -126h-144z" />
    <glyph glyph-name="edotaccent" unicode="&#x117;" horiz-adv-x="548" 
d="M256 -14q-99 0 -160 60.5t-61 151.5q0 144 85.5 236t198.5 92q93 0 149.5 -56.5t56.5 -142.5q0 -50 -18 -106h-340v-9q0 -54 26 -86.5t77 -32.5q75 0 130 71l80 -70q-88 -108 -224 -108zM314 423q-47 0 -81.5 -30.5t-51.5 -81.5h216q8 56 -14.5 84t-68.5 28zM266 597
l26 126h144l-26 -126h-144z" />
    <glyph glyph-name="Eogonek" unicode="&#x118;" horiz-adv-x="561" 
d="M174 680h428l-24 -110h-291l-36 -171h253l-23 -110h-254l-38 -179h300l-23 -110q-52 -16 -88 -40t-36 -50q0 -9 8 -16.5t20 -7.5q20 0 46 15l34 -74q-37 -27 -97 -27q-53 0 -87 27.5t-34 70.5q0 58 66 102h-269z" />
    <glyph glyph-name="eogonek" unicode="&#x119;" horiz-adv-x="548" 
d="M207 -104q0 50 43 90q-97 2 -156 62t-59 150q0 144 85.5 236t198.5 92q93 0 149.5 -56.5t56.5 -142.5q0 -50 -18 -106h-340v-9q0 -54 26 -86.5t77 -32.5q75 0 130 71l80 -70q-45 -57 -102 -83q-74 -49 -74 -94q0 -12 8.5 -20t21.5 -8q16 0 39 15l29 -65q-30 -26 -85 -26
q-49 0 -79.5 23t-30.5 60zM314 423q-47 0 -81.5 -30.5t-51.5 -81.5h216q8 56 -14.5 84t-68.5 28z" />
    <glyph glyph-name="Ecaron" unicode="&#x11a;" horiz-adv-x="561" 
d="M174 680h428l-24 -110h-291l-36 -171h253l-23 -110h-254l-38 -179h300l-23 -110h-437zM454 755h-109l-91 151v3h103l54 -70l84 70h113v-3z" />
    <glyph glyph-name="ecaron" unicode="&#x11b;" horiz-adv-x="548" 
d="M256 -14q-99 0 -160 60.5t-61 151.5q0 144 85.5 236t198.5 92q93 0 149.5 -56.5t56.5 -142.5q0 -50 -18 -106h-340v-9q0 -54 26 -86.5t77 -32.5q75 0 130 71l80 -70q-88 -108 -224 -108zM314 423q-47 0 -81.5 -30.5t-51.5 -81.5h216q8 56 -14.5 84t-68.5 28zM393 593
h-109l-91 151v3h103l54 -70l84 70h113v-3z" />
    <glyph glyph-name="Gcircumflex" unicode="&#x11c;" horiz-adv-x="684" 
d="M56 263q0 179 106.5 305t268.5 126q101 0 164 -42.5t91 -114.5l-111 -55q-39 96 -147 96q-58 0 -104 -28t-72 -73.5t-39.5 -99t-13.5 -109.5q0 -76 35 -121t107 -45q79 0 137 44l25 117h-130l23 110h267l-63 -289q-124 -98 -269 -98q-128 0 -201.5 78t-73.5 199zM409 909
h109l91 -151v-3h-103l-55 70l-83 -70h-113v3z" />
    <glyph glyph-name="gcircumflex" unicode="&#x11d;" horiz-adv-x="591" 
d="M221 34q-79 0 -129 55t-50 142q0 130 74 212.5t179 82.5q96 0 138 -75l13 61h134l-98 -465q-23 -112 -96.5 -173t-169.5 -61q-156 0 -213 124l93 57q20 -38 46.5 -57t71.5 -19q41 0 80.5 32t51.5 94l10 48q-61 -58 -135 -58zM261 143q32 0 66 20.5t56 55.5l26 121
q-7 35 -32 56t-57 21q-58 0 -100 -47t-42 -128q0 -48 23 -73.5t60 -25.5zM313 747h109l91 -151v-3h-103l-55 70l-83 -70h-113v3z" />
    <glyph glyph-name="Gbreve" unicode="&#x11e;" horiz-adv-x="684" 
d="M56 263q0 179 106.5 305t268.5 126q101 0 164 -42.5t91 -114.5l-111 -55q-39 96 -147 96q-58 0 -104 -28t-72 -73.5t-39.5 -99t-13.5 -109.5q0 -76 35 -121t107 -45q79 0 137 44l25 117h-130l23 110h267l-63 -289q-124 -98 -269 -98q-128 0 -201.5 78t-73.5 199zM444 746
q-52 0 -91.5 30t-56.5 79l69 50q27 -63 84 -63q53 0 104 63l66 -50q-76 -109 -175 -109z" />
    <glyph glyph-name="gbreve" unicode="&#x11f;" horiz-adv-x="591" 
d="M221 34q-79 0 -129 55t-50 142q0 130 74 212.5t179 82.5q96 0 138 -75l13 61h134l-98 -465q-23 -112 -96.5 -173t-169.5 -61q-156 0 -213 124l93 57q20 -38 46.5 -57t71.5 -19q41 0 80.5 32t51.5 94l10 48q-61 -58 -135 -58zM261 143q32 0 66 20.5t56 55.5l26 121
q-7 35 -32 56t-57 21q-58 0 -100 -47t-42 -128q0 -48 23 -73.5t60 -25.5zM348 584q-52 0 -91.5 30t-56.5 79l69 50q27 -63 84 -63q53 0 104 63l66 -50q-76 -109 -175 -109z" />
    <glyph glyph-name="Gdotaccent" unicode="&#x120;" horiz-adv-x="684" 
d="M56 263q0 179 106.5 305t268.5 126q101 0 164 -42.5t91 -114.5l-111 -55q-39 96 -147 96q-58 0 -104 -28t-72 -73.5t-39.5 -99t-13.5 -109.5q0 -76 35 -121t107 -45q79 0 137 44l25 117h-130l23 110h267l-63 -289q-124 -98 -269 -98q-128 0 -201.5 78t-73.5 199zM366 759
l26 126h144l-26 -126h-144z" />
    <glyph glyph-name="gdotaccent" unicode="&#x121;" horiz-adv-x="591" 
d="M221 34q-79 0 -129 55t-50 142q0 130 74 212.5t179 82.5q96 0 138 -75l13 61h134l-98 -465q-23 -112 -96.5 -173t-169.5 -61q-156 0 -213 124l93 57q20 -38 46.5 -57t71.5 -19q41 0 80.5 32t51.5 94l10 48q-61 -58 -135 -58zM261 143q32 0 66 20.5t56 55.5l26 121
q-7 35 -32 56t-57 21q-58 0 -100 -47t-42 -128q0 -48 23 -73.5t60 -25.5zM270 597l26 126h144l-26 -126h-144z" />
    <glyph glyph-name="Gcommaaccent" unicode="&#x122;" horiz-adv-x="684" 
d="M56 263q0 179 106.5 305t268.5 126q101 0 164 -42.5t91 -114.5l-111 -55q-39 96 -147 96q-58 0 -104 -28t-72 -73.5t-39.5 -99t-13.5 -109.5q0 -76 35 -121t107 -45q79 0 137 44l25 117h-130l23 110h267l-63 -289q-124 -98 -269 -98q-128 0 -201.5 78t-73.5 199zM380 -73
l-18 -83l-81 -115h-73l70 95h-54l22 103h134z" />
    <glyph glyph-name="gcommaaccent" unicode="&#x123;" horiz-adv-x="591" 
d="M221 34q-79 0 -129 55t-50 142q0 130 74 212.5t179 82.5q96 0 138 -75l13 61h134l-98 -465q-23 -112 -96.5 -173t-169.5 -61q-156 0 -213 124l93 57q20 -38 46.5 -57t71.5 -19q41 0 80.5 32t51.5 94l10 48q-61 -58 -135 -58zM261 143q32 0 66 20.5t56 55.5l26 121
q-7 35 -32 56t-57 21q-58 0 -100 -47t-42 -128q0 -48 23 -73.5t60 -25.5zM272 583l18 83l81 115h73l-70 -95h54l-22 -103h-134z" />
    <glyph glyph-name="Hcircumflex" unicode="&#x124;" horiz-adv-x="709" 
d="M174 680h137l-60 -281h271l60 281h137l-145 -680h-137l61 289h-271l-61 -289h-137zM425 909h109l91 -151v-3h-103l-55 70l-83 -70h-113v3z" />
    <glyph glyph-name="hcircumflex" unicode="&#x125;" horiz-adv-x="583" 
d="M334 0l65 307q12 52 -6.5 81t-58.5 29q-67 0 -113 -73l-73 -344h-135l151 710h135l-52 -241q64 57 140 57q89 0 128.5 -61t19.5 -155l-66 -310h-135zM365 922h109l91 -151v-3h-103l-55 70l-83 -70h-113v3z" />
    <glyph glyph-name="Hbar" unicode="&#x126;" horiz-adv-x="721" 
d="M588 680h137l-22 -101h63l-21 -100h-63l-102 -479h-137l59 279h-271l-59 -279h-137l102 479h-62l21 100h62l22 101h137l-22 -101h271zM274 479l-19 -90h271l19 90h-271z" />
    <glyph glyph-name="hbar" unicode="&#x127;" horiz-adv-x="582" 
d="M164 710h135l-15 -68h119l-17 -82h-119l-22 -100q64 57 140 57q89 0 128.5 -61t19.5 -155l-64 -301h-135l63 298q11 54 -7.5 83t-59.5 29q-65 0 -111 -73l-71 -337h-135l119 560h-53l17 82h53z" />
    <glyph glyph-name="Itilde" unicode="&#x128;" horiz-adv-x="301" 
d="M174 680h137l-145 -680h-137zM318 754q-31 0 -53.5 14t-37 28t-27.5 14q-28 0 -49 -54l-80 39q27 54 58 79.5t78 25.5q31 0 53.5 -14t37.5 -28t28 -14q28 0 49 54l80 -39q-27 -54 -58.5 -79.5t-78.5 -25.5z" />
    <glyph glyph-name="itilde" unicode="&#x129;" horiz-adv-x="267" 
d="M122 512h135l-109 -512h-135zM266 592q-31 0 -53.5 14t-37 28t-27.5 14q-28 0 -49 -54l-80 39q27 54 58 79.5t78 25.5q31 0 53.5 -14t37.5 -28t28 -14q28 0 49 54l80 -39q-27 -54 -58.5 -79.5t-78.5 -25.5z" />
    <glyph glyph-name="Imacron" unicode="&#x12a;" horiz-adv-x="301" 
d="M174 680h137l-145 -680h-137zM118 867h324l-20 -90h-324z" />
    <glyph glyph-name="imacron" unicode="&#x12b;" horiz-adv-x="267" 
d="M122 512h135l-109 -512h-135zM66 705h324l-20 -90h-324z" />
    <glyph glyph-name="Ibreve" unicode="&#x12c;" horiz-adv-x="301" 
d="M174 680h137l-145 -680h-137zM262 746q-52 0 -91.5 30t-56.5 79l69 50q27 -63 84 -63q53 0 104 63l66 -50q-76 -109 -175 -109z" />
    <glyph glyph-name="ibreve" unicode="&#x12d;" horiz-adv-x="267" 
d="M122 512h135l-109 -512h-135zM210 584q-52 0 -91.5 30t-56.5 79l69 50q27 -63 84 -63q53 0 104 63l66 -50q-76 -109 -175 -109z" />
    <glyph glyph-name="Iogonek" unicode="&#x12e;" horiz-adv-x="302" 
d="M175 680h137l-145 -680q-41 -14 -70.5 -36t-29.5 -48q0 -12 9 -21t24 -9q14 0 42 15l29 -74q-31 -27 -90 -27q-55 0 -89.5 26.5t-34.5 69.5q0 70 76 119z" />
    <glyph glyph-name="iogonek" unicode="&#x12f;" horiz-adv-x="267" 
d="M122 512h135l-109 -512q-98 -38 -98 -82q0 -12 8.5 -20.5t21.5 -8.5q16 0 39 15l29 -66q-33 -25 -94 -25q-45 0 -73 24t-28 63q0 59 61 105zM159 723h145l-27 -126h-145z" />
    <glyph glyph-name="Idotaccent" unicode="&#x130;" horiz-adv-x="301" 
d="M174 680h137l-145 -680h-137zM184 759l26 126h144l-26 -126h-144z" />
    <glyph glyph-name="dotlessi" unicode="&#x131;" horiz-adv-x="267" 
d="M122 512h135l-109 -512h-135z" />
    <glyph glyph-name="Jcircumflex" unicode="&#x134;" horiz-adv-x="513" 
d="M-17 143l112 46q26 -87 90 -87q49 0 74 34.5t40 105.5l93 438h137l-93 -438q-54 -256 -252 -256q-84 0 -133.5 45t-67.5 112zM443 909h109l91 -151v-3h-103l-55 70l-83 -70h-113v3z" />
    <glyph glyph-name="jcircumflex" unicode="&#x135;" horiz-adv-x="268" 
d="M-19 -191l-65 96q32 24 49 39t34.5 42.5t24.5 60.5l99 465h135l-102 -477q-18 -85 -62.5 -137t-112.5 -89zM174 747h109l91 -151v-3h-103l-55 70l-83 -70h-113v3z" />
    <glyph glyph-name="Kcommaaccent" unicode="&#x136;" horiz-adv-x="615" 
d="M174 680h137l-63 -293l271 293h165v-3l-287 -287l172 -387v-3h-142l-124 296l-94 -94l-43 -202h-137zM348 -73l-18 -83l-81 -115h-73l70 95h-54l22 103h134z" />
    <glyph glyph-name="kcommaaccent" unicode="&#x137;" horiz-adv-x="525" 
d="M164 710h135l-82 -384l190 186h159v-4l-231 -220l146 -285v-3h-141l-96 201l-67 -64l-29 -137h-135zM297 -73l-18 -83l-81 -115h-73l70 95h-54l22 103h134z" />
    <glyph glyph-name="Lacute" unicode="&#x139;" horiz-adv-x="515" 
d="M174 680h137l-122 -570h281l-23 -110h-418zM190 755l1 3l107 151h140l-1 -3l-137 -151h-110z" />
    <glyph glyph-name="lacute" unicode="&#x13a;" horiz-adv-x="267" 
d="M164 710h135l-151 -710h-135zM172 768l1 3l107 151h140l-1 -3l-137 -151h-110z" />
    <glyph glyph-name="Lcommaaccent" unicode="&#x13b;" horiz-adv-x="515" 
d="M174 680h137l-122 -570h281l-23 -110h-418zM298 -73l-18 -83l-81 -115h-73l70 95h-54l22 103h134z" />
    <glyph glyph-name="lcommaaccent" unicode="&#x13c;" horiz-adv-x="267" 
d="M164 710h135l-151 -710h-135zM136 -73l-18 -83l-81 -115h-73l70 95h-54l22 103h134z" />
    <glyph glyph-name="Lcaron" unicode="&#x13d;" horiz-adv-x="549" 
d="M174 680h137l-122 -570h281l-23 -110h-418zM421 449h-86l50 231h119z" />
    <glyph glyph-name="lcaron" unicode="&#x13e;" horiz-adv-x="347" 
d="M164 710h135l-151 -710h-135zM393 479h-86l50 231h119z" />
    <glyph glyph-name="Ldot" unicode="&#x13f;" horiz-adv-x="526" 
d="M174 680h137l-122 -570h281l-23 -110h-418zM346 310l26 126h144l-26 -126h-144z" />
    <glyph glyph-name="ldot" unicode="&#x140;" horiz-adv-x="407" 
d="M164 710h135l-151 -710h-135zM255 291l26 126h144l-26 -126h-144z" />
    <glyph glyph-name="Lslash" unicode="&#x141;" horiz-adv-x="540" 
d="M214 110h281l-23 -110h-418l49 230l-84 -39l26 125l85 40l69 324h137l-58 -270l176 83l-26 -126l-176 -83z" />
    <glyph glyph-name="lslash" unicode="&#x142;" horiz-adv-x="339" 
d="M370 483l-21 -97l-91 -37l-74 -349h-135l63 296l-90 -37l21 98l90 37l67 316h135l-56 -264z" />
    <glyph glyph-name="Nacute" unicode="&#x143;" horiz-adv-x="725" 
d="M174 680h124l171 -387q26 -59 29 -97h4q-2 29 17 113l79 371h137l-145 -680h-121l-174 387q-27 59 -29 98h-4q2 -30 -17 -114l-79 -371h-137zM397 755l1 3l107 151h140l-1 -3l-137 -151h-110z" />
    <glyph glyph-name="nacute" unicode="&#x144;" horiz-adv-x="583" 
d="M122 512h127l-11 -52q66 66 149 66q89 0 128.5 -61t19.5 -155l-66 -310h-135l65 307q11 53 -7.5 81.5t-57.5 28.5q-65 0 -113 -73l-73 -344h-135zM294 593l1 3l107 151h140l-1 -3l-137 -151h-110z" />
    <glyph glyph-name="Ncommaaccent" unicode="&#x145;" horiz-adv-x="725" 
d="M174 680h124l171 -387q26 -59 29 -97h4q-2 29 17 113l79 371h137l-145 -680h-121l-174 387q-27 59 -29 98h-4q2 -30 -17 -114l-79 -371h-137zM372 -73l-18 -83l-81 -115h-73l70 95h-54l22 103h134z" />
    <glyph glyph-name="ncommaaccent" unicode="&#x146;" horiz-adv-x="583" 
d="M122 512h127l-11 -52q66 66 149 66q89 0 128.5 -61t19.5 -155l-66 -310h-135l65 307q11 53 -7.5 81.5t-57.5 28.5q-65 0 -113 -73l-73 -344h-135zM296 -73l-18 -83l-81 -115h-73l70 95h-54l22 103h134z" />
    <glyph glyph-name="Ncaron" unicode="&#x147;" horiz-adv-x="725" 
d="M174 680h124l171 -387q26 -59 29 -97h4q-2 29 17 113l79 371h137l-145 -680h-121l-174 387q-27 59 -29 98h-4q2 -30 -17 -114l-79 -371h-137zM508 755h-109l-91 151v3h103l54 -70l84 70h113v-3z" />
    <glyph glyph-name="ncaron" unicode="&#x148;" horiz-adv-x="583" 
d="M122 512h127l-11 -52q66 66 149 66q89 0 128.5 -61t19.5 -155l-66 -310h-135l65 307q11 53 -7.5 81.5t-57.5 28.5q-65 0 -113 -73l-73 -344h-135zM405 593h-109l-91 151v3h103l54 -70l84 70h113v-3z" />
    <glyph glyph-name="Eng" unicode="&#x14a;" horiz-adv-x="725" 
d="M735 680l-146 -684q-18 -87 -65 -135t-136 -48q-54 0 -92.5 25.5t-53.5 64.5l100 65q17 -39 51 -39q44 0 57 62l8 35l-163 361q-27 59 -29 98h-4q2 -30 -17 -114l-79 -371h-137l145 680h124l171 -387q26 -59 29 -97h4q-2 29 17 113l79 371h137z" />
    <glyph glyph-name="eng" unicode="&#x14b;" horiz-adv-x="582" 
d="M387 526q89 0 128.5 -61t19.5 -155l-59 -275q-18 -85 -62.5 -137t-112.5 -89l-65 96q32 24 49 39t34.5 42.5t24.5 60.5l55 260q12 52 -6.5 81t-58.5 29q-65 0 -113 -73l-73 -344h-135l109 512h127l-11 -52q66 66 149 66z" />
    <glyph glyph-name="Omacron" unicode="&#x14c;" horiz-adv-x="718" 
d="M425 694q127 0 201.5 -78t74.5 -195q0 -121 -46.5 -220t-131.5 -157t-192 -58q-126 0 -200.5 78t-74.5 196q0 184 104.5 309t264.5 125zM421 578q-104 0 -163 -92.5t-59 -218.5q0 -76 34.5 -120.5t101.5 -44.5q105 0 164 92.5t59 218.5q0 75 -35 120t-102 45zM302 867
h324l-20 -90h-324z" />
    <glyph glyph-name="omacron" unicode="&#x14d;" horiz-adv-x="583" 
d="M263 95q71 0 112 63t41 148q0 51 -23 81t-69 30q-73 0 -113.5 -62.5t-40.5 -147.5q0 -51 23 -81.5t70 -30.5zM328 526q103 0 163.5 -60t60.5 -150q0 -139 -83 -234.5t-211 -95.5q-103 0 -163.5 60t-60.5 150q0 140 82.5 235t211.5 95zM206 705h324l-20 -90h-324z" />
    <glyph glyph-name="Obreve" unicode="&#x14e;" horiz-adv-x="718" 
d="M425 694q127 0 201.5 -78t74.5 -195q0 -121 -46.5 -220t-131.5 -157t-192 -58q-126 0 -200.5 78t-74.5 196q0 184 104.5 309t264.5 125zM421 578q-104 0 -163 -92.5t-59 -218.5q0 -76 34.5 -120.5t101.5 -44.5q105 0 164 92.5t59 218.5q0 75 -35 120t-102 45zM446 746
q-52 0 -91.5 30t-56.5 79l69 50q27 -63 84 -63q53 0 104 63l66 -50q-76 -109 -175 -109z" />
    <glyph glyph-name="obreve" unicode="&#x14f;" horiz-adv-x="583" 
d="M263 95q71 0 112 63t41 148q0 51 -23 81t-69 30q-73 0 -113.5 -62.5t-40.5 -147.5q0 -51 23 -81.5t70 -30.5zM328 526q103 0 163.5 -60t60.5 -150q0 -139 -83 -234.5t-211 -95.5q-103 0 -163.5 60t-60.5 150q0 140 82.5 235t211.5 95zM350 584q-52 0 -91.5 30t-56.5 79
l69 50q27 -63 84 -63q53 0 104 63l66 -50q-76 -109 -175 -109z" />
    <glyph glyph-name="Ohungarumlaut" unicode="&#x150;" horiz-adv-x="718" 
d="M425 694q127 0 201.5 -78t74.5 -195q0 -121 -46.5 -220t-131.5 -157t-192 -58q-126 0 -200.5 78t-74.5 196q0 184 104.5 309t264.5 125zM421 578q-104 0 -163 -92.5t-59 -218.5q0 -76 34.5 -120.5t101.5 -44.5q105 0 164 92.5t59 218.5q0 75 -35 120t-102 45zM396 755
h-112v3l116 151h132v-3zM595 755h-112v3l122 151h135v-3z" />
    <glyph glyph-name="ohungarumlaut" unicode="&#x151;" horiz-adv-x="583" 
d="M263 95q71 0 112 63t41 148q0 51 -23 81t-69 30q-73 0 -113.5 -62.5t-40.5 -147.5q0 -51 23 -81.5t70 -30.5zM328 526q103 0 163.5 -60t60.5 -150q0 -139 -83 -234.5t-211 -95.5q-103 0 -163.5 60t-60.5 150q0 140 82.5 235t211.5 95zM300 593h-112v3l116 151h132v-3z
M499 593h-112v3l122 151h135v-3z" />
    <glyph glyph-name="OE" unicode="&#x152;" horiz-adv-x="925" 
d="M968 680l-23 -110h-284l-37 -172h240l-23 -109h-240l-38 -179h289l-23 -110h-401q-48 -14 -98 -14q-126 0 -200.5 78t-74.5 196q0 184 109 309t277 125q58 0 108 -14h419zM334 102q54 0 94 18l94 444q-36 14 -85 14q-112 0 -175.5 -92.5t-63.5 -218.5q0 -76 34.5 -120.5
t101.5 -44.5z" />
    <glyph glyph-name="oe" unicode="&#x153;" horiz-adv-x="919" 
d="M627 -14q-122 0 -178 95q-79 -95 -198 -95q-100 0 -158 60t-58 150q0 140 80 235t206 95q120 0 175 -93q79 93 194 93q93 0 149.5 -56.5t56.5 -142.5q0 -50 -18 -106h-340v-9q0 -54 26 -86.5t77 -32.5q75 0 130 71l80 -70q-88 -108 -224 -108zM262 95q70 0 110.5 63
t40.5 148q0 51 -22.5 81t-67.5 30q-72 0 -112 -62.5t-40 -147.5q0 -51 22.5 -81.5t68.5 -30.5zM685 423q-47 0 -81.5 -30.5t-51.5 -81.5h216q8 56 -14.5 84t-68.5 28z" />
    <glyph glyph-name="Racute" unicode="&#x154;" horiz-adv-x="629" 
d="M442 0l-158 277h-59l-59 -277h-137l145 680h235q89 0 145 -50t56 -125q0 -85 -52 -144.5t-137 -77.5l172 -280v-3h-151zM248 387h101q56 0 87 30.5t31 80.5q0 72 -79 72h-101zM339 755l1 3l107 151h140l-1 -3l-137 -151h-110z" />
    <glyph glyph-name="racute" unicode="&#x155;" horiz-adv-x="376" 
d="M122 512h127l-15 -68q57 82 144 82q16 0 40 -2l-26 -122h-26q-100 0 -150 -80l-68 -322h-135zM223 593l1 3l107 151h140l-1 -3l-137 -151h-110z" />
    <glyph glyph-name="Rcommaaccent" unicode="&#x156;" horiz-adv-x="629" 
d="M442 0l-158 277h-59l-59 -277h-137l145 680h235q89 0 145 -50t56 -125q0 -85 -52 -144.5t-137 -77.5l172 -280v-3h-151zM248 387h101q56 0 87 30.5t31 80.5q0 72 -79 72h-101zM349 -73l-18 -83l-81 -115h-73l70 95h-54l22 103h134z" />
    <glyph glyph-name="rcommaaccent" unicode="&#x157;" horiz-adv-x="376" 
d="M122 512h127l-15 -68q57 82 144 82q16 0 40 -2l-26 -122h-26q-100 0 -150 -80l-68 -322h-135zM135 -73l-18 -83l-81 -115h-73l70 95h-54l22 103h134z" />
    <glyph glyph-name="Rcaron" unicode="&#x158;" horiz-adv-x="629" 
d="M442 0l-158 277h-59l-59 -277h-137l145 680h235q89 0 145 -50t56 -125q0 -85 -52 -144.5t-137 -77.5l172 -280v-3h-151zM248 387h101q56 0 87 30.5t31 80.5q0 72 -79 72h-101zM450 755h-109l-91 151v3h103l54 -70l84 70h113v-3z" />
    <glyph glyph-name="rcaron" unicode="&#x159;" horiz-adv-x="376" 
d="M122 512h127l-15 -68q57 82 144 82q16 0 40 -2l-26 -122h-26q-100 0 -150 -80l-68 -322h-135zM334 593h-109l-91 151v3h103l54 -70l84 70h113v-3z" />
    <glyph glyph-name="Sacute" unicode="&#x15a;" horiz-adv-x="563" 
d="M273 -14q-180 0 -260 189l105 53q25 -61 62 -95.5t97 -34.5q51 0 82 26t31 63q0 36 -23.5 59.5t-80.5 48.5l-52 23q-125 55 -125 176q0 86 60.5 143t166.5 57q72 0 127 -37t85 -102l-103 -59q-20 41 -50.5 63.5t-62.5 22.5q-36 0 -59 -20t-23 -50q0 -28 16 -48t55 -37
l50 -22q71 -31 115.5 -77t44.5 -123q0 -98 -71 -158.5t-187 -60.5zM299 755l1 3l107 151h140l-1 -3l-137 -151h-110z" />
    <glyph glyph-name="sacute" unicode="&#x15b;" horiz-adv-x="463" 
d="M433 427l-86 -63q-38 59 -90 59q-24 0 -38.5 -13.5t-14.5 -32.5q0 -37 51 -57l38 -15q65 -25 96 -61t31 -90q0 -80 -57 -124t-145 -44q-144 0 -217 128l87 63q43 -88 131 -88q31 0 50.5 14.5t19.5 38.5q0 21 -16 34.5t-55 28.5l-39 15q-50 19 -77.5 57.5t-27.5 89.5
q0 67 51.5 113t132.5 46q118 0 175 -99zM216 593l1 3l107 151h140l-1 -3l-137 -151h-110z" />
    <glyph glyph-name="Scircumflex" unicode="&#x15c;" horiz-adv-x="563" 
d="M273 -14q-180 0 -260 189l105 53q25 -61 62 -95.5t97 -34.5q51 0 82 26t31 63q0 36 -23.5 59.5t-80.5 48.5l-52 23q-125 55 -125 176q0 86 60.5 143t166.5 57q72 0 127 -37t85 -102l-103 -59q-20 41 -50.5 63.5t-62.5 22.5q-36 0 -59 -20t-23 -50q0 -28 16 -48t55 -37
l50 -22q71 -31 115.5 -77t44.5 -123q0 -98 -71 -158.5t-187 -60.5zM326 909h109l91 -151v-3h-103l-55 70l-83 -70h-113v3z" />
    <glyph glyph-name="scircumflex" unicode="&#x15d;" horiz-adv-x="463" 
d="M433 427l-86 -63q-38 59 -90 59q-24 0 -38.5 -13.5t-14.5 -32.5q0 -37 51 -57l38 -15q65 -25 96 -61t31 -90q0 -80 -57 -124t-145 -44q-144 0 -217 128l87 63q43 -88 131 -88q31 0 50.5 14.5t19.5 38.5q0 21 -16 34.5t-55 28.5l-39 15q-50 19 -77.5 57.5t-27.5 89.5
q0 67 51.5 113t132.5 46q118 0 175 -99zM243 747h109l91 -151v-3h-103l-55 70l-83 -70h-113v3z" />
    <glyph glyph-name="Scedilla" unicode="&#x15e;" horiz-adv-x="563" 
d="M531 205q0 -88 -57.5 -146.5t-154.5 -69.5q43 -35 43 -83q0 -46 -42 -76t-101 -30q-56 0 -96 29l37 71q22 -14 48 -14q21 0 36 13.5t15 28.5q0 36 -69 69q-116 32 -177 178l105 53q25 -61 62 -95.5t97 -34.5q51 0 82 26t31 63q0 36 -23.5 59.5t-80.5 48.5l-52 23
q-125 55 -125 176q0 86 60.5 143t166.5 57q72 0 127 -37t85 -102l-103 -59q-20 41 -50.5 63.5t-62.5 22.5q-36 0 -59 -20t-23 -50q0 -28 16 -48t55 -37l50 -22q71 -31 115.5 -77t44.5 -123z" />
    <glyph glyph-name="scedilla" unicode="&#x15f;" horiz-adv-x="463" 
d="M433 427l-86 -63q-38 59 -90 59q-24 0 -38.5 -13.5t-14.5 -32.5q0 -37 51 -57l38 -15q65 -25 96 -61t31 -90q0 -70 -45 -113t-118 -52q38 -33 38 -77q0 -43 -38 -71t-91 -28q-52 0 -86 27l33 63q19 -14 44 -14q20 0 33.5 13t13.5 28q0 34 -61 66q-90 26 -142 118l87 63
q43 -88 131 -88q31 0 50.5 14.5t19.5 38.5q0 21 -16 34.5t-55 28.5l-39 15q-50 19 -77.5 57.5t-27.5 89.5q0 67 51.5 113t132.5 46q118 0 175 -99z" />
    <glyph glyph-name="Scaron" unicode="&#x160;" horiz-adv-x="563" 
d="M273 -14q-180 0 -260 189l105 53q25 -61 62 -95.5t97 -34.5q51 0 82 26t31 63q0 36 -23.5 59.5t-80.5 48.5l-52 23q-125 55 -125 176q0 86 60.5 143t166.5 57q72 0 127 -37t85 -102l-103 -59q-20 41 -50.5 63.5t-62.5 22.5q-36 0 -59 -20t-23 -50q0 -28 16 -48t55 -37
l50 -22q71 -31 115.5 -77t44.5 -123q0 -98 -71 -158.5t-187 -60.5zM410 755h-109l-91 151v3h103l54 -70l84 70h113v-3z" />
    <glyph glyph-name="scaron" unicode="&#x161;" horiz-adv-x="463" 
d="M433 427l-86 -63q-38 59 -90 59q-24 0 -38.5 -13.5t-14.5 -32.5q0 -37 51 -57l38 -15q65 -25 96 -61t31 -90q0 -80 -57 -124t-145 -44q-144 0 -217 128l87 63q43 -88 131 -88q31 0 50.5 14.5t19.5 38.5q0 21 -16 34.5t-55 28.5l-39 15q-50 19 -77.5 57.5t-27.5 89.5
q0 67 51.5 113t132.5 46q118 0 175 -99zM327 593h-109l-91 151v3h103l54 -70l84 70h113v-3z" />
    <glyph glyph-name="uni0162" unicode="&#x162;" horiz-adv-x="533" 
d="M270 570h-184l23 110h497l-23 -110h-176l-122 -570h-137zM272 -73l-18 -83l-81 -115h-73l70 95h-54l22 103h134z" />
    <glyph glyph-name="uni0163" unicode="&#x163;" horiz-adv-x="372" 
d="M226 -6q-90 0 -125 51.5t-15 144.5l48 224h-85l21 98h89l27 131h131l-27 -131h101l-21 -98h-101l-49 -230q-10 -45 3.5 -63.5t54.5 -18.5h33l-21 -102q-38 -6 -64 -6zM230 -73l-18 -83l-81 -115h-73l70 95h-54l22 103h134z" />
    <glyph glyph-name="Tcaron" unicode="&#x164;" horiz-adv-x="533" 
d="M270 570h-184l23 110h497l-23 -110h-176l-122 -570h-137zM427 755h-109l-91 151v3h103l54 -70l84 70h113v-3z" />
    <glyph glyph-name="tcaron" unicode="&#x165;" horiz-adv-x="372" 
d="M226 -6q-90 0 -125 51.5t-15 144.5l48 224h-85l21 98h89l27 131h131l-27 -131h101l-21 -98h-101l-49 -230q-10 -45 3.5 -63.5t54.5 -18.5h33l-21 -102q-38 -6 -64 -6zM430 555h-86l50 231h119z" />
    <glyph glyph-name="Tbar" unicode="&#x166;" horiz-adv-x="547" 
d="M588 570h-176l-39 -184h108l-22 -106h-109l-60 -280h-137l60 280h-102l22 106h103l39 184h-184l23 110h497z" />
    <glyph glyph-name="tbar" unicode="&#x167;" horiz-adv-x="373" 
d="M371 414h-101l-20 -93h94l-18 -88h-95l-10 -49q-10 -45 3.5 -63.5t54.5 -18.5h33l-21 -102q-38 -6 -64 -6q-90 0 -125 51.5t-15 144.5l9 43h-63l18 88h64l20 93h-85l21 98h89l27 131h131l-27 -131h101z" />
    <glyph glyph-name="Utilde" unicode="&#x168;" horiz-adv-x="676" 
d="M304 -14q-96 0 -154 37t-74.5 96t-0.5 134l92 427h137l-91 -422q-35 -156 95 -156q125 0 158 156l90 422h137l-92 -433q-25 -119 -100 -190t-197 -71zM501 754q-31 0 -53.5 14t-37 28t-27.5 14q-28 0 -49 -54l-80 39q27 54 58 79.5t78 25.5q31 0 53.5 -14t37.5 -28
t28 -14q28 0 49 54l80 -39q-27 -54 -58.5 -79.5t-78.5 -25.5z" />
    <glyph glyph-name="utilde" unicode="&#x169;" horiz-adv-x="583" 
d="M464 0h-127l11 52q-66 -66 -149 -66q-89 0 -128.5 61t-19.5 155l66 310h135l-65 -307q-11 -53 7.5 -81.5t57.5 -28.5q65 0 112 72l74 345h135zM416 593q-31 0 -53.5 14t-37 28t-27.5 14q-28 0 -49 -54l-80 39q27 54 58 79.5t78 25.5q31 0 53.5 -14t37.5 -28t28 -14
q28 0 49 54l80 -39q-27 -54 -58.5 -79.5t-78.5 -25.5z" />
    <glyph glyph-name="Umacron" unicode="&#x16a;" horiz-adv-x="676" 
d="M304 -14q-96 0 -154 37t-74.5 96t-0.5 134l92 427h137l-91 -422q-35 -156 95 -156q125 0 158 156l90 422h137l-92 -433q-25 -119 -100 -190t-197 -71zM301 867h324l-20 -90h-324z" />
    <glyph glyph-name="umacron" unicode="&#x16b;" horiz-adv-x="583" 
d="M464 0h-127l11 52q-66 -66 -149 -66q-89 0 -128.5 61t-19.5 155l66 310h135l-65 -307q-11 -53 7.5 -81.5t57.5 -28.5q65 0 112 72l74 345h135zM216 706h324l-20 -90h-324z" />
    <glyph glyph-name="Ubreve" unicode="&#x16c;" horiz-adv-x="676" 
d="M304 -14q-96 0 -154 37t-74.5 96t-0.5 134l92 427h137l-91 -422q-35 -156 95 -156q125 0 158 156l90 422h137l-92 -433q-25 -119 -100 -190t-197 -71zM445 746q-52 0 -91.5 30t-56.5 79l69 50q27 -63 84 -63q53 0 104 63l66 -50q-76 -109 -175 -109z" />
    <glyph glyph-name="ubreve" unicode="&#x16d;" horiz-adv-x="583" 
d="M464 0h-127l11 52q-66 -66 -149 -66q-89 0 -128.5 61t-19.5 155l66 310h135l-65 -307q-11 -53 7.5 -81.5t57.5 -28.5q65 0 112 72l74 345h135zM360 585q-52 0 -91.5 30t-56.5 79l69 50q27 -63 84 -63q53 0 104 63l66 -50q-76 -109 -175 -109z" />
    <glyph glyph-name="Uring" unicode="&#x16e;" horiz-adv-x="676" 
d="M304 -14q-96 0 -154 37t-74.5 96t-0.5 134l92 427h137l-91 -422q-35 -156 95 -156q125 0 158 156l90 422h137l-92 -433q-25 -119 -100 -190t-197 -71zM340 844q0 48 34.5 81.5t84.5 33.5q44 0 74 -27.5t30 -71.5q0 -48 -34 -81.5t-85 -33.5q-44 0 -74 28t-30 71zM410 848
q0 -18 10.5 -29t26.5 -11q21 0 33.5 13.5t12.5 34.5q0 18 -10.5 29t-25.5 11q-21 0 -34 -13.5t-13 -34.5z" />
    <glyph glyph-name="uring" unicode="&#x16f;" horiz-adv-x="583" 
d="M464 0h-127l11 52q-66 -66 -149 -66q-89 0 -128.5 61t-19.5 155l66 310h135l-65 -307q-11 -53 7.5 -81.5t57.5 -28.5q65 0 112 72l74 345h135zM255 683q0 48 34.5 81.5t84.5 33.5q44 0 74 -27.5t30 -71.5q0 -48 -34 -81.5t-85 -33.5q-44 0 -74 28t-30 71zM325 687
q0 -18 10.5 -29t26.5 -11q21 0 33.5 13.5t12.5 34.5q0 18 -10.5 29t-25.5 11q-21 0 -34 -13.5t-13 -34.5z" />
    <glyph glyph-name="Uhungarumlaut" unicode="&#x170;" horiz-adv-x="676" 
d="M304 -14q-96 0 -154 37t-74.5 96t-0.5 134l92 427h137l-91 -422q-35 -156 95 -156q125 0 158 156l90 422h137l-92 -433q-25 -119 -100 -190t-197 -71zM395 755h-112v3l116 151h132v-3zM594 755h-112v3l122 151h135v-3z" />
    <glyph glyph-name="uhungarumlaut" unicode="&#x171;" horiz-adv-x="583" 
d="M464 0h-127l11 52q-66 -66 -149 -66q-89 0 -128.5 61t-19.5 155l66 310h135l-65 -307q-11 -53 7.5 -81.5t57.5 -28.5q65 0 112 72l74 345h135zM310 594h-112v3l116 151h132v-3zM509 594h-112v3l122 151h135v-3z" />
    <glyph glyph-name="Uogonek" unicode="&#x172;" horiz-adv-x="676" 
d="M223 -102q0 50 53 89q-127 8 -176 82t-25 184l92 427h137l-91 -422q-35 -156 95 -156q123 0 158 156l90 422h137l-92 -433q-40 -187 -186 -242q-82 -45 -82 -91q0 -13 8.5 -21t20.5 -8q20 0 44 15l33 -73q-33 -27 -92 -27q-55 0 -89.5 27t-34.5 71z" />
    <glyph glyph-name="uogonek" unicode="&#x173;" horiz-adv-x="583" 
d="M464 0q-114 -39 -114 -87q0 -10 7 -17t19 -7q19 0 43 15l29 -66q-33 -25 -94 -25q-45 0 -73 24.5t-28 64.5q0 65 86 110l9 40q-66 -66 -149 -66q-89 0 -128.5 61t-19.5 155l66 310h135l-65 -307q-11 -53 7.5 -81.5t57.5 -28.5q65 0 112 72l74 345h135z" />
    <glyph glyph-name="Wcircumflex" unicode="&#x174;" horiz-adv-x="921" 
d="M97 680h135l10 -409q2 -87 -3 -124h4q8 47 43 123l190 410h142l15 -410q3 -87 1 -123h4q3 43 38 124l183 409h147l-318 -680h-152l-14 425q-3 87 1 122h-4q-8 -41 -45 -122l-195 -425h-154zM523 909h109l91 -151v-3h-103l-55 70l-83 -70h-113v3z" />
    <glyph glyph-name="wcircumflex" unicode="&#x175;" horiz-adv-x="803" 
d="M64 512h140l6 -256q2 -98 -2 -119h4q3 32 46 119l123 256h144l13 -256q6 -97 3 -119h4q2 33 42 119l119 256h143l-259 -512h-138l-20 282q-6 98 -4 114h-4q-5 -37 -43 -114l-138 -282h-138zM432 747h109l91 -151v-3h-103l-55 70l-83 -70h-113v3z" />
    <glyph glyph-name="Ycircumflex" unicode="&#x176;" horiz-adv-x="589" 
d="M91 677v3h144l90 -259l196 259h161v-3l-311 -385l-62 -292h-137l64 302zM356 909h109l91 -151v-3h-103l-55 70l-83 -70h-113v3z" />
    <glyph glyph-name="ycircumflex" unicode="&#x177;" horiz-adv-x="515" 
d="M159 -173h-145l140 226l-90 459h142l31 -236q8 -57 8 -102h4q16 55 42 103l125 235h148zM288 747h109l91 -151v-3h-103l-55 70l-83 -70h-113v3z" />
    <glyph glyph-name="Ydieresis" unicode="&#x178;" horiz-adv-x="589" 
d="M91 677v3h144l90 -259l196 259h161v-3l-311 -385l-62 -292h-137l64 302zM215 770l26 125h133l-26 -125h-133zM426 770l26 125h132l-26 -125h-132z" />
    <glyph glyph-name="Zacute" unicode="&#x179;" horiz-adv-x="543" 
d="M6 93l379 477h-275l24 110h451l-20 -93l-383 -477h299l-23 -110h-472zM304 755l1 3l107 151h140l-1 -3l-137 -151h-110z" />
    <glyph glyph-name="zacute" unicode="&#x17a;" horiz-adv-x="463" 
d="M-1 86l290 328h-216l21 98h380l-18 -85l-287 -329h234l-21 -98h-401zM236 593l1 3l107 151h140l-1 -3l-137 -151h-110z" />
    <glyph glyph-name="Zdotaccent" unicode="&#x17b;" horiz-adv-x="543" 
d="M6 93l379 477h-275l24 110h451l-20 -93l-383 -477h299l-23 -110h-472zM288 759l26 126h144l-26 -126h-144z" />
    <glyph glyph-name="zdotaccent" unicode="&#x17c;" horiz-adv-x="463" 
d="M-1 86l290 328h-216l21 98h380l-18 -85l-287 -329h234l-21 -98h-401zM220 597l26 126h144l-26 -126h-144z" />
    <glyph glyph-name="Zcaron" unicode="&#x17d;" horiz-adv-x="543" 
d="M6 93l379 477h-275l24 110h451l-20 -93l-383 -477h299l-23 -110h-472zM415 755h-109l-91 151v3h103l54 -70l84 70h113v-3z" />
    <glyph glyph-name="zcaron" unicode="&#x17e;" horiz-adv-x="463" 
d="M-1 86l290 328h-216l21 98h380l-18 -85l-287 -329h234l-21 -98h-401zM347 593h-109l-91 151v3h103l54 -70l84 70h113v-3z" />
    <glyph glyph-name="florin" unicode="&#x192;" 
d="M491 383l-22 -103h-110l-47 -137q-54 -157 -191 -157q-40 0 -72 5l25 110l37 -1q50 0 73 66l39 114h-94l22 103h107l45 129q54 158 191 158q43 0 71 -5l-24 -109h-37q-49 0 -72 -66l-37 -107h96z" />
    <glyph glyph-name="Scommaaccent" unicode="&#x218;" horiz-adv-x="563" 
d="M273 -14q-180 0 -260 189l105 53q25 -61 62 -95.5t97 -34.5q51 0 82 26t31 63q0 36 -23.5 59.5t-80.5 48.5l-52 23q-125 55 -125 176q0 86 60.5 143t166.5 57q72 0 127 -37t85 -102l-103 -59q-20 41 -50.5 63.5t-62.5 22.5q-36 0 -59 -20t-23 -50q0 -28 16 -48t55 -37
l50 -22q71 -31 115.5 -77t44.5 -123q0 -98 -71 -158.5t-187 -60.5zM325 -73l-18 -83l-81 -115h-73l70 95h-54l22 103h134z" />
    <glyph glyph-name="scommaaccent" unicode="&#x219;" horiz-adv-x="463" 
d="M433 427l-86 -63q-38 59 -90 59q-24 0 -38.5 -13.5t-14.5 -32.5q0 -37 51 -57l38 -15q65 -25 96 -61t31 -90q0 -80 -57 -124t-145 -44q-144 0 -217 128l87 63q43 -88 131 -88q31 0 50.5 14.5t19.5 38.5q0 21 -16 34.5t-55 28.5l-39 15q-50 19 -77.5 57.5t-27.5 89.5
q0 67 51.5 113t132.5 46q118 0 175 -99zM271 -73l-18 -83l-81 -115h-73l70 95h-54l22 103h134z" />
    <glyph glyph-name="uni021A" unicode="&#x21a;" horiz-adv-x="533" 
d="M270 570h-184l23 110h497l-23 -110h-176l-122 -570h-137zM272 -73l-18 -83l-81 -115h-73l70 95h-54l22 103h134z" />
    <glyph glyph-name="uni021B" unicode="&#x21b;" horiz-adv-x="372" 
d="M226 -6q-90 0 -125 51.5t-15 144.5l48 224h-85l21 98h89l27 131h131l-27 -131h101l-21 -98h-101l-49 -230q-10 -45 3.5 -63.5t54.5 -18.5h33l-21 -102q-38 -6 -64 -6zM230 -73l-18 -83l-81 -115h-73l70 95h-54l22 103h134z" />
    <glyph glyph-name="uni0237" unicode="&#x237;" horiz-adv-x="268" 
d="M-19 -191l-65 96q32 24 49 39t34.5 42.5t24.5 60.5l99 465h135l-102 -477q-18 -85 -62.5 -137t-112.5 -89z" />
    <glyph glyph-name="uni02BB" unicode="&#x2bb;" horiz-adv-x="248" 
d="M280 680l-91 -150h66l-31 -145h-147l27 129l105 166h71z" />
    <glyph glyph-name="uni02BC" unicode="&#x2bc;" horiz-adv-x="241" 
d="M87 385l91 150h-66l31 145h147l-28 -129l-104 -166h-71z" />
    <glyph glyph-name="circumflex" unicode="&#x2c6;" horiz-adv-x="604" 
d="M411 737h109l91 -151v-3h-103l-55 70l-83 -70h-113v3z" />
    <glyph glyph-name="caron" unicode="&#x2c7;" horiz-adv-x="604" 
d="M489 583h-109l-91 151v3h103l54 -70l84 70h113v-3z" />
    <glyph glyph-name="breve" unicode="&#x2d8;" horiz-adv-x="607" 
d="M453 574q-52 0 -91.5 30t-56.5 79l69 50q27 -63 84 -63q53 0 104 63l66 -50q-76 -109 -175 -109z" />
    <glyph glyph-name="dotaccent" unicode="&#x2d9;" horiz-adv-x="644" 
d="M378 597l26 126h144l-26 -126h-144z" />
    <glyph glyph-name="ring" unicode="&#x2da;" horiz-adv-x="629" 
d="M340 672q0 48 34.5 81.5t84.5 33.5q44 0 74 -27.5t30 -71.5q0 -48 -34 -81.5t-85 -33.5q-44 0 -74 28t-30 71zM410 676q0 -18 10.5 -29t26.5 -11q21 0 33.5 13.5t12.5 34.5q0 18 -10.5 29t-25.5 11q-21 0 -34 -13.5t-13 -34.5z" />
    <glyph glyph-name="ogonek" unicode="&#x2db;" horiz-adv-x="630" 
d="M299 29l88 -29q-114 -39 -114 -87q0 -10 7 -17t19 -7q19 0 43 15l29 -66q-33 -25 -94 -25q-45 0 -73 24.5t-28 64.5q0 78 123 127z" />
    <glyph glyph-name="tilde" unicode="&#x2dc;" horiz-adv-x="598" 
d="M469 582q-31 0 -53.5 14t-37 28t-27.5 14q-28 0 -49 -54l-80 39q27 54 58 79.5t78 25.5q31 0 53.5 -14t37.5 -28t28 -14q28 0 49 54l80 -39q-27 -54 -58.5 -79.5t-78.5 -25.5z" />
    <glyph glyph-name="hungarumlaut" unicode="&#x2dd;" horiz-adv-x="588" 
d="M339 583h-112v3l116 151h132v-3zM538 583h-112v3l122 151h135v-3z" />
    <glyph glyph-name="uni0326" unicode="&#x326;" horiz-adv-x="0" 
d="M-351 -73l-18 -83l-81 -115h-73l70 95h-54l22 103h134z" />
    <glyph glyph-name="Delta" unicode="&#x394;" horiz-adv-x="602" 
d="M311 680h163l75 -587l-20 -93h-563l20 93zM322 455l-181 -345h268l-35 346q-8 73 -2 107h-4q-5 -23 -46 -108z" />
    <glyph glyph-name="Delta" unicode="&#x2206;" horiz-adv-x="602" 
d="M311 680h163l75 -587l-20 -93h-563l20 93zM322 455l-181 -345h268l-35 346q-8 73 -2 107h-4q-5 -23 -46 -108z" />
    <glyph glyph-name="Omega" unicode="&#x3a9;" horiz-adv-x="758" 
d="M675 105l-22 -105h-283l20 94q91 32 139.5 116t48.5 183q0 85 -36.5 135t-109.5 50q-97 0 -159.5 -85t-62.5 -216q0 -146 83 -183l-20 -94h-266l22 105h112q-68 68 -68 190q0 165 107 282t260 117q133 0 205.5 -79.5t72.5 -201.5q0 -95 -43 -176.5t-108 -131.5h108z" />
    <glyph glyph-name="Omega" unicode="&#x2126;" horiz-adv-x="758" 
d="M675 105l-22 -105h-283l20 94q91 32 139.5 116t48.5 183q0 85 -36.5 135t-109.5 50q-97 0 -159.5 -85t-62.5 -216q0 -146 83 -183l-20 -94h-266l22 105h112q-68 68 -68 190q0 165 107 282t260 117q133 0 205.5 -79.5t72.5 -201.5q0 -95 -43 -176.5t-108 -131.5h108z" />
    <glyph glyph-name="pi" unicode="&#x3c0;" horiz-adv-x="605" 
d="M626 512l-21 -98h-56l-88 -414h-135l88 414h-152l-88 -414h-135l88 414h-56l21 98h534z" />
    <glyph glyph-name="Wgrave" unicode="&#x1e80;" horiz-adv-x="921" 
d="M97 680h135l10 -409q2 -87 -3 -124h4q8 47 43 123l190 410h142l15 -410q3 -87 1 -123h4q3 43 38 124l183 409h147l-318 -680h-152l-14 425q-3 87 1 122h-4q-8 -41 -45 -122l-195 -425h-154zM606 758l-1 -3h-94l-96 151l1 3h127z" />
    <glyph glyph-name="wgrave" unicode="&#x1e81;" horiz-adv-x="803" 
d="M64 512h140l6 -256q2 -98 -2 -119h4q3 32 46 119l123 256h144l13 -256q6 -97 3 -119h4q2 33 42 119l119 256h143l-259 -512h-138l-20 282q-6 98 -4 114h-4q-5 -37 -43 -114l-138 -282h-138zM515 596l-1 -3h-94l-96 151l1 3h127z" />
    <glyph glyph-name="Wacute" unicode="&#x1e82;" horiz-adv-x="921" 
d="M97 680h135l10 -409q2 -87 -3 -124h4q8 47 43 123l190 410h142l15 -410q3 -87 1 -123h4q3 43 38 124l183 409h147l-318 -680h-152l-14 425q-3 87 1 122h-4q-8 -41 -45 -122l-195 -425h-154zM496 755l1 3l107 151h140l-1 -3l-137 -151h-110z" />
    <glyph glyph-name="wacute" unicode="&#x1e83;" horiz-adv-x="803" 
d="M64 512h140l6 -256q2 -98 -2 -119h4q3 32 46 119l123 256h144l13 -256q6 -97 3 -119h4q2 33 42 119l119 256h143l-259 -512h-138l-20 282q-6 98 -4 114h-4q-5 -37 -43 -114l-138 -282h-138zM405 593l1 3l107 151h140l-1 -3l-137 -151h-110z" />
    <glyph glyph-name="Wdieresis" unicode="&#x1e84;" horiz-adv-x="921" 
d="M97 680h135l10 -409q2 -87 -3 -124h4q8 47 43 123l190 410h142l15 -410q3 -87 1 -123h4q3 43 38 124l183 409h147l-318 -680h-152l-14 425q-3 87 1 122h-4q-8 -41 -45 -122l-195 -425h-154zM382 770l26 125h133l-26 -125h-133zM593 770l26 125h132l-26 -125h-132z" />
    <glyph glyph-name="wdieresis" unicode="&#x1e85;" horiz-adv-x="803" 
d="M64 512h140l6 -256q2 -98 -2 -119h4q3 32 46 119l123 256h144l13 -256q6 -97 3 -119h4q2 33 42 119l119 256h143l-259 -512h-138l-20 282q-6 98 -4 114h-4q-5 -37 -43 -114l-138 -282h-138zM291 608l26 125h133l-26 -125h-133zM502 608l26 125h132l-26 -125h-132z" />
    <glyph glyph-name="uni1E9E" unicode="&#x1e9e;" horiz-adv-x="683" 
d="M484 397q76 -10 119.5 -59.5t43.5 -119.5q0 -96 -74 -164t-173 -68q-70 0 -114 25t-62 53l73 85q22 -26 41.5 -38.5t52.5 -12.5q49 0 82 32t33 77q0 35 -21.5 58.5t-68.5 23.5h-102l18 94l146 187h-92q-54 0 -88 -37.5t-48 -100.5l-92 -432h-135l91 436q25 116 93 180
t179 64h267l-19 -94z" />
    <glyph glyph-name="Ygrave" unicode="&#x1ef2;" horiz-adv-x="589" 
d="M91 677v3h144l90 -259l196 259h161v-3l-311 -385l-62 -292h-137l64 302zM439 758l-1 -3h-94l-96 151l1 3h127z" />
    <glyph glyph-name="ygrave" unicode="&#x1ef3;" horiz-adv-x="515" 
d="M159 -173h-145l140 226l-90 459h142l31 -236q8 -57 8 -102h4q16 55 42 103l125 235h148zM371 596l-1 -3h-94l-96 151l1 3h127z" />
    <glyph glyph-name="uni2007" unicode="&#x2007;" 
 />
    <glyph glyph-name="uni2008" unicode="&#x2008;" horiz-adv-x="265" 
 />
    <glyph glyph-name="uni2009" unicode="&#x2009;" horiz-adv-x="80" 
 />
    <glyph glyph-name="uni200B" unicode="&#x200b;" horiz-adv-x="0" 
 />
    <glyph glyph-name="uni2010" unicode="&#x2010;" horiz-adv-x="382" 
d="M59 251l22 104h264l-22 -104h-264z" />
    <glyph glyph-name="uni2011" unicode="&#x2011;" horiz-adv-x="382" 
d="M59 251l22 104h264l-22 -104h-264z" />
    <glyph glyph-name="figuredash" unicode="&#x2012;" 
d="M72 251l22 104h417l-22 -104h-417z" />
    <glyph glyph-name="endash" unicode="&#x2013;" horiz-adv-x="575" 
d="M59 251l22 104h457l-22 -104h-457z" />
    <glyph glyph-name="emdash" unicode="&#x2014;" horiz-adv-x="877" 
d="M59 251l22 104h759l-22 -104h-759z" />
    <glyph glyph-name="quoteleft" unicode="&#x2018;" horiz-adv-x="248" 
d="M280 680l-91 -150h66l-31 -145h-147l27 129l105 166h71z" />
    <glyph glyph-name="quoteright" unicode="&#x2019;" horiz-adv-x="241" 
d="M87 385l91 150h-66l31 145h147l-28 -129l-104 -166h-71z" />
    <glyph glyph-name="quotesinglbase" unicode="&#x201a;" horiz-adv-x="257" 
d="M-16 -150l91 150h-66l31 145h147l-28 -129l-104 -166h-71z" />
    <glyph glyph-name="quotedblleft" unicode="&#x201c;" horiz-adv-x="466" 
d="M498 680l-91 -150h66l-31 -145h-147l27 129l105 166h71zM280 680l-91 -150h66l-31 -145h-147l27 129l105 166h71z" />
    <glyph glyph-name="quotedblright" unicode="&#x201d;" horiz-adv-x="460" 
d="M88 386l91 150h-66l31 145h147l-28 -129l-104 -166h-71zM307 385l91 150h-66l30 145h147l-27 -129l-104 -166h-71z" />
    <glyph glyph-name="quotedblbase" unicode="&#x201e;" horiz-adv-x="475" 
d="M-16 -150l91 150h-66l31 145h147l-28 -129l-104 -166h-71zM202 -150l91 150h-66l31 145h147l-28 -129l-104 -166h-71z" />
    <glyph glyph-name="dagger" unicode="&#x2020;" horiz-adv-x="475" 
d="M460 395h-138l-84 -395h-107l84 395h-139l21 98h139l40 187h107l-40 -187h138z" />
    <glyph glyph-name="daggerdbl" unicode="&#x2021;" horiz-adv-x="475" 
d="M294 261h138l-21 -97h-138l-35 -164h-107l35 164h-139l21 97h139l33 158h-139l21 97h139l35 164h107l-35 -164h138l-21 -97h-138z" />
    <glyph glyph-name="bullet" unicode="&#x2022;" horiz-adv-x="400" 
d="M210 172q-58 0 -94.5 37t-36.5 93q0 55 36.5 91.5t94.5 36.5t94.5 -36.5t36.5 -91.5q0 -56 -36.5 -93t-94.5 -37z" />
    <glyph glyph-name="ellipsis" unicode="&#x2026;" horiz-adv-x="747" 
d="M41 153h156l-33 -153h-156zM282 153h156l-33 -153h-156zM523 153h156l-33 -153h-156z" />
    <glyph glyph-name="perthousand" unicode="&#x2030;" horiz-adv-x="1212" 
d="M271 0h-107l443 656h106zM176 483q0 -28 16.5 -45.5t44.5 -17.5q36 0 62.5 28.5t26.5 67.5q0 28 -16 45.5t-45 17.5q-36 0 -62.5 -29t-26.5 -67zM423 522q0 -78 -56.5 -133.5t-135.5 -55.5q-68 0 -110 41.5t-42 102.5q0 78 56.5 133.5t136.5 55.5q67 0 109 -41.5
t42 -102.5zM551 136q0 -28 16.5 -45.5t44.5 -17.5q36 0 62.5 28.5t26.5 67.5q0 28 -16 45.5t-45 17.5q-36 0 -62.5 -29t-26.5 -67zM798 175q0 -78 -56.5 -133.5t-135.5 -55.5q-68 0 -110 41.5t-42 102.5q0 78 56.5 133.5t136.5 55.5q67 0 109 -41.5t42 -102.5zM920 136
q0 -28 16.5 -45.5t44.5 -17.5q36 0 62.5 28.5t26.5 67.5q0 28 -16 45.5t-45 17.5q-36 0 -62.5 -29t-26.5 -67zM1167 175q0 -78 -56.5 -133.5t-135.5 -55.5q-68 0 -110 41.5t-42 102.5q0 78 56.5 133.5t136.5 55.5q67 0 109 -41.5t42 -102.5z" />
    <glyph glyph-name="minute" unicode="&#x2032;" horiz-adv-x="256" 
d="M312 656l-136 -279h-104l96 279h144z" />
    <glyph glyph-name="second" unicode="&#x2033;" horiz-adv-x="460" 
d="M516 656l-136 -279h-104l96 279h144zM312 656l-136 -279h-104l96 279h144z" />
    <glyph glyph-name="guilsinglleft" unicode="&#x2039;" horiz-adv-x="329" 
d="M40 282l8 38l169 189h126l-1 -3l-176 -215l101 -194v-3h-111z" />
    <glyph glyph-name="guilsinglright" unicode="&#x203a;" horiz-adv-x="327" 
d="M309 321l-8 -38l-169 -189h-126l1 3l176 215l-101 194v3h111z" />
    <glyph glyph-name="fraction" unicode="&#x2044;" horiz-adv-x="165" 
d="M377 656l-449 -656h-111l450 656h110z" />
    <glyph glyph-name="uni20A9" unicode="&#x20a9;" 
d="M53 477h37l18 179h123l-26 -183h48l55 183h112l-24 -183h50l52 183h125l-58 -179h40l-18 -84h-49l-19 -59h56l-18 -84h-65l-80 -250h-149l33 254h-33l-73 -254h-148l25 250h-62l18 84h52l6 59h-46zM386 398l-9 -68h28l20 68h-39zM194 398l-10 -68h26l21 68h-37zM386 254
h-21l-18 -139zM191 254h-20l-20 -139zM305 398l-20 -68h21l9 68h-10z" />
    <glyph glyph-name="Euro" unicode="&#x20ac;" 
d="M413 298l-18 -85h-166q5 -112 91 -112q55 0 110 60l80 -77q-79 -98 -194 -98q-100 0 -159.5 59t-62.5 168h-71l18 85h56q4 40 7 59h-50l18 85h53q37 110 110 169t167 59q63 0 110.5 -30.5t70.5 -84.5l-93 -60q-35 60 -96 60q-92 0 -135 -113h185l-18 -85h-188
q-6 -38 -7 -59h182z" />
    <glyph glyph-name="uni20B9" unicode="&#x20b9;" 
d="M581 656l-18 -85h-139q35 -31 41 -74h83l-18 -85h-76q-24 -69 -81 -111.5t-132 -47.5l216 -250l1 -3h-159l-223 263l16 86h122q74 0 106 63h-214l18 85h214q-5 62 -84 62h-117l20 97h424z" />
    <glyph glyph-name="uni20BA" unicode="&#x20ba;" 
d="M221 107h53q89 0 138 108l103 -36q-81 -179 -238 -179h-211l40 188l-59 -19l20 93l59 18l13 63l-59 -18l20 92l59 18l47 221h132l-38 -176l147 47l-20 -93l-146 -46l-14 -63l147 47l-20 -92l-146 -47z" />
    <glyph glyph-name="afii61289" unicode="&#x2113;" horiz-adv-x="439" 
d="M356 96l-20 -96q-58 -6 -97 -6q-76 0 -114.5 40t-37.5 113l-51 -26l-30 86q69 33 98 49l46 232q16 82 71.5 132t123.5 50q58 0 91 -35t33 -85q0 -100 -64.5 -178t-179.5 -148l-3 -16q-13 -60 5.5 -86t67.5 -26h61zM284 505l-35 -164q58 41 86 86t28 102q0 43 -27 43
q-38 0 -52 -67z" />
    <glyph glyph-name="afii61352" unicode="&#x2116;" horiz-adv-x="1020" 
d="M886 390q-64 0 -94 40.5t-18 99.5q12 63 53.5 101.5t102.5 38.5q64 0 94 -40.5t18 -99.5q-12 -63 -53.5 -101.5t-102.5 -38.5zM168 656h122l174 -366q32 -67 33 -85h4q-2 21 15 100l76 351h137l-139 -656h-118l-176 367q-33 70 -34 85h-4q1 -22 -15 -101l-77 -351h-137z
M923 601q-47 0 -62 -71t32 -71t62 71t-32 71zM733 270l18 84h246l-18 -84h-246z" />
    <glyph glyph-name="uni2117" unicode="&#x2117;" horiz-adv-x="764" 
d="M401 4q-141 0 -237.5 96.5t-96.5 238.5t96.5 238.5t237.5 96.5t237.5 -96.5t96.5 -238.5t-96.5 -238.5t-237.5 -96.5zM401 97q102 0 169.5 69.5t67.5 172.5t-67.5 172.5t-169.5 69.5t-169.5 -69.5t-67.5 -172.5t67.5 -172.5t169.5 -69.5zM287 177v325h133q63 0 101 -28.5
t38 -86.5q0 -57 -38 -85.5t-101 -28.5h-34v-96h-99zM386 351h27q45 0 45 37q0 36 -45 36h-27v-73z" />
    <glyph glyph-name="trademark" unicode="&#x2122;" horiz-adv-x="698" 
d="M119 680h238l-14 -66h-79l-50 -235h-81l50 235h-78zM499 680l6 -50q11 -117 9 -139h3q4 24 57 126l33 63h117l-64 -301h-81l9 42q33 150 40 166h-3q-10 -28 -96 -189l-10 -19h-52l-1 6q-17 177 -16 202h-3q0 -16 -31 -166l-9 -42h-81l64 301h109z" />
    <glyph glyph-name="estimated" unicode="&#x212e;" horiz-adv-x="769" 
d="M429 -14q-157 0 -258.5 98.5t-101.5 256.5q0 156 99 255t243 99t243 -99t99 -255v-18h-544v-226q87 -76 220 -76q81 0 149 36t110 99l28 -21q-46 -70 -122 -109.5t-165 -39.5zM411 660q-117 0 -202 -74v-228h408v224q-86 78 -206 78z" />
    <glyph glyph-name="uni2150" unicode="&#x2150;" horiz-adv-x="813" 
d="M670 656l-449 -656h-111l450 656h110zM803 364l-14 -66l-170 -298h-106v2l161 280h-150l17 82h262zM230 292h-98l56 259l-71 -31l-21 72l143 64h68z" />
    <glyph glyph-name="uni2151" unicode="&#x2151;" horiz-adv-x="825" 
d="M664 656l-449 -656h-111l450 656h110zM462 55l70 48q12 -33 54 -33q23 0 44.5 20t33.5 59q-33 -23 -71 -23q-46 0 -77.5 29.5t-31.5 74.5q0 62 46.5 102t116.5 40q65 0 99 -40t34 -105q0 -103 -54 -169t-143 -66t-121 63zM679 255q0 18 -10 29t-25 11q-26 0 -42 -17
t-16 -44q0 -18 10 -29t26 -11q25 0 41 17t16 44zM230 292h-98l56 259l-71 -31l-21 72l143 64h68z" />
    <glyph glyph-name="uni2152" unicode="&#x2152;" horiz-adv-x="1098" 
d="M670 656l-449 -656h-111l450 656h110zM627 0h-98l56 259l-71 -31l-21 72l143 64h68zM867 -8q-66 0 -101.5 38.5t-35.5 99.5q0 101 50.5 171.5t135.5 70.5q65 0 101 -38.5t36 -99.5q0 -100 -50.5 -171t-135.5 -71zM951 226q0 61 -42 61q-32 0 -54.5 -39t-22.5 -111
q0 -61 41 -61q32 0 55 39t23 111zM230 292h-98l56 259l-71 -31l-21 72l143 64h68z" />
    <glyph glyph-name="onethird" unicode="&#x2153;" horiz-adv-x="800" 
d="M666 656l-449 -656h-111l450 656h110zM581 -8q-48 0 -82 20t-51 47l57 56q33 -40 77 -40q24 0 38.5 11t14.5 30q0 34 -51 34h-32l15 70h41q19 0 28.5 11t9.5 24q0 33 -33 33q-34 0 -60 -33l-54 57q55 60 126 60q60 0 93 -28t33 -68q0 -26 -17.5 -51t-46.5 -39
q48 -18 48 -74q0 -55 -45 -87.5t-109 -32.5zM230 292h-98l56 259l-71 -31l-21 72l143 64h68z" />
    <glyph glyph-name="twothirds" unicode="&#x2154;" horiz-adv-x="842" 
d="M725 656l-449 -656h-111l450 656h110zM629 -8q-48 0 -82 20t-51 47l57 56q33 -40 77 -40q24 0 38.5 11t14.5 30q0 34 -51 34h-32l15 70h41q19 0 28.5 11t9.5 24q0 33 -33 33q-34 0 -60 -33l-54 57q55 60 126 60q60 0 93 -28t33 -68q0 -26 -17.5 -51t-46.5 -39
q48 -18 48 -74q0 -55 -45 -87.5t-109 -32.5zM175 527l-78 30q48 107 142 107q58 0 89.5 -29.5t31.5 -73.5q0 -39 -20 -71.5t-44 -50t-54.5 -37.5t-41.5 -30h128l-17 -80h-261l14 67q26 35 76.5 71t84 64t33.5 57q0 28 -28 28q-39 0 -55 -52z" />
    <glyph glyph-name="uni2155" unicode="&#x2155;" horiz-adv-x="791" 
d="M667 656l-449 -656h-111l450 656h110zM741 284h-141l-14 -51q24 4 35 4q47 0 76 -26t29 -73q0 -65 -43.5 -105.5t-116.5 -40.5q-89 0 -129 71l66 51q26 -39 67 -39q25 0 39 14t14 39q0 18 -10.5 28t-28.5 10q-20 0 -49 -17l-53 19l56 196h220zM230 292h-98l56 259
l-71 -31l-21 72l143 64h68z" />
    <glyph glyph-name="uni2156" unicode="&#x2156;" horiz-adv-x="834" 
d="M726 656l-449 -656h-111l450 656h110zM792 284h-141l-14 -51q24 4 35 4q47 0 76 -26t29 -73q0 -65 -43.5 -105.5t-116.5 -40.5q-89 0 -129 71l66 51q26 -39 67 -39q25 0 39 14t14 39q0 18 -10.5 28t-28.5 10q-20 0 -49 -17l-53 19l56 196h220zM173 527l-78 30
q48 107 142 107q58 0 89.5 -29.5t31.5 -73.5q0 -39 -20 -71.5t-44 -50t-54.5 -37.5t-41.5 -30h128l-17 -80h-261l14 67q26 35 76.5 71t84 64t33.5 57q0 28 -28 28q-39 0 -55 -52z" />
    <glyph glyph-name="uni2157" unicode="&#x2157;" horiz-adv-x="834" 
d="M719 656l-449 -656h-111l450 656h110zM791 284h-141l-14 -51q24 4 35 4q47 0 76 -26t29 -73q0 -65 -43.5 -105.5t-116.5 -40.5q-89 0 -129 71l66 51q26 -39 67 -39q25 0 39 14t14 39q0 18 -10.5 28t-28.5 10q-20 0 -49 -17l-53 19l56 196h220zM184 284q-48 0 -82 20
t-51 47l57 56q33 -40 77 -40q24 0 38.5 11t14.5 30q0 34 -51 34h-32l15 70h41q19 0 28.5 11t9.5 24q0 33 -33 33q-34 0 -60 -33l-54 57q55 60 126 60q60 0 93 -28t33 -68q0 -26 -17.5 -51t-46.5 -39q48 -18 48 -74q0 -55 -45 -87.5t-109 -32.5z" />
    <glyph glyph-name="uni2158" unicode="&#x2158;" horiz-adv-x="863" 
d="M744 656l-449 -656h-111l450 656h110zM817 284h-141l-14 -51q24 4 35 4q47 0 76 -26t29 -73q0 -65 -43.5 -105.5t-116.5 -40.5q-89 0 -129 71l66 51q26 -39 67 -39q25 0 39 14t14 39q0 18 -10.5 28t-28.5 10q-20 0 -49 -17l-53 19l56 196h220zM324 440h55l-14 -66h-55
l-18 -82h-97l17 82h-159l14 66l183 216h120zM236 482q10 47 31 98h-3q-20 -34 -52 -73l-56 -67h71z" />
    <glyph glyph-name="uni2159" unicode="&#x2159;" horiz-adv-x="815" 
d="M672 656l-449 -656h-111l450 656h110zM775 308l-69 -48q-14 33 -55 33q-24 0 -45 -20t-33 -60q32 24 72 24q46 0 77 -29t31 -75q0 -62 -46.5 -101.5t-116.5 -39.5q-65 0 -99 40t-34 105q0 102 54 168.5t143 66.5t121 -64zM558 108q0 -17 10 -28.5t26 -11.5q25 0 41 17.5
t16 44.5q0 18 -10 29t-26 11q-25 0 -41 -17.5t-16 -44.5zM230 292h-98l56 259l-71 -31l-21 72l143 64h68z" />
    <glyph glyph-name="uni215A" unicode="&#x215a;" horiz-adv-x="847" 
d="M709 656l-449 -656h-111l450 656h110zM813 308l-69 -48q-14 33 -55 33q-24 0 -45 -20t-33 -60q32 24 72 24q46 0 77 -29t31 -75q0 -62 -46.5 -101.5t-116.5 -39.5q-65 0 -99 40t-34 105q0 102 54 168.5t143 66.5t121 -64zM596 108q0 -17 10 -28.5t26 -11.5q25 0 41 17.5
t16 44.5q0 18 -10 29t-26 11q-25 0 -41 -17.5t-16 -44.5zM351 576h-141l-14 -51q24 4 35 4q47 0 76 -26t29 -73q0 -65 -43.5 -105.5t-116.5 -40.5q-89 0 -129 71l66 51q26 -39 67 -39q25 0 39 14t14 39q0 18 -10.5 28t-28.5 10q-20 0 -49 -17l-53 19l56 196h220z" />
    <glyph glyph-name="oneeighth" unicode="&#x215b;" horiz-adv-x="815" 
d="M678 656l-449 -656h-111l450 656h110zM640 372q62 0 95 -27.5t33 -66.5q0 -58 -63 -89q46 -21 46 -73q0 -54 -41 -89t-120 -35q-71 0 -107.5 28t-36.5 70q0 35 21.5 64t56.5 41q-30 21 -30 66q0 46 37.5 78.5t108.5 32.5zM589 254q0 -30 37 -30q21 0 33.5 12.5t12.5 31.5
q0 30 -35 30q-22 0 -35 -12.5t-13 -31.5zM550 108q0 -39 45 -39q23 0 37 10t17.5 20t3.5 21q0 39 -45 39q-30 0 -44 -15.5t-14 -35.5zM230 292h-98l56 259l-71 -31l-21 72l143 64h68z" />
    <glyph glyph-name="threeeighths" unicode="&#x215c;" horiz-adv-x="849" 
d="M723 656l-449 -656h-111l450 656h110zM680 372q62 0 95 -27.5t33 -66.5q0 -58 -63 -89q46 -21 46 -73q0 -54 -41 -89t-120 -35q-71 0 -107.5 28t-36.5 70q0 35 21.5 64t56.5 41q-30 21 -30 66q0 46 37.5 78.5t108.5 32.5zM629 254q0 -30 37 -30q21 0 33.5 12.5t12.5 31.5
q0 30 -35 30q-22 0 -35 -12.5t-13 -31.5zM590 108q0 -39 45 -39q23 0 37 10t17.5 20t3.5 21q0 39 -45 39q-30 0 -44 -15.5t-14 -35.5zM185 284q-48 0 -82 20t-51 47l57 56q33 -40 77 -40q24 0 38.5 11t14.5 30q0 34 -51 34h-32l15 70h41q19 0 28.5 11t9.5 24q0 33 -33 33
q-34 0 -60 -33l-54 57q55 60 126 60q60 0 93 -28t33 -68q0 -26 -17.5 -51t-46.5 -39q48 -18 48 -74q0 -55 -45 -87.5t-109 -32.5z" />
    <glyph glyph-name="fiveeighths" unicode="&#x215d;" horiz-adv-x="840" 
d="M713 656l-449 -656h-111l450 656h110zM670 372q62 0 95 -27.5t33 -66.5q0 -58 -63 -89q46 -21 46 -73q0 -54 -41 -89t-120 -35q-71 0 -107.5 28t-36.5 70q0 35 21.5 64t56.5 41q-30 21 -30 66q0 46 37.5 78.5t108.5 32.5zM619 254q0 -30 37 -30q21 0 33.5 12.5t12.5 31.5
q0 30 -35 30q-22 0 -35 -12.5t-13 -31.5zM580 108q0 -39 45 -39q23 0 37 10t17.5 20t3.5 21q0 39 -45 39q-30 0 -44 -15.5t-14 -35.5zM352 576h-141l-14 -51q24 4 35 4q47 0 76 -26t29 -73q0 -65 -43.5 -105.5t-116.5 -40.5q-89 0 -129 71l66 51q26 -39 67 -39q25 0 39 14
t14 39q0 18 -10.5 28t-28.5 10q-20 0 -49 -17l-53 19l56 196h220z" />
    <glyph glyph-name="seveneighths" unicode="&#x215e;" horiz-adv-x="799" 
d="M665 656l-449 -656h-111l450 656h110zM629 372q62 0 95 -27.5t33 -66.5q0 -58 -63 -89q46 -21 46 -73q0 -54 -41 -89t-120 -35q-71 0 -107.5 28t-36.5 70q0 35 21.5 64t56.5 41q-30 21 -30 66q0 46 37.5 78.5t108.5 32.5zM578 254q0 -30 37 -30q21 0 33.5 12.5t12.5 31.5
q0 30 -35 30q-22 0 -35 -12.5t-13 -31.5zM539 108q0 -39 45 -39q23 0 37 10t17.5 20t3.5 21q0 39 -45 39q-30 0 -44 -15.5t-14 -35.5zM375 656l-14 -66l-170 -298h-106v2l161 280h-150l17 82h262z" />
    <glyph glyph-name="uni2189" unicode="&#x2189;" horiz-adv-x="851" 
d="M730 656l-449 -656h-111l450 656h110zM639 -8q-48 0 -82 20t-51 47l57 56q33 -40 77 -40q24 0 38.5 11t14.5 30q0 34 -51 34h-32l15 70h41q19 0 28.5 11t9.5 24q0 33 -33 33q-34 0 -60 -33l-54 57q55 60 126 60q60 0 93 -28t33 -68q0 -26 -17.5 -51t-46.5 -39
q48 -18 48 -74q0 -55 -45 -87.5t-109 -32.5zM210 284q-66 0 -101.5 38.5t-35.5 99.5q0 101 50.5 171.5t135.5 70.5q65 0 101 -38.5t36 -99.5q0 -100 -50.5 -171t-135.5 -71zM294 518q0 61 -42 61q-32 0 -54.5 -39t-22.5 -111q0 -61 41 -61q32 0 55 39t23 111z" />
    <glyph glyph-name="arrowleft" unicode="&#x2190;" 
d="M558 237l-374 1l134 -150l-70 -68l-245 269l245 269l70 -69l-135 -150h375v-102z" />
    <glyph glyph-name="arrowup" unicode="&#x2191;" 
d="M245 20v374l-149 -134l-69 70l269 245l269 -245l-69 -70l-149 134v-374h-102z" />
    <glyph glyph-name="arrowright" unicode="&#x2192;" 
d="M18 345h374l-134 149l70 69l245 -269l-245 -269l-70 69l134 149h-374v102z" />
    <glyph glyph-name="arrowdown" unicode="&#x2193;" 
d="M334 568v-374l149 134l69 -70l-269 -245l-269 245l69 70l149 -134v374h102z" />
    <glyph glyph-name="uni2196" unicode="&#x2196;" 
d="M81 476h374v-101l-205 1l260 -256l-72 -72l-256 260l1 -205h-102v373z" />
    <glyph glyph-name="uni2197" unicode="&#x2197;" 
d="M472 469v-374h-101l1 205l-256 -260l-72 72l260 256l-205 -1v102h373z" />
    <glyph glyph-name="uni2198" unicode="&#x2198;" 
d="M486 58h-374v101l205 -1l-260 256l72 72l256 -260l-1 205h102v-373z" />
    <glyph glyph-name="uni2199" unicode="&#x2199;" 
d="M92 50v374h101l-1 -205l256 260l72 -72l-260 -256l205 1v-102h-373z" />
    <glyph glyph-name="partialdiff" unicode="&#x2202;" horiz-adv-x="561" 
d="M204 513l-88 74q77 107 207 107q102 0 160.5 -68.5t58.5 -194.5q0 -119 -34.5 -218.5t-106 -163t-166.5 -63.5q-86 0 -141.5 56.5t-55.5 138.5q0 122 68.5 203.5t159.5 81.5q103 0 142 -80q16 95 -7.5 146t-85.5 51q-66 0 -111 -70zM363 263q0 41 -19.5 66.5t-54.5 25.5
q-48 0 -80.5 -49.5t-32.5 -114.5q0 -41 19 -66.5t54 -25.5q48 0 81 49.5t33 114.5z" />
    <glyph glyph-name="product" unicode="&#x220f;" horiz-adv-x="686" 
d="M129 -175h-137l182 855h522l-182 -855h-137l158 745h-248z" />
    <glyph glyph-name="summation" unicode="&#x2211;" horiz-adv-x="525" 
d="M254 572l133 -316l-255 -324h296l-23 -107h-462l20 92l275 355l-133 315l20 93h452l-23 -108h-300z" />
    <glyph glyph-name="minus" unicode="&#x2212;" 
d="M58 248l23 108h442l-23 -108h-442z" />
    <glyph glyph-name="radical" unicode="&#x221a;" horiz-adv-x="555" 
d="M180 398l14 -128q13 -114 9 -139h4q4 24 57 126l234 453h148l-390 -710h-147l-70 398h141z" />
    <glyph glyph-name="infinity" unicode="&#x221e;" horiz-adv-x="744" 
d="M714 328q0 -88 -59 -152t-142 -64q-94 0 -141 96q-74 -96 -166 -96q-69 0 -111.5 47t-42.5 117q0 88 59 152t142 64q49 0 82.5 -23.5t58.5 -72.5q72 96 166 96q69 0 111.5 -47t42.5 -117zM601 317q0 34 -16 56.5t-42 22.5q-25 0 -53.5 -25t-50.5 -74q11 -44 31.5 -66.5
t45.5 -22.5q34 0 59.5 32t25.5 77zM165 287q0 -34 16 -56.5t42 -22.5q25 0 53.5 25t50.5 74q-11 44 -31.5 66.5t-45.5 22.5q-34 0 -59.5 -32t-25.5 -77z" />
    <glyph glyph-name="integral" unicode="&#x222b;" horiz-adv-x="445" 
d="M447 694q50 0 77 -3l-23 -113h-42q-52 0 -76 -69l-183 -526q-27 -81 -74.5 -125.5t-126.5 -44.5q-39 0 -77 2l24 113h41q54 0 78 69l181 525q27 81 75 126.5t126 45.5z" />
    <glyph glyph-name="approxequal" unicode="&#x2248;" 
d="M82 349h-3l24 111q58 37 114 37q42 0 108 -23.5t95 -23.5q53 0 129 42h3l-24 -109q-62 -40 -121 -40q-41 0 -107.5 24t-94.5 24q-55 0 -123 -42zM34 115h-3l24 111q58 37 114 37q42 0 108 -23.5t95 -23.5q53 0 129 42h3l-24 -109q-62 -40 -121 -40q-41 0 -107.5 24
t-94.5 24q-55 0 -123 -42z" />
    <glyph glyph-name="notequal" unicode="&#x2260;" 
d="M87 367l23 108h234l79 121h119l-1 -3l-77 -118h80l-23 -108h-127l-84 -129h184l-23 -108h-231l-78 -120l-119 -1l1 3l76 118h-83l23 108h130l84 129h-187z" />
    <glyph glyph-name="lessequal" unicode="&#x2264;" 
d="M578 629l-25 -115l-215 -73q-100 -33 -121 -32v-4q27 -2 119 -40l171 -69l-22 -101l-406 166l22 106zM478 156l-23 -106h-442l23 106h442z" />
    <glyph glyph-name="greaterequal" unicode="&#x2265;" 
d="M53 198l25 115l215 73q100 33 121 32v4q-27 2 -119 40l-171 69l22 101l406 -166l-22 -106zM464 50h-442l23 106h442z" />
    <glyph glyph-name="lozenge" unicode="&#x25ca;" horiz-adv-x="580" 
d="M184 0l-138 331l261 349h124l139 -349l-262 -331h-124zM186 319l45 -113q31 -84 29 -103h4q2 21 54 92l111 153l-43 119q-31 82 -28 105h-4q-2 -22 -54 -93z" />
    <glyph glyph-name="uni25CB" unicode="&#x25cb;" 
d="M104 340q0 83 56 139t139 56t139 -56t56 -139t-56 -139t-139 -56t-139 56t-56 139zM212 340q0 -41 24.5 -67t62.5 -26t62.5 26t24.5 67t-24.5 67t-62.5 26t-62.5 -26t-24.5 -67z" />
    <glyph glyph-name="uni25CF" unicode="&#x25cf;" 
d="M104 340q0 83 56 139t139 56t139 -56t56 -139t-56 -139t-139 -56t-139 56t-56 139z" />
    <glyph glyph-name="fi" unicode="&#xfb01;" horiz-adv-x="617" 
d="M141 415h-82l21 97h82l7 34q18 84 63 130t134 46q39 0 66 -6l-22 -101h-17q-40 0 -61 -15.5t-28 -52.5l-7 -35h91l-21 -97h-91l-88 -415h-135zM472 512h135l-109 -512h-135zM509 723h145l-27 -126h-145z" />
    <glyph glyph-name="fl" unicode="&#xfb02;" horiz-adv-x="616" 
d="M141 415h-82l21 97h82l7 34q18 84 63 130t134 46q39 0 66 -6l-22 -101h-17q-40 0 -61 -15.5t-28 -52.5l-7 -35h91l-21 -97h-91l-88 -415h-135zM513 710h135l-151 -710h-135z" />
    <glyph glyph-name="uniFEFF" unicode="&#xfeff;" horiz-adv-x="0" 
 />
    <glyph glyph-name="uni20A9.cv01" horiz-adv-x="848" 
d="M73 382l18 85h58l5 189h122l-10 -193h100l72 193h132l-8 -193h96l72 193h134l-76 -189h61l-18 -85h-77l-23 -59h88l-18 -84h-104l-95 -239h-146l10 243h-90l-92 -243h-146l6 239h-101l18 84h85l1 59h-74zM262 387l-3 -67h53l25 67h-75zM559 387l-3 -67h50l24 67h-71z
M432 387l-26 -67h63l3 67h-40zM287 243h-31l-8 -113zM580 243h-27l-10 -109zM460 463h15l7 72z" />
    <glyph glyph-name="uni0326.alt" horiz-adv-x="0" 
d="M370 583l18 83l81 115h73l-70 -95h54l-22 -103h-134z" />
    <glyph glyph-name="caron.slovak" horiz-adv-x="339" 
d="M236 479h-86l50 231h119z" />
    <glyph glyph-name="ogonek.i" horiz-adv-x="629" 
d="M295 32l88 -32q-98 -38 -98 -82q0 -12 8.5 -20.5t21.5 -8.5q17 0 39 15l29 -66q-33 -25 -94 -25q-45 0 -73 24t-28 63q0 81 107 132z" />
    <glyph glyph-name="one.tf" 
d="M70 107h133l87 408l-125 -57l-32 95l222 103h94l-117 -549h140l-23 -107h-402z" />
    <glyph glyph-name="two.tf" 
d="M216 470l-95 49q73 151 211 151q93 0 143.5 -50t50.5 -123q0 -62 -24 -115t-64 -91t-80.5 -67.5t-85 -61t-66.5 -55.5h255l-23 -107h-426l19 91q37 55 104 111.5t121 93t95.5 87.5t41.5 104q0 71 -70 71q-65 0 -107 -88z" />
    <glyph glyph-name="three.tf" 
d="M233 -14q-48 0 -86 11.5t-62 32t-38.5 41t-26.5 46.5l97 64q12 -25 22.5 -40t36 -29t60.5 -14q51 0 84.5 30.5t33.5 82.5q0 78 -100 78h-48l22 105h48q53 0 80.5 29t27.5 69q0 32 -19 49t-53 17q-70 0 -118 -66l-72 78q76 100 194 100q97 0 149 -44.5t52 -119.5
q0 -51 -31.5 -96t-83.5 -68q85 -38 85 -130q0 -99 -76 -162.5t-178 -63.5z" />
    <glyph glyph-name="four.tf" 
d="M539 268l-23 -106h-95l-34 -162h-129l34 162h-295l18 87l342 407h169l-82 -388h95zM315 268l33 153q19 88 31 116h-4q-16 -32 -73 -102l-135 -167h148z" />
    <glyph glyph-name="five.tf" 
d="M515 549h-230l-33 -108q32 8 62 8q74 0 127.5 -52.5t53.5 -142.5q0 -117 -71.5 -192.5t-192.5 -75.5q-79 0 -131.5 37t-77.5 94l97 64q38 -83 116 -83q56 0 91.5 41t35.5 105q0 43 -25.5 68.5t-67.5 25.5q-53 0 -96 -38l-74 24l97 332h342z" />
    <glyph glyph-name="six.tf" 
d="M572 554l-92 -66q-13 31 -42.5 50.5t-65.5 19.5q-113 0 -167 -166q58 50 133 50q78 0 129.5 -52.5t51.5 -134.5q0 -114 -77.5 -191.5t-187.5 -77.5q-102 0 -155 64t-53 165q0 195 92.5 325t237.5 130q72 0 123 -31t73 -85zM178 186q0 -40 21 -64t63 -24q56 0 90 43
t34 104q0 39 -21 63.5t-61 24.5q-57 0 -91.5 -43t-34.5 -104z" />
    <glyph glyph-name="seven.tf" 
d="M572 656l-18 -87l-310 -569h-144l1 3l301 546h-274l22 107h422z" />
    <glyph glyph-name="eight.tf" 
d="M242 -14q-108 0 -164.5 51.5t-56.5 127.5q0 67 43.5 122.5t109.5 73.5q-60 37 -60 112q0 80 62.5 138.5t172.5 58.5q95 0 144.5 -44t49.5 -112q0 -53 -30 -96.5t-85 -68.5q40 -16 62.5 -52t22.5 -81q0 -98 -69.5 -164t-201.5 -66zM284 299q-63 0 -95.5 -36.5t-32.5 -87.5
q0 -35 23.5 -57t71.5 -22q62 0 95.5 36t33.5 87q0 35 -24 57.5t-72 22.5zM342 563q-42 0 -68.5 -26.5t-26.5 -68.5q0 -28 18.5 -45t51.5 -17q40 0 66.5 27.5t26.5 68.5q0 29 -18 45t-50 16z" />
    <glyph glyph-name="nine.tf" 
d="M18 102l92 66q13 -31 42.5 -50.5t65.5 -19.5q113 0 167 166q-58 -50 -133 -50q-78 0 -129.5 52.5t-51.5 134.5q0 114 77.5 191.5t187.5 77.5q102 0 155 -64t53 -165q0 -195 -92.5 -325t-237.5 -130q-72 0 -123 31t-73 85zM412 470q0 40 -21 64t-63 24q-56 0 -90 -43
t-34 -104q0 -39 21 -63.5t61 -24.5q57 0 91.5 43t34.5 104z" />
    <glyph glyph-name="zero.tf" 
d="M260 -14q-103 0 -156.5 63.5t-53.5 176.5q0 198 74.5 321t208.5 123q103 0 157 -64t54 -177q0 -197 -75 -320t-209 -123zM268 98q37 0 67.5 28t53 104.5t22.5 193.5q0 68 -20.5 101t-64.5 33q-59 0 -101 -77.5t-42 -249.5q0 -68 20.5 -100.5t64.5 -32.5z" />
    <glyph glyph-name="one.case" horiz-adv-x="404" 
d="M269 0h-137l112 527l-140 -60l-35 106l245 107h99z" />
    <glyph glyph-name="two.case" horiz-adv-x="527" 
d="M198 485l-98 53q78 156 220 156q97 0 149.5 -52t52.5 -127q0 -65 -25 -120t-66 -94.5t-83 -70t-88 -63t-68 -57.5h263l-24 -110h-443l20 97q32 47 83.5 93.5t99.5 81t92.5 70.5t71.5 76.5t27 85.5q0 74 -72 74q-66 0 -112 -93z" />
    <glyph glyph-name="three.case" horiz-adv-x="537" 
d="M221 -15q-51 0 -90.5 12t-64.5 33.5t-40 42.5t-27 49l100 67q10 -20 17.5 -31.5t21.5 -27t35.5 -22.5t50.5 -7q52 0 86 32t34 86q0 80 -102 80h-50l23 110h50q53 0 81 29.5t28 70.5q0 33 -19.5 51.5t-52.5 18.5q-76 0 -123 -69l-75 81q78 104 202 104q102 0 156.5 -46.5
t54.5 -124.5q0 -53 -32.5 -99t-86.5 -71q89 -38 89 -134q0 -103 -79.5 -169t-186.5 -66z" />
    <glyph glyph-name="four.case" horiz-adv-x="594" 
d="M570 278l-25 -110h-97l-35 -168h-138l35 168h-305l19 91l352 421h181l-85 -402h98zM334 278l33 155q19 91 33 122h-5q-14 -31 -75 -107l-137 -170h151z" />
    <glyph glyph-name="five.case" horiz-adv-x="530" 
d="M513 570h-238l-33 -112q32 8 62 8q76 0 132 -54.5t56 -148.5q0 -121 -74.5 -199.5t-200.5 -78.5q-82 0 -137 38.5t-81 98.5l101 68q40 -89 121 -89q58 0 94.5 42.5t36.5 108.5q0 45 -26.5 71.5t-70.5 26.5q-54 0 -97 -40l-79 25l101 345h356z" />
    <glyph glyph-name="six.case" horiz-adv-x="590" 
d="M601 575l-97 -70q-13 33 -43.5 53t-67.5 20q-114 0 -170 -170q60 50 136 50q81 0 134 -54t53 -140q0 -118 -80.5 -198t-194.5 -80q-106 0 -161.5 66.5t-55.5 169.5q0 134 43 241.5t121.5 169t178.5 61.5q74 0 127.5 -32t76.5 -87zM193 193q0 -42 21.5 -66.5t64.5 -24.5
q58 0 92.5 44.5t34.5 107.5q0 40 -21 64t-63 24q-58 0 -93.5 -44t-35.5 -105z" />
    <glyph glyph-name="seven.case" horiz-adv-x="480" 
d="M545 680l-19 -92l-320 -588h-153l1 3l312 567h-282l22 110h439z" />
    <glyph glyph-name="eight.case" horiz-adv-x="588" 
d="M256 -14q-110 0 -168.5 53t-58.5 133q0 69 44 126t112 76q-62 38 -62 117q0 83 64.5 143t179.5 60q98 0 149 -45.5t51 -115.5q0 -56 -30.5 -101.5t-87.5 -70.5q42 -17 65 -54t23 -83q0 -102 -72 -170t-209 -68zM299 308q-65 0 -97.5 -37t-32.5 -89q0 -36 23.5 -58
t73.5 -22q63 0 97 36.5t34 88.5q0 36 -24 58.5t-74 22.5zM359 580q-43 0 -69.5 -27t-26.5 -68q0 -28 18.5 -45.5t52.5 -17.5q40 0 66.5 28t26.5 70q0 28 -17.5 44t-50.5 16z" />
    <glyph glyph-name="nine.case" horiz-adv-x="591" 
d="M28 104l97 70q13 -33 43.5 -53t67.5 -20q114 0 170 170q-60 -50 -136 -50q-81 0 -134 54t-53 140q0 118 80.5 198t194.5 80q106 0 161.5 -66.5t55.5 -169.5q0 -134 -43 -241.5t-121.5 -169t-178.5 -61.5q-74 0 -127.5 32t-76.5 87zM436 486q0 42 -21.5 66.5t-64.5 24.5
q-58 0 -92.5 -44.5t-34.5 -107.5q0 -40 21 -64t63 -24q58 0 93.5 44t35.5 105z" />
    <glyph glyph-name="zero.case" horiz-adv-x="630" 
d="M288 -14q-111 0 -170.5 68t-59.5 180q0 130 36 233t110 165t175 62q111 0 171 -68.5t60 -180.5q0 -199 -85.5 -329t-236.5 -130zM296 102q70 0 122 81.5t52 256.5q0 138 -99 138q-70 0 -121.5 -81.5t-51.5 -257.5q0 -137 98 -137z" />
    <glyph glyph-name="one.sups" horiz-adv-x="247" 
d="M213 316h-98l56 259l-71 -31l-21 72l143 64h68z" />
    <glyph glyph-name="two.sups" horiz-adv-x="321" 
d="M170 551l-78 30q48 107 142 107q58 0 89.5 -29.5t31.5 -73.5q0 -39 -20 -71.5t-44 -50t-54.5 -37.5t-41.5 -30h128l-17 -80h-261l14 67q26 35 76.5 71t84 64t33.5 57q0 28 -28 28q-39 0 -55 -52z" />
    <glyph glyph-name="three.sups" horiz-adv-x="321" 
d="M179 308q-48 0 -82 20t-51 47l57 56q33 -40 77 -40q24 0 38.5 11t14.5 30q0 34 -51 34h-32l15 70h41q19 0 28.5 11t9.5 24q0 33 -33 33q-34 0 -60 -33l-54 57q55 60 126 60q60 0 93 -28t33 -68q0 -26 -17.5 -51t-46.5 -39q48 -18 48 -74q0 -55 -45 -87.5t-109 -32.5z" />
    <glyph glyph-name="four.sups" horiz-adv-x="347" 
d="M318 464h55l-14 -66h-55l-18 -82h-97l17 82h-159l14 66l183 216h120zM230 506q10 47 31 98h-3q-20 -34 -52 -73l-56 -67h71z" />
    <glyph glyph-name="five.sups" horiz-adv-x="319" 
d="M349 600h-141l-14 -51q24 4 35 4q47 0 76 -26t29 -73q0 -65 -43.5 -105.5t-116.5 -40.5q-89 0 -129 71l66 51q26 -39 67 -39q25 0 39 14t14 39q0 18 -10.5 28t-28.5 10q-20 0 -49 -17l-53 19l56 196h220z" />
    <glyph glyph-name="six.sups" horiz-adv-x="354" 
d="M393 624l-69 -48q-14 33 -55 33q-24 0 -45 -20t-33 -60q32 24 72 24q46 0 77 -29t31 -75q0 -62 -46.5 -101.5t-116.5 -39.5q-65 0 -99 40t-34 105q0 102 54 168.5t143 66.5t121 -64zM176 424q0 -17 10 -28.5t26 -11.5q25 0 41 17.5t16 44.5q0 18 -10 29t-26 11
q-25 0 -41 -17.5t-16 -44.5z" />
    <glyph glyph-name="seven.sups" horiz-adv-x="293" 
d="M366 680l-14 -66l-170 -298h-106v2l161 280h-150l17 82h262z" />
    <glyph glyph-name="eight.sups" horiz-adv-x="353" 
d="M254 688q62 0 95 -27.5t33 -66.5q0 -58 -63 -89q46 -21 46 -73q0 -54 -41 -89t-120 -35q-71 0 -107.5 28t-36.5 70q0 35 21.5 64t56.5 41q-30 21 -30 66q0 46 37.5 78.5t108.5 32.5zM203 570q0 -30 37 -30q21 0 33.5 12.5t12.5 31.5q0 30 -35 30q-22 0 -35 -12.5
t-13 -31.5zM164 424q0 -39 45 -39q23 0 37 10t17.5 20t3.5 21q0 39 -45 39q-30 0 -44 -15.5t-14 -35.5z" />
    <glyph glyph-name="nine.sups" horiz-adv-x="354" 
d="M66 371l70 48q12 -33 54 -33q23 0 44.5 20t33.5 59q-33 -23 -71 -23q-46 0 -77.5 29.5t-31.5 74.5q0 62 46.5 102t116.5 40q65 0 99 -40t34 -105q0 -103 -54 -169t-143 -66t-121 63zM283 571q0 18 -10 29t-25 11q-26 0 -42 -17t-16 -44q0 -18 10 -29t26 -11q25 0 41 17
t16 44z" />
    <glyph glyph-name="zero.sups" horiz-adv-x="367" 
d="M212 308q-66 0 -101.5 38.5t-35.5 99.5q0 101 50.5 171.5t135.5 70.5q65 0 101 -38.5t36 -99.5q0 -100 -50.5 -171t-135.5 -71zM296 542q0 61 -42 61q-32 0 -54.5 -39t-22.5 -111q0 -61 41 -61q32 0 55 39t23 111z" />
    <glyph glyph-name="one.subs" horiz-adv-x="247" 
d="M108 -175h-98l56 259l-71 -31l-21 72l143 64h68z" />
    <glyph glyph-name="two.subs" horiz-adv-x="321" 
d="M66 60l-78 30q48 107 142 107q58 0 89.5 -29.5t31.5 -73.5q0 -39 -20 -71.5t-44 -50t-54.5 -37.5t-41.5 -30h128l-17 -80h-261l14 67q26 35 76.5 71t84 64t33.5 57q0 28 -28 28q-39 0 -55 -52z" />
    <glyph glyph-name="three.subs" horiz-adv-x="321" 
d="M75 -183q-48 0 -82 20t-51 47l57 56q33 -40 77 -40q24 0 38.5 11t14.5 30q0 34 -51 34h-32l15 70h41q19 0 28.5 11t9.5 24q0 33 -33 33q-34 0 -60 -33l-54 57q55 60 126 60q60 0 93 -28t33 -68q0 -26 -17.5 -51t-46.5 -39q48 -18 48 -74q0 -55 -45 -87.5t-109 -32.5z" />
    <glyph glyph-name="four.subs" horiz-adv-x="347" 
d="M214 -27h55l-14 -66h-55l-18 -82h-97l17 82h-159l14 66l183 216h120zM126 15q10 47 31 98h-3q-20 -34 -52 -73l-56 -67h71z" />
    <glyph glyph-name="five.subs" horiz-adv-x="319" 
d="M244 109h-141l-14 -51q24 4 35 4q47 0 76 -26t29 -73q0 -65 -43.5 -105.5t-116.5 -40.5q-89 0 -129 71l66 51q26 -39 67 -39q25 0 39 14t14 39q0 18 -10.5 28t-28.5 10q-20 0 -49 -17l-53 19l56 196h220z" />
    <glyph glyph-name="six.subs" horiz-adv-x="354" 
d="M289 133l-69 -48q-14 33 -55 33q-24 0 -45 -20t-33 -60q32 24 72 24q46 0 77 -29t31 -75q0 -62 -46.5 -101.5t-116.5 -39.5q-65 0 -99 40t-34 105q0 102 54 168.5t143 66.5t121 -64zM72 -67q0 -17 10 -28.5t26 -11.5q25 0 41 17.5t16 44.5q0 18 -10 29t-26 11
q-25 0 -41 -17.5t-16 -44.5z" />
    <glyph glyph-name="seven.subs" horiz-adv-x="293" 
d="M261 189l-14 -66l-170 -298h-106v2l161 280h-150l17 82h262z" />
    <glyph glyph-name="eight.subs" horiz-adv-x="353" 
d="M150 197q62 0 95 -27.5t33 -66.5q0 -58 -63 -89q46 -21 46 -73q0 -54 -41 -89t-120 -35q-71 0 -107.5 28t-36.5 70q0 35 21.5 64t56.5 41q-30 21 -30 66q0 46 37.5 78.5t108.5 32.5zM99 79q0 -30 37 -30q21 0 33.5 12.5t12.5 31.5q0 30 -35 30q-22 0 -35 -12.5t-13 -31.5
zM60 -67q0 -39 45 -39q23 0 37 10t17.5 20t3.5 21q0 39 -45 39q-30 0 -44 -15.5t-14 -35.5z" />
    <glyph glyph-name="nine.subs" horiz-adv-x="354" 
d="M-38 -120l70 48q12 -33 54 -33q23 0 44.5 20t33.5 59q-33 -23 -71 -23q-46 0 -77.5 29.5t-31.5 74.5q0 62 46.5 102t116.5 40q65 0 99 -40t34 -105q0 -103 -54 -169t-143 -66t-121 63zM179 80q0 18 -10 29t-25 11q-26 0 -42 -17t-16 -44q0 -18 10 -29t26 -11q25 0 41 17
t16 44z" />
    <glyph glyph-name="zero.subs" horiz-adv-x="367" 
d="M107 -183q-66 0 -101.5 38.5t-35.5 99.5q0 101 50.5 171.5t135.5 70.5q65 0 101 -38.5t36 -99.5q0 -100 -50.5 -171t-135.5 -71zM191 51q0 61 -42 61q-32 0 -54.5 -39t-22.5 -111q0 -61 41 -61q32 0 55 39t23 111z" />
    <glyph glyph-name="one.numr" horiz-adv-x="247" 
d="M208 292h-98l56 259l-71 -31l-21 72l143 64h68z" />
    <glyph glyph-name="two.numr" horiz-adv-x="321" 
d="M165 527l-78 30q48 107 142 107q58 0 89.5 -29.5t31.5 -73.5q0 -39 -20 -71.5t-44 -50t-54.5 -37.5t-41.5 -30h128l-17 -80h-261l14 67q26 35 76.5 71t84 64t33.5 57q0 28 -28 28q-39 0 -55 -52z" />
    <glyph glyph-name="three.numr" horiz-adv-x="321" 
d="M174 284q-48 0 -82 20t-51 47l57 56q33 -40 77 -40q24 0 38.5 11t14.5 30q0 34 -51 34h-32l15 70h41q19 0 28.5 11t9.5 24q0 33 -33 33q-34 0 -60 -33l-54 57q55 60 126 60q60 0 93 -28t33 -68q0 -26 -17.5 -51t-46.5 -39q48 -18 48 -74q0 -55 -45 -87.5t-109 -32.5z" />
    <glyph glyph-name="four.numr" horiz-adv-x="347" 
d="M313 440h55l-14 -66h-55l-18 -82h-97l17 82h-159l14 66l183 216h120zM225 482q10 47 31 98h-3q-20 -34 -52 -73l-56 -67h71z" />
    <glyph glyph-name="five.numr" horiz-adv-x="319" 
d="M344 576h-141l-14 -51q24 4 35 4q47 0 76 -26t29 -73q0 -65 -43.5 -105.5t-116.5 -40.5q-89 0 -129 71l66 51q26 -39 67 -39q25 0 39 14t14 39q0 18 -10.5 28t-28.5 10q-20 0 -49 -17l-53 19l56 196h220z" />
    <glyph glyph-name="six.numr" horiz-adv-x="354" 
d="M388 600l-69 -48q-14 33 -55 33q-24 0 -45 -20t-33 -60q32 24 72 24q46 0 77 -29t31 -75q0 -62 -46.5 -101.5t-116.5 -39.5q-65 0 -99 40t-34 105q0 102 54 168.5t143 66.5t121 -64zM171 400q0 -17 10 -28.5t26 -11.5q25 0 41 17.5t16 44.5q0 18 -10 29t-26 11
q-25 0 -41 -17.5t-16 -44.5z" />
    <glyph glyph-name="seven.numr" horiz-adv-x="293" 
d="M361 656l-14 -66l-170 -298h-106v2l161 280h-150l17 82h262z" />
    <glyph glyph-name="eight.numr" horiz-adv-x="353" 
d="M249 664q62 0 95 -27.5t33 -66.5q0 -58 -63 -89q46 -21 46 -73q0 -54 -41 -89t-120 -35q-71 0 -107.5 28t-36.5 70q0 35 21.5 64t56.5 41q-30 21 -30 66q0 46 37.5 78.5t108.5 32.5zM198 546q0 -30 37 -30q21 0 33.5 12.5t12.5 31.5q0 30 -35 30q-22 0 -35 -12.5
t-13 -31.5zM159 400q0 -39 45 -39q23 0 37 10t17.5 20t3.5 21q0 39 -45 39q-30 0 -44 -15.5t-14 -35.5z" />
    <glyph glyph-name="nine.numr" horiz-adv-x="354" 
d="M61 347l70 48q12 -33 54 -33q23 0 44.5 20t33.5 59q-33 -23 -71 -23q-46 0 -77.5 29.5t-31.5 74.5q0 62 46.5 102t116.5 40q65 0 99 -40t34 -105q0 -103 -54 -169t-143 -66t-121 63zM278 547q0 18 -10 29t-25 11q-26 0 -42 -17t-16 -44q0 -18 10 -29t26 -11q25 0 41 17
t16 44z" />
    <glyph glyph-name="zero.numr" horiz-adv-x="367" 
d="M207 284q-66 0 -101.5 38.5t-35.5 99.5q0 101 50.5 171.5t135.5 70.5q65 0 101 -38.5t36 -99.5q0 -100 -50.5 -171t-135.5 -71zM291 518q0 61 -42 61q-32 0 -54.5 -39t-22.5 -111q0 -61 41 -61q32 0 55 39t23 111z" />
    <glyph glyph-name="one.dnom" horiz-adv-x="247" 
d="M146 0h-98l56 259l-71 -31l-21 72l143 64h68z" />
    <glyph glyph-name="two.dnom" horiz-adv-x="321" 
d="M103 235l-78 30q48 107 142 107q58 0 89.5 -29.5t31.5 -73.5q0 -39 -20 -71.5t-44 -50t-54.5 -37.5t-41.5 -30h128l-17 -80h-261l14 67q26 35 76.5 71t84 64t33.5 57q0 28 -28 28q-39 0 -55 -52z" />
    <glyph glyph-name="three.dnom" horiz-adv-x="321" 
d="M112 -8q-48 0 -82 20t-51 47l57 56q33 -40 77 -40q24 0 38.5 11t14.5 30q0 34 -51 34h-32l15 70h41q19 0 28.5 11t9.5 24q0 33 -33 33q-34 0 -60 -33l-54 57q55 60 126 60q60 0 93 -28t33 -68q0 -26 -17.5 -51t-46.5 -39q48 -18 48 -74q0 -55 -45 -87.5t-109 -32.5z" />
    <glyph glyph-name="four.dnom" horiz-adv-x="347" 
d="M251 148h55l-14 -66h-55l-18 -82h-97l17 82h-159l14 66l183 216h120zM163 190q10 47 31 98h-3q-20 -34 -52 -73l-56 -67h71z" />
    <glyph glyph-name="five.dnom" horiz-adv-x="319" 
d="M282 284h-141l-14 -51q24 4 35 4q47 0 76 -26t29 -73q0 -65 -43.5 -105.5t-116.5 -40.5q-89 0 -129 71l66 51q26 -39 67 -39q25 0 39 14t14 39q0 18 -10.5 28t-28.5 10q-20 0 -49 -17l-53 19l56 196h220z" />
    <glyph glyph-name="six.dnom" horiz-adv-x="354" 
d="M326 308l-69 -48q-14 33 -55 33q-24 0 -45 -20t-33 -60q32 24 72 24q46 0 77 -29t31 -75q0 -62 -46.5 -101.5t-116.5 -39.5q-65 0 -99 40t-34 105q0 102 54 168.5t143 66.5t121 -64zM109 108q0 -17 10 -28.5t26 -11.5q25 0 41 17.5t16 44.5q0 18 -10 29t-26 11
q-25 0 -41 -17.5t-16 -44.5z" />
    <glyph glyph-name="seven.dnom" horiz-adv-x="293" 
d="M299 364l-14 -66l-170 -298h-106v2l161 280h-150l17 82h262z" />
    <glyph glyph-name="eight.dnom" horiz-adv-x="353" 
d="M187 372q62 0 95 -27.5t33 -66.5q0 -58 -63 -89q46 -21 46 -73q0 -54 -41 -89t-120 -35q-71 0 -107.5 28t-36.5 70q0 35 21.5 64t56.5 41q-30 21 -30 66q0 46 37.5 78.5t108.5 32.5zM136 254q0 -30 37 -30q21 0 33.5 12.5t12.5 31.5q0 30 -35 30q-22 0 -35 -12.5
t-13 -31.5zM97 108q0 -39 45 -39q23 0 37 10t17.5 20t3.5 21q0 39 -45 39q-30 0 -44 -15.5t-14 -35.5z" />
    <glyph glyph-name="nine.dnom" horiz-adv-x="354" 
d="M-1 55l70 48q12 -33 54 -33q23 0 44.5 20t33.5 59q-33 -23 -71 -23q-46 0 -77.5 29.5t-31.5 74.5q0 62 46.5 102t116.5 40q65 0 99 -40t34 -105q0 -103 -54 -169t-143 -66t-121 63zM216 255q0 18 -10 29t-25 11q-26 0 -42 -17t-16 -44q0 -18 10 -29t26 -11q25 0 41 17
t16 44z" />
    <glyph glyph-name="zero.dnom" horiz-adv-x="367" 
d="M145 -8q-66 0 -101.5 38.5t-35.5 99.5q0 101 50.5 171.5t135.5 70.5q65 0 101 -38.5t36 -99.5q0 -100 -50.5 -171t-135.5 -71zM229 226q0 61 -42 61q-32 0 -54.5 -39t-22.5 -111q0 -61 41 -61q32 0 55 39t23 111z" />
    <glyph glyph-name="hyphen.case" horiz-adv-x="388" 
d="M70 288l22 104h264l-22 -104h-264z" />
    <glyph glyph-name="endash.case" horiz-adv-x="581" 
d="M70 288l22 104h457l-22 -104h-457z" />
    <glyph glyph-name="emdash.case" horiz-adv-x="883" 
d="M70 288l22 104h759l-22 -104h-759z" />
    <glyph glyph-name="uni2010.case" horiz-adv-x="388" 
d="M70 288l22 104h264l-22 -104h-264z" />
    <glyph glyph-name="uni2011.case" horiz-adv-x="388" 
d="M70 288l22 104h264l-22 -104h-264z" />
    <glyph glyph-name="questiondown.case" horiz-adv-x="455" 
d="M202 -14q-87 0 -137 43.5t-50 111.5q0 102 126 192l46 34q27 20 37.5 36t16.5 46h115q10 -39 -13.5 -83.5t-68.5 -79.5l-45 -34q-71 -50 -71 -98q0 -24 14.5 -38.5t42.5 -14.5q27 0 50.5 20t37.5 56l101 -49q-67 -142 -202 -142zM386 530h-155l32 150h155z" />
    <glyph glyph-name="exclamdown.case" horiz-adv-x="294" 
d="M232 449l-59 -449h-157l133 449h83zM281 530h-156l32 150h156z" />
    <glyph glyph-name="guilsinglleft.case" horiz-adv-x="338" 
d="M51 319l8 38l169 189h126l-1 -3l-176 -215l101 -194v-3h-111z" />
    <glyph glyph-name="guilsinglright.case" horiz-adv-x="334" 
d="M321 358l-8 -38l-169 -189h-126l1 3l176 215l-101 194v3h111z" />
    <glyph glyph-name="guillemotleft.case" horiz-adv-x="575" 
d="M288 319l8 38l169 189h126l-1 -3l-176 -215l101 -194v-3h-111zM51 319l8 38l169 189h126l-1 -3l-176 -215l101 -194v-3h-111z" />
    <glyph glyph-name="guillemotright.case" horiz-adv-x="571" 
d="M321 358l-8 -38l-169 -189h-126l1 3l176 215l-101 194v3h111zM558 358l-8 -38l-169 -189h-126l1 3l176 215l-101 194v3h111z" />
    <glyph glyph-name="parenleft.case" horiz-adv-x="332" 
d="M367 788l50 -73q-116 -88 -178.5 -219.5t-62.5 -272.5q0 -153 70 -267l-68 -56q-53 49 -91 134t-38 193q0 166 86.5 319t231.5 242z" />
    <glyph glyph-name="parenright.case" horiz-adv-x="331" 
d="M5 -100l-50 73q116 88 178.5 219.5t62.5 272.5q0 153 -70 267l68 56q53 -49 91 -134t38 -193q0 -166 -86.5 -319t-231.5 -242z" />
    <glyph glyph-name="bracketleft.case" horiz-adv-x="337" 
d="M414 763l-20 -93h-104l-140 -660h104l-20 -93h-223l180 846h223z" />
    <glyph glyph-name="bracketright.case" horiz-adv-x="338" 
d="M122 670l20 93h223l-180 -846h-223l20 93h104l140 660h-104z" />
    <glyph glyph-name="braceleft.case" horiz-adv-x="361" 
d="M52 386h45q48 0 60 51l35 164q18 86 60 125.5t116 39.5q38 0 59 -3l-20 -92h-16q-64 0 -81 -76l-33 -155q-18 -88 -89 -105q63 -15 46 -95l-32 -155q-17 -76 48 -76h22l-19 -92q-13 -3 -37 -3q-78 0 -114 47t-20 122l34 160q5 23 -5.5 37t-33.5 14h-45z" />
    <glyph glyph-name="braceright.case" horiz-adv-x="360" 
d="M347 294h-45q-48 0 -60 -51l-35 -164q-18 -86 -60 -125.5t-116 -39.5q-38 0 -59 3l20 92h16q64 0 81 76l33 155q18 88 89 105q-63 15 -46 95l32 155q17 76 -48 76h-22l19 92q14 3 37 3q78 0 114 -47t20 -122l-34 -160q-5 -23 5.5 -37t33.5 -14h45z" />
    <glyph glyph-name="periodcentered.case" horiz-adv-x="280" 
d="M98 419h156l-33 -153h-156z" />
    <glyph glyph-name="bullet.case" horiz-adv-x="394" 
d="M214 209q-58 0 -94.5 37t-36.5 93q0 55 36.5 91.5t94.5 36.5t94.5 -36.5t36.5 -91.5q0 -56 -36.5 -93t-94.5 -37z" />
    <glyph glyph-name="minus.case" 
d="M66 285l23 108h442l-23 -108h-442z" />
    <glyph glyph-name="cedilla.case" horiz-adv-x="630" 
d="M188 2l104 9q79 -37 79 -105q0 -46 -42 -76t-101 -30q-56 0 -96 29l37 71q22 -14 48 -14q21 0 36 13.5t15 28.5q0 38 -80 74z" />
    <glyph glyph-name="ogonek.case" horiz-adv-x="630" 
d="M286 34l100 -34q-52 -16 -88 -40t-36 -50q0 -9 8 -16.5t20 -7.5q20 0 46 15l34 -74q-37 -27 -97 -27q-53 0 -87 27.5t-34 70.5q0 85 134 136z" />
    <glyph glyph-name="ogonek.i.case" horiz-adv-x="629" 
d="M290 38l91 -38q-41 -14 -70.5 -36t-29.5 -48q0 -12 9 -21t24 -9q14 0 42 15l29 -74q-31 -27 -90 -27q-55 0 -89.5 26.5t-34.5 69.5q0 89 119 142z" />
    <glyph glyph-name="a.ss01" horiz-adv-x="600" 
d="M221 -14q-84 0 -135 57.5t-51 148.5q0 147 78 240.5t192 93.5q95 0 138 -73l13 59h134l-109 -512h-128l11 54q-65 -68 -143 -68zM263 95q32 0 65.5 21.5t55.5 58.5l35 166q-7 35 -32.5 55.5t-57.5 20.5q-65 0 -111.5 -55.5t-46.5 -152.5q0 -56 25 -85t67 -29z" />
    <glyph glyph-name="agrave.ss01" horiz-adv-x="600" 
d="M221 -14q-84 0 -135 57.5t-51 148.5q0 147 78 240.5t192 93.5q95 0 138 -73l13 59h134l-109 -512h-128l11 54q-65 -68 -143 -68zM263 95q32 0 65.5 21.5t55.5 58.5l35 166q-7 35 -32.5 55.5t-57.5 20.5q-65 0 -111.5 -55.5t-46.5 -152.5q0 -56 25 -85t67 -29zM418 596
l-1 -3h-94l-96 151l1 3h127z" />
    <glyph glyph-name="aacute.ss01" horiz-adv-x="600" 
d="M221 -14q-84 0 -135 57.5t-51 148.5q0 147 78 240.5t192 93.5q95 0 138 -73l13 59h134l-109 -512h-128l11 54q-65 -68 -143 -68zM263 95q32 0 65.5 21.5t55.5 58.5l35 166q-7 35 -32.5 55.5t-57.5 20.5q-65 0 -111.5 -55.5t-46.5 -152.5q0 -56 25 -85t67 -29zM308 593
l1 3l107 151h140l-1 -3l-137 -151h-110z" />
    <glyph glyph-name="acircumflex.ss01" horiz-adv-x="600" 
d="M221 -14q-84 0 -135 57.5t-51 148.5q0 147 78 240.5t192 93.5q95 0 138 -73l13 59h134l-109 -512h-128l11 54q-65 -68 -143 -68zM263 95q32 0 65.5 21.5t55.5 58.5l35 166q-7 35 -32.5 55.5t-57.5 20.5q-65 0 -111.5 -55.5t-46.5 -152.5q0 -56 25 -85t67 -29zM335 747
h109l91 -151v-3h-103l-55 70l-83 -70h-113v3z" />
    <glyph glyph-name="atilde.ss01" horiz-adv-x="600" 
d="M221 -14q-84 0 -135 57.5t-51 148.5q0 147 78 240.5t192 93.5q95 0 138 -73l13 59h134l-109 -512h-128l11 54q-65 -68 -143 -68zM263 95q32 0 65.5 21.5t55.5 58.5l35 166q-7 35 -32.5 55.5t-57.5 20.5q-65 0 -111.5 -55.5t-46.5 -152.5q0 -56 25 -85t67 -29zM426 592
q-31 0 -53.5 14t-37 28t-27.5 14q-28 0 -49 -54l-80 39q27 54 58 79.5t78 25.5q31 0 53.5 -14t37.5 -28t28 -14q28 0 49 54l80 -39q-27 -54 -58.5 -79.5t-78.5 -25.5z" />
    <glyph glyph-name="adieresis.ss01" horiz-adv-x="600" 
d="M221 -14q-84 0 -135 57.5t-51 148.5q0 147 78 240.5t192 93.5q95 0 138 -73l13 59h134l-109 -512h-128l11 54q-65 -68 -143 -68zM263 95q32 0 65.5 21.5t55.5 58.5l35 166q-7 35 -32.5 55.5t-57.5 20.5q-65 0 -111.5 -55.5t-46.5 -152.5q0 -56 25 -85t67 -29zM194 608
l26 125h133l-26 -125h-133zM405 608l26 125h132l-26 -125h-132z" />
    <glyph glyph-name="aring.ss01" horiz-adv-x="600" 
d="M221 -14q-84 0 -135 57.5t-51 148.5q0 147 78 240.5t192 93.5q95 0 138 -73l13 59h134l-109 -512h-128l11 54q-65 -68 -143 -68zM263 95q32 0 65.5 21.5t55.5 58.5l35 166q-7 35 -32.5 55.5t-57.5 20.5q-65 0 -111.5 -55.5t-46.5 -152.5q0 -56 25 -85t67 -29zM265 682
q0 48 34.5 81.5t84.5 33.5q44 0 74 -27.5t30 -71.5q0 -48 -34 -81.5t-85 -33.5q-44 0 -74 28t-30 71zM335 686q0 -18 10.5 -29t26.5 -11q21 0 33.5 13.5t12.5 34.5q0 18 -10.5 29t-25.5 11q-21 0 -34 -13.5t-13 -34.5z" />
    <glyph glyph-name="amacron.ss01" horiz-adv-x="600" 
d="M221 -14q-84 0 -135 57.5t-51 148.5q0 147 78 240.5t192 93.5q95 0 138 -73l13 59h134l-109 -512h-128l11 54q-65 -68 -143 -68zM263 95q32 0 65.5 21.5t55.5 58.5l35 166q-7 35 -32.5 55.5t-57.5 20.5q-65 0 -111.5 -55.5t-46.5 -152.5q0 -56 25 -85t67 -29zM226 705
h324l-20 -90h-324z" />
    <glyph glyph-name="abreve.ss01" horiz-adv-x="600" 
d="M221 -14q-84 0 -135 57.5t-51 148.5q0 147 78 240.5t192 93.5q95 0 138 -73l13 59h134l-109 -512h-128l11 54q-65 -68 -143 -68zM263 95q32 0 65.5 21.5t55.5 58.5l35 166q-7 35 -32.5 55.5t-57.5 20.5q-65 0 -111.5 -55.5t-46.5 -152.5q0 -56 25 -85t67 -29zM370 584
q-52 0 -91.5 30t-56.5 79l69 50q27 -63 84 -63q53 0 104 63l66 -50q-76 -109 -175 -109z" />
    <glyph glyph-name="aogonek.ss01" horiz-adv-x="600" 
d="M221 -14q-84 0 -135 57.5t-51 148.5q0 147 78 240.5t192 93.5q95 0 138 -73l13 59h134l-109 -512q-114 -39 -114 -87q0 -10 7 -17t19 -7q19 0 43 15l29 -66q-33 -25 -94 -25q-45 0 -73 24.5t-28 64.5q0 64 85 109l9 43q-65 -68 -143 -68zM263 95q32 0 65.5 21.5
t55.5 58.5l35 166q-7 35 -32.5 55.5t-57.5 20.5q-65 0 -111.5 -55.5t-46.5 -152.5q0 -56 25 -85t67 -29z" />
    </font>
</defs>
</svg>
