<?xml version="1.0" encoding="utf-8"?>
<!-- Generator: Adobe Illustrator 15.1.0, SVG Export Plug-In . SVG Version: 6.00 Build 0)  -->
<!DOCTYPE svg PUBLIC "-//W3C//DTD SVG 1.1//EN" "http://www.w3.org/Graphics/SVG/1.1/DTD/svg11.dtd">
<svg version="1.1" id="레이어_1" xmlns="http://www.w3.org/2000/svg" xmlns:xlink="http://www.w3.org/1999/xlink" x="0px"
	 y="0px" width="14.74px" height="13px" viewBox="-0.87 -0.768 14.74 13" enable-background="new -0.87 -0.768 14.74 13"
	 xml:space="preserve">
<desc>Warning.</desc>
<g>
	<path fill="#E60012" d="M13.682,10.854c0.124,0.219,0.188,0.423,0.188,0.618c0,0.507-0.335,0.759-1.002,0.759H0.109
		c-0.651,0-0.979-0.254-0.979-0.759c0-0.193,0.063-0.395,0.189-0.618L5.702-0.201C5.919-0.58,6.186-0.768,6.5-0.768
		c0.308,0,0.571,0.189,0.791,0.568L13.682,10.854z M6.5,0.566L0.376,11.169h12.249L6.5,0.566z M7.054,8.264
		C6.994,8.629,6.81,8.817,6.5,8.817c-0.303,0-0.492-0.19-0.562-0.569L5.564,3.656c-0.021-0.269,0.065-0.493,0.25-0.677
		C6.002,2.797,6.23,2.707,6.498,2.707c0.268,0,0.496,0.093,0.684,0.272C7.37,3.163,7.452,3.391,7.433,3.671
		C7.229,6.505,7.098,8.038,7.054,8.264z M6.5,10.635c-0.177,0-0.324-0.057-0.445-0.179c-0.117-0.117-0.178-0.264-0.178-0.44
		c0-0.167,0.059-0.313,0.178-0.438C6.173,9.45,6.322,9.393,6.5,9.393c0.166,0,0.31,0.061,0.436,0.185
		c0.124,0.124,0.185,0.27,0.185,0.438c0,0.175-0.061,0.323-0.185,0.44C6.81,10.578,6.668,10.635,6.5,10.635z"/>
</g>
</svg>
