<?xml version="1.0" encoding="utf-8"?>
<!-- Generator: Adobe Illustrator 22.1.0, SVG Export Plug-In . SVG Version: 6.00 Build 0)  -->
<svg version="1.1" id="white-thumb" xmlns:svgjs="http://svgjs.com/svgjs"
	 xmlns="http://www.w3.org/2000/svg" xmlns:xlink="http://www.w3.org/1999/xlink" x="0px" y="0px" viewBox="0 0 50 50"
	 style="enable-background:new 0 0 50 50;" xml:space="preserve">
<style type="text/css">
	.st0{fill:#363636;}
</style>
<title>Fill 1</title>
<desc>Created with Avocode.</desc>
<title>Oval 2</title>
<desc>Created with Avocode.</desc>
<title>Oval 2</title>
<desc>Created with Avocode.</desc>
<title>Oval 2</title>
<desc>Created with Avocode.</desc>
<title>printer</title>
<desc>Created with Avocode.</desc>
<title>profile_round outline</title>
<desc>Created with Avocode.</desc>
<title>share</title>
<desc>Created with Avocode.</desc>
<path id="share-SvgjsPath1039" class="st0" d="M35,24.7c0-2.7,2.2-5,5-5c2.8,0,5,2.3,5,5c0,2.8-2.2,5-5,5C37.2,29.7,35,27.4,35,24.7
	z M5,40c0-2.8,2.2-5,5-5c6.6,0,6.6,10,0,10C7.2,45,5,42.8,5,40z M5,10c0-2.8,2.2-5,5-5c6.6,0,6.6,10,0,10C7.2,15,5,12.8,5,10z
	 M32.4,18.2L19.9,11C20.5,4.8,15.7,0,10,0C4.5,0,0,4.5,0,10s4.5,10,10,10c3.4,0,6.3-1.7,8.1-4.2l12.1,7c-0.3,1.4-0.3,2.7,0,4
	l-12.4,7.1C16,31.5,13.2,30,10,30C4.5,30,0,34.5,0,40s4.5,10,10,10c5.9,0,10.8-5.2,9.8-11.5l12.6-7.3c1.8,2.1,4.5,3.5,7.5,3.5
	c5.5,0,10-4.5,10-10c0-5.5-4.5-10-10-10C36.9,14.7,34.2,16.1,32.4,18.2z"/>
<title>Stroke 1</title>
<desc>Created with Avocode.</desc>
<title>Stroke 1</title>
<desc>Created with Avocode.</desc>
<title>Oval 2</title>
<desc>Created with Avocode.</desc>
<title>video icon</title>
<desc>Created with Avocode.</desc>
<title>video icon</title>
<desc>Created with Avocode.</desc>
<title>Stroke 1</title>
<desc>Created with Avocode.</desc>
<title>Stroke 1</title>
<desc>Created with Avocode.</desc>
</svg>
