<?xml version="1.0" encoding="utf-8"?>
<!-- Generator: Adobe Illustrator 21.0.0, SVG Export Plug-In . SVG Version: 6.00 Build 0)  -->
<svg version="1.1" id="레이어_1" xmlns="http://www.w3.org/2000/svg" xmlns:xlink="http://www.w3.org/1999/xlink" x="0px"
	 y="0px" viewBox="0 0 85 85" style="enable-background:new 0 0 85 85;" xml:space="preserve">
<style type="text/css">
	.st0{display:none;}
	.st1{display:inline;}
	.st2{fill:#4B56B7;}
	.st3{fill:#FFFFFF;}
	.st4{fill:#07878F;}
	.st5{fill:#FAFAFA;}
	.st6{fill:#95BA00;}
	.st7{fill:#EA8502;}
	.st8{fill:#0085D2;}
</style>
<g id="Layer_1" class="st0">
	<g class="st1">
		<path class="st2" d="M42.5,0C19,0,0,19,0,42.5C0,66,19,85,42.5,85S85,66,85,42.5C85,19,66,0,42.5,0z"/>
		<path class="st3" d="M55.8,47.2c-2.9-2.2-5.2,1.5-5.2,1.5c-1.3,3.1-3.1,1.2-3.1,1.2c-7.2-4.6-10.7-10-10.7-10
			c-2.5-2.9,1.1-4.7,1.1-4.7c2.6-1.8-0.7-5.6-0.7-5.6l-5.8-8c-1.8-2.7-4.5-1.1-4.5-1.1l-5.3,4c-3.8,3-0.9,8.5-0.9,8.5
			c11.4,23.6,33.4,31.9,33.4,31.9c6,1.6,10.5-5.4,10.5-5.4c2.3-3.2-0.7-5.6-0.7-5.6L55.8,47.2z"/>
	</g>
</g>
<g id="레이어_2" class="st0">
	<g class="st1">
		<path class="st4" d="M42.5,0C19,0,0,19,0,42.5C0,66,19,85,42.5,85S85,66,85,42.5C85,19,66,0,42.5,0"/>
		<polygon class="st5" points="45.4,35.9 42.5,28.5 39.5,35.9 30.9,37.1 37.3,42.3 35.3,51 42.5,46.5 49.6,51 47.6,42.3 54,37.1 		
			"/>
		<path class="st5" d="M64.3,40.3c0-12.1-9.8-21.8-21.8-21.8s-21.8,9.8-21.8,21.8c0,6.7,3,12.7,7.8,16.7L24,65.9l6.2-1.9l2.1,6.1
			l4.4-8.7c1.8,0.5,3.8,0.8,5.8,0.8s4-0.3,5.8-0.8l4.4,8.7l2.1-6.1l6.2,1.9l-4.5-8.9C61.3,53.1,64.3,47.1,64.3,40.3 M24.6,40.3
			c0-9.9,8-17.9,17.9-17.9c9.9,0,17.9,8,17.9,17.9c0,9.9-8,17.9-17.9,17.9C32.6,58.2,24.6,50.2,24.6,40.3"/>
	</g>
</g>
<g id="레이어_3">
	<g>
		<path class="st6" d="M42.5,0C19,0,0,19,0,42.5C0,66,19,85,42.5,85C66,85,85,66,85,42.5C85,19,66,0,42.5,0"/>
		<path class="st5" d="M64.9,22c-3.3,2.2-7.3,3.4-10.9,2.7c-3.6-0.6-6.9-3.2-11.2-4.1c-4.3-0.9-9.7-0.3-12.7,2.8
			C33.8,31.2,37.4,39,41,46.8h0.1c2.1-3.6,5.8-8.6,9.1-10c3.3-1.3,6.2,1,9-1.4C62.1,32.9,64.7,25.7,64.9,22"/>
		<rect x="30.3" y="19" transform="matrix(0.9056 -0.4241 0.4241 0.9056 -15.0031 17.7416)" class="st5" width="4" height="47.2"/>
	</g>
</g>
<g id="레이어_4" class="st0">
	<g class="st1">
		<path class="st7" d="M42.5,0C19,0,0,19,0,42.5C0,66,19,85,42.5,85S85,66,85,42.5C85,19,66,0,42.5,0"/>
		<path class="st5" d="M59.2,20.8H44.8v19.4h19.4V25.8C64.2,23.1,61.9,20.8,59.2,20.8"/>
		<path class="st5" d="M20.8,25.8v14.4h19.4V20.8H25.8C23.1,20.8,20.8,23.1,20.8,25.8"/>
		<path class="st5" d="M44.8,64.2h14.4c2.8,0,5-2.2,5-5V44.8H44.8L44.8,64.2L44.8,64.2z"/>
		<path class="st5" d="M20.8,59.2c0,2.8,2.2,5,5,5h14.4V44.8H20.8V59.2z"/>
	</g>
</g>
<g id="레이어_5" class="st0">
	<g class="st1">
		<path class="st8" d="M42.5,0C19,0,0,19,0,42.5C0,66,19,85,42.5,85C66,85,85,66,85,42.5C85,19,66,0,42.5,0"/>
		<path class="st5" d="M67.3,45.9v-6.8l-7.8-0.9c-0.4-1.7-1.1-3.2-1.9-4.7l4.7-6l-4.8-4.8l-6,4.7c-1.4-0.9-3-1.5-4.7-1.9l-0.9-7.8
			h-6.8l-0.9,7.8c-1.7,0.4-3.2,1.1-4.7,1.9l-6-4.7l-4.8,4.8l4.7,6c-0.9,1.4-1.5,3-1.9,4.7l-7.8,0.9v6.8l7.8,0.9
			c0.4,1.7,1.1,3.2,1.9,4.7l-4.7,6l4.8,4.8l6-4.7c1.4,0.9,3,1.5,4.7,1.9l0.9,7.7h6.8l0.9-7.7c1.7-0.4,3.2-1.1,4.7-1.9l6,4.7l4.8-4.8
			l-4.7-6c0.9-1.4,1.5-3,1.9-4.7L67.3,45.9z M42.5,51.3c-4.9,0-8.8-4-8.8-8.8c0-4.9,4-8.8,8.8-8.8c4.9,0,8.8,4,8.8,8.8
			C51.3,47.4,47.4,51.3,42.5,51.3"/>
	</g>
</g>
<g id="레이어_6" class="st0">
	<g class="st1">
		<path class="st2" d="M42.5,0C19,0,0,19,0,42.5C0,66,19,85,42.5,85S85,66,85,42.5C85,19,66,0,42.5,0"/>
		<path class="st5" d="M60.6,25.3v36.6H27.4c-1.7,0-3-1.4-3-3.1c0-1.7,1.4-3.2,3-3.2h29.6V20.8H27c-2.7,0-4.8,2.2-4.8,4.8v33.6
			c0,2.7,2.2,4.8,4.8,4.8h35.8V25.3L60.6,25.3L60.6,25.3z M42.5,50.2h-3.6v-4.1h3.6V50.2z M35.1,28.6c1.5-1.6,3.4-2.4,5.6-2.4
			c2.5,0,4.5,0.6,5.9,1.9c1.4,1.3,2.1,2.8,2.1,4.6c0,1.4-0.3,2.5-0.7,3.3c-0.5,0.8-1.2,1.6-2.5,2.5c-1.4,1-2.3,1.6-2.6,2.1
			c-0.3,0.5-0.5,1.2-0.5,3.2h-3.6l0-1.4c0-2.1,0.8-3.8,2.5-5.1c1.9-1.4,2.9-2.8,2.9-4.2c0-1.2-0.3-2.1-0.9-2.7
			c-0.6-0.6-1.4-0.9-2.4-0.9c-1.1,0-2.1,0.5-2.9,1.4c-0.7,0.8-1,1.8-1,3.4H33C33.2,32,33.8,30,35.1,28.6"/>
	</g>
</g>
</svg>
