<?xml version="1.0" encoding="utf-8"?>
<!-- Generator: Adobe Illustrator 21.0.2, SVG Export Plug-In . SVG Version: 6.00 Build 0)  -->
<svg version="1.1" id="레이어_1" xmlns="http://www.w3.org/2000/svg" xmlns:xlink="http://www.w3.org/1999/xlink" x="0px"
	 y="0px" viewBox="0 0 85 85" style="enable-background:new 0 0 85 85;" xml:space="preserve">
<style type="text/css">
	.st0{fill:#7C84D2;}
	.st1{fill:#FFFFFF;}
</style>
<title>toc1_01</title>
<g id="레이어_6">
	<path class="st0" d="M42.5,0C19,0,0,19,0,42.5S19,85,42.5,85S85,66,85,42.5C85,19,66,0,42.5,0"/>
</g>
<g id="Stand">
	<path class="st1" d="M21.4,56v-2.2c0,0-0.1-2,2.4-2.1h15.9c1.2,0,2.1,1,2.1,2.1c0,0,0,0.1,0,0.1v1.9c0,0.2-0.1,0.4-0.3,0.4
		c0,0-0.1,0-0.1,0H21.8C21.8,56.4,21.5,56.5,21.4,56z"/>
	<path class="st1" d="M17.4,63.2v-2.6c0-1.8,1.5-3.3,3.3-3.3c0,0,0,0,0.1,0h21.9c0,0,2.9-0.1,2.9,3.3v2.7c0,0,0.1,0.5-0.7,0.6H18
		C17.7,63.8,17.5,63.5,17.4,63.2z"/>
	<path class="st1" d="M23.9,50.6v-1.7c0,0-0.1-1.5,1.8-1.5h11.9c0.9,0,1.6,0.7,1.6,1.6c0,0,0,0,0,0.1v1.5c0,0.1-0.1,0.3-0.2,0.3
		c0,0,0,0-0.1,0H24.2C24.2,50.8,24,50.9,23.9,50.6z"/>
</g>
<g id="Gavel">
	<path class="st1" d="M37,23.9c-1.9,3.1-4.6,5.7-7.8,7.5c0,0-0.4,0.2,0,0.5l7.5,7.5c0,0,0.3,0.3,0.5-0.3c1.3-3.4,3.9-6.2,7.3-7.6
		c0,0,0.3-0.1-0.1-0.5l-6.9-7.1C37.4,23.9,37.1,23.6,37,23.9z"/>
	<path class="st1" d="M28.2,33.1l7,7c0,0,2.5,2.4-0.4,5c0,0-2.7,2.1-4.7-0.1L23,37.7c-1.2-1.4-1-3.5,0.3-4.6c0,0,0,0,0.1-0.1
		C24.8,31.8,26.9,31.9,28.2,33.1z"/>
	<path class="st1" d="M43.4,18.1l7,6.9c1.3,1.3,1.3,3.4-0.1,4.7c-0.1,0.1-0.2,0.2-0.3,0.3c0,0-2.7,2.1-4.7-0.1l-7.1-7.2
		c-1.2-1.4-1-3.5,0.3-4.6c0,0,0,0,0.1-0.1C38.5,18.1,41.3,16.2,43.4,18.1z"/>
	<path class="st1" d="M43.2,35.2l3.6,3.6c0.7,0.6,0.7,1.7,0,2.3c-0.1,0.1-0.2,0.1-0.2,0.2c-0.7,0.6-1.8,0.6-2.4-0.1l-3.6-3.7
		c-0.6-0.7-0.5-1.8,0.2-2.4c0,0,0,0,0,0C41.5,34.6,42.5,34.6,43.2,35.2z"/>
	<path class="st1" d="M46.6,44.8c0,0,14.2,16,21.4,22.9c0.4-0.4,0.8-0.9,1.1-1.4c0.6-0.8,1.2-1.7,1.7-2.6c0.3-0.5,0.5-1,0.7-1.5
		c0,0-15.8-16.9-21.4-20.9c0,0-1.1-0.7-1.8,0l-1.8,1.7C46.2,43.6,46.2,44.3,46.6,44.8z"/>
</g>
</svg>
