<?xml version="1.0" encoding="utf-8"?>
<!-- Generator: Adobe Illustrator 15.1.0, SVG Export Plug-In . SVG Version: 6.00 Build 0)  -->
<!DOCTYPE svg PUBLIC "-//W3C//DTD SVG 1.1//EN" "http://www.w3.org/Graphics/SVG/1.1/DTD/svg11.dtd">
<svg version="1.1" xmlns="http://www.w3.org/2000/svg" xmlns:xlink="http://www.w3.org/1999/xlink" x="0px" y="0px" width="85px"
	 height="85px" viewBox="552.775 378.445 85 85" enable-background="new 552.775 378.445 85 85" xml:space="preserve">
<g id="Layer_1" display="none">
	<g display="inline">
		<path fill="#4B56B7" d="M595.275,378.445c-23.473,0-42.5,19.028-42.5,42.499c0,23.473,19.027,42.5,42.5,42.5
			s42.5-19.027,42.5-42.5C637.775,397.473,618.748,378.445,595.275,378.445z"/>
		<path fill="#FFFFFF" d="M608.549,425.626c-2.898-2.229-5.15,1.492-5.15,1.492c-1.326,3.096-3.096,1.184-3.096,1.184
			c-7.224-4.574-10.701-10.032-10.701-10.032c-2.452-2.898,1.114-4.68,1.114-4.68c2.604-1.761-0.667-5.574-0.667-5.574l-5.797-8.026
			c-1.784-2.675-4.459-1.114-4.459-1.114l-5.348,4.013c-3.807,3.021-0.891,8.469-0.891,8.469
			c11.419,23.57,33.438,31.877,33.438,31.877c6.018,1.561,10.478-5.352,10.478-5.352c2.32-3.205-0.697-5.629-0.697-5.629
			L608.549,425.626z"/>
	</g>
</g>
<g id="레이어_2" display="none">
	<g display="inline">
		<path fill="#07878F" d="M595.275,378.445c-23.46,0-42.5,19.04-42.5,42.5c0,23.459,19.04,42.5,42.5,42.5s42.5-19.041,42.5-42.5
			C637.775,397.485,618.735,378.445,595.275,378.445"/>
		<polygon fill="#FAFAFA" points="598.225,414.331 595.231,406.913 592.238,414.331 583.721,415.522 590.041,420.711 
			588.118,429.441 595.231,424.959 602.346,429.441 600.423,420.711 606.742,415.522 		"/>
		<path fill="#FAFAFA" d="M617.119,418.779c0-12.063-9.78-21.842-21.844-21.842s-21.843,9.778-21.843,21.842
			c0,6.717,3.034,12.723,7.805,16.731l-4.496,8.855l6.191-1.932l2.106,6.131l4.438-8.727c1.847,0.508,3.789,0.785,5.798,0.785
			s3.952-0.277,5.798-0.785l4.438,8.727l2.106-6.131l6.19,1.932l-4.495-8.855C614.083,431.502,617.119,425.496,617.119,418.779
			 M577.403,418.779c0-9.854,8.017-17.871,17.872-17.871c9.854,0,17.87,8.018,17.87,17.871c0,9.854-8.016,17.872-17.87,17.872
			C585.419,436.65,577.403,428.633,577.403,418.779"/>
	</g>
</g>
<g id="레이어_3" display="none">
	<g display="inline">
		<path fill="#95BA00" d="M595.273,378.445c-23.459,0-42.498,19.047-42.498,42.504c0,23.458,19.039,42.497,42.498,42.497
			c23.462,0,42.501-19.039,42.501-42.497C637.774,397.492,618.735,378.445,595.273,378.445"/>
		<path fill="#FAFAFA" d="M617.685,400.427c-3.347,2.153-7.28,3.388-10.886,2.74c-3.604-0.647-6.881-3.185-11.218-4.117
			c-4.337-0.927-9.73-0.264-12.689,2.77c3.644,7.807,7.284,15.621,10.928,23.428h0.087c2.131-3.605,5.801-8.627,9.102-9.975
			c3.305-1.341,6.241,0.993,9.034-1.445C614.835,411.388,617.489,404.162,617.685,400.427"/>
		
			<rect x="583.117" y="397.411" transform="matrix(0.9056 -0.4241 0.4241 0.9056 -123.3297 287.897)" fill="#FAFAFA" width="4.048" height="47.235"/>
	</g>
</g>
<g id="레이어_4" display="none">
	<g display="inline">
		<path fill="#EA8502" d="M595.274,378.445c-23.46,0-42.5,19.04-42.5,42.5c0,23.459,19.04,42.5,42.5,42.5
			c23.46,0,42.5-19.041,42.5-42.5C637.774,397.485,618.735,378.445,595.274,378.445"/>
		<path fill="#FAFAFA" d="M611.945,399.281h-14.418v19.411h19.412v-14.417C616.939,401.518,614.704,399.281,611.945,399.281"/>
		<path fill="#FAFAFA" d="M573.609,404.275v14.417h19.411v-19.411h-14.417C575.846,399.281,573.609,401.518,573.609,404.275"/>
		<path fill="#FAFAFA" d="M597.527,442.609h14.418c2.759,0,4.994-2.238,4.994-4.994v-14.408h-19.412V442.609z"/>
		<path fill="#FAFAFA" d="M573.609,437.615c0,2.756,2.236,4.994,4.994,4.994h14.417v-19.402h-19.411V437.615z"/>
	</g>
</g>
<g id="레이어_5">
	<g>
		<path fill="#0085D2" d="M595.274,378.445c-23.46,0-42.5,19.04-42.5,42.5c0,23.459,19.04,42.5,42.5,42.5
			c23.459,0,42.5-19.041,42.5-42.5C637.775,397.485,618.734,378.445,595.274,378.445"/>
		<path fill="#FAFAFA" d="M620.103,424.375v-6.822l-7.762-0.922c-0.422-1.666-1.078-3.232-1.936-4.674l4.729-6.031l-4.822-4.823
			l-6.033,4.728c-1.439-0.855-3.008-1.515-4.672-1.935l-0.922-7.761h-6.823l-0.921,7.761c-1.666,0.42-3.234,1.079-4.674,1.935
			l-6.031-4.728l-4.824,4.823l4.729,6.031c-0.858,1.441-1.515,3.008-1.936,4.674l-7.761,0.922v6.822l7.761,0.922
			c0.42,1.664,1.076,3.232,1.936,4.672l-4.729,6.033l4.824,4.822l6.031-4.727c1.439,0.855,3.008,1.512,4.674,1.934l0.921,7.723
			h6.823l0.922-7.723c1.664-0.422,3.232-1.078,4.674-1.934l6.031,4.729l4.822-4.824l-4.729-6.033
			c0.859-1.439,1.514-3.008,1.936-4.672L620.103,424.375z M595.273,429.777c-4.86,0-8.813-3.953-8.813-8.814
			c0-4.859,3.952-8.813,8.813-8.813c4.861,0,8.814,3.954,8.814,8.813C604.087,425.824,600.134,429.777,595.273,429.777"/>
	</g>
</g>
<g id="레이어_6" display="none">
	<g display="inline">
		<path fill="#4B56B7" d="M595.275,378.445c-23.46,0-42.5,19.04-42.5,42.5c0,23.459,19.04,42.5,42.5,42.5s42.5-19.041,42.5-42.5
			C637.775,397.485,618.735,378.445,595.275,378.445"/>
		<path fill="#FAFAFA" d="M613.326,403.791v36.565h-33.163c-1.67,0-3.023-1.408-3.023-3.08c0-1.67,1.354-3.248,3.023-3.248h29.559
			v-34.744h-29.923c-2.672,0-4.838,2.166-4.838,4.838v33.646c0,2.672,2.167,4.838,4.838,4.838h35.791v-38.815H613.326z
			 M595.282,428.621h-3.611v-4.063h3.611V428.621z M587.909,407.075c1.522-1.628,3.413-2.417,5.619-2.417
			c2.513,0,4.502,0.611,5.915,1.892c1.415,1.285,2.103,2.806,2.103,4.647c-0.021,1.381-0.265,2.452-0.745,3.271
			c-0.461,0.794-1.246,1.589-2.463,2.505c-1.367,1.03-2.266,1.608-2.603,2.135c-0.343,0.53-0.453,1.182-0.453,3.196h-3.611
			l-0.013-1.406c0-2.063,0.759-3.815,2.507-5.071c1.944-1.391,2.889-2.777,2.889-4.239c0-1.238-0.296-2.135-0.906-2.741
			c-0.578-0.579-1.36-0.86-2.39-0.86c-1.149,0-2.145,0.499-2.88,1.443c-0.65,0.829-0.981,1.763-1.012,3.397h-4.062
			C585.972,410.421,586.597,408.475,587.909,407.075"/>
	</g>
</g>
</svg>
