<?xml version="1.0" encoding="utf-8"?>
<!-- Generator: Adobe Illustrator 21.0.2, SVG Export Plug-In . SVG Version: 6.00 Build 0)  -->
<svg version="1.1" id="레이어_1" xmlns="http://www.w3.org/2000/svg" xmlns:xlink="http://www.w3.org/1999/xlink" x="0px"
	 y="0px" viewBox="0 0 85 85" style="enable-background:new 0 0 85 85;" xml:space="preserve">
<style type="text/css">
	.st0{fill:#009CA6;}
	.st1{fill:#FFFFFF;}
</style>
<title>toc1_01</title>
<g id="레이어_6">
	<path class="st0" d="M42.5,0C19,0,0,19,0,42.5S19,85,42.5,85S85,66,85,42.5S66,0,42.5,0"/>
</g>
<path class="st1" d="M36.4,67c-3.3,0-6.5,0-9.8,0c0,0,0-0.1-0.1-0.1c-1.7-0.6-2.4-1.5-2.4-3.4c0-5.8,0-11.6,0-17.4
	c0-0.2,0-0.4,0-0.6c-0.6,0-1.1,0-1.6,0s-1,0-1.5,0c-1.3,0-2.4-0.9-2.9-2.1c0-0.1-0.1-0.2-0.1-0.3c0-0.4,0-0.8,0-1.1
	c0.3-1,0.9-1.7,1.6-2.4c6.6-6.6,13.2-13.2,19.8-19.8c0.7-0.7,1.5-1.4,2.5-1.7c0.4,0,0.8,0,1.1,0c1,0.3,1.7,0.9,2.4,1.6
	c1.9,1.9,3.9,3.8,5.8,5.8c0.1,0.1,0.2,0.2,0.4,0.4c0-0.6,0-1.1,0-1.6c0-1.7,1.3-3.1,3.1-3.1c1,0,1.9,0,2.9,0c2,0,3.2,1.3,3.2,3.3
	c0,3.4,0,6.8,0,10.2c0,0.3,0.1,0.5,0.3,0.7c1.4,1.4,2.8,2.7,4.1,4.1c0.7,0.7,1.4,1.5,1.7,2.5c0,0.4,0,0.8,0,1.1c0,0-0.1,0-0.1,0.1
	c-0.5,1.7-1.5,2.4-3.3,2.4c-0.9,0-1.8,0-2.8,0c0,0.2,0,0.4,0,0.6c0,5.9,0,11.8,0,17.7c0,1.5-0.8,2.6-2.2,3c-0.1,0-0.2,0.1-0.3,0.1
	c-3.3,0-6.5,0-9.8,0c0-5,0-10.1,0-15.1c0-1.9-1.3-3.2-3.2-3.2s-3.8,0-5.7,0c-2,0-3.3,1.3-3.3,3.3C36.4,56.9,36.4,62,36.4,67z"/>
</svg>
