<?xml version="1.0" standalone="no"?>
<!DOCTYPE svg PUBLIC "-//W3C//DTD SVG 1.1//EN" "http://www.w3.org/Graphics/SVG/1.1/DTD/svg11.dtd" >
<svg xmlns="http://www.w3.org/2000/svg" xmlns:xlink="http://www.w3.org/1999/xlink" version="1.1">
<metadata>
Created by FontForge 20170731 at Wed Dec 31 06:42:05 1930
 By Aleksey,,,
Regular
</metadata>
<defs>
<font id="MCSQudsS_Unormal." horiz-adv-x="1559" >
  <font-face 
    font-family="MCS Quds S_U normal."
    font-weight="5"
    font-stretch="normal"
    units-per-em="2048"
    panose-1="0 0 0 0 0 0 0 0 0 0"
    ascent="1638"
    descent="-410"
    bbox="-258 -926 2636 2076"
    underline-thickness="100"
    underline-position="-600"
    unicode-range="U+F200-F2FF"
  />
<missing-glyph horiz-adv-x="1650" 
d="M103 0v1650h1444v-1650h-1444zM1444 103v1444h-1238v-1444h1238z" />
    <glyph glyph-name=".notdef" horiz-adv-x="1650" 
d="M103 0v1650h1444v-1650h-1444zM1444 103v1444h-1238v-1444h1238z" />
    <glyph glyph-name=".null" horiz-adv-x="0" 
 />
    <glyph glyph-name="nonmarkingreturn" horiz-adv-x="500" 
 />
    <glyph glyph-name="space" unicode="&#xf200;" horiz-adv-x="500" 
 />
    <glyph glyph-name="SOH" unicode="&#xf201;" horiz-adv-x="1862" 
d="M247 280l1 54q1 11 2 16t6 16q0 19 12.5 39t36.5 41q26 26 65.5 49t89.5 23l34 -3l35 -9v-226h-282zM1316 0v280v1318l-156 -102l-22 -14l-20 -22l-19 -23l-14 -26q-10 -43 -10 -83v-1048h-305v613l-47 -39l-47 -38q-49 -32 -119 -48l-56 -5h-18l-19 -3h-30h-37
q-22 0 -33 -4q-24 0 -51 -9q-67 -18 -114 -60q-43 -39 -83 -88q-34 -42 -62 -97q-45 -98 -45 -222v-280h1087q0 -72 21 -135q13 -35 27.5 -60.5t42.5 -54.5q93 -107 231 -107q141 0 256.5 105.5t115.5 251.5v1598l-147 -107l-21 -14l-21 -17l-24 -28l-16 -27l-9 -38v-46
v-1321q0 -47 -33 -89q-37 -37 -80 -37q-27 0 -44 7q-12 3 -26 17l-16 13q-37 37 -37 89z" />
    <glyph glyph-name="STX" unicode="&#xf202;" horiz-adv-x="1797" 
d="M1391 -361q0 -57 36 -88t85 -31q42 0 79.5 31t37.5 88q0 56 -36 91q-35 30 -88 30q-42 0 -79 -31q-35 -33 -35 -90zM840 140q0 -52 -38 -93q-32 -29 -83 -29q-41 0 -82 31q-35 35 -35 91q0 52 33 88q18 15 39 24t49 9q42 0 79.5 -32t37.5 -89zM1678 0q23 0 41.5 6.5
t26.5 13.5l16 13q35 35 35 86v602l-147 -124l-18 -12l-17 -16l-28 -44l-21 -52l-7 -55v-138h-511l-17 32q-10 16 -25.5 34t-39.5 41l-28 26l-6 5l-27 20l-33 21l-42 22q-17 9 -39 34l-15 22l-16 28l-37 67l-42 -86q-21 -38 -61 -63q-58 -29 -119 -84l-41 -40l-17 -18
l-19 -24l-11 -16l-16 -21l-122 -2q-95 0 -109 -3q-47 -6 -92 -42q-19 -18 -37 -42q-13 -18 -26 -49l-15 -50q-4 -22 -4.5 -32t-0.5 -16v-343v-21v-20q0 -37 7 -57q6 -24 23 -44l21 -19l11 -7q10 -8 42 -13h180v480h122q39 -103 126 -163q42 -29 91 -44t107 -15q104 0 203 63
q41 24 72 66q30 36 54 93h628z" />
    <glyph glyph-name="ETX" unicode="&#xf203;" horiz-adv-x="1797" 
d="M840 140q0 -52 -38 -93q-32 -29 -83 -29q-41 0 -82 31q-35 35 -35 91q0 52 33 88q18 15 39 24t49 9q42 0 79.5 -32t37.5 -89zM1398 1272q0 50 -39 84.5t-83 34.5t-81.5 -31t-37.5 -88q0 -54 38 -92l35 -21l26 -5l23 -2q24 0 39.5 5t23 9.5t18.5 14.5l16 18l14 21l6 22z
M1806 1272q0 51 -37.5 85t-84.5 34q-49 0 -84 -32.5t-35 -86.5q0 -19 1 -28t8 -27t26 -36q34 -29 87 -29q46 0 82.5 30.5t36.5 89.5zM1678 0q23 0 41.5 6.5t26.5 13.5l16 13q35 35 35 86v602l-147 -124l-18 -12l-17 -16l-28 -44l-21 -52l-7 -55v-138h-511l-17 32
q-10 16 -25.5 34t-39.5 41l-28 26l-6 5l-27 20l-33 21l-42 22q-17 9 -39 34l-15 22l-16 28l-37 67l-42 -86q-21 -38 -61 -63q-58 -29 -119 -84l-41 -40l-17 -18l-19 -24l-11 -16l-16 -21l-122 -2q-95 0 -109 -3q-47 -6 -92 -42q-19 -18 -37 -42q-13 -18 -26 -49l-15 -50
q-4 -22 -4.5 -32t-0.5 -16v-343v-21v-20q0 -37 7 -57q6 -24 23 -44l21 -19l11 -7q10 -8 42 -13h180v480h122q39 -103 126 -163q42 -29 91 -44t107 -15q104 0 203 63q41 24 72 66q30 36 54 93h628z" />
    <glyph glyph-name="EOT" unicode="&#xf204;" 
d="M-68 280v-280h933q0 -73 22.5 -134t68.5 -116q93 -107 231 -107q141 0 256.5 105.5t115.5 251.5v541l-145 -135l-54 -45l-16 -20l-12 -21l-5 -12l-6 -19l-3 -18v-19v-14v-238q0 -45 -32 -85.5t-80 -40.5t-86 37q-35 40 -35 89l-3 271v590l-46 -35l-44 -35l-50 -24
l-63 -20l-56 -5l-60 -3h-33q-22 0 -33 -4q-21 0 -28 -2q-8 0 -21 -7q-62 -15 -111 -56q-46 -43 -80.5 -88t-57.5 -90q-42 -87 -42 -212h-425zM586 280q0 58 7 82q6 33 46 76q23 26 63 49q40 19 82 19l35 -2l32 -7v-217h-265zM1496 1145q0 -52 37 -90q38 -29 86 -29
q47 0 80 29q14 8 25.5 36t11.5 54q0 16 -2 25l-3 20q-6 21 -32 44q-31 31 -84 31q-48 0 -83.5 -33t-35.5 -87zM1418 1307q46 0 82.5 30t36.5 89q0 49 -39 88q-38 33 -86 33q-41 0 -82 -31q-35 -32 -35 -90q0 -54 37 -91q13 -10 37 -20q12 -4 23 -6t26 -2zM1241 1026
q44 0 81.5 30.5t37.5 88.5q0 50 -37 85t-86 35q-44 0 -82 -31q-35 -35 -35 -89q0 -55 35 -90q38 -29 86 -29z" />
    <glyph glyph-name="ENQ" unicode="&#xf205;" horiz-adv-x="1713" 
d="M837 18q-46 0 -81 29q-35 38 -35 93q0 32 6 51.5t29 36.5q36 33 86 33q41 0 80 -30q37 -34 37 -91q0 -54 -37 -91q-36 -31 -85 -31zM1685 0v1598l-143 -95q-18 -9 -46 -33q-11 -11 -23 -29l-12 -23l-7 -20l-7 -26l-1 -26v-11v-1055h-277l-14 32l-30 36l-36 39l-30 24
l-37 27l-35 22l-40 23l-25 18l-21 28l-54 103l-45 -86q-21 -42 -63 -63q-56 -24 -121 -84l-30 -30l-45 -52l-11 -16l-17 -21l-121 -2q-97 0 -109 -3q-47 -6 -92 -42l-16 -16l-18 -21l-15 -30l-14 -29l-13 -50q-5 -25 -5 -43v-343v-25v-17v-39l7 -31q6 -18 25 -34l31 -24
q17 -11 39 -11h180v480h121q36 -103 125.5 -162.5t199.5 -59.5q106 0 197 62t132 160h516z" />
    <glyph glyph-name="ACK" unicode="&#xf206;" horiz-adv-x="1797" 
d="M1547 1188q0 -55 37 -92q31 -28 86 -28q49 0 78 29q37 34 37 91q0 27 -7.5 47.5t-27.5 38.5q-36 33 -87 33q-22 0 -37.5 -5t-23 -9.5t-18.5 -14.5q-37 -34 -37 -90zM840 140q0 -52 -38 -93q-32 -29 -83 -29q-41 0 -82 31q-35 35 -35 91q0 52 33 88q18 15 39 24t49 9
q42 0 79.5 -32t37.5 -89zM1678 0q23 0 41.5 6.5t26.5 13.5l16 13q35 35 35 86v602l-147 -124l-18 -12l-17 -16l-28 -44l-21 -52l-7 -55v-138h-511l-17 32q-10 16 -25.5 34t-39.5 41l-28 26l-6 5l-27 20l-33 21l-42 22q-17 9 -39 34l-15 22l-16 28l-37 67l-42 -86
q-21 -38 -61 -63q-58 -29 -119 -84l-41 -40l-17 -18l-19 -24l-11 -16l-16 -21l-122 -2q-95 0 -109 -3q-47 -6 -92 -42q-19 -18 -37 -42q-13 -18 -26 -49l-15 -50q-4 -22 -4.5 -32t-0.5 -16v-343v-21v-20q0 -37 7 -57q6 -24 23 -44l21 -19l11 -7q10 -8 42 -13h180v480h122
q39 -103 126 -163q42 -29 91 -44t107 -15q104 0 203 63q41 24 72 66q30 36 54 93h628z" />
    <glyph glyph-name="FF" unicode="&#xf20c;" horiz-adv-x="45" 
d="M45 -161h-45v1628h45v-1628z" />
    <glyph glyph-name="CR" unicode="&#xf20d;" horiz-adv-x="45" 
d="M160 1335l-30 -30l-85 85v-1551h-45v1550l-84 -84l-30 30l107 107l-107 107l30 30l107 -107l107 107l30 -30l-107 -107z" />
    <glyph glyph-name="SO" unicode="&#xf20e;" horiz-adv-x="45" 
d="M303 1443l-137 -138l-31 31l86 86h-176v-1583h-45v1628h217l-82 82l31 31z" />
    <glyph glyph-name="SI" unicode="&#xf20f;" horiz-adv-x="45" 
d="M45 -161h-45v1583h-176l86 -86l-31 -31l-137 138l137 137l31 -31l-82 -82h217v-1628z" />
    <glyph glyph-name="DLE" unicode="&#xf210;" horiz-adv-x="2636" 
d="M-168 0h1148l102 -151v151h859q0 -142 92 -249.5t230 -107.5q144 0 258.5 105.5t114.5 251.5v1598l-147 -107l-20 -14l-22 -17q-26 -26 -39 -55l-9 -38l-1 -46v-1321q0 -47 -34 -88q-12 -12 -36 -28q-20 -10 -44 -10q-25 0 -43.5 8t-42.5 29q-37 40 -37 89l-5 254v607
l-31 -28l-56 -42l-48 -24l-57 -20l-27 -3l-21 -4l-59 -1q-87 0 -123 -11q-57 -9 -119 -58q-79 -68 -134 -173l-23 -61l-12 -42q-11 -57 -11 -114h-399l-241 362l-74 112q-15 27 -40 49l-17 20q-8 8 -23 17q-46 35 -104 35q-49 0 -82 -24l-16 -14l-15 -16l-30 -40v-240l24 19
l34 18q23 10 61 10q48 0 89 -31l33 -37l32 -44l128 -196h-963v-280zM1663 280l1 54q0 20 8 44t47 60l21 21q15 15 47 31t72 16l36 -2l35 -7v-217h-267z" />
    <glyph glyph-name="DC1" unicode="&#xf211;" horiz-adv-x="2811" 
d="M980 0l102 -151v151h859q0 -142 92 -249.5t230 -107.5q144 0 258.5 105.5t114.5 251.5v1598l-147 -107l-20 -14l-22 -17q-26 -26 -39 -55l-9 -38l-1 -46v-1321q0 -47 -34 -88q-12 -12 -36 -28q-20 -10 -44 -10q-25 0 -43.5 8t-42.5 29q-37 40 -37 89l-5 254v607l-31 -28
l-56 -42l-48 -24l-57 -20l-27 -3l-21 -4l-59 -1q-87 0 -123 -11q-57 -9 -119 -58q-79 -68 -134 -173l-23 -61l-12 -42q-11 -57 -11 -114h-399l-241 362l-74 112q-15 27 -40 49l-17 20q-8 8 -23 17q-46 35 -104 35q-49 0 -82 -24l-16 -14l-15 -16l-30 -40v-240l24 19l34 18
q23 10 61 10q48 0 89 -31l33 -37l32 -44l128 -196h-963v-280h1148zM1719 438l21 21q15 15 47 31t72 16l36 -2l35 -7v-217h-267l1 54q0 20 8 44t47 60zM667 -621q43 0 82 29q35 30 35 88q0 54 -37 91q-41 30 -85 30q-42 0 -83 -32q-35 -33 -35 -89q0 -54 39 -89
q34 -28 84 -28z" />
    <glyph glyph-name="DC2" unicode="&#xf212;" horiz-adv-x="1685" 
d="M782 -412q23 0 42.5 6t36.5 23q40 32 40 90q0 51 -40 91q-13 10 -36 19t-48 9q-47 0 -82 -28q-37 -37 -37 -91q0 -60 40 -90q32 -29 84 -29zM1167 280h-175l-10 7l-30 19l-51 41l-33 26l-42 40l-35 42l-10 14l-13 18l-19 36l-54 121l-65 109l-30 42l-33 36l-40 27
q-21 13 -47 21l-18 5l-17 2q-13 0 -21 -1t-23 -5t-27 -9t-26 -15q-34 -23 -77 -75v-251q6 14 15.5 25t28.5 26q29 21 61 21l11 2q48 0 79 -58l52 -122l21 -35q11 -16 30 -37l23 -25l33 -24l31 -23h-269q-162 0 -282.5 -121t-120.5 -285q0 -115 36.5 -204.5t127.5 -144
t239 -54.5h17q27 0 44 9l19 9l20 16q8 5 26 40l7 23l3 26v163h-211q-32 0 -55 38q-5 11 -8.5 21.5t-6.5 22.5t-3.5 21t-0.5 14v24l4 27l17 35q25 40 65 40h623q0 -145 92 -251t230 -106q149 0 261.5 105.5t112.5 251.5v1598l-148 -107l-21 -14l-25 -21l-21 -24l-14 -27
q-14 -47 -14 -84v-1321q0 -55 -30.5 -90.5t-79.5 -35.5q-48 0 -85.5 37t-37.5 89v280z" />
    <glyph glyph-name="DC3" unicode="&#xf213;" horiz-adv-x="1685" 
d="M1167 280h-175l-10 7l-30 19l-51 41l-33 26l-42 40l-35 42l-10 14l-13 18l-19 36l-54 121l-65 109l-30 42l-33 36l-40 27q-21 13 -47 21l-18 5l-17 2q-13 0 -21 -1t-23 -5t-27 -9t-26 -15q-34 -23 -77 -75v-251q6 14 15.5 25t28.5 26q29 21 61 21l11 2q48 0 79 -58
l52 -122l21 -35q11 -16 30 -37l23 -25l33 -24l31 -23h-269q-162 0 -282.5 -121t-120.5 -285q0 -115 36.5 -204.5t127.5 -144t239 -54.5h17q27 0 44 9l19 9l20 16q8 5 26 40l7 23l3 26v163h-211q-32 0 -55 38q-5 11 -8.5 21.5t-6.5 22.5t-3.5 21t-0.5 14v24l4 27l17 35
q25 40 65 40h623q0 -145 92 -251t230 -106q149 0 261.5 105.5t112.5 251.5v1598l-148 -107l-21 -14l-25 -21l-21 -24l-14 -27q-14 -47 -14 -84v-1321q0 -55 -30.5 -90.5t-79.5 -35.5q-48 0 -85.5 37t-37.5 89v280z" />
    <glyph glyph-name="DC4" unicode="&#xf214;" horiz-adv-x="1685" 
d="M796 956q23 0 42.5 6t36.5 23q40 32 40 90q0 51 -40 91q-13 10 -36 19t-48 9q-47 0 -82 -28q-37 -37 -37 -91q0 -60 40 -90q32 -29 84 -29zM1167 280h-175l-10 7l-30 19l-51 41l-33 26l-42 40l-35 42l-10 14l-13 18l-19 36l-54 121l-65 109l-30 42l-33 36l-40 27
q-21 13 -47 21l-18 5l-17 2q-13 0 -21 -1t-23 -5t-27 -9t-26 -15q-34 -23 -77 -75v-251q6 14 15.5 25t28.5 26q29 21 61 21l11 2q48 0 79 -58l52 -122l21 -35q11 -16 30 -37l23 -25l33 -24l31 -23h-269q-162 0 -282.5 -121t-120.5 -285q0 -115 36.5 -204.5t127.5 -144
t239 -54.5h17q27 0 44 9l19 9l20 16q8 5 26 40l7 23l3 26v163h-211q-32 0 -55 38q-5 11 -8.5 21.5t-6.5 22.5t-3.5 21t-0.5 14v24l4 27l17 35q25 40 65 40h623q0 -145 92 -251t230 -106q149 0 261.5 105.5t112.5 251.5v1598l-148 -107l-21 -14l-25 -21l-21 -24l-14 -27
q-14 -47 -14 -84v-1321q0 -55 -30.5 -90.5t-79.5 -35.5q-48 0 -85.5 37t-37.5 89v280z" />
    <glyph glyph-name="NAK" unicode="&#xf215;" horiz-adv-x="1530" 
d="M1048 -417q0 -49 37 -89q39 -30 84 -30q24 0 44 6.5t38 23.5q19 22 30 44q6 12 9 45q0 59 -37 90q-34 31 -87 31q-42 0 -83 -31q-35 -33 -35 -90zM1201 280h-622v284l-189 -95l-21 -17l-22 -21l-20 -25l-10 -20l-14 -32l-4 -30l-1 -33v-20v-409h-310q0 -14 5 -27
q0 -16 7 -33q3 -16 16 -38q11 -35 59 -84q33 -36 100 -70l16 -6l12 -3l16 -3l23 -6l21 -4l33 -1q28 0 55 6q27 4 60 18q60 24 102 72l26 42l21 44q19 46 19 93v138h1033v280h-172v441l-150 -101q-20 -9 -42 -37l-14 -23l-12 -23l-16 -47l-5 -23v-21v-166z" />
    <glyph glyph-name="SYN" unicode="&#xf216;" horiz-adv-x="1530" 
d="M523 1008q0 -57 35 -91q17 -13 40 -22q11 -4 21 -6t25 -2q45 0 82 31.5t37 89.5v14q0 8 -2 16q0 8 -7 19q-3 18 -28 40q-17 14 -38.5 24t-45.5 10q-39 0 -79 -33t-40 -90zM1052 887l44 6q24 11 36 26q37 31 37 89q0 33 -9 51q-3 18 -26 38q-15 14 -38 23l-51 11
q-39 0 -77 -34q-37 -31 -37 -89q0 -57 36 -90q37 -31 85 -31zM1201 280h-622v284l-189 -95l-21 -17l-22 -21l-20 -25l-10 -20l-14 -32l-4 -30l-1 -33v-20v-409h-310q0 -14 5 -27q0 -16 7 -33q3 -16 16 -38q11 -35 59 -84q33 -36 100 -70l16 -6l12 -3l16 -3l23 -6l21 -4
l33 -1q28 0 55 6q27 4 60 18q60 24 102 72l26 42l21 44q19 46 19 93v138h1033v280h-172v441l-150 -101q-20 -9 -42 -37l-14 -23l-12 -23l-16 -47l-5 -23v-21v-166z" />
    <glyph glyph-name="ETB" unicode="&#xf217;" horiz-adv-x="1862" 
d="M247 280l1 54q1 11 2 16t6 16q0 19 12.5 39t36.5 41q26 26 65.5 49t89.5 23l34 -3l35 -9v-226h-282zM1316 0v280v1318l-156 -102l-22 -14l-20 -22l-19 -23l-14 -26q-10 -43 -10 -83v-1048h-305v613l-47 -39l-47 -38q-49 -32 -119 -48l-56 -5h-18l-19 -3h-30h-37
q-22 0 -33 -4q-24 0 -51 -9q-67 -18 -114 -60q-43 -39 -83 -88q-34 -42 -62 -97q-45 -98 -45 -222v-280h1087q0 -72 21 -135q13 -35 27.5 -60.5t42.5 -54.5q93 -107 231 -107q141 0 256.5 105.5t115.5 251.5v1598l-147 -107l-21 -14l-21 -17l-24 -28l-16 -27l-9 -38v-46
v-1321q0 -47 -33 -89q-37 -37 -80 -37q-27 0 -44 7q-12 3 -26 17l-16 13q-37 37 -37 89z" />
    <glyph glyph-name="CAN" unicode="&#xf218;" horiz-adv-x="2499" 
d="M719 18q-41 0 -82 31q-35 35 -35 91q0 52 33 88q18 15 39 24t49 9q42 0 79.5 -32t37.5 -89q0 -52 -38 -93q-32 -29 -83 -29zM2426 0v760l-196 -93l-18 -9l-12 -10l-9 -9l-10 -16l-9 -26l-2 -40v-277h-185v390l-202 -91l-12 -7l-14 -12l-16 -24l-8 -27l-4 -28v-201h-191
v277l-213 -98l-23 -20l-16 -29l-1 -13v-10v-7v-100h-237l-17 32q-10 16 -25.5 34t-39.5 41l-28 26l-6 5l-27 20l-33 21l-42 22q-17 9 -39 34l-15 22l-16 28l-37 67l-42 -86q-21 -38 -61 -63q-58 -29 -119 -84l-41 -40l-17 -18l-19 -24l-11 -16l-16 -21h-485v-280h485
q39 -103 126 -163q42 -29 91 -44t107 -15q104 0 203 63q41 24 72 66q30 36 54 93h1376z" />
    <glyph glyph-name="EM" unicode="&#xf219;" horiz-adv-x="2499" 
d="M719 18q-41 0 -82 31q-35 35 -35 91q0 52 33 88q18 15 39 24t49 9q42 0 79.5 -32t37.5 -89q0 -52 -38 -93q-32 -29 -83 -29zM1307 1125q0 -57 39 -88t89 -31q25 0 47.5 6.5t43.5 23.5q37 31 37 89q0 60 -39 90q-38 33 -91 33q-49 0 -87.5 -32.5t-38.5 -90.5zM1874 1006
q47 0 86 30q40 38 40 89q0 54 -39 88.5t-90 34.5q-48 0 -89 -33.5t-41 -89.5q0 -50 42 -89q36 -30 91 -30zM1654 1307q52 0 87 28q41 35 41 91q0 53 -41 90q-39 31 -89 31q-47 0 -87.5 -33t-40.5 -88t42 -91q16 -12 37 -21q25 -7 51 -7zM2426 0v760l-196 -93l-18 -9l-12 -10
l-9 -9l-10 -16l-9 -26l-2 -40v-277h-185v390l-202 -91l-12 -7l-14 -12l-16 -24l-8 -27l-4 -28v-201h-191v277l-213 -98l-23 -20l-16 -29l-1 -13v-10v-7v-100h-237l-17 32q-10 16 -25.5 34t-39.5 41l-28 26l-6 5l-27 20l-33 21l-42 22q-17 9 -39 34l-15 22l-16 28l-37 67
l-42 -86q-21 -38 -61 -63q-58 -29 -119 -84l-41 -40l-17 -18l-19 -24l-11 -16l-16 -21h-485v-280h485q39 -103 126 -163q42 -29 91 -44t107 -15q104 0 203 63q41 24 72 66q30 36 54 93h1376z" />
    <glyph glyph-name="SUB" unicode="&#xf21a;" horiz-adv-x="1955" 
d="M1296 -250q92 -107 230 -107q148 0 261.5 106t113.5 251v1598l-151 -107l-21 -16l-17 -15l-20 -21q-15 -18 -21 -34l-7 -19l-3 -21l-2 -44v-1321q0 -48 -33 -87t-77 -39q-26 0 -46 9q-18 5 -43 28q-35 37 -35 89v280h-160l6 23l3 24l4 49q0 58 -13 109q-9 44 -42 98
q-53 87 -159 152l-21 14l-26 12l-18 7l-31 13l-53 10l-50 4v374l-151 -121l-19 -17l-14 -19l-28 -44l-14 -26l-9 -30l-5 -37v-86l-35 -15l-33 -18l-30 -16l-26 -17l-55 -42l-26 -21l-30 -32q-71 -78 -112 -155l-33 -86l-28 -107h-280v-280h1267q0 -145 92 -250zM865 518
l47 -10l40 -18l30 -23q12 -15 30 -73l5 -37v-40v-23v-14h-152v238zM625 280h-166q0 20 3.5 35t11.5 32q5 18 9.5 32t10.5 27q12 23 31 46l25 21l36 24l39 21v-238z" />
    <glyph glyph-name="semicolon" unicode="&#xf21b;" horiz-adv-x="380" 
 />
    <glyph glyph-name="FS" unicode="&#xf21c;" horiz-adv-x="1120" 
d="M215 -798q0 -50 39 -91l17 -12l21 -11l46 -7q39 0 80 32q17 15 27 37.5t10 51.5l-1 21l-4 26q-6 22 -32 42q-37 32 -85 32q-41 0 -79.5 -32t-38.5 -89zM698 -919q41 0 79.5 33t38.5 88q0 54 -35 89q-41 32 -90 32q-43 0 -78 -30q-37 -34 -37 -91q0 -56 35.5 -88.5
t86.5 -32.5zM928 1579l-153 -76l-15 -10q-13 -3 -27 -23q-22 -17 -42 -52l-10 -41l-4 -42v-1055h-290h-315q-85 0 -144 -65q-43 -47 -73 -154l-16 -89l-7 -98q0 -154 59 -271q72 -132 204 -132h904h11q7 0 13 2q7 0 18 7l18 9l23 14q36 39 36 91v163h-959q-30 0 -54 36
q-21 38 -21 81q0 29 4.5 44t8.5 22.5t12 20.5q21 39 63 39h757z" />
    <glyph glyph-name="GS" unicode="&#xf21d;" horiz-adv-x="1248" 
d="M753 -240q44 0 82 30q35 26 35 84q0 53 -37 93q-15 10 -40 20q-11 4 -21 6t-25 2q-45 0 -80 -28q-37 -34 -37 -93q0 -51 37 -88q32 -26 86 -26zM390 -798q0 -54 37 -91l18 -12l19 -11l23 -5l26 -2q36 0 80 32l16 19q5 3 12 24q4 6 6.5 16.5t2.5 29.5q0 49 -37 87
q-17 14 -38.5 24t-45.5 10q-41 0 -82 -30q-37 -40 -37 -91zM873 -919q41 0 83 33q36 32 36 88q0 53 -36 89q-38 32 -88 32q-41 0 -82 -34q-37 -31 -37 -87t37 -88.5t87 -32.5zM303 280h-19q-81 0 -140 -65q-45 -44 -74 -154l-10 -47l-9 -54l-4 -86q0 -154 62 -271
q68 -132 199 -132h875q27 0 44 9l24 12l14 11q15 14 28 40l6 21l1 30v163h-929q-29 0 -53 34q-22 35 -22 83q0 49 24 87q21 39 63 39h926q5 0 11 138q2 46 5 139l-184 3v315l-166 -107l-23 -12l-24 -21q-18 -18 -23 -49l-4 -45l-1 -48v-22l1 -11h-598zM303 280h313h-313z
" />
    <glyph glyph-name="RS" unicode="&#xf21e;" horiz-adv-x="1206" 
d="M390 -798q0 -54 37 -91l18 -12l19 -11l23 -5l26 -2q36 0 80 32l16 19q5 3 12 24q4 6 6.5 16.5t2.5 29.5q0 49 -37 87q-17 14 -38.5 24t-45.5 10q-41 0 -82 -30q-37 -40 -37 -91zM873 -919q41 0 83 33q36 32 36 88q0 53 -36 89q-38 32 -88 32q-41 0 -82 -34
q-37 -31 -37 -87t37 -88.5t87 -32.5zM390 1069q0 -56 37 -89l18 -12l24 -12q17 -6 44 -6q40 0 78.5 31.5t38.5 87.5q0 54 -37 91q-31 28 -84 28q-47 0 -82 -29q-37 -35 -37 -90zM873 950q42 0 83 32q36 32 36 87q0 56 -38 91q-31 28 -86 28q-48 0 -83.5 -32.5t-35.5 -86.5
q0 -53 37 -87q37 -32 87 -32zM303 280h-19q-81 0 -140 -65q-45 -44 -74 -154l-10 -47l-9 -54l-4 -86q0 -154 62 -271q68 -132 199 -132h781h12q7 0 13 2q7 0 18 7l20 9l19 14q7 7 12 17l12 21l9 28l2 25v163h-835q-29 0 -53 34q-22 35 -22 83q0 49 24 87q21 39 63 39h926
l4 7l5 19l2 49l-2 55l-5 108v23l-4 19h-168v315l-166 -107l-23 -12l-24 -21q-18 -18 -23 -49l-4 -45l-1 -48v-22l1 -11h-598zM303 280h313h-313z" />
    <glyph glyph-name="US" unicode="&#xf21f;" horiz-adv-x="1206" 
d="M998 935q43 0 84 31q36 35 36 89q0 31 -10 51q-5 13 -13 24l-13 15q-37 31 -90 31q-45 0 -80 -35q-37 -25 -37 -86q0 -54 40 -91q32 -29 83 -29zM390 -798q0 -54 37 -91l18 -12l19 -11l23 -5l26 -2q36 0 80 32l16 19q5 3 12 24q4 6 6.5 16.5t2.5 29.5q0 49 -37 87
q-17 14 -38.5 24t-45.5 10q-41 0 -82 -30q-37 -40 -37 -91zM873 -919q41 0 83 33q36 32 36 88q0 53 -36 89q-38 32 -88 32q-41 0 -82 -34q-37 -31 -37 -87t37 -88.5t87 -32.5zM303 280h-19q-81 0 -140 -65q-45 -44 -74 -154l-10 -47l-9 -54l-4 -86q0 -154 62 -271
q68 -132 199 -132h856h11q7 0 13 2q7 0 20 7l22 12l14 11l18 21l10 21l7 23l2 26v163h-910q-29 0 -53 34q-22 35 -22 83q0 49 24 87q21 39 63 39h926l4 7l5 19l2 49l-2 55l-5 108v23l-4 19h-168v315l-166 -107l-23 -12l-24 -21q-18 -18 -23 -49l-4 -45l-1 -48v-22l1 -11
h-598zM303 280h313h-313z" />
    <glyph glyph-name="at" unicode="&#xf220;" horiz-adv-x="380" 
 />
    <glyph glyph-name="A" unicode="&#xf221;" horiz-adv-x="569" 
d="M375 989v-33q-3 -26 -4 -40q0 -17 -3.5 -38.5t-9.5 -50.5l-34 -204q-17 -114 -17 -207l-1 -115h-41l-1 117q0 16 -2 57.5t-2 48.5q0 23 -3.5 52t-9.5 62q0 19 -32 189q-18 105 -18 160q0 68 24 112t66 44t65 -40.5t23 -113.5zM379 139q0 -35 -27 -60.5t-63 -25.5
q-35 0 -61.5 24t-26.5 62q0 39 25.5 65.5t62.5 26.5q36 0 63 -27t27 -65z" />
    <glyph glyph-name="B" unicode="&#xf222;" horiz-adv-x="1862" 
d="M247 280l1 54q1 11 2 16t6 16q0 19 12.5 39t36.5 41q26 26 65.5 49t89.5 23l34 -3l35 -9v-226h-282zM1316 0v280v1318l-156 -102l-22 -14l-20 -22l-19 -23l-14 -26q-10 -43 -10 -83v-1048h-305v613l-47 -39l-47 -38q-49 -32 -119 -48l-56 -5h-18l-19 -3h-30h-37
q-22 0 -33 -4q-24 0 -51 -9q-67 -18 -114 -60q-43 -39 -83 -88q-34 -42 -62 -97q-45 -98 -45 -222v-280h1087q0 -72 21 -135q13 -35 27.5 -60.5t42.5 -54.5q93 -107 231 -107q141 0 256.5 105.5t115.5 251.5v1598l-147 -107l-21 -14l-21 -17l-24 -28l-16 -27l-9 -38v-46
v-1321q0 -47 -33 -89q-37 -37 -80 -37q-27 0 -44 7q-12 3 -26 17l-16 13q-37 37 -37 89z" />
    <glyph glyph-name="C" unicode="&#xf223;" horiz-adv-x="834" 
d="M778 -151h-53l-340 400l340 393h47l-246 -393zM471 -151h-49l-338 400l340 393h47l-246 -393z" />
    <glyph glyph-name="D" unicode="&#xf224;" horiz-adv-x="834" 
d="M762 238l-338 -389h-49l246 389l-254 404h45zM459 238l-336 -389h-49l243 389l-251 404h45z" />
    <glyph glyph-name="E" unicode="&#xf225;" horiz-adv-x="946" 
d="M293 863q0 -37 -26 -63.5t-60 -26.5q-37 0 -64 26q-26 28 -26 64t27 62t63 26q35 0 60 -26q26 -24 26 -62zM760 1031l-510 -1325h-68l506 1325h72zM834 -114q0 -36 -24 -60t-62 -24q-37 0 -64 24.5t-27 59.5t27.5 61.5t65.5 26.5q36 0 60 -24.5t24 -63.5z" />
    <glyph glyph-name="F" unicode="&#xf226;" horiz-adv-x="946" 
d="M802 58l-58 -57l-277 275l-277 -275l-59 57l275 278l-275 278l62 56l274 -276l277 276l58 -56l-279 -278z" />
    <glyph glyph-name="G" unicode="&#xf227;" horiz-adv-x="946" 
d="M549 611q0 -34 -24 -60.5t-59 -26.5t-61 25q-25 27 -25 62q0 34 24.5 58.5t61.5 24.5q33 0 58 -24t25 -59zM835 291h-730v83h730v-83zM549 54q0 -35 -24.5 -60.5t-58.5 -25.5q-36 0 -61 25t-25 61t26 60.5t60 24.5q33 0 58 -24t25 -61z" />
    <glyph glyph-name="H" unicode="&#xf228;" horiz-adv-x="569" 
d="M526 730q-159 -160 -235 -314.5t-76 -318.5q0 -151 74 -311q39 -87 87 -156q44 -63 146 -178l-8 -12q-53 34 -85 56q-37 26 -60 45q-43 34 -101 97q-93 105 -138.5 219.5t-45.5 243.5q0 124 40 225t132 207q48 55 102 101q27 23 61.5 47.5t90.5 60.5z" />
    <glyph glyph-name="I" unicode="&#xf229;" horiz-adv-x="569" 
d="M492 101q0 -254 -187 -463q-51 -57 -100 -97q-42 -34 -144 -101l-12 12l47 53l56 66q101 127 154.5 261.5t53.5 264.5q0 163 -74.5 315.5t-236.5 317.5l17 12q102 -68 150.5 -108.5t100.5 -100.5q90 -104 132 -208q21 -52 32 -107t11 -117z" />
    <glyph glyph-name="J" unicode="&#xf22a;" horiz-adv-x="1500" 
d="M1151 1094l-65 27l-69 39q-18 0 -18 -9q-2 -3 -3.5 -7.5t-3.5 -6.5l73 -72q50 -59 50 -151l-14 -30l-90 118q-39 48 -55 48l-14 -6v-22q14 -24 60 -77q33 -36 33 -75q0 -20 -11 -42t-32 -37q-12 56 -36 93q-27 37 -47 37q-7 -7 -18 -7l18 -51l18 -44v-79h-28
q-6 10 -21.5 30.5t-20.5 26.5l-47 61l3 -544h101l-26 -27l-120 -117l-105 111l-27 27h102v538l-61 -67q-19 -19 -32 -45h-28v79l18 45l18 50q-12 1 -20 7q-23 -10 -33 -22q-35 -35 -49 -108q-25 17 -35 36q-9 23 -9 43q0 38 35 75q24 26 39 46t21 31v22l-15 6q-17 0 -56 -48
q-16 -18 -39.5 -49.5t-48.5 -68.5l-15 30q0 93 51 153l72 70q-8 7 -8 14q0 9 -18 9l-43 -27q-13 -6 -45 -20q-23 -10 -45 -19q0 39 39.5 84.5t86.5 45.5q28 0 45 -9.5t39 -26.5l15 15q-26 41 -33 47q-21 18 -54 18l-80 -29v15q19 42 48 59q34 21 66 21q35 0 54 -17l35 -42
q34 24 34 56q5 36 17 60q41 -18 45 -53q6 -37 27 -64q19 29 19 67q4 42 45 56q17 -30 17 -62q5 -33 34 -54l35 42q21 17 52 17q20 0 41 -8q13 -5 25 -12q33 -19 50 -60v-15l-80 29q-33 0 -55 -20q-14 -11 -32 -45l15 -15q22 19 40 27.5t43 8.5q50 0 90 -49q36 -45 36 -81z
M1457 332q-43 -6 -78.5 -10.5t-62.5 -10.5q-117 -30 -219 -93q-143 -90 -264 -238q14 -18 51 -52q44 -44 66 -57l-6 37q-3 10 -5.5 20.5t-2.5 15.5q3 29 30 29q29 0 38 -23q3 -6 3 -21q-3 -29 -16.5 -38.5t-13.5 -27.5q0 -8 17.5 -28.5t27.5 -20.5q17 0 28 16q25 35 65 35
q37 0 51 -27q7 -13 7 -50q0 -23 -30 -52.5t-64 -29.5q-50 0 -92 33l-60 60q-13 -25 -22 -50q-13 -22 -36 -22q-7 1 -14 3.5t-15 8.5q-15 11 -15 24q3 29 34.5 33t31.5 18q-1 7 -43 43q-58 49 -65 57l-21 12q-5 -6 -14.5 -14.5t-34.5 -28.5q-60 -51 -60 -57q1 -15 33.5 -20
t32.5 -31q0 -9 -14 -22.5t-30 -13.5q-28 0 -42 34l-16 38q-66 -65 -80 -74q-32 -19 -72 -19q-34 0 -67 33q-27 27 -27 49q0 29 10 54q14 23 48 23q42 0 60.5 -25.5t34.5 -25.5q11 2 25 21q18 20 18 28q0 20 -15 30q-15 12 -15 36l3 23q11 21 38 21q31 0 31 -27l-12 -51
l-1 -24q10 8 26.5 22.5t36.5 34.5q24 23 36.5 35.5t15.5 16.5q-126 154 -264 239q-103 65 -217 92q-21 5 -54.5 9.5t-88.5 11.5q39 21 72 31q44 15 89 15q73 0 153 -29t123 -56q72 -48 138 -125q108 -123 123 -123q25 27 39 43q10 11 63 74q58 68 135 119q47 33 117 57
q81 28 157 28q35 0 70.5 -9t90.5 -37z" />
    <glyph glyph-name="K" unicode="&#xf22b;" horiz-adv-x="946" 
d="M835 291h-321v-323h-84v323h-325v83h325v328h84v-328h321v-83z" />
    <glyph glyph-name="L" unicode="&#xf22c;" horiz-adv-x="569" 
d="M428 -3q0 -44 -30.5 -73.5t-73.5 -29.5q-72 0 -119 68t-47 172q0 98 44 182.5t130 149.5l24 -33q-73 -79 -102 -136.5t-29 -125.5q0 -18 1 -27t8.5 -32.5t17.5 -32.5l32 15q21 9 42 9q43 0 72.5 -32t29.5 -74z" />
    <glyph glyph-name="M" unicode="&#xf22d;" horiz-adv-x="408" 
d="M495 0h-495v227h495v-227z" />
    <glyph glyph-name="N" unicode="&#xf22e;" horiz-adv-x="569" 
d="M379 -22q0 -36 -26.5 -61t-63.5 -25q-36 0 -62 24.5t-26 61.5q0 39 25.5 65.5t62.5 26.5q36 0 63 -27t27 -65z" />
    <glyph glyph-name="O" unicode="&#xf22f;" horiz-adv-x="569" 
d="M508 1264l-379 -1564h-63l376 1564h66z" />
    <glyph glyph-name="P" unicode="&#xf230;" horiz-adv-x="1111" 
d="M418 158q0 -68 49 -118q52 -38 105 -38t104 38q47 45 47 118q0 71 -46 110q-43 40 -108 40q-54 0 -103 -37q-26 -20 -38 -52q-10 -33 -10 -61z" />
    <glyph glyph-name="Q" unicode="&#xf231;" horiz-adv-x="1111" 
d="M413 1166v-1166h229v1166h-229z" />
    <glyph glyph-name="R" unicode="&#xf232;" horiz-adv-x="1111" 
d="M539 847l7 2l89 -32l41 -8l43 -4l21 4l14 1l54 3q13 2 27 4.5t30 6.5l19 5l27 10l28 13l36 18v294l-79 -33l-77 -25l-77 -12l-84 -4l-28 -1h-30h-29h-23l-25 3q-20 0 -33 4l-20 2l-22 6l-72 23l-84 37v-1164h247v847z" />
    <glyph glyph-name="S" unicode="&#xf233;" horiz-adv-x="1111" 
d="M438 795l372 1h21q14 0 41 9q50 12 71.5 38.5t36.5 78.5l5 32l4 28v184h-137v-53q0 -30 -22 -59q-21 -24 -56 -34l-7 -3h-11q-33 0 -65 28q-7 9 -12.5 19t-7.5 14q-5 13 -6.5 19.5t-1.5 15.5v53h-131v-53q0 -36 -28 -65q-23 -23 -58 -28h-12q-30 0 -65 28q-24 29 -28 65
v53h-131v-1166h228v795z" />
    <glyph glyph-name="T" unicode="&#xf234;" horiz-adv-x="1111" 
d="M611 0h238v228h-179q-81 0 -120 10q-57 18 -70 70l-4 12v14q0 50 44 97q45 42 101 42h228v166h-198q-59 0 -111 36t-52 93q0 60 42 113.5t102 53.5h217v225h-320q-42 0 -104 -43l-22 -14l-34 -34l-24 -28l-21 -31q-46 -67 -46 -140l-3 -37q0 -43 9 -81.5t29 -77.5
q41 -70 119 -117q-83 -31 -131 -108q-23 -37 -35 -77t-12 -83l3 -35q0 -60 28 -107q29 -43 90 -86q103 -70 236 -70v9z" />
    <glyph glyph-name="U" unicode="&#xf235;" horiz-adv-x="1111" 
d="M593 1166q-98 0 -182 -48t-143.5 -130.5t-59.5 -150.5v-475q0 -146 114 -255t268 -109h7q146 0 254 108t108 256v475q0 33 -13 68.5t-40 73.5q-50 73 -132 131q-101 56 -181 56zM597 221q-63 0 -114 54q-45 57 -45 115v345q0 69 44 120.5t108 51.5q60 0 105 -54t45 -118
v-345q0 -63 -40 -119q-39 -50 -103 -50z" />
    <glyph glyph-name="V" unicode="&#xf236;" horiz-adv-x="1111" 
d="M672 879v-877h226v1167l-79 -28l-84 -24l-75 -13l-43 -4l-45 -1h-19h-7h-26l-28 5q-77 0 -147 16q-16 0 -25 4l-35 14l-77 31v-268l58 -22l40 -16q51 -16 104 -16h24h33h56l42 7l32 5l68 23z" />
    <glyph glyph-name="W" unicode="&#xf237;" horiz-adv-x="1111" 
d="M82 1166l303 -965l28 -75l16 -26l24 -35l25 -27l30 -19q10 -5 19 -8.5t19.5 -6.5t16 -3.5t13.5 -0.5q51 0 86 27t59 82l19 38l16 54l313 965h-239l-249 -828l-261 828h-238z" />
    <glyph glyph-name="X" unicode="&#xf238;" horiz-adv-x="1111" 
d="M63 0h236l261 828l250 -828h238l-313 966l-12 44l-9 23q-3 12 -14 29q-21 42 -52 76q-16 11 -39.5 19.5t-48.5 8.5h-7q-61 0 -121 -63l-19 -28l-19 -32l-18 -37l-14 -43z" />
    <glyph glyph-name="Y" unicode="&#xf239;" horiz-adv-x="1111" 
d="M604 406v-406h245v833q0 134 -115 232.5t-254 98.5h-11q-133 0 -245 -130q-100 -124 -100 -274q0 -42 7 -70l9 -32l18 -37q30 -69 89 -113q46 -34 122 -63l34 -8q20 -3 36 -10l37 -8l49 -9h39zM476 952q71 0 112.5 -46t41.5 -108q0 -53 -37 -99t-106 -46h-7
q-65 0 -109 44q-16 19 -29 48q-9 26 -9 60q0 10 0.5 23t7.5 33.5t27 45.5q42 45 108 45z" />
    <glyph glyph-name="Z" unicode="&#xf23a;" horiz-adv-x="569" 
d="M375 549q0 -36 -24.5 -62t-61.5 -26t-63 25q-25 27 -25 63t24 63t58 27q40 0 66 -26t26 -64zM375 -20q0 -36 -24.5 -62t-61.5 -26t-63 25q-25 27 -25 63t24 63t58 27q40 0 66 -26t26 -64z" />
    <glyph glyph-name="bracketleft" unicode="&#xf23b;" horiz-adv-x="569" 
d="M428 284q0 -44 -30.5 -73.5t-73.5 -29.5q-72 0 -119 68t-47 172q0 98 44 182.5t130 149.5l24 -33q-73 -79 -102 -136.5t-29 -125.5q0 -18 1 -27t8.5 -32.5t17.5 -32.5l32 15q21 9 42 9q43 0 72.5 -32t29.5 -74zM397 -20q0 -36 -24.5 -62t-61.5 -26t-63 25q-25 27 -25 63
t24 63t58 27q40 0 66 -26t26 -64z" />
    <glyph glyph-name="backslash" unicode="&#xf23c;" horiz-adv-x="569" 
d="M527 1008q-65 -59 -93 -101q-39 -59 -39 -120l1 -22q61 0 92 -28t31 -73q0 -39 -28 -65.5t-68 -26.5q-47 0 -80 40q-15 20 -23 45.5t-8 58.5q0 91 42 164.5t142 160.5zM257 1008q-65 -59 -93 -101q-39 -59 -39 -120l1 -22q61 0 92 -28t31 -73q0 -39 -28 -65.5t-68 -26.5
q-47 0 -80 40q-15 20 -23 45.5t-8 58.5q0 91 42 164.5t142 160.5z" />
    <glyph glyph-name="bracketright" unicode="&#xf23d;" horiz-adv-x="946" 
d="M836 378h-731v86h731v-86zM836 201h-731v86h731v-86z" />
    <glyph glyph-name="asciicircum" unicode="&#xf23e;" horiz-adv-x="569" 
d="M527 897q0 -89 -41 -162t-143 -163l-31 33q65 59 93 101q39 59 39 120l-1 22q-62 0 -92.5 27.5t-30.5 73.5q0 38 27 65t69 27q48 0 79 -40q16 -20 24 -45t8 -59zM257 897q0 -89 -41 -162t-143 -163l-31 33q65 59 93 101q39 59 39 120l-1 22q-62 0 -92.5 27.5t-30.5 73.5
q0 38 27 65t69 27q48 0 79 -40q16 -20 24 -45t8 -59z" />
    <glyph glyph-name="underscore" unicode="&#xf23f;" horiz-adv-x="1318" 
d="M721 144q0 -59 42 -109q43 -35 102 -35q52 0 96.5 36.5t44.5 107.5q0 65 -45 110q-40 35 -100 35q-51 0 -98 -35q-42 -42 -42 -110zM1141 1433l-49 37l-23 18l-24 15l-53 27l-26 12l-30 12l-25 7l-27 7l-72 16l-65 7l-40 3h-30q-211 0 -351 -85q-158 -95 -158 -265
q0 -105 121 -175l240 -94q141 -63 175 -170l8 -26q3 -23 9 -32l14 -56l7 -52l4 -53v-173l57 5q18 0 51 18l21 10l14 8l17 12l21 18l20 22l58 63l19 37l7 38v184q0 99 -145 196l-44 21l-39 19l-49 26l-138 65q-147 69 -147 124q0 30 40 67q45 42 116 68l68 14l47 4l35 1h366z
" />
    <glyph glyph-name="grave" unicode="&#xf240;" horiz-adv-x="408" 
d="M495 0h-495v227h495v-227z" />
    <glyph glyph-name="a" unicode="&#xf241;" horiz-adv-x="602" 
d="M235 0h238v1598l-146 -102l-21 -15l-21 -21l-21 -25l-17 -30l-9 -40l-3 -44v-1321z" />
    <glyph glyph-name="b" unicode="&#xf242;" horiz-adv-x="665" 
d="M802 280h-291v1055v21l-3 21l-4 20l-7 21q-8 25 -38 52l-21 18l-21 15l-146 95v-1598h531v280z" />
    <glyph glyph-name="c" unicode="&#xf243;" horiz-adv-x="602" 
d="M504 0v1598l-147 -102l-14 -12l-26 -24q-26 -26 -37 -55l-10 -38l-4 -46v-1321h238zM261 2010q-42 0 -79.5 -34t-37.5 -85v-13l3 -29l12 -34q17 -26 49 -42h-96v-113h392v113h-147q-20 0 -47 27l-12 27l-6 27q0 11 7 28q5 9 25 12h180v116h-243z" />
    <glyph glyph-name="d" unicode="&#xf244;" horiz-adv-x="840" 
d="M597 280v1036h-240v-1316h649v280h-409zM397 1797q-43 0 -82 -35l-26 -38l-4 -15l-5 -31q0 -75 63 -117h-91v-114h390v114h-148q-21 0 -46 28l-12 26l-5 28q0 19 7 27q5 11 22 15h182v112h-245z" />
    <glyph glyph-name="e" unicode="&#xf245;" horiz-adv-x="602" 
d="M473 0v1598l-146 -102l-21 -15l-21 -21l-21 -25l-17 -30l-9 -40l-3 -44v-1321h238zM371 1818q-37 0 -95 35t-99 35l-51 -1q-17 0 -37 -7q-20 0 -40 -13l-40 -19v-112l73 26l35 7l42 2q31 0 130 -42l42 -12l40 -5h60l36 8l21 6l21 7q21 5 48 21v110q-6 -4 -17.5 -10
t-26.5 -13l-46 -14l-38 -7z" />
    <glyph glyph-name="f" unicode="&#xf246;" horiz-adv-x="840" 
d="M1006 280h-409v1036h-240v-1316h649v280zM707 1565l-44 -21l-45 -16l-55 -8l-43 -1l-21 1l-23 6l-25 10l-27 20q-56 35 -97 35l-54 -2q-14 0 -20 -2q-6 0 -10 -1t-20 -7q-21 -5 -65 -30v-110l35 14l19 3l19 7l33 5l44 2q20 0 25 -2q8 0 22 -7l35 -12l49 -17l41 -14l40 -6
l54 2l42 7l12 4l32 8l47 23v109z" />
    <glyph glyph-name="g" unicode="&#xf247;" horiz-adv-x="602" 
d="M473 0v1598l-146 -102l-21 -15l-21 -21l-21 -25l-17 -30l-9 -40l-3 -44v-1321h238zM284 -159q-45 0 -83 -34q-33 -35 -33 -85l-2 -13q0 -32 16 -58q15 -28 47 -45h-91v-117h391v117h-149q-23 0 -47 28q-6 8 -9 15t-5 12l-6 26q0 16 8 26t24 16h184v112h-245z" />
    <glyph glyph-name="h" unicode="&#xf248;" horiz-adv-x="721" 
d="M546 280v1055v21l-3 21l-4 20l-7 21l-15 25l-23 27l-21 18l-23 15l-144 95v-1598h529v280h-289zM392 -159q-42 0 -79.5 -34.5t-37.5 -84.5v-11q0 -37 17 -61q10 -20 46 -44h-93v-117h390v117h-145q-23 0 -45 28q-5 4 -14 25l-6 28q0 16 6 28l10 8l14 6h180v112h-243z" />
    <glyph glyph-name="i" unicode="&#xf249;" horiz-adv-x="959" 
d="M263 -348q0 -29 9 -51.5t31 -39.5q31 -28 82 -28q52 0 81 29q18 15 28 38t10 52q0 56 -37 89q-31 31 -87 31q-42 0 -77 -31q-40 -32 -40 -89zM-54 0h884q24 0 38 7l25 12l19 14l17 18l16 21l9 24l5 23v602l-154 -101q-40 -29 -65 -77q-19 -46 -19 -97v-166h-775v-280z
" />
    <glyph glyph-name="j" unicode="&#xf24a;" horiz-adv-x="840" 
d="M-59 0h1065v280h-166v315l-168 -107l-28 -19l-19 -14q-15 -15 -23 -49v-86v-40h-661v-280zM530 -488q48 0 81 33q37 26 37 87q0 52 -37 88q-36 30 -86 30q-23 0 -43.5 -7.5t-36.5 -21.5t-27 -37q-4 -11 -6 -22.5t-2 -29.5q0 -57 33.5 -88.5t86.5 -31.5z" />
    <glyph glyph-name="k" unicode="&#xf24b;" horiz-adv-x="1439" 
d="M1316 280v443l-147 -112l-38 -32l-21 -19l-14 -19l-14 -40l-6 -49v-172h-791v292l-147 -110l-29 -17l-14 -13l-20 -19l-12 -23l-16 -38l-1 -49v-177q0 -26 12 -49l16 -21l19 -19l37 -21l28 -12l19 -4h1307v280h-168zM646 -406q0 -53 38 -91q34 -28 84 -28q45 0 81.5 31.5
t36.5 87.5q0 58 -37 91q-18 13 -40.5 21.5t-45.5 8.5q-43 0 -82 -32q-35 -32 -35 -89z" />
    <glyph glyph-name="l" unicode="&#xf24c;" horiz-adv-x="1439" 
d="M684 -361q0 -51 37 -91q15 -10 40 -20q11 -4 21 -6t23 -2q42 0 79.5 32t37.5 87q0 30 -5 48q-3 20 -31 42q-34 31 -84 31q-42 0 -83 -31q-35 -33 -35 -90zM1309 0q28 0 42 9l19 9l21 15q18 15 30.5 38.5t17.5 47.5v602l-146 -114l-52 -40l-9 -10l-16 -25l-15 -38l-2 -25
l-2 -23v-166h-791v289l-145 -110l-25 -18l-19 -14l-17 -17l-14 -25l-9 -21l-5 -19l-4 -49v-177q0 -23 14 -47l16 -18l19 -21l16 -14l21 -12l24 -5l18 -2h1013z" />
    <glyph glyph-name="m" unicode="&#xf24d;" horiz-adv-x="959" 
d="M341 1020q0 -47 -33 -73l-17 -11l-23 -8l-39 -6q-46 0 -82 23q-31 25 -31 75q0 20 6 37.5t23 31.5q14 14 36.5 21.5t46.5 7.5q40 0 78 -22q35 -27 35 -76zM611 1118l23 -1q11 0 20 -4l13 -4l23 -13q36 -32 36 -76q0 -48 -34.5 -73t-75.5 -25q-29 0 -43.5 4.5t-20.5 8
t-18 12.5q-33 24 -33 73q0 42 32.5 70t77.5 28zM830 0q24 0 38 7l25 12l19 14l17 18l16 21l9 24l5 23v602l-154 -101q-40 -29 -65 -77q-19 -46 -19 -97v-166h-810v-280h919z" />
    <glyph glyph-name="n" unicode="&#xf24e;" horiz-adv-x="959" 
d="M72 1069q0 -57 38 -92q30 -30 84 -30q44 0 81 31.5t37 90.5q0 54 -37 91q-16 15 -36.5 21.5t-45.5 6.5q-54 0 -84 -33q-37 -31 -37 -86zM602 947q26 0 44 6.5t38 26.5q37 34 37 89q0 57 -40 91q-31 28 -84 28q-26 0 -44 -6.5t-38 -26.5q-35 -29 -35 -86q0 -19 1 -28
t8 -27t26 -36q36 -31 87 -31zM-72 0h1203v280h-172v441l-154 -101q-40 -29 -65 -77q-19 -46 -19 -97v-166h-793v-280z" />
    <glyph glyph-name="o" unicode="&#xf24f;" horiz-adv-x="1439" 
d="M1316 280v439l-147 -112l-38 -32l-21 -19l-14 -19l-14 -40l-6 -49v-168h-791v288l-147 -110l-29 -17l-14 -13l-20 -19l-12 -23l-16 -38l-1 -49v-177q0 -26 12 -49l16 -21l21 -17l17 -16l30 -12q21 -7 35 -7h1307v280h-168zM361 1085l1 -31q0 -11 7 -22q3 -10 10 -18
l20 -19q31 -31 82 -31q46 0 83.5 33.5t37.5 87.5q0 26 -9 48t-29 43q-35 29 -84 29t-84 -32.5t-35 -87.5zM891 964q46 0 81.5 30.5t35.5 90.5q0 51 -37 91q-37 29 -85 29q-42 0 -83 -33q-35 -33 -35 -87q0 -57 37 -90q37 -31 86 -31z" />
    <glyph glyph-name="p" unicode="&#xf250;" horiz-adv-x="1439" 
d="M1309 0q28 0 42 9l19 9l21 15q18 15 30.5 38.5t17.5 47.5v602l-146 -114l-52 -40l-9 -10l-16 -25l-15 -38l-2 -25l-2 -23v-166h-791v289l-145 -110l-25 -18l-19 -14l-17 -17l-14 -25l-9 -21l-5 -19l-4 -49v-177q0 -23 14 -47l16 -18l19 -21l16 -14l21 -12l24 -5l18 -2
h1013zM504 1062q0 -48 32 -80q34 -28 84 -28q38 0 75 28q33 33 33 80q0 45 -32.5 76t-79.5 31t-80 -30q-32 -26 -32 -77zM886 1062q0 -48 35 -79q37 -29 82 -29q49 0 81.5 29.5t32.5 78.5q0 46 -39 79q-31 28 -79 28t-78 -30q-35 -26 -35 -77z" />
    <glyph glyph-name="q" unicode="&#xf251;" horiz-adv-x="959" 
d="M341 1020q0 -47 -33 -73l-17 -11l-23 -8l-39 -6q-46 0 -82 23q-31 25 -31 75q0 20 6 37.5t23 31.5q14 14 36.5 21.5t46.5 7.5q40 0 78 -22q35 -27 35 -76zM418 1360q24 0 42 -6q18 -4 41 -19q35 -27 35 -73q0 -42 -35 -70q-37 -26 -77 -26q-29 0 -45 5q-18 4 -38 19
q-33 24 -33 72q0 41 32 70q13 11 35 20q11 4 20.5 6t22.5 2zM611 1118l23 -1q11 0 20 -4l13 -4l23 -13q36 -32 36 -76q0 -48 -34.5 -73t-75.5 -25q-29 0 -43.5 4.5t-20.5 8t-18 12.5q-33 24 -33 73q0 42 32.5 70t77.5 28zM830 0q24 0 38 7l25 12l19 14l17 18l16 21l9 24
l5 23v602l-154 -101q-40 -29 -65 -77q-19 -46 -19 -97v-166h-721l-168 -280h998z" />
    <glyph glyph-name="r" unicode="&#xf252;" horiz-adv-x="959" 
d="M72 1069q0 -57 38 -92q30 -30 84 -30q44 0 81 31.5t37 90.5q0 54 -37 91q-16 15 -36.5 21.5t-45.5 6.5q-54 0 -84 -33q-37 -31 -37 -86zM602 947q26 0 44 6.5t38 26.5q37 34 37 89q0 57 -40 91q-31 28 -84 28q-26 0 -44 -6.5t-38 -26.5q-35 -29 -35 -86q0 -19 1 -28
t8 -27t26 -36q36 -31 87 -31zM-168 0h1299v280h-172v441l-154 -101q-40 -29 -65 -77q-19 -46 -19 -97v-166h-721zM275 1349q0 -57 38 -91q16 -15 35 -22l22 -5l27 -2q44 0 81 31.5t37 88.5t-34.5 88t-90.5 31q-49 0 -78 -29q-7 -8 -14 -18.5t-14 -23.5l-6 -24z" />
    <glyph glyph-name="s" unicode="&#xf253;" horiz-adv-x="1439" 
d="M1608 280h-169v441l-146 -114l-52 -40l-9 -10l-16 -25l-15 -38l-2 -25l-2 -23v-166h-791v289l-145 -110l-25 -18l-19 -14l-17 -17l-14 -25l-9 -21l-5 -19l-4 -49v-177q0 -23 14 -47l16 -18l19 -21l16 -14l21 -12l24 -5l18 -2h1312v280zM504 1062q0 -48 32 -77
q34 -28 84 -28q40 0 74 28t34 77q0 26 -7.5 42t-27.5 35q-32 30 -77 30t-80 -28q-32 -29 -32 -79zM886 1062q0 -45 36 -77q9 -7 14 -10t24.5 -10.5t42.5 -7.5q47 0 78.5 27.5t31.5 77.5q0 21 -4 34q-8 27 -31 45q-34 28 -80 28q-44 0 -78 -28t-34 -79zM695 1328
q0 -48 35 -80q7 -5 11 -7l22 -9l47 -7q44 0 76 25q35 30 35 78q0 45 -34 76t-82 31q-44 0 -77 -24q-33 -30 -33 -83z" />
    <glyph glyph-name="t" unicode="&#xf254;" horiz-adv-x="1439" 
d="M1309 0q28 0 42 9l19 9l21 15q18 15 30.5 38.5t17.5 47.5v602l-146 -114l-52 -40l-9 -10l-16 -25l-15 -38l-2 -25l-2 -23v-166h-791v289l-145 -110l-25 -18l-19 -14l-17 -17l-14 -25l-9 -21l-5 -19l-4 -49v-177q0 -23 14 -47l16 -18l19 -21l16 -14l21 -12l24 -5l18 -2
h1013zM504 1062q0 -48 32 -80q34 -28 84 -28q38 0 75 28q33 33 33 80q0 45 -32.5 76t-79.5 31t-80 -30q-32 -26 -32 -77zM886 1062q0 -48 35 -79q37 -29 82 -29q49 0 81.5 29.5t32.5 78.5q0 46 -39 79q-31 28 -79 28t-78 -30q-35 -26 -35 -77zM695 1325q0 -16 1 -23.5
t7.5 -22t26.5 -31.5q37 -28 80 -28q36 0 73.5 28.5t37.5 76.5q0 50 -35 79q-32 29 -81 29q-43 0 -76.5 -28.5t-33.5 -79.5z" />
    <glyph glyph-name="u" unicode="&#xf255;" horiz-adv-x="1082" 
d="M518 -476q43 0 78.5 21.5t35.5 74.5q0 38 -32 70q-31 26 -80 26q-41 0 -82 -24q-34 -26 -34 -72q0 -42 35 -73l15 -9l19 -7l19 -3zM887 0l23 1l23 4l28 13l23 15l19 18l16 21l6 23l6 24v161l-11 7l-29 19l-20 14l-21 18l-42 35q-52 46 -78 82l-41 68l-54 121l-65 105
q-27 48 -64 82q-32 32 -88 48l-16 5l-21 2q-44 0 -91 -30l-23 -16q-7 -3 -19 -17l-35 -42v-251q9 25 39 49q20 14 66 23h9q43 0 77 -56l53 -122l26 -41l31 -38l81 -65h-742v-280h934z" />
    <glyph glyph-name="v" unicode="&#xf256;" horiz-adv-x="1017" 
d="M499 -441q11 0 22 1t25.5 5t31.5 18q33 24 33 72q0 41 -33 74q-33 24 -77 24q-43 0 -81 -24q-17 -12 -27 -30.5t-10 -43.5q0 -42 35 -73l15 -9l19 -7l20 -3zM903 0l31 1q11 2 22 8q21 5 45 24l18 18l14 24l7 20l5 24v161l-39 26l-42 32l-40 35l-42 40l-35 42l-19 28
l-23 40l-56 121l-65 105q-9 22 -26 40l-37 41q-28 28 -85 49l-18 5l-19 2q-42 0 -93 -30q-18 -10 -38 -30t-39 -45v-251q12 28 40 49q19 11 65 23h11q42 0 73 -56l54 -122q9 -31 49 -72l27 -25l33 -24l31 -23h-745v-280h936z" />
    <glyph glyph-name="w" unicode="&#xf257;" horiz-adv-x="1082" 
d="M1248 280h-166l-13 7l-31 19l-51 41l-31 26q-43 34 -77 80l-27 41l-24 52l-7 15l-7 15l-12 28l-20 40l-66 109l-21 33l-4 6l-14 15l-22 24q-42 32 -90 48l-15 5l-20 2q-47 0 -92 -30q-40 -23 -77 -75v-251q8 24 42 53q23 14 63 19l8 2q43 0 77 -58l53 -122q18 -41 59 -79
q50 -50 83 -65h-270q-162 0 -283 -120.5t-121 -285.5q0 -113 36 -203.5t127 -144.5q43 -26 104 -40.5t137 -14.5h16q23 0 40 7l21 11l19 14q39 36 39 91v163h-214q-29 0 -56 40q-15 35 -15 77q0 45 21 85.5t63 40.5h838v280zM840 -348q0 -59 35 -91q34 -28 86 -28
q48 0 86 31q35 33 35 88q0 56 -37 89q-37 31 -88 31q-47 0 -84 -31q-33 -33 -33 -89z" />
    <glyph glyph-name="x" unicode="&#xf258;" horiz-adv-x="1082" 
d="M572 -492l16 16l12 17l8 18q3 9 3 23v175h-214q-29 0 -56 40q-15 35 -15 77q0 45 21 85.5t63 40.5h553l40 5q15 6 40 28l16 16q6 8 12 25l11 45v161l-13 7l-31 19l-42 34l-39 33l-45 44l-33 38l-25 35l-26 56l-7 15l-7 15l-12 28l-20 40l-66 109l-21 33l-4 6l-14 15
l-22 24q-42 32 -90 48l-15 5l-20 2q-47 0 -92 -30q-40 -23 -77 -75v-251q5 14 15 27l11 11l14 11q22 14 65 23h10q43 0 75 -56l53 -122q18 -41 59 -79q50 -50 83 -65h-270q-162 0 -283 -120.5t-121 -285.5q0 -147 99.5 -281t229.5 -134l38 4l16 1l21 7l21 -8q12 0 39 15
l17 14q10 4 19 16zM840 -348q0 -59 35 -91q34 -28 86 -28q48 0 86 31q35 33 35 88q0 56 -37 89q-37 31 -88 31q-47 0 -84 -31q-33 -33 -33 -89z" />
    <glyph glyph-name="y" unicode="&#xf259;" horiz-adv-x="1082" 
d="M840 0h28l19 7l23 9l11 5l19 12l17 18l16 21l12 47v161l-10 7l-32 19l-42 34l-40 33l-42 44l-35 36l-23 37l-15 33l-58 121l-67 109q-33 56 -61 78l-38 27l-49 21l-18 5l-17 2q-47 0 -97 -30l-17 -12l-23 -21l-18 -21l-17 -21v-251q6 24 37 46q24 20 66 26h11
q46 0 75 -56l54 -122q3 -8 9 -18.5t14 -20.5q15 -21 38.5 -42.5t43 -37.5t34.5 -25h-743v-280h935z" />
    <glyph glyph-name="z" unicode="&#xf25a;" horiz-adv-x="1017" 
d="M903 0l31 1q11 2 22 8q21 5 45 24l18 18l14 24l7 20l5 24v161l-39 26l-42 32l-40 35l-42 40l-35 42l-19 28l-23 40l-56 121l-65 105q-9 22 -26 40l-37 41q-28 28 -85 49l-18 5l-19 2q-42 0 -93 -30q-18 -10 -38 -30t-39 -45v-251q12 28 40 49q19 11 65 23h11q42 0 73 -56
l54 -122q9 -31 49 -72l27 -25l33 -24l31 -23h-745v-280h936z" />
    <glyph glyph-name="braceleft" unicode="&#xf25b;" horiz-adv-x="632" 
d="M460 1439l-213 -32v-1253l213 -28l-19 -89l-310 45v1400l310 44z" />
    <glyph glyph-name="bar" unicode="&#xf25c;" horiz-adv-x="1020" 
d="M1020 280l-10 7l-30 19l-51 41l-33 28l-28 24l-17 19l-34 37q-23 32 -49 91l-19 47q-15 35 -26 51l-65 105l-6 12l-10 14l-14 20l-33 36q-36 33 -89 48l-14 5l-23 2q-42 0 -93 -30q-34 -23 -77 -75v-251q12 27 37 46q23 13 70 26h7q42 0 79 -56l52 -122q20 -38 58 -79
q50 -46 82 -65h-271q-159 0 -280 -117.5t-121 -288.5q0 -85 27 -153q14 -35 36 -66.5t56 -65.5q29 -29 62 -51l32 -20l36 -19q9 -3 26 -8t49 -12q21 -4 38.5 -6t38.5 -2h488q28 0 42 9l39 23l17 23l11 19l5 21l5 28v163h-682q-33 0 -56 38q-5 11 -8.5 21.5t-6.5 22.5
t-3.5 21t-0.5 14l5 42q2 12 5 21t12 23q28 40 65 40h838v280h-168z" />
    <glyph glyph-name="braceright" unicode="&#xf25d;" horiz-adv-x="602" 
d="M214 1537l-20 -91l212 -32v-1253l-212 -30l20 -87l309 45v1400z" />
    <glyph glyph-name="asciitilde" unicode="&#xf25e;" horiz-adv-x="569" 
d="M379 90q0 -88 -41.5 -162.5t-142.5 -162.5l-31 33q32 29 56 55t37 46q39 59 39 120l-1 22q-61 0 -92 27t-31 74q0 36 27 64t69 28q48 0 79 -40q15 -19 24 -45q4 -12 6 -25.5t2 -33.5z" />
    <glyph glyph-name="c128" unicode="&#xf25f;" horiz-adv-x="791" 
d="M849 0v280h-931v-280h931z" />
    <glyph glyph-name="c129" unicode="&#xf260;" horiz-adv-x="1082" 
d="M476 280q-162 0 -283 -120.5t-121 -285.5q0 -163 119 -285q54 -54 129 -90q21 -7 45 -13q4 -1 27.5 -6t42 -7t41.5 -2h485q22 0 42 7l24 14l18 11q37 46 37 91v163h-685q-29 0 -56 40q-15 35 -15 77q0 45 21 85.5t63 40.5h553l40 5q15 6 40 28l16 16q6 8 12 25l11 45v161
l-13 7l-31 19l-42 34l-39 33l-45 44l-33 38l-25 35l-26 56l-7 15l-7 15l-12 28l-20 40l-66 109l-21 33l-4 6l-14 15l-22 24q-42 32 -90 48l-15 5l-20 2q-47 0 -92 -30q-40 -23 -77 -75v-251q5 14 15 27l11 11l14 11q22 14 65 23h10q43 0 75 -56l53 -122q18 -41 59 -79
q50 -50 83 -65h-270z" />
    <glyph glyph-name="quotesinglbase" unicode="&#xf261;" horiz-adv-x="1082" 
d="M418 1187q11 0 22 1t25.5 5t31.5 18q35 24 35 68q0 41 -31 72l-37 19q-21 7 -44 7q-49 0 -82 -26q-33 -24 -33 -72q0 -40 33 -70q35 -22 80 -22zM887 0l23 1l23 4l28 13l23 15l19 18l16 21l6 23l6 24v161l-11 7l-29 19l-20 14l-21 18l-42 35q-52 46 -78 82l-41 68
l-54 121l-65 105q-27 48 -64 82q-32 32 -88 48l-16 5l-21 2q-44 0 -91 -30l-23 -16q-7 -3 -19 -17l-35 -42v-251q9 25 39 49q20 14 66 23h9q43 0 77 -56l53 -122l26 -41l31 -38l81 -65h-742v-280h934z" />
    <glyph glyph-name="florin" unicode="&#xf262;" horiz-adv-x="1017" 
d="M434 1152q47 0 79.5 24t32.5 68q0 47 -31 72.5t-77 25.5q-41 0 -83 -21q-35 -30 -35 -77q0 -40 32 -68q32 -24 82 -24zM903 0l31 1q11 2 22 8q21 5 45 24l18 18l14 24l7 20l5 24v161l-39 26l-42 32l-40 35l-42 40l-35 42l-19 28l-23 40l-56 121l-65 105q-9 22 -26 40
l-37 41q-28 28 -85 49l-18 5l-19 2q-42 0 -93 -30q-18 -10 -38 -30t-39 -45v-251q12 28 40 49q19 11 65 23h11q42 0 73 -56l54 -122q9 -31 49 -72l27 -25l33 -24l31 -23h-745v-280h936z" />
    <glyph glyph-name="quotedblbase" unicode="&#xf263;" horiz-adv-x="1020" 
d="M1188 280h-168l-10 7l-30 19l-51 41l-33 28l-28 24l-17 19l-34 37q-23 32 -49 91l-19 47q-15 35 -26 51l-65 105l-6 12l-10 14l-14 20l-33 36q-36 33 -89 48l-14 5l-23 2q-42 0 -93 -30q-34 -23 -77 -75v-251q12 27 37 46q23 13 70 26h7q42 0 79 -56l52 -122
q20 -38 58 -79q50 -46 82 -65h-271q-159 0 -280 -117.5t-121 -288.5q0 -85 27 -153q14 -35 36 -66.5t56 -65.5q29 -29 62 -51l32 -20l36 -19q9 -3 26 -8t49 -12q21 -4 38.5 -6t38.5 -2h488q28 0 42 9l39 23l17 23l11 19l5 21l5 28v163h-682q-33 0 -56 38q-5 11 -8.5 21.5
t-6.5 22.5t-3.5 21t-0.5 14l5 42q2 12 5 21t12 23q28 40 65 40h838v280zM418 1332q0 -51 37 -91q36 -30 86 -30q46 0 84 32q33 33 33 89q0 52 -37 89q-31 28 -84 28q-48 0 -83.5 -30t-35.5 -87z" />
    <glyph glyph-name="ellipsis" unicode="&#xf264;" horiz-adv-x="1082" 
d="M476 280q-162 0 -283 -120.5t-121 -285.5q0 -163 119 -285q54 -54 129 -90q21 -7 45 -13q4 -1 27.5 -6t42 -7t41.5 -2h485q22 0 42 7l24 14l18 11q37 46 37 91v163h-685q-29 0 -56 40q-15 35 -15 77q0 45 21 85.5t63 40.5h553l40 5q15 6 40 28l16 16q6 8 12 25l11 45v161
l-13 7l-31 19l-42 34l-39 33l-45 44l-33 38l-25 35l-26 56l-7 15l-7 15l-12 28l-20 40l-66 109l-21 33l-4 6l-14 15l-22 24q-42 32 -90 48l-15 5l-20 2q-47 0 -92 -30q-40 -23 -77 -75v-251q5 14 15 27l11 11l14 11q22 14 65 23h10q43 0 75 -56l53 -122q18 -41 59 -79
q50 -50 83 -65h-270zM480 1295q0 -53 38 -91q16 -12 37 -21q11 -3 22.5 -5t24.5 -2q48 0 81 30q38 38 38 89q0 57 -40 91q-31 28 -84 28q-41 0 -79 -29.5t-38 -89.5z" />
    <glyph glyph-name="dagger" unicode="&#xf265;" horiz-adv-x="1197" 
d="M1085 0l21 1q7 0 20 5l23 10l17 16l24 40l4 19l3 28v410l-2 36q0 13 -2 21q0 11 -10 34q-4 16 -18 34q-12 18 -33 36l-36 29l-41 23l-45 12l-51 6h-388q-23 0 -35 3l-25 7l-30 16l-29 19q-40 28 -69 74v-361h473q54 0 84 -45l9 -14l10 -28v-151h-709v-280h835z" />
    <glyph glyph-name="daggerdbl" unicode="&#xf266;" horiz-adv-x="1197" 
d="M1197 280v249l-2 36q0 13 -2 21q0 11 -10 34q-4 16 -18 34q-12 18 -33 36l-36 29l-41 23l-45 12l-51 6h-388q-23 0 -35 3l-25 7l-30 16l-29 19q-40 28 -69 74v-361h473q54 0 84 -45l9 -14l10 -28v-151h-709v-280h1115v280h-168z" />
    <glyph glyph-name="circumflex" unicode="&#xf267;" horiz-adv-x="1197" 
d="M1085 0l21 1q7 0 20 5l23 10l17 16l24 40l4 19l3 28v410l-2 36q0 13 -2 21q0 11 -10 34q-4 16 -18 34q-12 18 -33 36l-36 29l-41 23l-45 12l-51 6h-388q-23 0 -35 3l-25 7l-30 16l-29 19q-40 28 -69 74v-361h473q54 0 84 -45l9 -14l10 -28v-151h-709v-280h835zM432 1391
q0 -57 35 -89q9 -6 19 -12t22 -10t22.5 -6t22.5 -2q46 0 81.5 29.5t35.5 89.5l-1 30q0 10 -7 21q-4 18 -28 40q-35 30 -84 30q-45 0 -83 -33q-35 -33 -35 -88z" />
    <glyph glyph-name="perthousand" unicode="&#xf268;" horiz-adv-x="1197" 
d="M1365 280h-168v249l-2 36q0 13 -2 21q0 11 -10 34q-4 16 -18 34q-12 18 -33 36l-36 29l-41 23l-45 12l-51 6h-388q-23 0 -35 3l-25 7l-30 16l-29 19q-40 28 -69 74v-361h473q54 0 84 -45l9 -14l10 -28v-151h-709v-280h1115v280zM432 1391q0 -57 35 -89q9 -6 19 -12
t22 -10t22.5 -6t22.5 -2q46 0 81.5 29.5t35.5 89.5l-1 30q0 10 -7 21q-4 18 -28 40q-35 30 -84 30q-45 0 -83 -33q-35 -33 -35 -88z" />
    <glyph glyph-name="Scaron" unicode="&#xf269;" horiz-adv-x="721" 
d="M585 -317q30 30 54 81q14 47 14 98v702l-191 -95l-21 -17l-23 -23l-21 -25q-10 -17 -21 -47v-19l-3 -18v-21v-28v-409h-312q9 -71 27 -107q16 -37 59 -75l49 -34l56 -26q56 -21 116 -21q54 0 113 21q49 16 104 63z" />
    <glyph glyph-name="guilsinglleft" unicode="&#xf26a;" horiz-adv-x="865" 
d="M1031 280h-310v284l-189 -95l-21 -17l-24 -23l-20 -25q-10 -17 -21 -47l-5 -37v-21v-28v-409h-310l9 -53l16 -40l11 -25l11 -16l20 -24l19 -21q33 -43 96 -69.5t125 -26.5q41 0 59 5l63 18q26 12 48 29.5t45 43.5l17 21l11 21l10 19l11 23q19 54 19 95v138h310v280z" />
    <glyph glyph-name="OE" unicode="&#xf26b;" horiz-adv-x="721" 
d="M653 -317q37 33 52 79q8 21 12 48l4 52v702l-189 -95l-21 -17l-24 -23l-20 -25q-10 -17 -21 -47l-5 -37v-21v-28v-409h-310q9 -72 24 -105t62 -77l49 -34l54 -26q56 -21 118 -21q55 0 111.5 20t103.5 64zM406 1045q0 -57 37 -91q37 -32 87 -32q44 0 80 30t36 93
q0 51 -37 85t-84 34q-44 0 -81.5 -32.5t-37.5 -86.5z" />
    <glyph glyph-name="c141" unicode="&#xf26c;" horiz-adv-x="865" 
d="M1031 280h-310v284l-189 -95l-21 -17l-24 -23l-20 -25q-10 -17 -21 -47l-5 -37v-21v-28v-409h-310l9 -53l16 -40l11 -25l11 -16l20 -24l19 -21q33 -43 96 -69.5t125 -26.5q41 0 59 5l63 18q26 12 48 29.5t45 43.5l17 21l11 21l10 19l11 23q19 54 19 95v138h310v280z
M406 1045q0 -57 37 -91q37 -32 87 -32q44 0 80 30t36 93q0 51 -37 85t-84 34q-44 0 -81.5 -32.5t-37.5 -86.5z" />
    <glyph glyph-name="c142" unicode="&#xf26d;" horiz-adv-x="1362" 
d="M-79 0h1273l54 5l27 7q12 5 18 11q14 9 28 42l7 52v643l-180 -93q-25 -14 -44 -42l-7 -16l-5 -14l-2 -38v-277h-169v390l-188 -91q-12 -5 -21 -19l-17 -23l-11 -26l-3 -14v-16v-201h-177v277l-184 -88q-20 -6 -50 -31l-35 -55l-4 -10v-14v-28l2 -19l-4 -20l-5 -8l-9 -4
h-294v-280z" />
    <glyph glyph-name="c143" unicode="&#xf26e;" horiz-adv-x="1432" 
d="M-32 0h1618v280h-181v480l-197 -95l-27 -17q-8 -5 -17 -23l-12 -28l-4 -42v-275h-185v390l-202 -91l-22 -17l-18 -25l-5 -22l-7 -34v-201h-191v277l-213 -98q-15 -9 -23 -20l-16 -29l-2 -16v-18v-96h-296v-280z" />
    <glyph glyph-name="c144" unicode="&#xf26f;" horiz-adv-x="2107" 
d="M2202 280h-193v434l-203 -86q-32 -14 -51 -40l-7 -9l-5 -19l-2 -37v-243h-197v352l-212 -88q-9 0 -26 -15l-16 -23l-14 -25l-4 -28v-173h-201v245l-212 -80l-28 -13l-29 -22q-16 -12 -39 -48q-21 -44 -21 -91v-292q0 -85 -80 -138q-34 -26 -79 -40.5t-102 -14.5
q-104 0 -187 48q-75 42 -96 133l-40 231q-9 0 -16 -4l-30 -15l-44 -35l-19 -20l-19 -26q-42 -74 -42 -170q0 -155 147.5 -268t345.5 -113q235 0 411.5 131t176.5 322h1133v280z" />
    <glyph glyph-name="quoteleft" unicode="&#xf270;" horiz-adv-x="1891" 
d="M981 0h693l55 5l25 7q11 4 18 11q21 15 28 40l7 25v29v643l-180 -93l-12 -7l-12 -12l-13 -11l-7 -12l-12 -28l-2 -40v-277h-173v390l-184 -91l-14 -7l-8 -12l-11 -10l-5 -13l-7 -26l-4 -30v-201h-176v277l-189 -88q-24 -11 -49 -31l-20 -25l-15 -30l-4 -10l-10 -30
l-6 -54v-312q0 -83 -68 -145q-75 -60 -159 -60q-95 0 -162.5 49.5t-87.5 141.5l-37 245l-5 -1l-18 -10l-14 -10q-41 -28 -70 -84q-17 -31 -28 -78q-4 -20 -7 -48t-3 -54q0 -164 127 -284q63 -57 140.5 -88t164.5 -31q205 0 359.5 138.5t154.5 341.5z" />
    <glyph glyph-name="quoteright" unicode="&#xf271;" horiz-adv-x="1362" 
d="M453 1155q0 -51 44 -86q19 -12 43 -21q13 -3 26 -5t29 -2q56 0 97 30.5t41 83.5t-43.5 85t-96.5 32q-58 0 -96 -28q-44 -38 -44 -89zM929 1155q0 -52 46 -86l21 -12l23 -9l21 -4l35 -3q54 0 95 29.5t41 84.5q0 53 -43 85t-99 32q-57 0 -98.5 -30t-41.5 -87zM691 1446
q0 -56 44 -90q22 -13 47 -21q13 -3 25 -5t26 -2q25 0 54 7q27 9 42 21q44 33 44 90q0 53 -43 84t-99 31q-55 0 -96 -33q-21 -15 -32.5 -36t-11.5 -46zM-79 0h1273l54 5l27 7q12 5 18 11q14 9 28 42l7 52v643l-180 -93q-25 -14 -44 -42l-7 -16l-5 -14l-2 -38v-277h-169v390
l-188 -91q-12 -5 -21 -19l-17 -23l-11 -26l-3 -14v-16v-201h-177v277l-184 -88q-20 -6 -50 -31l-35 -55l-4 -10v-14v-26l2 -21l-5 -23q-5 -6 -14 -9h-293v-129v-151z" />
    <glyph glyph-name="quotedblleft" unicode="&#xf272;" horiz-adv-x="1432" 
d="M-30 0h1596v280h-182v480l-197 -95l-30 -19l-16 -21l-7 -14l-7 -14l-2 -42v-275h-183v390l-202 -91q-11 -5 -24 -19l-9 -9l-9 -14l-7 -22l-3 -34v-201h-191v277l-213 -98l-27 -21l-12 -28l-3 -16v-18v-96h-272v-280zM263 1125q0 -51 39 -85.5t88 -34.5q50 0 90 31.5
t40 88.5q0 61 -38 90t-92 29q-50 0 -89 -29q-17 -14 -29 -38q-9 -21 -9 -52zM833 1005q44 0 88 31q18 19 28 41.5t10 47.5q0 57 -40 88q-37 31 -93 31q-54 0 -86 -29q-42 -32 -42 -90q0 -50 42 -89q34 -31 93 -31zM611 1304q51 0 89.5 32t38.5 89q0 51 -38.5 85t-89.5 34
q-54 0 -89 -28q-41 -35 -41 -91t41 -91q39 -30 89 -30z" />
    <glyph glyph-name="quotedblright" unicode="&#xf273;" horiz-adv-x="2107" 
d="M2202 280h-193v434l-203 -86q-32 -14 -51 -40l-7 -9l-5 -19l-2 -37v-243h-197v352l-212 -88q-9 0 -26 -15l-16 -23l-14 -25l-4 -28v-173h-201v245l-212 -80l-28 -13l-29 -22q-16 -12 -39 -48q-21 -44 -21 -91v-292q0 -85 -80 -138q-34 -26 -79 -40.5t-102 -14.5
q-104 0 -187 48q-75 42 -96 133l-40 231q-9 0 -16 -4l-30 -15l-44 -35l-19 -20l-19 -26q-42 -74 -42 -170q0 -155 147.5 -268t345.5 -113q235 0 411.5 131t176.5 322h1133v280zM1104 1166q0 -50 44 -88q22 -14 44 -21l52 -7q51 0 92 32t41 84t-43.5 82t-96.5 30t-93 -28
t-40 -84zM1708 1050q27 0 46.5 6t26.5 11l20 15q38 27 38 84q0 49 -42 80.5t-96 31.5q-52 0 -93.5 -30.5t-41.5 -81.5t46 -88q14 -10 42 -20q27 -8 54 -8zM1474 1332q55 0 96 30q38 33 38 84q0 45 -42 84q-19 14 -43 22q-11 3 -23.5 5t-29.5 2q-47 0 -90 -30t-43 -83
q0 -51 44 -86q18 -13 39 -21q25 -7 54 -7z" />
    <glyph glyph-name="bullet" unicode="&#xf274;" horiz-adv-x="1916" 
d="M1090 0h693l55 5l25 7q11 4 18 11q21 15 28 40l7 25v29v643l-180 -93l-12 -7l-12 -12l-13 -11l-7 -12l-12 -28l-2 -40v-277h-173v390l-184 -91l-14 -7l-8 -12l-11 -10l-5 -13l-7 -26l-4 -30v-201h-176v277l-189 -88q-24 -11 -49 -31l-20 -25l-15 -30l-4 -10l-10 -30
l-6 -54v-312q0 -83 -68 -145q-75 -60 -159 -60q-95 0 -162.5 49.5t-87.5 141.5l-37 245l-5 -1l-18 -10l-14 -10q-41 -28 -70 -84q-17 -31 -28 -78q-4 -20 -7 -48t-3 -54q0 -164 127 -284q63 -57 140.5 -88t164.5 -31q205 0 359.5 138.5t154.5 341.5zM1041 1155q0 -51 44 -86
q19 -12 43 -21q13 -3 26 -5t29 -2q51 0 95 28q43 32 43 86q0 53 -42.5 85t-98.5 32q-29 0 -51.5 -6t-45.5 -22q-42 -36 -42 -89zM1517 1155q0 -49 46 -86q19 -13 44 -21q13 -3 26 -5t28 -2q55 0 97.5 30t42.5 84q0 53 -44 85t-101 32q-30 0 -50 -6t-45 -22q-44 -38 -44 -89z
M1279 1446q0 -57 46 -90q14 -10 42 -20q27 -8 54 -8q58 0 99 29.5t41 88.5q0 50 -41.5 82.5t-100.5 32.5q-58 0 -99 -31t-41 -84z" />
    <glyph glyph-name="endash" unicode="&#xf275;" horiz-adv-x="1677" 
d="M-53 280v-280h1612q28 0 42 9q3 1 7 3t11 7l19 14q9 5 15 14l15 23l7 25l2 24v467q0 15 -3 26t-13 32l-18 21l-22 25q-13 10 -16 12q-9 5 -13 6q-11 6 -33 13l-38 5l-42 4h-725q-66 0 -129 -35l-32 -18l-26 -19l-21 -19l-23 -28v178l-239 -171v-338h-337zM1439 280h-916
v212h772q33 0 54 -5l25 -9l17 -12l16 -14l18 -20l10 -21l4 -24v-107z" />
    <glyph glyph-name="emdash" unicode="&#xf276;" horiz-adv-x="1677" 
d="M-101 0h1946v280h-168v306q0 15 -3 26t-13 32l-18 21l-22 25q-13 10 -16 12q-9 5 -13 6q-11 6 -33 13l-38 5l-42 4h-725q-66 0 -129 -35l-32 -18l-26 -19l-21 -19l-23 -28v178l-239 -171v-338h-385v-280zM523 280v212h772q33 0 54 -5l25 -9l17 -12l16 -14l18 -20l10 -21
l4 -24v-107h-916z" />
    <glyph glyph-name="tilde" unicode="&#xf277;" horiz-adv-x="2263" 
d="M2443 280h-180v271l-2 46l-3 14l-9 23q-5 11 -17 26l-30 35l-27 17l-23 12l-33 6h-848q-24 0 -35.5 -1t-30 -5t-31.5 -11l-36 -18q-11 0 -28 -16l-28 -21q-11 -5 -21 -19l-25 -28v178l-282 -171v-641q0 -83 -68.5 -144t-156.5 -61q-52 0 -88 13q-40 9 -79 36
q-66 51 -84 142l-38 245q-7 -2 -16 -8l-21 -13q-39 -27 -72 -84l-14 -33l-12 -38l-5 -36q0 -12 -4 -21l-1 -52q0 -164 129.5 -283.5t304.5 -119.5q207 0 361.5 139t154.5 341h1398v280zM1061 280v212h838l35 -2q14 0 28 -5q8 -2 38 -26l16 -27l7 -28v-124h-962z" />
    <glyph glyph-name="trademark" unicode="&#xf278;" horiz-adv-x="2277" 
d="M1293 730l-34 -1q-14 0 -30 -5q-20 -3 -33 -11l-36 -18l-26 -14l-30 -25l-24 -24l-19 -21v178l-280 -171v-641q0 -44 -16.5 -79.5t-55.5 -69.5q-65 -56 -158 -56q-47 0 -85 13q-32 0 -79 36q-70 57 -88 142l-36 245l-10 -3l-11 -7l-18 -11q-37 -26 -70 -84l-17 -38
l-7 -23l-6 -26l-7 -58v-35q0 -168 133 -285q55 -52 137 -85t164 -33q211 0 364 139t153 341h1060q62 0 102 40q47 45 47 107v424q0 21 -1.5 38.5t-9.5 34.5q-11 25 -40 51l-38 24l-25 7l-19 4h-851zM1061 280v212h838l35 -2q14 0 28 -5q8 -2 38 -26l16 -27l7 -28v-124h-962z
" />
    <glyph glyph-name="scaron" unicode="&#xf279;" horiz-adv-x="1677" 
d="M-52 280v-280h1611q28 0 42 9q3 1 7 3t11 7l19 14q9 5 15 14l15 23l7 25l2 24v467q0 15 -3 26t-13 32l-18 21l-22 25q-13 10 -16 12q-9 5 -13 6q-11 6 -33 13l-38 5l-42 4h-725q-66 0 -129 -35l-32 -18l-26 -19l-21 -19l-23 -28v178l-239 -171v-338h-336zM1439 280h-916
v212h772q33 0 54 -5l25 -9l17 -12l16 -14l18 -20l10 -21l4 -24v-107zM1031 1234q0 -54 38 -89q20 -13 39 -21q21 -7 47 -7q46 0 81 29q36 32 36 88t-37 88.5t-87 32.5q-43 0 -80 -33t-37 -88z" />
    <glyph glyph-name="guilsinglright" unicode="&#xf27a;" horiz-adv-x="1677" 
d="M-61 0h1906v280h-168v306q0 15 -3 26t-13 32l-18 21l-22 25q-13 10 -16 12q-9 5 -13 6q-11 6 -33 13l-38 5l-42 4h-725q-66 0 -129 -35l-32 -18l-26 -19l-21 -19l-23 -28v178l-239 -171v-338h-345v-280zM523 280v212h772q33 0 54 -5l25 -9l17 -12l16 -14l18 -20l10 -21
l4 -24v-107h-916zM959 1234q0 -56 40 -89q34 -28 86 -28q55 0 90.5 30t35.5 87q0 54 -38 89q-41 32 -88 32q-54 0 -89 -34q-37 -28 -37 -87z" />
    <glyph glyph-name="oe" unicode="&#xf27b;" horiz-adv-x="1135" 
d="M680 418q0 53 -38 91t-91 38t-91 -38t-38 -91q0 -50 36 -87.5t93 -37.5q51 0 90 36t39 89zM1075 -612q0 -15 -24 -15q-40 0 -129 65q-109 81 -209 209q-124 163 -205 376q-96 0 -152.5 15t-56.5 40q55 47 93 100q44 59 44 123q-51 0 -106 -49l-109 -98q-17 0 -32 42
q-6 17 -12 48.5t-11 72.5q-54 26 -82.5 50.5t-28.5 44.5t22 45q28 31 83 63q0 62 15 109t34 47q51 -54 109 -99t118 -45q-6 63 -52 118l-97 106q0 14 67.5 36.5t147.5 22.5q35 106 84.5 205.5t109.5 182.5q95 132 204 219q87 69 124 69q20 0 20 -23q0 -9 -72 -90
q-88 -100 -148 -208q-86 -158 -119 -365q61 -9 80 -20q17 -8 20 -25q-27 -22 -51 -48l-45 -52q-45 -57 -45 -121q57 0 113 46l102 101q15 0 37 -53.5t22 -110.5q32 -16 53 -29.5t31 -23.5q22 -22 22 -47q0 -19 -20 -39q-25 -25 -80 -57q0 -83 -15.5 -121.5t-39.5 -38.5
q-45 50 -96 90q-56 44 -125 51q0 -56 48 -115l99 -112q0 -12 -20 -23l-88 -22q16 -83 48.5 -167t82.5 -170q100 -173 217 -276q17 -17 20 -34zM1001 -571q-112 101 -201 256q-105 184 -136 383q76 0 79 22l-62 59q-38 40 -63 91q-19 -43 -35 -62t-32 -20q-37 0 -68 82
q-21 -55 -55 -93l-55 -61l7 -3l22 -7l63 -8l35 1l35 3q32 -100 72 -182t98 -167q127 -187 296 -294zM387 348q-43 18 -68 38t-26 36q0 33 92 67q-52 18 -97 51l-67 62q-7 0 -14 -31l-4 -86q-92 -51 -92 -73q0 -24 92 -58v-21.5t2 -22.5l9 -50q6 -32 13 -33q8 0 54 47
q50 51 106 74zM989 428q0 26 -92 57q0 49 -9.5 86.5t-15.5 40.5l-73 -66q-43 -38 -86 -54q96 -42 96 -74q0 -18 -20 -32.5t-72 -35.5q54 -18 96 -51l66 -61q8 0 14 29l4 87q92 51 92 74zM956 1417q-137 -92 -246 -256q-49 -75 -96.5 -177t-85.5 -216q-105 0 -137 -6
q-26 -3 -29 -19q20 -16 59 -58q31 -32 58 -85q21 39 42 60t32 22q12 0 20 -10t45 -72q18 45 51 84l62 66q0 11 -76 24q45 190 62 238q33 108 84 195q13 22 27.5 44.5t36.5 51.5q42 57 91 114z" />
    <glyph glyph-name="c157" unicode="&#xf27c;" horiz-adv-x="2263" 
d="M2443 280h-180v271l-2 46l-3 14l-9 23q-5 11 -17 26l-30 35l-27 17l-23 12l-33 6h-848q-24 0 -35.5 -1t-30 -5t-31.5 -11l-36 -18q-11 0 -28 -16l-28 -21q-11 -5 -21 -19l-25 -28v178l-282 -171v-641q0 -83 -68.5 -144t-156.5 -61q-52 0 -88 13q-40 9 -79 36
q-66 51 -84 142l-38 245q-7 -2 -16 -8l-21 -13q-39 -27 -72 -84l-14 -33l-12 -38l-5 -36q0 -12 -4 -21l-1 -52q0 -164 129.5 -283.5t304.5 -119.5q207 0 361.5 139t154.5 341h1398v280zM1061 280v212h838l35 -2q14 0 28 -5q8 -2 38 -26l16 -27l7 -28v-124h-962zM1584 1355
q0 -61 35.5 -91t86.5 -30q38 0 79 31q12 12 25.5 37.5t13.5 52.5q0 50 -39 85q-17 14 -38.5 24t-47.5 10q-22 0 -42 -6.5t-38 -23.5q-35 -29 -35 -89z" />
    <glyph glyph-name="c158" unicode="&#xf27d;" horiz-adv-x="1135" 
d="M713 446q0 51 -37.5 88t-91.5 37q-50 0 -89.5 -36t-39.5 -89t38 -91t91 -38t91 38t38 91zM1079 453q0 -21 -22 -46q-28 -31 -82 -63q0 -62 -15 -109t-34 -47l-54 52l-54 46q-61 46 -120 46q6 -64 53 -117l97 -106q0 -14 -66 -38q-31 -10 -69.5 -16t-79.5 -6
q-35 -106 -84.5 -205.5t-109.5 -182.5q-93 -132 -204 -219q-87 -69 -124 -69q-21 0 -21 21q0 7 72 91q89 99 148 209q89 165 120 365q-66 11 -82 19.5t-18 25.5q27 22 50 47q25 25 46 53q45 57 45 122q-61 0 -114 -46l-101 -102q-18 0 -40 52q-19 57 -19 112
q-60 31 -83.5 53.5t-23.5 46.5q0 19 20 39.5t80 57.5q0 78 18 123q15 36 38 36q44 -47 98 -92q53 -41 123 -49q0 59 -49 114l-99 113q0 13 19 23q13 5 90 22q-16 83 -48 166t-83 172q-98 173 -217 275q-21 21 -21 33q0 16 25 16q41 0 129 -64q107 -78 209 -209
q124 -161 205 -376q100 0 154.5 -15.5t54.5 -40.5q-54 -45 -94 -100q-44 -59 -44 -123q51 0 105 48l110 100q17 0 32 -42.5t24 -121.5q27 -13 47 -26q20 -11 34 -24q29 -24 29 -44zM772 121q-24 21 -56.5 56.5t-60.5 86.5q-19 -39 -40.5 -60t-32.5 -22q-12 0 -24 12l-42 70
q-18 -45 -51 -84l-62 -65q0 -11 43 -18q24 -3 33 -7q-41 -180 -61 -238q-16 -57 -37 -102q-20 -50 -46 -90q-52 -93 -157 -213q137 91 245 255t183 394h26h20h17h13h11q39 0 50 5q26 6 29 20zM422 373q-43 17 -68.5 37.5t-27.5 35.5q0 32 92 68q-54 18 -96 51l-66 62
q-11 0 -14.5 -29t-3.5 -88q-51 -27 -72 -45q-21 -15 -21 -29q0 -24 93 -57q0 -57 8.5 -91.5t15.5 -35.5q8 0 54 47q50 51 106 74zM1024 453q0 8 -22 23.5t-70 33.5q0 51 -9.5 87.5t-15.5 39.5l-73 -67q-40 -37 -86 -54q46 -20 69 -40q24 -18 25 -34q0 -33 -92 -67
q54 -18 96 -51l67 -62q7 0 13 28l5 52l1 37q47 28 69.5 44.5t22.5 29.5zM762 778l-3 1l-24 9l-65 9l-36 -1l-34 -3q-30 95 -71.5 181t-98.5 166q-123 181 -297 296q111 -103 202 -258q103 -182 136 -381l-24 -1q-6 0 -9.5 -1t-21.5 -7q-24 -6 -25 -14l64 -60q36 -36 61 -89
q21 45 36.5 63.5t31.5 18.5q39 0 67 -82q23 58 55 93z" />
    <glyph glyph-name="DEL" unicode="&#xf27e;" horiz-adv-x="2277" 
d="M1293 730l-34 -1q-14 0 -30 -5q-20 -3 -33 -11l-36 -18l-26 -14l-30 -25l-24 -24l-19 -21v178l-280 -171v-641q0 -44 -16.5 -79.5t-55.5 -69.5q-65 -56 -158 -56q-47 0 -85 13q-32 0 -79 36q-70 57 -88 142l-36 245l-10 -3l-11 -7l-18 -11q-37 -26 -70 -84l-17 -38
l-7 -23l-6 -26l-7 -58v-35q0 -168 133 -285q55 -52 137 -85t164 -33q211 0 364 139t153 341h1060q62 0 102 40q47 45 47 107v424q0 21 -1.5 38.5t-9.5 34.5q-11 25 -40 51l-38 24l-25 7l-19 4h-851zM1061 280v212h838l35 -2q14 0 28 -5q8 -2 38 -26l16 -27l7 -28v-124h-962z
M1584 1355q0 -61 35.5 -91t86.5 -30q38 0 79 31q12 12 25.5 37.5t13.5 52.5q0 50 -39 85q-17 14 -38.5 24t-47.5 10q-22 0 -42 -6.5t-38 -23.5q-35 -29 -35 -89z" />
    <glyph glyph-name="nbspace" unicode="&#xf27f;" horiz-adv-x="1810" 
d="M513 1598l-142 -82l-28 -20l-26 -26q-13 -9 -28 -38l-9 -32l-2 -21v-19v-14v-1066h-332v-280h1725q28 0 42 7l23 12l5 4l13 10q38 36 38 86v394q0 72 -21 110l-23 25l-35 33l-43 31l-30 14q-35 20 -88 20h-812h-28l-28 -11l-17 -3l-12 -6l-28 -12q-69 -27 -114 -86v970z
M1552 280h-1039v212h894q34 0 56 -7q24 -6 42 -23l18 -16l15 -19q14 -19 14 -44v-103z" />
    <glyph glyph-name="exclamdown" unicode="&#xf280;" 
d="M506 -480q42 0 84 32q35 32 35 87q0 53 -37 90q-39 31 -87 31q-40 0 -81 -31q-37 -35 -37 -90q0 -54 41 -91q9 -7 14 -10t22 -10q11 -4 21 -6t25 -2zM-48 0h907q0 -141 91 -250q47 -53 103.5 -80t126.5 -27q151 0 262.5 105.5t111.5 251.5v721l-143 -135l-56 -45
q-8 -8 -14.5 -16.5t-15.5 -23.5l-9 -41l-2 -42v-418q0 -54 -35 -89q-31 -37 -78 -37q-24 0 -44 7q-14 3 -40 30q-35 37 -35 89l-11 280l-9 7l-29 19l-41 32l-38 35l-42 40l-33 42l-14 21l-23 40l-26 63l-13 28l-21 37l-66 109l-21 33l-4 6l-14 15l-22 24q-42 32 -90 48
l-15 5l-21 2q-13 0 -21 -1t-28.5 -6.5t-45.5 -22.5q-16 -8 -38 -33q-8 -7 -18.5 -20.5t-16.5 -21.5v-251q5 14 15 27l11 11l14 11q22 14 65 23h14q40 0 71 -56l53 -122q18 -41 59 -79q50 -50 83 -65h-794v-280zM1201 -753q43 0 81 33t38 88q0 57 -35 89q-35 30 -88 30
q-47 0 -82 -31q-33 -33 -33 -88q0 -19 1 -27.5t7.5 -25.5t26.5 -34q34 -34 84 -34z" />
    <glyph glyph-name="cent" unicode="&#xf281;" 
d="M-77 0h936q0 -141 91 -250q47 -53 103.5 -80t126.5 -27q151 0 262.5 105.5t111.5 251.5v721l-143 -135l-56 -45q-8 -8 -14.5 -16.5t-15.5 -23.5l-9 -41l-2 -42v-418q0 -54 -35 -89q-31 -37 -78 -37q-24 0 -44 7q-14 3 -40 30q-35 37 -35 89l-11 280l-9 7l-29 19l-41 32
l-38 35l-42 40l-33 42l-14 21l-23 40l-26 63l-13 28l-21 37l-66 109l-21 33l-4 6l-14 15l-22 24q-42 32 -90 48l-15 5l-21 2q-13 0 -21 -1t-28.5 -6.5t-45.5 -22.5q-16 -8 -38 -33q-8 -7 -18.5 -20.5t-16.5 -21.5v-251q5 14 15 27l11 11l14 11q22 14 65 23h14q40 0 71 -56
l53 -122q18 -41 59 -79q50 -50 83 -65h-823v-280zM1201 -753q43 0 81 33t38 88q0 57 -35 89q-35 30 -88 30q-47 0 -82 -31q-33 -33 -33 -88q0 -19 1 -27.5t7.5 -25.5t26.5 -34q34 -34 84 -34z" />
    <glyph glyph-name="sterling" unicode="&#xf282;" 
d="M469 1194q44 0 81.5 30.5t37.5 89.5q0 53 -37 86l-18 13l-18 10l-24 6l-25 4q-42 0 -83 -31q-35 -30 -35 -88q0 -32 7 -52q3 -10 11 -20l19 -19q38 -29 84 -29zM-75 0h934q0 -141 91 -250q47 -53 103.5 -80t126.5 -27q151 0 262.5 105.5t111.5 251.5v721l-143 -135
l-56 -45q-8 -8 -14.5 -16.5t-15.5 -23.5l-9 -41l-2 -42v-418q0 -54 -35 -89q-31 -37 -78 -37q-24 0 -44 7q-14 3 -40 30q-35 37 -35 89l-11 280l-9 7l-29 19l-41 32l-38 35l-42 40l-33 42l-14 21l-23 40l-26 63l-13 28l-21 37l-66 109l-21 33l-4 6l-14 15l-22 24
q-42 32 -90 48l-15 5l-21 2q-13 0 -21 -1t-28.5 -6.5t-45.5 -22.5q-16 -8 -38 -33q-8 -7 -18.5 -20.5t-16.5 -21.5v-251q5 14 15 27l11 11l14 11q22 14 65 23h14q40 0 71 -56l53 -122q14 -34 54 -72l33 -32l28 -21l27 -19h-821v-280zM1201 -753q43 0 81 33t38 88
q0 57 -35 89q-35 30 -88 30q-47 0 -82 -31q-33 -33 -33 -88q0 -19 1 -27.5t7.5 -25.5t26.5 -34q34 -34 84 -34z" />
    <glyph glyph-name="currency" unicode="&#xf283;" 
d="M383 -361q0 -54 41 -91q9 -7 14 -10t22 -10q11 -4 21 -6t25 -2q42 0 84 32q35 32 35 87q0 53 -37 90q-39 31 -87 31q-40 0 -81 -31q-37 -35 -37 -90zM-92 280v-280h957q0 -73 22.5 -134t68.5 -116q93 -107 231 -107q141 0 256.5 105.5t115.5 251.5v541l-145 -135l-54 -45
l-16 -20l-12 -21l-5 -12l-6 -19l-3 -18v-19v-14v-238q0 -45 -32 -85.5t-80 -40.5t-86 37q-35 40 -35 89l-10 270l-62 38l-47 40l-44 48l-43 59l-14 21l-23 40l-26 63l-13 28l-21 37l-66 109l-21 33l-4 6l-14 15l-22 24q-42 32 -90 48l-15 5l-21 2q-13 0 -21 -1t-28.5 -6.5
t-45.5 -22.5q-16 -8 -38 -33q-8 -7 -18.5 -20.5t-16.5 -21.5v-251q5 14 15 27l11 11l14 11q22 14 65 23h14q40 0 71 -56l53 -122q18 -41 59 -79q50 -50 83 -65h-838zM1272 935q0 -52 35 -88q37 -31 86 -31q44 0 81.5 30.5t37.5 88.5q0 57 -38 91l-20 10l-19 12l-23 6l-26 1
q-44 0 -80 -33q-15 -15 -24.5 -37t-9.5 -50zM1283 1365q0 -58 32.5 -87.5t89.5 -29.5q44 0 81 31q35 32 35 86q0 55 -37 89t-84 34q-40 0 -82 -32q-35 -32 -35 -91z" />
    <glyph glyph-name="yen" unicode="&#xf284;" 
d="M-84 0h949q0 -73 22.5 -134t68.5 -116q93 -107 231 -107q141 0 256.5 105.5t115.5 251.5v541l-145 -135l-54 -45l-16 -20l-12 -21l-5 -12l-6 -19l-3 -18v-19v-14v-238q0 -45 -32 -85.5t-80 -40.5t-86 37q-35 40 -35 89l-10 270l-62 38l-47 40l-44 48l-43 59l-14 21
l-23 40l-26 63l-13 28l-21 37l-66 109l-21 33l-4 6l-14 15l-22 24q-42 32 -90 48l-15 5l-21 2q-13 0 -21 -1t-28.5 -6.5t-45.5 -22.5q-16 -8 -38 -33q-8 -7 -18.5 -20.5t-16.5 -21.5v-251q5 14 15 27l11 11l14 11q22 14 65 23h14q40 0 71 -56l53 -122l9 -20l12 -17l31 -35
l27 -26l31 -28l12 -9l13 -9h-823v-280zM1393 816q44 0 81.5 30.5t37.5 88.5q0 57 -38 91l-20 10l-19 12l-23 6l-26 1q-44 0 -80 -33q-15 -15 -24.5 -37t-9.5 -50q0 -52 35 -88q37 -31 86 -31zM1405 1248q44 0 81 31q35 32 35 86q0 55 -37 89t-84 34q-40 0 -82 -32
q-35 -32 -35 -91q0 -58 32.5 -87.5t89.5 -29.5z" />
    <glyph glyph-name="brokenbar" unicode="&#xf285;" 
d="M469 1180q52 0 82 29q37 31 37 88q0 52 -37 89l-19 14l-19 11q-13 0 -21 3l-26 4q-17 0 -22 -2q-8 0 -25 -8q-18 -6 -34 -22q-37 -32 -37 -89t35 -88q38 -29 86 -29zM-53 0h918q0 -73 22.5 -134t68.5 -116q93 -107 231 -107q141 0 256.5 105.5t115.5 251.5v541l-145 -135
l-54 -45l-16 -20l-12 -21l-5 -12l-6 -19l-3 -18v-19v-14v-238q0 -45 -32 -85.5t-80 -40.5t-86 37q-35 40 -35 89l-10 270l-62 38l-47 40l-44 48l-43 59l-14 21l-23 40l-26 63l-13 28l-21 37l-66 109l-21 33l-4 6l-14 15l-22 24q-42 32 -90 48l-15 5l-21 2q-13 0 -21 -1
t-28.5 -6.5t-45.5 -22.5q-16 -8 -38 -33q-8 -7 -18.5 -20.5t-16.5 -21.5v-251q5 14 15 27l11 11l14 11q22 14 65 23h14q40 0 71 -56l53 -122q9 -22 21 -34l14 -19l17 -19l35 -28l28 -21l21 -16v-7h-793v-280zM1393 816q44 0 81.5 30.5t37.5 88.5q0 57 -38 91l-20 10l-19 12
l-23 6l-26 1q-44 0 -80 -33q-15 -15 -24.5 -37t-9.5 -50q0 -52 35 -88q37 -31 86 -31zM1405 1248q44 0 81 31q35 32 35 86q0 55 -37 89t-84 34q-40 0 -82 -32q-35 -32 -35 -91q0 -58 32.5 -87.5t89.5 -29.5z" />
    <glyph glyph-name="section" unicode="&#xf286;" 
d="M383 -361q0 -54 41 -91q9 -7 14 -10t22 -10q11 -4 21 -6t25 -2q42 0 84 32q35 32 35 87q0 53 -37 90q-39 31 -87 31q-40 0 -81 -31q-37 -35 -37 -90zM-75 280v-280h940q0 -73 22.5 -134t68.5 -116q93 -107 231 -107q141 0 256.5 105.5t115.5 251.5v1598l-148 -107
l-20 -14l-24 -17l-19 -24l-16 -31l-11 -40l-3 -44v-1321q0 -45 -32 -85.5t-80 -40.5t-86 37q-35 40 -35 89l-10 270l-62 38l-21 17l-24 23l-44 48l-45 59l-14 21l-23 40l-26 63l-13 28l-21 37l-66 109l-21 33l-4 6l-14 15l-22 24q-42 32 -90 48l-15 5l-21 2q-13 0 -21 -1
t-28.5 -6.5t-45.5 -22.5q-16 -8 -38 -33q-8 -7 -18.5 -20.5t-16.5 -21.5v-251q5 14 15 27l11 11l14 11q22 14 65 23h14q40 0 71 -56l53 -122q18 -41 59 -79q50 -50 83 -65h-821z" />
    <glyph glyph-name="dieresis" unicode="&#xf287;" 
d="M-39 280v-280h904q0 -73 22.5 -134t68.5 -116q93 -107 231 -107q141 0 256.5 105.5t115.5 251.5v1598l-148 -107l-20 -14l-24 -17l-19 -24l-16 -31l-11 -40l-3 -44v-1321q0 -45 -32 -85.5t-80 -40.5t-86 37q-35 40 -35 89l-10 270l-62 38l-21 17l-24 23l-44 48l-45 59
l-14 21l-23 40l-26 63l-13 28l-21 37l-66 109l-21 33l-4 6l-14 15l-22 24q-42 32 -90 48l-15 5l-21 2q-13 0 -21 -1t-28.5 -6.5t-45.5 -22.5q-16 -8 -38 -33q-8 -7 -18.5 -20.5t-16.5 -21.5v-251q5 14 15 27l11 11l14 11q22 14 65 23h14q40 0 71 -56l53 -122q18 -41 59 -79
q50 -50 83 -65h-785z" />
    <glyph glyph-name="copyright" unicode="&#xf288;" 
d="M-45 280v-280h910q0 -73 22.5 -134t68.5 -116q93 -107 231 -107q141 0 256.5 105.5t115.5 251.5v1598l-148 -107l-20 -14l-24 -17l-19 -24l-16 -31l-11 -40l-3 -44v-1321q0 -45 -32 -85.5t-80 -40.5t-86 37q-35 40 -35 89l-10 270l-62 38l-21 17l-24 23l-44 48l-45 59
l-14 21l-23 40l-26 63l-13 28l-21 37l-66 109l-21 33l-4 6l-14 15l-22 24q-42 32 -90 48l-15 5l-21 2q-13 0 -21 -1t-28.5 -6.5t-45.5 -22.5q-16 -8 -38 -33q-8 -7 -18.5 -20.5t-16.5 -21.5v-251q5 14 15 27l11 11l14 11q22 14 65 23h14q40 0 71 -56l53 -122q18 -41 59 -79
q50 -50 83 -65h-791zM397 1258q0 -55 35 -91q13 -10 37 -20q12 -4 23 -6t26 -2q27 0 44 7l16 9q12 7 19 14q38 36 38 89t-38 91q-34 28 -84 28q-43 0 -81 -28l-15 -19l-11 -23q-4 -9 -6.5 -20t-2.5 -29z" />
    <glyph glyph-name="ordfeminine" unicode="&#xf289;" horiz-adv-x="2160" 
d="M-47 0h982l96 -151v151h1080v254v607l-42 -37l-48 -33q-35 -20 -105 -44l-24 -3l-25 -4l-57 -1l-72 -3q-23 -2 -31 -3t-22 -5q-63 -11 -115 -58q-85 -71 -137 -173l-17 -49l-16 -54q-4 -22 -7 -53t-3 -61h-405l-239 362l-48 74l-24 38l-14 20q-3 6 -26 29l-20 20l-21 17
q-47 35 -105 35q-41 0 -82 -28l-28 -26q-6 -7 -13.5 -16.5t-16.5 -23.5v-240l21 19l30 16l34 8l34 4q48 0 86 -31q20 -14 67 -81l126 -196h-793v-280zM361 -361q0 -20 1 -28.5t7.5 -25.5t26.5 -35q38 -30 85 -30q48 0 84.5 31.5t36.5 87.5q0 53 -37 90q-36 31 -85 31
q-42 0 -83 -31q-36 -32 -36 -90zM1615 280q0 55 9 88q7 34 46 70q63 68 143 68l30 -2l14 -2l24 -5v-217h-266z" />
    <glyph glyph-name="guillemotleft" unicode="&#xf28a;" horiz-adv-x="2145" 
d="M-40 0h980l98 -151v151h1080v254v607l-34 -28l-56 -42l-47 -23l-58 -21l-24 -3l-25 -4l-57 -1l-93 -4l-35 -5q-7 0 -40 -12q-27 -9 -72 -48q-95 -79 -137.5 -172.5t-42.5 -217.5h-405l-238 362l-73 112l-40 48l-41 38q-47 35 -103 35q-43 0 -84 -28q-25 -17 -59 -66v-240
q50 47 119 47q46 0 87 -31l19 -18l14 -17l15 -19l17 -27l129 -196h-794v-280zM1624 280q0 63 7 91q6 31 44 67q24 26 68 49l37 14l25 4l15 1l33 -2l35 -7v-217h-264z" />
    <glyph glyph-name="logicalnot" unicode="&#xf28b;" horiz-adv-x="2160" 
d="M935 0l96 -151v151h1080v254v607l-42 -37l-48 -33q-35 -20 -105 -44l-24 -3l-25 -4l-57 -1l-72 -3q-23 -2 -31 -3t-22 -5q-63 -11 -115 -58q-85 -71 -137 -173l-17 -49l-16 -54q-4 -22 -7 -53t-3 -61h-405l-239 362l-48 74l-24 38l-14 20q-3 6 -26 29l-20 20l-21 17
q-47 35 -105 35q-41 0 -82 -28l-28 -26q-6 -7 -13.5 -16.5t-16.5 -23.5v-240l21 19l30 16l34 8l34 4q48 0 86 -31q20 -14 67 -81l126 -196h-793v-280h982zM303 1290q0 -29 6 -49t31 -40q34 -32 85 -32q36 0 83 32q36 33 36 89q0 51 -36 89q-38 32 -88 32q-43 0 -80 -33
t-37 -88zM1615 280q0 55 9 88q7 34 46 70q63 68 143 68l30 -2l14 -2l24 -5v-217h-266z" />
    <glyph glyph-name="minus" unicode="&#xf28c;" 
d="M383 -361q0 -54 41 -91q9 -7 14 -10t22 -10q11 -4 21 -6t25 -2q42 0 84 32q35 32 35 87q0 53 -37 90q-39 31 -87 31q-40 0 -81 -31q-37 -35 -37 -90zM-55 280v-280h914q0 -141 91 -250q47 -53 103.5 -80t126.5 -27q151 0 262.5 105.5t111.5 251.5v721l-143 -135l-56 -45
q-8 -8 -14.5 -16.5t-15.5 -23.5l-9 -41l-2 -42v-418q0 -54 -35 -89q-31 -37 -78 -37q-24 0 -44 7q-14 3 -40 30q-35 37 -35 89l-11 280l-9 7l-29 19l-41 32l-38 35l-42 40l-33 42l-14 21l-23 40l-26 63l-13 28l-21 37l-66 109l-21 33l-4 6l-14 15l-22 24q-42 32 -90 48
l-15 5l-21 2q-13 0 -21 -1t-28.5 -6.5t-45.5 -22.5q-16 -8 -38 -33q-8 -7 -18.5 -20.5t-16.5 -21.5v-251q5 14 15 27l11 11l14 11q22 14 65 23h14q40 0 71 -56l53 -122q18 -41 59 -79q50 -50 83 -65h-801zM1258 1258q0 -55 39 -91q31 -28 84 -28q42 0 79.5 31.5t37.5 87.5
q0 54 -37 91q-37 28 -84 28q-25 0 -43 -6.5t-39 -21.5q-37 -37 -37 -91z" />
    <glyph glyph-name="registered" unicode="&#xf28d;" 
d="M-168 0h1027q0 -141 91 -250q47 -53 103.5 -80t126.5 -27q151 0 262.5 105.5t111.5 251.5v721l-143 -135l-56 -45q-8 -8 -14.5 -16.5t-15.5 -23.5l-9 -41l-2 -42v-418q0 -54 -35 -89q-31 -37 -78 -37q-24 0 -44 7q-14 3 -40 30q-35 37 -35 89l-11 280l-9 7l-29 19l-41 32
l-38 35l-42 40l-33 42l-14 21l-23 40l-26 63l-13 28l-21 37l-66 109l-21 33l-4 6l-14 15l-22 24q-42 32 -90 48l-15 5l-21 2q-13 0 -21 -1t-28.5 -6.5t-45.5 -22.5q-16 -8 -38 -33q-8 -7 -18.5 -20.5t-16.5 -21.5v-251q5 14 15 27l11 11l14 11q22 14 65 23h14q40 0 71 -56
l53 -122q12 -31 52 -72l28 -26l30 -27l25 -19h-907v-280zM1381 1139q42 0 79.5 31.5t37.5 87.5q0 54 -37 91q-37 28 -84 28q-25 0 -43 -6.5t-39 -21.5q-37 -37 -37 -91q0 -55 39 -91q31 -28 84 -28z" />
    <glyph glyph-name="macron" unicode="&#xf28e;" 
d="M469 1139q24 0 44 6.5t38 23.5q37 31 37 89q0 53 -37 91q-19 14 -39 21t-46 7q-24 0 -42 -6.5t-39 -21.5q-37 -37 -37 -91q0 -32 7 -52q3 -10 11 -20l19 -19q31 -28 84 -28zM-168 0h1027q0 -141 91 -250q47 -53 103.5 -80t126.5 -27q151 0 262.5 105.5t111.5 251.5v721
l-143 -135l-56 -45q-8 -8 -14.5 -16.5t-15.5 -23.5l-9 -41l-2 -42v-418q0 -54 -35 -89q-31 -37 -78 -37q-24 0 -44 7q-14 3 -40 30q-35 37 -35 89l-11 280l-9 7l-29 19l-41 32l-38 35l-42 40l-33 42l-14 21l-23 40l-26 63l-13 28l-21 37l-66 109l-21 33l-4 6l-14 15l-22 24
q-42 32 -90 48l-15 5l-21 2q-13 0 -21 -1t-28.5 -6.5t-45.5 -22.5q-16 -8 -38 -33q-8 -7 -18.5 -20.5t-16.5 -21.5v-251q5 14 15 27l11 11l14 11q22 14 65 23h14q40 0 71 -56l53 -122q9 -22 21 -34l31 -36l28 -23l32 -26l24 -18l2 -7h-910v-280zM1381 1139q42 0 79.5 31.5
t37.5 87.5q0 54 -37 91q-37 28 -84 28q-25 0 -43 -6.5t-39 -21.5q-37 -37 -37 -91q0 -55 39 -91q31 -28 84 -28z" />
    <glyph glyph-name="degree" unicode="&#xf28f;" 
d="M445 -480q17 0 38.5 8t39.5 26q37 31 37 85q0 59 -38 90q-31 31 -84 31q-42 0 -83 -31q-35 -33 -35 -90q0 -51 37 -91q16 -11 39.5 -19.5t48.5 -8.5zM-63 0h858q0 -73 21.5 -134t69.5 -116q93 -107 231 -107q141 0 256.5 105.5t115.5 251.5v721l-143 -135l-54 -45
q-8 -8 -14.5 -16.5t-15.5 -23.5l-5 -20l-6 -19l-1 -44v-418q0 -51 -34 -88q-30 -38 -77 -38q-43 0 -87 37q-35 37 -35 89l-9 280l-9 7l-29 19l-81 67l-44 45l-17 20l-12 15l-21 30l-20 40q-44 106 -56 121l-66 109l-32 43l-28 35q-37 31 -89 48l-17 5l-21 2q-42 0 -91 -28
q-22 -14 -40 -32l-39 -45v-251l4 9l12 16l24 23l32 17l14 3l22 4h9q41 0 75 -56l53 -122q15 -33 60 -78t80 -66h-744v-280zM1139 -753q47 0 81 34q37 32 37 87q0 50 -37 86q-17 14 -40 25q-22 8 -48 8q-45 0 -77 -30q-17 -16 -29 -38q-9 -21 -9 -51q0 -32 7 -52.5t31 -36.5
q35 -32 84 -32zM1426 -753q45 0 81.5 33.5t36.5 87.5q0 57 -35 89q-35 30 -84 30q-51 0 -88 -31q-33 -33 -33 -88q0 -18 1 -26.5t7.5 -25.5t26.5 -37l38 -23z" />
    <glyph glyph-name="plusminus" unicode="&#xf290;" 
d="M-63 0h858q0 -73 21.5 -134t69.5 -116q93 -107 231 -107q141 0 256.5 105.5t115.5 251.5v721l-143 -135l-54 -45q-8 -8 -14.5 -16.5t-15.5 -23.5l-5 -20l-6 -19l-1 -44v-418q0 -51 -34 -88q-30 -38 -77 -38q-43 0 -87 37q-35 37 -35 89l-9 280l-9 7l-29 19l-81 67l-44 45
l-17 20l-12 15l-21 30l-20 40q-44 106 -56 121l-66 109l-32 43l-28 35q-37 31 -89 48l-17 5l-21 2q-42 0 -91 -28q-22 -14 -40 -32l-39 -45v-251l4 9l12 16l24 23l32 17l14 3l22 4h9q41 0 75 -56l53 -122q15 -33 60 -78t80 -66h-744v-280zM1139 -753q47 0 81 34q37 32 37 87
q0 50 -37 86q-17 14 -40 25q-22 8 -48 8q-45 0 -77 -30q-17 -16 -29 -38q-9 -21 -9 -51q0 -32 7 -52.5t31 -36.5q35 -32 84 -32zM1426 -753q45 0 81.5 33.5t36.5 87.5q0 57 -35 89q-35 30 -84 30q-51 0 -88 -31q-33 -33 -33 -88q0 -18 1 -26.5t7.5 -25.5t26.5 -37l38 -23z
" />
    <glyph glyph-name="twosuperior" unicode="&#xf291;" 
d="M418 1181q45 0 83 30q36 38 36 91q0 51 -36 89l-42 23l-24 4l-22 3q-39 0 -80 -31q-37 -37 -37 -88q0 -54 38 -91q39 -30 84 -30zM-63 0h858q0 -73 21.5 -134t69.5 -116q93 -107 231 -107q141 0 256.5 105.5t115.5 251.5v721l-143 -135l-54 -45q-8 -8 -14.5 -16.5
t-15.5 -23.5l-5 -20l-6 -19l-1 -44v-418q0 -51 -34 -88q-30 -38 -77 -38q-43 0 -87 37q-35 37 -35 89l-9 280l-9 7l-29 19l-81 67l-44 45l-17 20l-12 15l-21 30l-20 40q-44 106 -56 121l-66 109l-32 43l-28 35q-37 31 -89 48l-17 5l-21 2q-42 0 -91 -28q-22 -14 -40 -32
l-39 -45v-251l4 9l12 16l24 23l32 17l14 3l22 4h9q41 0 75 -56l53 -122q15 -33 60 -78t80 -66h-744v-280zM1139 -753q47 0 81 34q37 32 37 87q0 50 -37 86q-17 14 -40 25q-22 8 -48 8q-45 0 -77 -30q-17 -16 -29 -38q-9 -21 -9 -51q0 -32 7 -52.5t31 -36.5q35 -32 84 -32z
M1426 -753q45 0 81.5 33.5t36.5 87.5q0 57 -35 89q-35 30 -84 30q-51 0 -88 -31q-33 -33 -33 -88q0 -18 1 -26.5t7.5 -25.5t26.5 -37l38 -23z" />
    <glyph glyph-name="threesuperior" unicode="&#xf292;" horiz-adv-x="1892" 
d="M1286 -282q0 -53 37 -87q35 -35 88 -35q44 0 78 35q37 31 37 87v14q0 9 -2 17q0 9 -7 22q-3 16 -28 38q-35 30 -84 30l-22 -1q-7 0 -23 -8q-21 -7 -39 -23q-35 -33 -35 -89zM469 611q42 0 81 30q18 16 28 38.5t10 50.5q0 56 -35.5 88.5t-86.5 32.5q-42 0 -83 -32
q-35 -30 -35 -89q0 -56 37 -89q29 -30 84 -30zM975 0h1053v280h-162l-2 441l-156 -101q-45 -31 -68 -84l-14 -48l-5 -17l-2 -25v-166h-644v277l-193 -88q-28 -9 -49 -31l-7 -7l-12 -18l-16 -30l-17 -40l-4 -54v-312q0 -85 -68.5 -145t-156.5 -60q-90 0 -161 51t-91 140
l-39 245l-37 -21q-31 -20 -71 -84q-37 -71 -37 -180q0 -162 131 -278q116 -102 305 -125q206 0 364.5 138t158.5 342z" />
    <glyph glyph-name="acute" unicode="&#xf293;" horiz-adv-x="2118" 
d="M989 1096q0 -58 35 -90q17 -14 40 -25q22 -8 47 -8q42 0 80 32.5t38 90.5q0 51 -37 85q-17 16 -38 25t-48 9q-48 0 -80 -30q-37 -37 -37 -89zM1519 973q40 0 81 32q36 32 36 91q0 51 -36 87q-35 32 -88 32q-47 0 -79 -30q-36 -38 -36 -89q0 -57 36 -93q36 -30 86 -30z
M469 611q42 0 81 30q18 16 28 38.5t10 50.5q0 56 -35.5 88.5t-86.5 32.5q-42 0 -83 -32q-35 -30 -35 -89q0 -56 37 -89q29 -30 84 -30zM975 0h1274v280h-166v439l-156 -99q-40 -26 -70 -84l-14 -44l-5 -23v-23v-166h-863v277l-193 -88q-28 -9 -49 -31l-7 -7l-12 -18l-16 -30
l-17 -40l-4 -54v-312q0 -85 -68.5 -145t-156.5 -60q-90 0 -161 51t-91 140l-39 245l-37 -21q-31 -20 -71 -84q-37 -71 -37 -180q0 -162 131 -278q116 -102 305 -125q206 0 364.5 138t158.5 342z" />
    <glyph glyph-name="mu" unicode="&#xf294;" horiz-adv-x="2118" 
d="M1286 -282q0 -53 37 -87q35 -35 88 -35q44 0 78 35q37 31 37 87v14q0 9 -2 17q0 9 -7 22q-3 16 -28 38q-35 30 -84 30l-22 -1q-7 0 -23 -8q-21 -7 -39 -23q-35 -33 -35 -89zM1817 -404q44 0 80 35q37 31 37 87q0 54 -37 91q-36 30 -86 30q-39 0 -78 -31.5t-39 -89.5
q0 -54 38 -88t85 -34zM469 611q42 0 81 30q18 16 28 38.5t10 50.5q0 56 -35.5 88.5t-86.5 32.5q-42 0 -83 -32q-35 -30 -35 -89q0 -56 37 -89q29 -30 84 -30zM975 0h1274v280h-166v439l-156 -99q-40 -26 -70 -84l-14 -44l-5 -23v-23v-166h-863v277l-193 -88q-28 -9 -49 -31
l-7 -7l-12 -18l-16 -30l-17 -40l-4 -54v-312q0 -85 -68.5 -145t-156.5 -60q-90 0 -161 51t-91 140l-39 245l-37 -21q-31 -20 -71 -84q-37 -71 -37 -180q0 -162 131 -278q116 -102 305 -125q206 0 364.5 138t158.5 342z" />
    <glyph glyph-name="paragraph" unicode="&#xf295;" horiz-adv-x="1120" 
d="M928 1579l-153 -76l-15 -10q-13 -3 -27 -23q-22 -17 -42 -52l-10 -41l-4 -42v-1055h-290h-315q-85 0 -144 -65q-43 -47 -73 -154l-16 -89l-7 -98q0 -154 59 -271q72 -132 204 -132h904h11q7 0 13 2q7 0 18 7l18 9l23 14q36 39 36 91v163h-959q-30 0 -54 36q-21 38 -21 81
q0 29 4.5 44t8.5 22.5t12 20.5q21 39 63 39h757z" />
    <glyph glyph-name="periodcentered" unicode="&#xf296;" 
d="M-36 280v-280h901q0 -73 22.5 -134t68.5 -116q93 -107 231 -107q141 0 256.5 105.5t115.5 251.5v719l-145 -136l-54 -46q-18 -15 -28 -40l-11 -24v-14l-3 -46v-413q0 -45 -32 -85.5t-80 -40.5t-86 37q-35 40 -35 89l-3 271v590l-46 -37l-44 -33l-56 -28l-28 -9
q-14 0 -18 -2l-23 -7q-11 -3 -19.5 -4t-26.5 -1l-61 -1h-34h-23l-12 -4l-26 -3q-13 0 -28 -7l-23 -7l-28 -14l-23 -13l-26 -21q-90 -78 -135.5 -174t-45.5 -216h-392zM586 280q0 58 7 82q6 33 46 76q23 26 63 49q40 19 82 19l35 -2l32 -7v-217h-265zM1248 -788q40 0 78 32
q39 30 39 89q0 54 -36 89q-35 32 -88 32q-44 0 -80.5 -31.5t-36.5 -89.5q0 -56 36 -89q32 -32 88 -32z" />
    <glyph glyph-name="cedilla" unicode="&#xf297;" 
d="M-34 280v-280h899q0 -73 22.5 -134t68.5 -116q93 -107 231 -107q141 0 256.5 105.5t115.5 251.5v719l-145 -136l-54 -46q-18 -15 -28 -40l-11 -24v-14l-3 -46v-413q0 -45 -32 -85.5t-80 -40.5t-86 37q-35 40 -35 89l-3 271v590l-46 -37l-44 -33l-56 -28l-28 -9
q-14 0 -18 -2l-23 -7q-11 -3 -19.5 -4t-26.5 -1l-61 -1h-34h-23l-12 -4l-26 -3q-13 0 -28 -7l-23 -7l-28 -14l-23 -13l-26 -21q-87 -75 -136 -169q-3 -7 -13 -36.5t-19 -65.5l-8 -52l-4 -67h-391zM586 280q0 58 7 82q6 33 46 76q23 26 63 49q40 19 82 19l35 -2l32 -7v-217
h-265zM1440 1117q48 0 83 29q36 32 36 88q0 53 -39 87t-85 34q-47 0 -82 -34q-35 -29 -35 -87q0 -57 38 -89q34 -28 84 -28zM1120 1117q51 0 84 30t33 87q0 54 -38 87.5t-82 33.5q-42 0 -80.5 -33t-38.5 -88l1 -30q0 -10 7 -21l7 -17l21 -20l18 -12l26 -14q11 -3 42 -3z" />
    <glyph glyph-name="onesuperior" unicode="&#xf298;" 
d="M-36 280v-280h901q0 -73 22.5 -134t68.5 -116q93 -107 231 -107q141 0 256.5 105.5t115.5 251.5v719l-145 -136l-54 -46q-18 -15 -28 -40l-11 -24v-14l-3 -46v-413q0 -45 -32 -85.5t-80 -40.5t-86 37q-35 40 -35 89l-3 271v590l-46 -37l-44 -33l-56 -28l-28 -9
q-14 0 -18 -2l-23 -7q-11 -3 -19.5 -4t-26.5 -1l-61 -1h-34h-23l-12 -4l-26 -3q-13 0 -28 -7l-23 -7l-28 -14q-14 -6 -23 -14l-25 -20l-24 -21l-22 -22l-33 -39q-30 -33 -55 -81q-10 -20 -18.5 -45t-16.5 -58l-10 -60l-2 -64h-393zM851 280h-265q0 58 7 82q6 33 46 76
q23 26 63 49q40 19 82 19l35 -2l32 -7v-217zM1318 1234q0 -57 38 -89q34 -28 84 -28q48 0 83 29q36 32 36 88q0 53 -39 87t-85 34q-47 0 -82 -34q-35 -29 -35 -87z" />
    <glyph glyph-name="ordmasculine" unicode="&#xf299;" 
d="M-25 280v-280h890q0 -73 22.5 -134t68.5 -116q93 -107 231 -107q141 0 256.5 105.5t115.5 251.5v719l-145 -136l-54 -46q-18 -15 -28 -40l-11 -24v-14l-3 -46v-413q0 -45 -32 -85.5t-80 -40.5t-86 37q-35 40 -35 89l-3 271v590l-46 -37l-44 -33l-56 -28l-28 -9
q-14 0 -18 -2l-23 -7q-11 -3 -19.5 -4t-26.5 -1l-61 -1h-34h-23l-12 -4l-26 -3q-13 0 -28 -7l-23 -7l-28 -14l-23 -13l-26 -21q-43 -39 -78 -82.5t-58 -88.5q-44 -97 -44 -219h-382zM586 280q0 58 7 82q6 33 46 76q23 26 63 49q40 19 82 19l35 -2l32 -7v-217h-265z
M1332 -879q47 0 82 30q15 13 24 35t9 53q0 53 -35 91q-19 12 -40 21q-10 3 -22 5t-25 2q-45 0 -80.5 -30t-35.5 -89q0 -54 39 -90q13 -10 36 -19t48 -9zM1012 -879q45 0 80 30q39 30 39 88q0 51 -41 91l-15 10l-27 12q-12 6 -43 6q-45 0 -79 -28q-39 -36 -39 -91
q0 -51 39 -90q13 -10 37 -20q12 -4 23 -6t26 -2z" />
    <glyph glyph-name="guillemotright" unicode="&#xf29a;" horiz-adv-x="2090" 
d="M670 18q-44 0 -80 29q-15 15 -28 41l-5 26l-4 26q0 52 39 91q35 30 84 30q22 0 42 -6.5t38 -23.5l14 -15l15 -27q10 -22 10 -49q0 -54 -39 -93q-40 -29 -86 -29zM1533 -747q49 0 79 26q35 24 35 68q0 42 -33 74l-37 19l-44 7l-45 -5q-18 -6 -35 -21q-35 -21 -35 -74
q0 -36 31 -68q34 -26 84 -26zM1001 280l-16 32l-26 33l-38 42q-12 10 -29.5 23.5t-37.5 27.5l-24 17l-21 13l-28 15q-32 18 -60 61l-44 88l-42 -86q-21 -42 -63 -63q-15 -6 -31 -15t-30 -20l-30 -23q-15 -9 -29 -26l-46 -47l-30 -35l-28 -37h-395v-280h395
q36 -98 125.5 -160t198.5 -62q107 0 198 62t133 160h934h28l21 7l28 12l21 14q18 14 35 37q8 18 13 49v161l-11 7l-30 19l-84 67l-45 44l-33 38l-20 28l-21 40q-47 114 -56 121l-63 109q-11 23 -31 42l-11 14q-3 5 -21 22l-21 16l-17 11l-23 12l-26 9l-18 5l-19 2
q-45 0 -93 -32q-38 -25 -77 -73v-251q9 22 42 49q16 14 63 23h11q43 0 75 -56l54 -122q16 -33 49 -72l25 -23l33 -26l32 -23h-746z" />
    <glyph glyph-name="onequarter" unicode="&#xf29b;" horiz-adv-x="2090" 
d="M670 18q-44 0 -80 29q-15 15 -28 41l-5 26l-4 26q0 52 39 91q35 30 84 30q22 0 42 -6.5t38 -23.5l14 -15l15 -27q10 -22 10 -49q0 -54 -39 -93q-40 -29 -86 -29zM1001 280l-16 32l-26 33l-38 42q-12 10 -29.5 23.5t-37.5 27.5l-24 17l-21 13l-28 15q-32 18 -60 61l-44 88
l-42 -86q-21 -42 -63 -63q-15 -6 -31 -15t-30 -20l-30 -23q-15 -9 -29 -26l-46 -47l-30 -35l-28 -37h-395v-280h395q36 -98 125.5 -160t198.5 -62q107 0 198 62t133 160h934h28l21 7l28 12l21 14q18 14 35 37q8 18 13 49v161l-11 7l-30 19l-84 67l-45 44l-33 38l-20 28
l-21 40q-47 114 -56 121l-63 109q-11 23 -31 42l-11 14q-3 5 -21 22l-21 16l-17 11l-23 12l-26 9l-18 5l-19 2q-45 0 -93 -32q-38 -25 -77 -73v-251q9 22 42 49q16 14 63 23h11q43 0 75 -56l54 -122q16 -33 49 -72l25 -23l33 -26l32 -23h-746z" />
    <glyph glyph-name="onehalf" unicode="&#xf29c;" horiz-adv-x="2090" 
d="M670 18q-44 0 -80 29q-15 15 -28 41l-5 26l-4 26q0 52 39 91q35 30 84 30q22 0 42 -6.5t38 -23.5l14 -15l15 -27q10 -22 10 -49q0 -54 -39 -93q-40 -29 -86 -29zM1468 1230q27 0 41 4.5t20 8t18 12.5q37 25 37 70q0 40 -33 73q-35 27 -83 27q-36 0 -78 -27
q-15 -9 -25 -28l-6 -22l-4 -23q0 -41 33 -70q17 -11 37.5 -18t42.5 -7zM1001 280l-16 32l-26 33l-38 42q-12 10 -29.5 23.5t-37.5 27.5l-24 17l-21 13l-28 15q-32 18 -60 61l-44 88l-42 -86q-21 -42 -63 -63q-15 -6 -31 -15t-30 -20l-30 -23q-15 -9 -29 -26l-46 -47l-30 -35
l-28 -37h-395v-280h395q36 -98 125.5 -160t198.5 -62q107 0 198 62t133 160h934h28l21 7l28 12l21 14q18 14 35 37q8 18 13 49v161l-11 7l-30 19l-84 67l-45 44l-33 38l-20 28l-21 40q-47 114 -56 121l-63 109q-11 23 -31 42l-11 14q-3 5 -21 22l-21 16l-17 11l-23 12l-26 9
l-18 5l-19 2q-45 0 -93 -32q-38 -25 -77 -73v-251q9 22 42 49q16 14 63 23h11q43 0 75 -56l54 -122q16 -33 49 -72l25 -23l33 -26l32 -23h-746z" />
    <glyph glyph-name="threequarters" unicode="&#xf29d;" 
d="M-45 280v-280h910q0 -73 22.5 -134t68.5 -116q93 -107 231 -107q141 0 256.5 105.5t115.5 251.5v1598l-148 -107l-20 -14l-24 -17l-19 -24l-16 -31l-11 -40l-3 -44v-1321q0 -45 -32 -85.5t-80 -40.5t-86 37q-35 40 -35 89l-3 254v607l-46 -35l-44 -35l-50 -24l-63 -20
l-56 -5l-60 -3h-33q-22 0 -33 -4q-21 0 -28 -2q-8 0 -21 -7q-62 -15 -111 -56q-46 -43 -80.5 -88t-57.5 -90q-42 -87 -42 -212h-402zM851 280h-265q0 58 7 82q6 33 46 76q23 26 63 49q40 19 82 19l35 -2l32 -7v-217z" />
    <glyph glyph-name="questiondown" unicode="&#xf29e;" horiz-adv-x="2156" 
d="M-48 280v-280h445q39 -103 126 -163q42 -29 91 -44t107 -15q104 0 203 63q41 24 72 66q30 36 54 93h999q20 0 37 12l28 27q21 21 37 64l5 76v682l-31 -28l-56 -42q-15 -9 -38 -18.5t-52 -19.5l-24 -5l-33 -6l-83 -3h-33q-22 0 -33 -4q-20 0 -26 -2q-7 0 -21 -7
q-66 -15 -111 -56q-79 -68 -134 -173l-23 -61l-12 -42q-11 -57 -11 -114h-387l-17 32q-10 16 -25.5 34t-39.5 41l-28 26l-6 5l-27 20l-33 21l-42 22q-17 9 -39 34l-15 22l-16 28l-37 67l-42 -86q-21 -38 -61 -63q-58 -29 -119 -84l-41 -40l-17 -18l-19 -24l-11 -16l-16 -21
h-445zM840 140q0 -52 -38 -93q-32 -29 -83 -29q-41 0 -82 31q-35 35 -35 91q0 52 33 88q18 15 39 24t49 9q42 0 79.5 -32t37.5 -89zM1930 280h-267l1 54q0 20 8 44t47 60q24 30 62.5 49t80.5 19l30 -2l38 -7v-217z" />
    <glyph glyph-name="Agrave" unicode="&#xf29f;" horiz-adv-x="1082" 
d="M688 525q-22 0 -49 21l-18 26l-5 30q0 25 23 51q18 18 52 23h149v-151h-152zM830 1426q-48 0 -86 -31q-37 -28 -37 -88q0 -50 39 -91q13 -11 35 -20q11 -4 20.5 -6t22.5 -2q50 0 86 30q37 28 37 89q0 57 -34.5 88t-82.5 31zM1082 0v971q-5 -6 -20 -19.5t-25 -21.5
q-16 -12 -25 -18t-30 -18l-28 -12l-25 -9l-22 -5l-16 -3h-12h-268q-87 0 -159 -82.5t-72 -185.5q0 -55 16 -97q8 -24 19 -44t31 -46q63 -83 156 -83h238v-47h-840q-101 0 -158 -127t-57 -279q0 -76 15 -145q7 -38 18 -66q5 -15 11 -28.5t17 -31.5q68 -132 200 -132h918
q28 0 42 9l18 9l21 14l16 21l10 21l7 21l4 28v163h-970q-31 0 -58 40l-13 37l-4 40q0 45 21 87q27 39 65 39h959zM452 -816q0 -47 35 -82q16 -10 38 -20q21 -8 40 -8q41 0 76 30q35 27 35 80q0 46 -35 81q-12 9 -32 16t-47 7q-48 0 -79 -27t-31 -77zM950 -926q22 0 36.5 5.5
t22 10t18.5 14.5q35 26 35 80q0 42 -36 81q-12 9 -32 16t-47 7q-26 0 -46 -7l-17 -8l-14 -12q-37 -31 -37 -77q0 -28 7 -45q3 -10 10 -18l20 -19l30 -17l20 -8z" />
    <glyph glyph-name="Aacute" unicode="&#xf2a1;" horiz-adv-x="1797" 
d="M1955 280h-158v233v21l-5 47q0 29 -14 42l-14 16l-45 42q-30 24 -70 44.5t-90 20.5h-813q-15 0 -35 -5q-4 -1 -35 -11l-44 -16l-23 -12l-37 -23q-31 -20 -52 -51v970l-140 -82l-23 -14l-21 -18l-24 -28l-16 -24l-11 -41l-1 -45v-1066h-212v-280h1895zM520 280v212h894
q32 0 56.5 -6.5t41.5 -23.5q22 -14 32 -35q15 -21 15 -44v-103h-1039z" />
    <glyph glyph-name="Acircumflex" unicode="&#xf2a2;" horiz-adv-x="2063" 
d="M784 1598l-142 -82q-17 -6 -21 -14l-22 -18l-18 -21l-24 -31l-7 -41l-4 -45v-1066h-329l-98 -280h1822l24 1q10 2 21 8l37 24l19 18l13 21l3 14l5 33v394q0 77 -21 110l-59 58l-19 14l-20 12l-14 9l-22 14q-38 16 -84 16h-814h-26l-30 -11l-18 -5q-7 0 -10 -4l-26 -12
l-39 -17l-24 -16l-27 -23l-26 -30v970zM1824 280h-1040v212h893q27 0 35 -2q9 0 22 -7q22 -5 42 -23l20 -18l17 -22l7 -17l4 -20v-103z" />
    <glyph glyph-name="Atilde" unicode="&#xf2a3;" horiz-adv-x="1967" 
d="M672 1598l-140 -82l-28 -20l-28 -26q-18 -18 -28 -38l-3 -18l-4 -16l-3 -52v-1066h-526v-280h1920l24 1q9 2 18 8l18 9l21 15l14 18l16 24l8 44v394q0 81 -19 110l-3 5l-13 13l-22 18l-21 22l-35 24l-41 23q-36 18 -85 18h-814q-23 0 -68 -16l-46 -16l-28 -16l-33 -19
l-51 -51v970zM1712 280h-1040v212h894l28 -2q15 0 34 -5q15 -6 35 -23l33 -35l12 -21l4 -23v-103zM1197 1332q0 -57 35 -89t86 -32q42 0 79.5 31.5t37.5 89.5q0 57 -32.5 87t-88.5 30q-44 0 -80.5 -28t-36.5 -89z" />
    <glyph glyph-name="Adieresis" unicode="&#xf2a4;" horiz-adv-x="1797" 
d="M1827 280h-156v233q0 89 -31 124l-49 44l-34 25q-12 9 -38 22l-40 12l-46 6h-813l-27 -2q-9 0 -29 -9q-9 0 -26 -7l-32 -16l-31 -14q-17 -8 -30 -19l-25 -23l-26 -28v970l-142 -82q-21 -10 -42 -32l-26 -28l-16 -24l-9 -42l-1 -44v-1066h-214v-280h1883v280zM394 280v212
h896l24 -2l32 -7q16 -3 37 -20q21 -15 36 -36l9 -21l5 -23v-103h-1039zM917 1332q0 -57 35 -89t86 -32q44 0 80.5 31.5t36.5 89.5q0 32 -7 49q-3 16 -30 40q-31 28 -82 28q-48 0 -83.5 -29.5t-35.5 -87.5z" />
    <glyph glyph-name="Aring" unicode="&#xf2a5;" horiz-adv-x="1797" 
d="M1955 280h-158v233v21l-5 47q0 29 -14 42l-14 16l-45 42q-30 24 -70 44.5t-90 20.5h-813q-15 0 -35 -5q-4 -1 -35 -11l-44 -16l-23 -12l-37 -23q-31 -20 -52 -51v970l-140 -82l-23 -14l-21 -18l-24 -28l-16 -24l-11 -41l-1 -45v-1066h-212v-280h1883v280zM520 280v212
h894q32 0 56.5 -6.5t41.5 -23.5q22 -14 32 -35q15 -21 15 -44v-103h-1039zM1045 1332q0 -18 2 -25q0 -14 4.5 -29.5t30.5 -36.5q33 -30 84 -30q44 0 82 32q35 32 35 89q0 54 -35 86q-31 31 -88 31q-41 0 -78 -29.5t-37 -87.5z" />
    <glyph glyph-name="AE" unicode="&#xf2a6;" horiz-adv-x="2063" 
d="M784 1598l-142 -82q-17 -6 -21 -14l-22 -18l-18 -21l-24 -31l-7 -41l-4 -45v-1066h-329l-98 -280h1822l24 1q10 2 21 8l37 24l19 18l13 21l3 14l5 33v394q0 77 -21 110l-59 58l-19 14l-20 12l-14 9l-22 14q-38 16 -84 16h-814h-26l-30 -11l-18 -5q-7 0 -10 -4l-26 -12
l-39 -17l-24 -16l-27 -23l-26 -30v970zM1824 280h-1040v212h893q27 0 35 -2q9 0 22 -7q22 -5 42 -23l20 -18l17 -22l7 -17l4 -20v-103zM1307 1332q0 -33 7 -53l7 -13q8 -13 23 -25q7 -7 37 -23l19 -5l32 -2l21 1q7 0 24 6.5t33 25.5q37 31 37 88t-35 86q-34 31 -87 31
q-45 0 -83 -30q-35 -30 -35 -87z" />
    <glyph glyph-name="Ccedilla" unicode="&#xf2a7;" horiz-adv-x="1082" 
d="M-41 280v-280h1289v280h-464l-23 2l-19 7l-21 9l-17 10q-24 16 -58 70l-11 21l-8 25l-6 36q0 36 32 39h429v409l-72 -103q-5 -5 -35 -17l-21 -4h-23l-40 -3l-44 -7l-51 -4l-122 7l-42 5h-28q-56 0 -89 -12q-38 -11 -58 -28l-23 -21l-16 -17l-24 -32l-12 -19l-11 -18
l-17 -52l-6 -23v-31v-21q0 -10 4 -21l4 -27l10 -28l19 -52l21 -47l28 -53h-475z" />
    <glyph glyph-name="Egrave" unicode="&#xf2a8;" horiz-adv-x="1082" 
d="M-35 280v-280h1283v280h-464l-23 2l-19 7l-21 9l-17 10q-24 16 -58 70l-11 21l-8 25l-6 36q0 36 32 39h429v409l-72 -103q-5 -5 -35 -17l-21 -4h-23l-40 -3l-44 -7l-51 -4l-122 7l-42 5h-28q-56 0 -89 -12q-38 -11 -58 -28l-23 -21l-16 -17l-24 -32l-12 -19l-11 -18
l-17 -52l-6 -23v-31v-21q0 -10 4 -21l4 -27l10 -28l19 -52l21 -47l28 -53h-469z" />
    <glyph glyph-name="Eacute" unicode="&#xf2a9;" horiz-adv-x="1197" 
d="M905 280l-25 4l-17 5q-7 0 -11 2l-5 5l-23 12l-26 25l-16 23l-14 19q-26 55 -26 85q0 17 5 27q5 6 28 12h422v399l-65 -88q-3 -8 -33 -22l-54 -6l-19 -1h-16l-60 -4l-42 -2h-47l-49 2l-41 -1l-41 -1l-41 -1q-10 0 -16 -1t-24 -6q-22 -3 -42 -12t-43 -27q-42 -24 -72 -93
l-7 -19l-4 -17l-7 -21l-1 -13l-5 -26l-2 -35q0 -54 21 -117q11 -27 27 -54q9 -14 16 -23.5t23 -29.5q-165 0 -283 -121q-57 -57 -87.5 -128.5t-30.5 -156.5q0 -166 118 -285q62 -60 133 -90q18 -7 42 -13q8 -2 28.5 -6.5t38.5 -6.5t41 -2h529q22 0 42 7l22 13l18 12
q13 13 26 42l5 23l2 26v163h-717q-33 0 -56 38q-20 38 -20 79q0 45 21 85.5t63 40.5h877v280h-460z" />
    <glyph glyph-name="Ecircumflex" unicode="&#xf2aa;" horiz-adv-x="1197" 
d="M152 -126q0 -166 118 -285q62 -60 133 -90q18 -7 42 -13q8 -2 28.5 -6.5t38.5 -6.5t41 -2h529q22 0 42 7l22 13l16 12l18 21l8 21l7 23l2 26v163h-717q-33 0 -56 38q-20 38 -20 79q0 45 21 85.5t63 40.5h550l61 5q27 6 49 25q49 37 49 101v149h-292q-21 0 -37 5l-24 11
l-18 10l-16 14l-14 18l-28 42q-26 58 -26 82q0 9 7 26q8 11 26 11h422v399l-65 -88q-3 -8 -33 -22l-54 -6l-19 -1h-16l-56 -4l-39 -2l-59 2h-58l-37 -1l-36 -1q-24 0 -34 -2q-14 0 -29 -5q-17 -2 -25 -5l-27 -7q-17 -3 -55 -31q-30 -21 -63 -90l-11 -33l-8 -37l-5 -29
l-2 -35q0 -51 21 -114q5 -14 10 -24.5t14.5 -25.5t19 -28t22.5 -29q-165 0 -283 -121q-57 -57 -87.5 -128.5t-30.5 -156.5z" />
    <glyph glyph-name="Edieresis" unicode="&#xf2ab;" horiz-adv-x="1082" 
d="M-36 280v-280h1284v280h-464l-23 2l-19 7l-21 9l-17 10q-24 16 -58 70l-11 21l-8 25l-6 36q0 36 32 39h429v409l-72 -103q-5 -5 -35 -17l-21 -4h-23l-40 -3l-44 -7l-51 -4l-122 7l-42 5h-28q-56 0 -89 -12q-38 -11 -58 -28l-23 -21l-16 -17l-24 -32l-12 -19l-11 -18
l-17 -52l-6 -23v-31v-21q0 -10 4 -21l4 -27l10 -28l19 -52l21 -47l28 -53h-470zM670 1272q0 -57 35 -91q38 -29 90 -29q46 0 81.5 30.5t35.5 89.5q0 51 -38.5 85t-84.5 34q-48 0 -83.5 -33t-35.5 -86z" />
    <glyph glyph-name="Igrave" unicode="&#xf2ac;" horiz-adv-x="1082" 
d="M-30 280v-280h1278v280h-464l-23 2l-19 7l-21 9l-17 10q-24 16 -58 70l-11 21l-8 25l-6 36q0 36 32 39h429v409l-72 -103q-5 -5 -35 -17l-21 -4h-23l-40 -3l-44 -7l-51 -4l-122 7l-42 5h-28q-56 0 -89 -12q-38 -11 -58 -28l-23 -21l-16 -17l-24 -32l-12 -19l-11 -18
l-17 -52l-6 -23v-31v-21q0 -10 4 -21l4 -27l10 -28l19 -52l21 -47l28 -53h-464zM670 1272q0 -57 35 -91q38 -29 90 -29q46 0 81.5 30.5t35.5 89.5q0 51 -38.5 85t-84.5 34q-48 0 -83.5 -33t-35.5 -86z" />
    <glyph glyph-name="Iacute" unicode="&#xf2ad;" horiz-adv-x="1197" 
d="M1365 280h-460q-20 0 -40 7l-41 21l-26 25l-16 23l-14 19q-26 55 -26 85q0 17 5 27q5 6 28 12h422v399l-65 -88q-3 -8 -33 -22l-54 -6l-19 -1h-16l-60 -4l-42 -2h-47l-49 2l-41 -1l-41 -1l-41 -1q-10 0 -16 -1t-24 -6q-22 -3 -42 -12t-43 -27q-42 -24 -72 -93l-7 -19
l-4 -17l-7 -21l-1 -13l-5 -26l-2 -35q0 -54 21 -117q11 -27 27 -54q9 -14 16 -23.5t23 -29.5q-165 0 -283 -121q-57 -57 -87.5 -128.5t-30.5 -156.5q0 -166 118 -285q62 -60 133 -90q18 -7 42 -13q8 -2 28.5 -6.5t38.5 -6.5t41 -2h529q22 0 42 7l22 13l18 12q13 13 26 42
l5 23l2 26v163h-717q-33 0 -56 38q-20 38 -20 79q0 45 21 85.5t63 40.5h877v280zM816 1295q0 -53 38 -91q13 -10 37 -20q12 -4 23 -6t26 -2q41 0 79 30q12 9 24 35.5t12 53.5q0 53 -38 91q-16 15 -36.5 21.5t-45.5 6.5q-49 0 -84 -30.5t-35 -88.5z" />
    <glyph glyph-name="Icircumflex" unicode="&#xf2ae;" horiz-adv-x="1197" 
d="M152 -126q0 -166 118 -285q62 -60 133 -90q18 -7 42 -13q8 -2 28.5 -6.5t38.5 -6.5t41 -2h529q22 0 42 7l22 13l16 12l18 21l8 21l7 23l2 26v163h-717q-33 0 -56 38q-20 38 -20 79q0 45 21 85.5t63 40.5h550l61 5q27 6 49 25q49 37 49 101v149h-292q-21 0 -37 5l-24 11
l-18 10l-16 14l-14 18l-28 42q-26 58 -26 82q0 9 7 26q8 11 26 11h422v399l-65 -88q-3 -8 -33 -22l-54 -6l-19 -1h-16l-56 -4l-39 -2l-59 2h-58l-37 -1l-36 -1q-24 0 -34 -2q-14 0 -29 -5q-17 -2 -25 -5l-27 -7q-17 -3 -55 -31q-30 -21 -63 -90l-11 -33l-8 -37l-5 -29
l-2 -35q0 -51 21 -114q5 -14 10 -24.5t14.5 -25.5t19 -28t22.5 -29q-165 0 -283 -121q-57 -57 -87.5 -128.5t-30.5 -156.5zM816 1295q0 -53 38 -91q13 -10 37 -20q12 -4 23 -6t26 -2q41 0 79 30q12 9 24 35.5t12 53.5q0 53 -38 91q-16 15 -36.5 21.5t-45.5 6.5
q-49 0 -84 -30.5t-35 -88.5z" />
    <glyph glyph-name="Idieresis" unicode="&#xf2af;" horiz-adv-x="1160" 
d="M-60 280v-280h1142v931q-38 -36 -100 -66l-49 -20l-26 -5l-28 -3h-268q-92 0 -163 -69l-21 -26l-28 -51q-4 -10 -6.5 -16.5t-7 -26.5t-5 -29t-0.5 -15q0 -87 63 -165q63 -71 159 -71h238v-88h-900zM840 541h-152q-29 0 -51 19q-21 21 -21 47q0 21 21 42t54 21h149v-129z
M947 1307q0 57 -34.5 88t-82.5 31t-86 -31q-37 -28 -37 -88q0 -50 39 -91q13 -11 35 -20q11 -4 20.5 -6t22.5 -2q50 0 86 30q37 28 37 89z" />
    <glyph glyph-name="Eth" unicode="&#xf2b0;" horiz-adv-x="1130" 
d="M-90 280v-280h1338v280h-166v651q-38 -36 -100 -66l-49 -20l-26 -5l-28 -3h-268q-92 0 -163 -69l-21 -26l-28 -51q-4 -10 -6.5 -16.5t-7 -26.5t-5 -29t-0.5 -15q0 -87 63 -165q63 -71 159 -71h238v-88h-930zM840 541h-152q-29 0 -51 19q-21 21 -21 47q0 21 21 42t54 21
h149v-129zM947 1307q0 57 -34.5 88t-82.5 31t-86 -31q-37 -28 -37 -88q0 -50 39 -91q13 -11 35 -20q11 -4 20.5 -6t22.5 -2q50 0 86 30q37 28 37 89z" />
    <glyph glyph-name="Ntilde" unicode="&#xf2b1;" horiz-adv-x="1729" 
d="M1845 0v280h-168v768l-8 -11l-12 -10l-22 -21l-23 -14l-28 -12l-30 -12l-28 -11l-21 -3l-26 -2h-310q-94 0 -161.5 -72.5t-67.5 -167.5q0 -25 3 -46t11 -43q14 -39 47 -80q65 -76 156 -76h241v-187h-1013v289l-185 -110q-28 -9 -42 -32q-12 -8 -19 -17l-13 -23l-16 -42
l-1 -25v-24v-177q0 -19 1.5 -26.5t12.5 -22.5l15 -19l16 -18l39 -24l15 -4l30 -5h1607zM1398 646h-150h-16q-8 3 -11 4q-10 4 -26 15q-22 19 -22 47q0 24 24 48l9 6l14 8l31 7h147v-135zM1258 1404q0 -54 39 -93q37 -28 84 -28q41 0 80 30q37 31 37 91v13v8q-2 5 -2 7
q0 8 -7 21q-3 15 -28 40q-13 10 -36 19t-48 9q-45 0 -82 -30.5t-37 -86.5z" />
    <glyph glyph-name="Ograve" unicode="&#xf2b2;" horiz-adv-x="1677" 
d="M238 0h1353l21 5l17 16l18 19q15 22 28 65l2 33v41v903q-31 -44 -93 -76l-65 -21l-40 -5h-310q-94 0 -161.5 -81t-67.5 -178q0 -100 61 -182q30 -39 69.5 -59.5t86.5 -20.5h241v-179h-1013v289l-185 -110q-28 -9 -42 -32q-12 -8 -19 -17l-13 -23l-16 -42l-1 -25v-24v-177
q0 -19 1.5 -26.5t12.5 -22.5l15 -19l16 -18l39 -24l15 -4zM1398 649h-150q-24 0 -54 21q-21 21 -21 53q0 27 19 47q8 7 20.5 13t38.5 12h147v-146zM1248 1449q0 -29 6 -47t31 -42q16 -14 35 -21t47 -7q50 0 82 30q39 36 39 87q0 52 -37 88q-39 33 -86 33q-46 0 -84 -32
q-33 -30 -33 -89z" />
    <glyph glyph-name="Oacute" unicode="&#xf2b3;" horiz-adv-x="1145" 
d="M646 1307q0 31 -6.5 49t-26.5 41q-35 29 -83 29q-26 0 -45 -6t-40 -22q-39 -33 -39 -91q0 -54 35 -89q36 -30 84 -30q54 0 88 28q33 30 33 91zM1031 1307q0 50 -33 86q-15 15 -36.5 24t-46.5 9q-53 0 -88.5 -29.5t-35.5 -89.5q0 -51 37 -91q15 -12 36 -21q11 -3 21 -5
t23 -2q50 0 88 30q35 32 35 89zM-60 280v-280h1142v931q-38 -36 -100 -66l-49 -20l-26 -5l-28 -3h-268q-92 0 -163 -69l-21 -26l-28 -51q-4 -10 -6.5 -16.5t-7 -26.5t-5 -29t-0.5 -15q0 -87 63 -165q63 -71 159 -71h238v-88h-900zM840 541h-152q-29 0 -51 19q-21 21 -21 47
q0 21 21 42t54 21h149v-129z" />
    <glyph glyph-name="Ocircumflex" unicode="&#xf2b4;" horiz-adv-x="1110" 
d="M-30 280v-280h1278v280h-166v651q-38 -36 -100 -66l-49 -20l-26 -5l-28 -3h-268q-92 0 -163 -69l-21 -26l-28 -51q-4 -10 -6.5 -16.5t-7 -26.5t-5 -29t-0.5 -15q0 -87 63 -165q63 -71 159 -71h238v-88h-870zM840 541h-152q-29 0 -51 19q-21 21 -21 47q0 21 21 42t54 21
h149v-129zM646 1307q0 31 -6.5 49t-26.5 41q-35 29 -83 29q-26 0 -45 -6t-40 -22q-39 -33 -39 -91q0 -54 35 -89q36 -30 84 -30q54 0 88 28q33 30 33 91zM1031 1307q0 50 -33 86q-15 15 -36.5 24t-46.5 9q-53 0 -88.5 -29.5t-35.5 -89.5q0 -51 37 -91q15 -12 36 -21
q11 -3 21 -5t23 -2q50 0 88 30q35 32 35 89z" />
    <glyph glyph-name="Otilde" unicode="&#xf2b5;" horiz-adv-x="1197" 
d="M1318 0v280h-121v635l-19 -22l-23 -21l-24 -16l-32 -18l-49 -19l-30 -9h-26h-266q-86 0 -156.5 -78t-70.5 -181q0 -50 14.5 -92.5t46.5 -85.5q61 -82 159 -82h238v-387q0 -93 -103 -142l-44 -15l-51 -15q-55 -10 -117 -10q-114 0 -198 36q-98 42 -98 133v340l-57 -28
q-24 -16 -49 -42l-41 -42q-4 -6 -12.5 -21.5t-16.5 -29.5l-18 -52l-9 -55l-1 -73q0 -182 145 -306q127 -109 336 -133l37 -2q124 0 253 65q54 24 105.5 63.5t96.5 84.5q36 45 58 89t22 83v168h121zM959 481h-131q-31 0 -61 20q-24 19 -32 52q0 24 28 49q31 23 65 23h131
v-144zM480 1272q0 -57 38 -92q34 -28 84 -28q24 0 39.5 5t23 9.5t18.5 14.5l15 18l14 21l6 30l3 22q0 50 -39 84.5t-85 34.5q-48 0 -79 -31q-38 -33 -38 -88zM886 1272q0 -56 40 -92l35 -21q11 -3 22.5 -5t26.5 -2q44 0 82 31q33 33 33 89q0 27 -7.5 47.5t-26 36.5t-39.5 25
l-25 6l-24 4q-26 0 -44 -6.5t-38 -26.5q-35 -32 -35 -86z" />
    <glyph glyph-name="Odieresis" unicode="&#xf2b6;" horiz-adv-x="1197" 
d="M480 1272q0 -57 38 -92q34 -28 84 -28q24 0 39.5 5t23 9.5t18.5 14.5l15 18l14 21l6 30l3 22q0 50 -39 84.5t-85 34.5q-48 0 -79 -31q-38 -33 -38 -88zM1197 915l-19 -22l-23 -21l-24 -16l-32 -18l-49 -19l-30 -9h-26h-266q-86 0 -156.5 -78t-70.5 -181q0 -50 14.5 -92.5
t46.5 -85.5q61 -82 159 -82h238v-387q0 -93 -103 -142l-44 -15l-51 -15q-55 -10 -117 -10q-114 0 -198 36q-98 42 -98 133v340l-57 -28q-24 -16 -49 -42l-41 -42q-4 -6 -12.5 -21.5t-16.5 -29.5l-18 -52l-9 -55l-1 -73q0 -182 145 -306q127 -109 336 -133l37 -2
q124 0 253 65q54 24 105.5 63.5t96.5 84.5q36 45 58 89t22 83v168v915zM959 481h-131q-31 0 -61 20q-24 19 -32 52q0 24 28 49q31 23 65 23h131v-144zM886 1272q0 -56 40 -92l35 -21q11 -3 22.5 -5t26.5 -2q44 0 82 31q33 33 33 89q0 27 -7.5 47.5t-26 36.5t-39.5 25l-25 6
l-24 4q-26 0 -44 -6.5t-38 -26.5q-35 -32 -35 -86z" />
    <glyph glyph-name="multiply" unicode="&#xf2b7;" horiz-adv-x="1677" 
d="M-34 0h1593l39 5l26 11l19 17q10 6 14 14l11 23l5 21q0 16 4 28v406q0 89 -28 124l-49 42q-34 34 -77 51l-41 12l-43 6h-569l-23 3l-21 12q-14 12 -24 41l-4 14q0 11 21 40l82 49l559 306l28 79l-1245 -583l-16 -13l-19 -24l-8 -17l-7 -28l-6 -32l-1 -21l3 -35l9 -33
h1097q33 0 53 -7q23 -5 43 -23l14 -14l20 -21q9 -13 14 -43v-130h-1473v-280z" />
    <glyph glyph-name="Oslash" unicode="&#xf2b8;" horiz-adv-x="1671" 
d="M1712 280h-168v245q0 57 -11 86q-3 27 -65 80l-29 27l-39 24l-28 11l-28 5l-26 2h-527q-18 0 -24.5 2t-18.5 13.5t-25 40.5v14q0 26 33 52l21 14l42 23l516 306l27 79l-1159 -583l-17 -16l-16 -21l-6 -21l-6 -24l-6 -21l-1 -32v-15v-18l8 -35h1024q30 0 51 -7
q25 -5 42 -23l11 -11l20 -24q11 -19 11 -43v-130h-1386v-280h1780v280z" />
    </font>
</defs>
</svg>
